<?xml version="1.0" encoding="utf-8" standalone="no"?>
<!DOCTYPE svg PUBLIC "-//W3C//DTD SVG 1.1//EN"
  "http://www.w3.org/Graphics/SVG/1.1/DTD/svg11.dtd">
<svg xmlns:xlink="http://www.w3.org/1999/xlink" width="1144.710625pt" height="424.440625pt" viewBox="0 0 1144.710625 424.440625" xmlns="http://www.w3.org/2000/svg" version="1.1">
 <metadata>
  <rdf:RDF xmlns:dc="http://purl.org/dc/elements/1.1/" xmlns:cc="http://creativecommons.org/ns#" xmlns:rdf="http://www.w3.org/1999/02/22-rdf-syntax-ns#">
   <cc:Work>
    <dc:type rdf:resource="http://purl.org/dc/dcmitype/StillImage"/>
    <dc:date>2026-04-19T20:34:14.660876</dc:date>
    <dc:format>image/svg+xml</dc:format>
    <dc:creator>
     <cc:Agent>
      <dc:title>Matplotlib v3.9.0, https://matplotlib.org/</dc:title>
     </cc:Agent>
    </dc:creator>
   </cc:Work>
  </rdf:RDF>
 </metadata>
 <defs>
  <style type="text/css">*{stroke-linejoin: round; stroke-linecap: butt}</style>
 </defs>
 <g id="figure_1">
  <g id="patch_1">
   <path d="M 0 424.440625 
L 1144.710625 424.440625 
L 1144.710625 0 
L 0 0 
z
" style="fill: #ffffff"/>
  </g>
  <g id="axes_1">
   <g id="patch_2">
    <path d="M 54.968125 384.5775 
L 555.458125 384.5775 
L 555.458125 25.3575 
L 54.968125 25.3575 
z
" style="fill: #ffffff"/>
   </g>
   <g id="matplotlib.axis_1">
    <g id="xtick_1">
     <g id="line2d_1">
      <path d="M 115.328728 384.5775 
L 115.328728 25.3575 
" clip-path="url(#pd3d804a412)" style="fill: none; stroke: #cccccc; stroke-width: 0.8; stroke-linecap: round"/>
     </g>
     <g id="line2d_2"/>
     <g id="text_1">
      <!-- 25 -->
      <g style="fill: #262626" transform="translate(107.693728 397.195625) scale(0.12 -0.12)">
       <defs>
        <path id="DejaVuSans-32" d="M 1228 531 
L 3431 531 
L 3431 0 
L 469 0 
L 469 531 
Q 828 903 1448 1529 
Q 2069 2156 2228 2338 
Q 2531 2678 2651 2914 
Q 2772 3150 2772 3378 
Q 2772 3750 2511 3984 
Q 2250 4219 1831 4219 
Q 1534 4219 1204 4116 
Q 875 4013 500 3803 
L 500 4441 
Q 881 4594 1212 4672 
Q 1544 4750 1819 4750 
Q 2544 4750 2975 4387 
Q 3406 4025 3406 3419 
Q 3406 3131 3298 2873 
Q 3191 2616 2906 2266 
Q 2828 2175 2409 1742 
Q 1991 1309 1228 531 
z
" transform="scale(0.015625)"/>
        <path id="DejaVuSans-35" d="M 691 4666 
L 3169 4666 
L 3169 4134 
L 1269 4134 
L 1269 2991 
Q 1406 3038 1543 3061 
Q 1681 3084 1819 3084 
Q 2600 3084 3056 2656 
Q 3513 2228 3513 1497 
Q 3513 744 3044 326 
Q 2575 -91 1722 -91 
Q 1428 -91 1123 -41 
Q 819 9 494 109 
L 494 744 
Q 775 591 1075 516 
Q 1375 441 1709 441 
Q 2250 441 2565 725 
Q 2881 1009 2881 1497 
Q 2881 1984 2565 2268 
Q 2250 2553 1709 2553 
Q 1456 2553 1204 2497 
Q 953 2441 691 2322 
L 691 4666 
z
" transform="scale(0.015625)"/>
       </defs>
       <use xlink:href="#DejaVuSans-32"/>
       <use xlink:href="#DejaVuSans-35" x="63.623047"/>
      </g>
     </g>
    </g>
    <g id="xtick_2">
     <g id="line2d_3">
      <path d="M 178.204356 384.5775 
L 178.204356 25.3575 
" clip-path="url(#pd3d804a412)" style="fill: none; stroke: #cccccc; stroke-width: 0.8; stroke-linecap: round"/>
     </g>
     <g id="line2d_4"/>
     <g id="text_2">
      <!-- 50 -->
      <g style="fill: #262626" transform="translate(170.569356 397.195625) scale(0.12 -0.12)">
       <defs>
        <path id="DejaVuSans-30" d="M 2034 4250 
Q 1547 4250 1301 3770 
Q 1056 3291 1056 2328 
Q 1056 1369 1301 889 
Q 1547 409 2034 409 
Q 2525 409 2770 889 
Q 3016 1369 3016 2328 
Q 3016 3291 2770 3770 
Q 2525 4250 2034 4250 
z
M 2034 4750 
Q 2819 4750 3233 4129 
Q 3647 3509 3647 2328 
Q 3647 1150 3233 529 
Q 2819 -91 2034 -91 
Q 1250 -91 836 529 
Q 422 1150 422 2328 
Q 422 3509 836 4129 
Q 1250 4750 2034 4750 
z
" transform="scale(0.015625)"/>
       </defs>
       <use xlink:href="#DejaVuSans-35"/>
       <use xlink:href="#DejaVuSans-30" x="63.623047"/>
      </g>
     </g>
    </g>
    <g id="xtick_3">
     <g id="line2d_5">
      <path d="M 241.079984 384.5775 
L 241.079984 25.3575 
" clip-path="url(#pd3d804a412)" style="fill: none; stroke: #cccccc; stroke-width: 0.8; stroke-linecap: round"/>
     </g>
     <g id="line2d_6"/>
     <g id="text_3">
      <!-- 75 -->
      <g style="fill: #262626" transform="translate(233.444984 397.195625) scale(0.12 -0.12)">
       <defs>
        <path id="DejaVuSans-37" d="M 525 4666 
L 3525 4666 
L 3525 4397 
L 1831 0 
L 1172 0 
L 2766 4134 
L 525 4134 
L 525 4666 
z
" transform="scale(0.015625)"/>
       </defs>
       <use xlink:href="#DejaVuSans-37"/>
       <use xlink:href="#DejaVuSans-35" x="63.623047"/>
      </g>
     </g>
    </g>
    <g id="xtick_4">
     <g id="line2d_7">
      <path d="M 303.955612 384.5775 
L 303.955612 25.3575 
" clip-path="url(#pd3d804a412)" style="fill: none; stroke: #cccccc; stroke-width: 0.8; stroke-linecap: round"/>
     </g>
     <g id="line2d_8"/>
     <g id="text_4">
      <!-- 100 -->
      <g style="fill: #262626" transform="translate(292.503112 397.195625) scale(0.12 -0.12)">
       <defs>
        <path id="DejaVuSans-31" d="M 794 531 
L 1825 531 
L 1825 4091 
L 703 3866 
L 703 4441 
L 1819 4666 
L 2450 4666 
L 2450 531 
L 3481 531 
L 3481 0 
L 794 0 
L 794 531 
z
" transform="scale(0.015625)"/>
       </defs>
       <use xlink:href="#DejaVuSans-31"/>
       <use xlink:href="#DejaVuSans-30" x="63.623047"/>
       <use xlink:href="#DejaVuSans-30" x="127.246094"/>
      </g>
     </g>
    </g>
    <g id="xtick_5">
     <g id="line2d_9">
      <path d="M 366.831241 384.5775 
L 366.831241 25.3575 
" clip-path="url(#pd3d804a412)" style="fill: none; stroke: #cccccc; stroke-width: 0.8; stroke-linecap: round"/>
     </g>
     <g id="line2d_10"/>
     <g id="text_5">
      <!-- 125 -->
      <g style="fill: #262626" transform="translate(355.378741 397.195625) scale(0.12 -0.12)">
       <use xlink:href="#DejaVuSans-31"/>
       <use xlink:href="#DejaVuSans-32" x="63.623047"/>
       <use xlink:href="#DejaVuSans-35" x="127.246094"/>
      </g>
     </g>
    </g>
    <g id="xtick_6">
     <g id="line2d_11">
      <path d="M 429.706869 384.5775 
L 429.706869 25.3575 
" clip-path="url(#pd3d804a412)" style="fill: none; stroke: #cccccc; stroke-width: 0.8; stroke-linecap: round"/>
     </g>
     <g id="line2d_12"/>
     <g id="text_6">
      <!-- 150 -->
      <g style="fill: #262626" transform="translate(418.254369 397.195625) scale(0.12 -0.12)">
       <use xlink:href="#DejaVuSans-31"/>
       <use xlink:href="#DejaVuSans-35" x="63.623047"/>
       <use xlink:href="#DejaVuSans-30" x="127.246094"/>
      </g>
     </g>
    </g>
    <g id="xtick_7">
     <g id="line2d_13">
      <path d="M 492.582497 384.5775 
L 492.582497 25.3575 
" clip-path="url(#pd3d804a412)" style="fill: none; stroke: #cccccc; stroke-width: 0.8; stroke-linecap: round"/>
     </g>
     <g id="line2d_14"/>
     <g id="text_7">
      <!-- 175 -->
      <g style="fill: #262626" transform="translate(481.129997 397.195625) scale(0.12 -0.12)">
       <use xlink:href="#DejaVuSans-31"/>
       <use xlink:href="#DejaVuSans-37" x="63.623047"/>
       <use xlink:href="#DejaVuSans-35" x="127.246094"/>
      </g>
     </g>
    </g>
    <g id="xtick_8">
     <g id="line2d_15">
      <path d="M 555.458125 384.5775 
L 555.458125 25.3575 
" clip-path="url(#pd3d804a412)" style="fill: none; stroke: #cccccc; stroke-width: 0.8; stroke-linecap: round"/>
     </g>
     <g id="line2d_16"/>
     <g id="text_8">
      <!-- 200 -->
      <g style="fill: #262626" transform="translate(544.005625 397.195625) scale(0.12 -0.12)">
       <use xlink:href="#DejaVuSans-32"/>
       <use xlink:href="#DejaVuSans-30" x="63.623047"/>
       <use xlink:href="#DejaVuSans-30" x="127.246094"/>
      </g>
     </g>
    </g>
    <g id="text_9">
     <!-- Epochs -->
     <g style="fill: #262626" transform="translate(280.13125 414.329062) scale(0.14 -0.14)">
      <defs>
       <path id="DejaVuSans-45" d="M 628 4666 
L 3578 4666 
L 3578 4134 
L 1259 4134 
L 1259 2753 
L 3481 2753 
L 3481 2222 
L 1259 2222 
L 1259 531 
L 3634 531 
L 3634 0 
L 628 0 
L 628 4666 
z
" transform="scale(0.015625)"/>
       <path id="DejaVuSans-70" d="M 1159 525 
L 1159 -1331 
L 581 -1331 
L 581 3500 
L 1159 3500 
L 1159 2969 
Q 1341 3281 1617 3432 
Q 1894 3584 2278 3584 
Q 2916 3584 3314 3078 
Q 3713 2572 3713 1747 
Q 3713 922 3314 415 
Q 2916 -91 2278 -91 
Q 1894 -91 1617 61 
Q 1341 213 1159 525 
z
M 3116 1747 
Q 3116 2381 2855 2742 
Q 2594 3103 2138 3103 
Q 1681 3103 1420 2742 
Q 1159 2381 1159 1747 
Q 1159 1113 1420 752 
Q 1681 391 2138 391 
Q 2594 391 2855 752 
Q 3116 1113 3116 1747 
z
" transform="scale(0.015625)"/>
       <path id="DejaVuSans-6f" d="M 1959 3097 
Q 1497 3097 1228 2736 
Q 959 2375 959 1747 
Q 959 1119 1226 758 
Q 1494 397 1959 397 
Q 2419 397 2687 759 
Q 2956 1122 2956 1747 
Q 2956 2369 2687 2733 
Q 2419 3097 1959 3097 
z
M 1959 3584 
Q 2709 3584 3137 3096 
Q 3566 2609 3566 1747 
Q 3566 888 3137 398 
Q 2709 -91 1959 -91 
Q 1206 -91 779 398 
Q 353 888 353 1747 
Q 353 2609 779 3096 
Q 1206 3584 1959 3584 
z
" transform="scale(0.015625)"/>
       <path id="DejaVuSans-63" d="M 3122 3366 
L 3122 2828 
Q 2878 2963 2633 3030 
Q 2388 3097 2138 3097 
Q 1578 3097 1268 2742 
Q 959 2388 959 1747 
Q 959 1106 1268 751 
Q 1578 397 2138 397 
Q 2388 397 2633 464 
Q 2878 531 3122 666 
L 3122 134 
Q 2881 22 2623 -34 
Q 2366 -91 2075 -91 
Q 1284 -91 818 406 
Q 353 903 353 1747 
Q 353 2603 823 3093 
Q 1294 3584 2113 3584 
Q 2378 3584 2631 3529 
Q 2884 3475 3122 3366 
z
" transform="scale(0.015625)"/>
       <path id="DejaVuSans-68" d="M 3513 2113 
L 3513 0 
L 2938 0 
L 2938 2094 
Q 2938 2591 2744 2837 
Q 2550 3084 2163 3084 
Q 1697 3084 1428 2787 
Q 1159 2491 1159 1978 
L 1159 0 
L 581 0 
L 581 4863 
L 1159 4863 
L 1159 2956 
Q 1366 3272 1645 3428 
Q 1925 3584 2291 3584 
Q 2894 3584 3203 3211 
Q 3513 2838 3513 2113 
z
" transform="scale(0.015625)"/>
       <path id="DejaVuSans-73" d="M 2834 3397 
L 2834 2853 
Q 2591 2978 2328 3040 
Q 2066 3103 1784 3103 
Q 1356 3103 1142 2972 
Q 928 2841 928 2578 
Q 928 2378 1081 2264 
Q 1234 2150 1697 2047 
L 1894 2003 
Q 2506 1872 2764 1633 
Q 3022 1394 3022 966 
Q 3022 478 2636 193 
Q 2250 -91 1575 -91 
Q 1294 -91 989 -36 
Q 684 19 347 128 
L 347 722 
Q 666 556 975 473 
Q 1284 391 1588 391 
Q 1994 391 2212 530 
Q 2431 669 2431 922 
Q 2431 1156 2273 1281 
Q 2116 1406 1581 1522 
L 1381 1569 
Q 847 1681 609 1914 
Q 372 2147 372 2553 
Q 372 3047 722 3315 
Q 1072 3584 1716 3584 
Q 2034 3584 2315 3537 
Q 2597 3491 2834 3397 
z
" transform="scale(0.015625)"/>
      </defs>
      <use xlink:href="#DejaVuSans-45"/>
      <use xlink:href="#DejaVuSans-70" x="63.183594"/>
      <use xlink:href="#DejaVuSans-6f" x="126.660156"/>
      <use xlink:href="#DejaVuSans-63" x="187.841797"/>
      <use xlink:href="#DejaVuSans-68" x="242.822266"/>
      <use xlink:href="#DejaVuSans-73" x="306.201172"/>
     </g>
    </g>
   </g>
   <g id="matplotlib.axis_2">
    <g id="ytick_1">
     <g id="line2d_17">
      <path d="M 54.968125 358.918929 
L 555.458125 358.918929 
" clip-path="url(#pd3d804a412)" style="fill: none; stroke: #cccccc; stroke-width: 0.8; stroke-linecap: round"/>
     </g>
     <g id="line2d_18"/>
     <g id="text_10">
      <!-- 0.02 -->
      <g style="fill: #262626" transform="translate(24.749375 363.477991) scale(0.12 -0.12)">
       <defs>
        <path id="DejaVuSans-2e" d="M 684 794 
L 1344 794 
L 1344 0 
L 684 0 
L 684 794 
z
" transform="scale(0.015625)"/>
       </defs>
       <use xlink:href="#DejaVuSans-30"/>
       <use xlink:href="#DejaVuSans-2e" x="63.623047"/>
       <use xlink:href="#DejaVuSans-30" x="95.410156"/>
       <use xlink:href="#DejaVuSans-32" x="159.033203"/>
      </g>
     </g>
    </g>
    <g id="ytick_2">
     <g id="line2d_19">
      <path d="M 54.968125 307.601786 
L 555.458125 307.601786 
" clip-path="url(#pd3d804a412)" style="fill: none; stroke: #cccccc; stroke-width: 0.8; stroke-linecap: round"/>
     </g>
     <g id="line2d_20"/>
     <g id="text_11">
      <!-- 0.04 -->
      <g style="fill: #262626" transform="translate(24.749375 312.160848) scale(0.12 -0.12)">
       <defs>
        <path id="DejaVuSans-34" d="M 2419 4116 
L 825 1625 
L 2419 1625 
L 2419 4116 
z
M 2253 4666 
L 3047 4666 
L 3047 1625 
L 3713 1625 
L 3713 1100 
L 3047 1100 
L 3047 0 
L 2419 0 
L 2419 1100 
L 313 1100 
L 313 1709 
L 2253 4666 
z
" transform="scale(0.015625)"/>
       </defs>
       <use xlink:href="#DejaVuSans-30"/>
       <use xlink:href="#DejaVuSans-2e" x="63.623047"/>
       <use xlink:href="#DejaVuSans-30" x="95.410156"/>
       <use xlink:href="#DejaVuSans-34" x="159.033203"/>
      </g>
     </g>
    </g>
    <g id="ytick_3">
     <g id="line2d_21">
      <path d="M 54.968125 256.284643 
L 555.458125 256.284643 
" clip-path="url(#pd3d804a412)" style="fill: none; stroke: #cccccc; stroke-width: 0.8; stroke-linecap: round"/>
     </g>
     <g id="line2d_22"/>
     <g id="text_12">
      <!-- 0.06 -->
      <g style="fill: #262626" transform="translate(24.749375 260.843705) scale(0.12 -0.12)">
       <defs>
        <path id="DejaVuSans-36" d="M 2113 2584 
Q 1688 2584 1439 2293 
Q 1191 2003 1191 1497 
Q 1191 994 1439 701 
Q 1688 409 2113 409 
Q 2538 409 2786 701 
Q 3034 994 3034 1497 
Q 3034 2003 2786 2293 
Q 2538 2584 2113 2584 
z
M 3366 4563 
L 3366 3988 
Q 3128 4100 2886 4159 
Q 2644 4219 2406 4219 
Q 1781 4219 1451 3797 
Q 1122 3375 1075 2522 
Q 1259 2794 1537 2939 
Q 1816 3084 2150 3084 
Q 2853 3084 3261 2657 
Q 3669 2231 3669 1497 
Q 3669 778 3244 343 
Q 2819 -91 2113 -91 
Q 1303 -91 875 529 
Q 447 1150 447 2328 
Q 447 3434 972 4092 
Q 1497 4750 2381 4750 
Q 2619 4750 2861 4703 
Q 3103 4656 3366 4563 
z
" transform="scale(0.015625)"/>
       </defs>
       <use xlink:href="#DejaVuSans-30"/>
       <use xlink:href="#DejaVuSans-2e" x="63.623047"/>
       <use xlink:href="#DejaVuSans-30" x="95.410156"/>
       <use xlink:href="#DejaVuSans-36" x="159.033203"/>
      </g>
     </g>
    </g>
    <g id="ytick_4">
     <g id="line2d_23">
      <path d="M 54.968125 204.9675 
L 555.458125 204.9675 
" clip-path="url(#pd3d804a412)" style="fill: none; stroke: #cccccc; stroke-width: 0.8; stroke-linecap: round"/>
     </g>
     <g id="line2d_24"/>
     <g id="text_13">
      <!-- 0.08 -->
      <g style="fill: #262626" transform="translate(24.749375 209.526562) scale(0.12 -0.12)">
       <defs>
        <path id="DejaVuSans-38" d="M 2034 2216 
Q 1584 2216 1326 1975 
Q 1069 1734 1069 1313 
Q 1069 891 1326 650 
Q 1584 409 2034 409 
Q 2484 409 2743 651 
Q 3003 894 3003 1313 
Q 3003 1734 2745 1975 
Q 2488 2216 2034 2216 
z
M 1403 2484 
Q 997 2584 770 2862 
Q 544 3141 544 3541 
Q 544 4100 942 4425 
Q 1341 4750 2034 4750 
Q 2731 4750 3128 4425 
Q 3525 4100 3525 3541 
Q 3525 3141 3298 2862 
Q 3072 2584 2669 2484 
Q 3125 2378 3379 2068 
Q 3634 1759 3634 1313 
Q 3634 634 3220 271 
Q 2806 -91 2034 -91 
Q 1263 -91 848 271 
Q 434 634 434 1313 
Q 434 1759 690 2068 
Q 947 2378 1403 2484 
z
M 1172 3481 
Q 1172 3119 1398 2916 
Q 1625 2713 2034 2713 
Q 2441 2713 2670 2916 
Q 2900 3119 2900 3481 
Q 2900 3844 2670 4047 
Q 2441 4250 2034 4250 
Q 1625 4250 1398 4047 
Q 1172 3844 1172 3481 
z
" transform="scale(0.015625)"/>
       </defs>
       <use xlink:href="#DejaVuSans-30"/>
       <use xlink:href="#DejaVuSans-2e" x="63.623047"/>
       <use xlink:href="#DejaVuSans-30" x="95.410156"/>
       <use xlink:href="#DejaVuSans-38" x="159.033203"/>
      </g>
     </g>
    </g>
    <g id="ytick_5">
     <g id="line2d_25">
      <path d="M 54.968125 153.650357 
L 555.458125 153.650357 
" clip-path="url(#pd3d804a412)" style="fill: none; stroke: #cccccc; stroke-width: 0.8; stroke-linecap: round"/>
     </g>
     <g id="line2d_26"/>
     <g id="text_14">
      <!-- 0.10 -->
      <g style="fill: #262626" transform="translate(24.749375 158.20942) scale(0.12 -0.12)">
       <use xlink:href="#DejaVuSans-30"/>
       <use xlink:href="#DejaVuSans-2e" x="63.623047"/>
       <use xlink:href="#DejaVuSans-31" x="95.410156"/>
       <use xlink:href="#DejaVuSans-30" x="159.033203"/>
      </g>
     </g>
    </g>
    <g id="ytick_6">
     <g id="line2d_27">
      <path d="M 54.968125 102.333214 
L 555.458125 102.333214 
" clip-path="url(#pd3d804a412)" style="fill: none; stroke: #cccccc; stroke-width: 0.8; stroke-linecap: round"/>
     </g>
     <g id="line2d_28"/>
     <g id="text_15">
      <!-- 0.12 -->
      <g style="fill: #262626" transform="translate(24.749375 106.892277) scale(0.12 -0.12)">
       <use xlink:href="#DejaVuSans-30"/>
       <use xlink:href="#DejaVuSans-2e" x="63.623047"/>
       <use xlink:href="#DejaVuSans-31" x="95.410156"/>
       <use xlink:href="#DejaVuSans-32" x="159.033203"/>
      </g>
     </g>
    </g>
    <g id="ytick_7">
     <g id="line2d_29">
      <path d="M 54.968125 51.016071 
L 555.458125 51.016071 
" clip-path="url(#pd3d804a412)" style="fill: none; stroke: #cccccc; stroke-width: 0.8; stroke-linecap: round"/>
     </g>
     <g id="line2d_30"/>
     <g id="text_16">
      <!-- 0.14 -->
      <g style="fill: #262626" transform="translate(24.749375 55.575134) scale(0.12 -0.12)">
       <use xlink:href="#DejaVuSans-30"/>
       <use xlink:href="#DejaVuSans-2e" x="63.623047"/>
       <use xlink:href="#DejaVuSans-31" x="95.410156"/>
       <use xlink:href="#DejaVuSans-34" x="159.033203"/>
      </g>
     </g>
    </g>
    <g id="text_17">
     <!-- Loss -->
     <g style="fill: #262626" transform="translate(17.837812 220.321562) rotate(-90) scale(0.14 -0.14)">
      <defs>
       <path id="DejaVuSans-4c" d="M 628 4666 
L 1259 4666 
L 1259 531 
L 3531 531 
L 3531 0 
L 628 0 
L 628 4666 
z
" transform="scale(0.015625)"/>
      </defs>
      <use xlink:href="#DejaVuSans-4c"/>
      <use xlink:href="#DejaVuSans-6f" x="53.962891"/>
      <use xlink:href="#DejaVuSans-73" x="115.144531"/>
      <use xlink:href="#DejaVuSans-73" x="167.244141"/>
     </g>
    </g>
   </g>
   <g id="line2d_31">
    <path d="M 54.968125 69.400438 
L 57.48315 147.579539 
L 59.998175 169.00188 
L 62.5132 180.743243 
L 65.028226 188.643517 
L 67.543251 194.711769 
L 70.058276 199.515054 
L 72.573301 203.671742 
L 75.088326 207.125386 
L 77.603351 210.21981 
L 80.118376 212.760008 
L 82.633401 214.748547 
L 85.148427 216.934658 
L 90.178477 220.77318 
L 92.693502 222.020187 
L 95.208527 223.503252 
L 100.238577 226.143519 
L 105.268628 228.36042 
L 107.783653 229.61769 
L 112.813703 231.675507 
L 115.328728 232.858367 
L 122.873803 235.927132 
L 127.903854 238.123506 
L 150.53908 247.096308 
L 153.054105 247.930212 
L 155.56913 248.936028 
L 158.084155 249.569795 
L 160.59918 250.696206 
L 165.629231 252.263945 
L 170.659281 253.739313 
L 173.174306 254.580914 
L 178.204356 255.709891 
L 180.719381 256.44116 
L 183.234406 256.890185 
L 185.749432 257.529084 
L 195.809532 258.991622 
L 208.384658 259.95895 
L 210.899683 260.007702 
L 213.414708 227.369999 
L 215.929733 225.999831 
L 218.444758 226.631032 
L 220.959783 226.977423 
L 223.474808 227.472633 
L 228.504859 228.758127 
L 231.019884 228.891552 
L 233.534909 229.409855 
L 236.049934 229.717758 
L 238.564959 230.338695 
L 241.079984 230.510608 
L 248.62506 231.762746 
L 251.140085 232.083478 
L 253.65511 232.740338 
L 256.170135 232.845538 
L 258.68516 233.194494 
L 261.200185 233.830827 
L 263.71521 234.028398 
L 266.230236 234.369657 
L 268.745261 234.585189 
L 271.260286 235.000858 
L 273.775311 235.583307 
L 276.290336 235.388302 
L 278.805361 236.501884 
L 281.320386 236.509582 
L 283.835411 236.945778 
L 286.350437 237.025319 
L 298.925562 238.865039 
L 301.440587 239.550123 
L 306.470638 240.124875 
L 311.500688 240.643178 
L 314.015713 241.274379 
L 321.560788 242.200653 
L 324.075813 242.713824 
L 326.590839 242.947317 
L 329.105864 243.506674 
L 331.620889 243.781221 
L 344.196014 245.869829 
L 349.226065 246.60623 
L 351.74109 247.306709 
L 364.316215 249.095111 
L 366.831241 249.890527 
L 369.346266 250.290801 
L 371.861291 250.524294 
L 374.376316 251.034899 
L 376.891341 251.324841 
L 379.406366 251.953476 
L 381.921391 252.433291 
L 386.951442 253.213312 
L 389.466467 253.64181 
L 391.981492 254.237089 
L 394.496517 254.46545 
L 399.526567 255.419949 
L 404.556617 256.210233 
L 407.071643 256.774722 
L 412.101693 257.600928 
L 417.131743 258.309104 
L 422.161793 259.307223 
L 424.676818 259.645916 
L 432.221894 260.933976 
L 434.736919 261.354777 
L 437.251944 261.657548 
L 442.281994 262.609481 
L 447.312045 263.207325 
L 454.85712 264.37479 
L 462.402195 265.216392 
L 464.91722 265.667982 
L 467.432246 265.934832 
L 469.947271 266.345369 
L 472.462296 266.486491 
L 477.492346 267.127955 
L 480.007371 267.228024 
L 482.522396 267.635995 
L 485.037421 267.792512 
L 490.067472 268.241537 
L 492.582497 268.321079 
L 495.097522 268.693128 
L 500.127572 269.021558 
L 505.157622 269.344856 
L 507.672648 269.278143 
L 515.217723 269.773354 
L 525.277823 269.886252 
L 527.792849 270.02994 
L 530.307874 269.973491 
L 532.822899 270.104349 
L 535.337924 234.343998 
L 537.852949 232.740338 
L 545.398024 233.830827 
L 547.91305 234.390184 
L 555.458125 235.480673 
L 555.458125 235.480673 
" clip-path="url(#pd3d804a412)" style="fill: none; stroke: #a9a9a9; stroke-opacity: 0.6; stroke-width: 1.5; stroke-linecap: round"/>
   </g>
   <g id="line2d_32">
    <path clip-path="url(#pd3d804a412)" style="fill: none; stroke: #87ceeb; stroke-opacity: 0.6; stroke-width: 1.5; stroke-linecap: round"/>
   </g>
   <g id="line2d_33">
    <path d="M 54.968125 59.503927 
L 57.48315 112.742897 
L 59.998175 137.357164 
L 62.5132 150.373758 
L 65.028226 156.177726 
L 67.543251 162.569277 
L 70.058276 167.544474 
L 72.573301 172.209202 
L 75.088326 175.719294 
L 77.603351 178.716216 
L 80.118376 181.520697 
L 82.633401 184.817824 
L 85.148427 187.796784 
L 87.663452 190.424222 
L 90.178477 193.362128 
L 97.723552 200.01283 
L 100.238577 202.075779 
L 102.753602 203.930894 
L 105.268628 205.947657 
L 107.783653 208.223573 
L 112.813703 212.123676 
L 125.388829 220.434487 
L 127.903854 221.932947 
L 132.933904 225.314747 
L 135.448929 226.769588 
L 137.963954 228.481015 
L 140.478979 230.056451 
L 142.994004 231.932093 
L 145.50903 233.42029 
L 155.56913 240.317314 
L 158.084155 241.879921 
L 165.629231 247.052689 
L 170.659281 250.372908 
L 173.174306 251.848276 
L 175.689331 253.580229 
L 185.749432 259.143008 
L 188.264457 260.410541 
L 190.779482 261.472806 
L 198.324557 264.125902 
L 200.839582 264.626244 
L 203.354607 265.277972 
L 208.384658 265.875817 
L 210.899683 266.086217 
L 213.414708 193.161991 
L 215.929733 198.055081 
L 218.444758 201.421485 
L 223.474808 205.349813 
L 233.534909 209.380774 
L 236.049934 209.850326 
L 241.079984 211.235889 
L 246.110035 211.903012 
L 251.140085 213.011462 
L 253.65511 213.586214 
L 256.170135 213.776088 
L 261.200185 214.969211 
L 263.71521 215.277114 
L 268.745261 216.085359 
L 276.290336 217.201507 
L 283.835411 218.474172 
L 286.350437 219.159256 
L 288.865462 219.413276 
L 291.380487 219.959803 
L 293.895512 220.765482 
L 296.410537 221.078517 
L 298.925562 221.52241 
L 301.440587 222.156177 
L 303.955612 222.517963 
L 311.500688 224.373078 
L 314.015713 224.786181 
L 316.530738 225.478962 
L 321.560788 226.502739 
L 339.165964 230.723574 
L 341.680989 231.436882 
L 344.196014 231.926961 
L 351.74109 233.971949 
L 356.77114 235.175336 
L 359.286165 235.929698 
L 361.80119 236.21964 
L 364.316215 237.202363 
L 366.831241 238.026003 
L 369.346266 238.526346 
L 371.861291 239.175507 
L 376.891341 240.786866 
L 379.406366 241.430896 
L 381.921391 241.93637 
L 384.436416 242.806195 
L 386.951442 243.347591 
L 389.466467 244.355973 
L 391.981492 244.961515 
L 397.011542 246.572874 
L 399.526567 247.301577 
L 402.041592 248.29713 
L 404.556617 248.969384 
L 409.586668 250.680811 
L 419.646768 253.762405 
L 427.191844 256.474516 
L 429.706869 257.167298 
L 432.221894 258.049953 
L 437.251944 259.540716 
L 442.281994 261.357342 
L 449.82707 263.989912 
L 457.372145 266.345369 
L 462.402195 267.810473 
L 464.91722 268.780367 
L 467.432246 269.616837 
L 474.977321 271.808079 
L 477.492346 272.626587 
L 490.067472 275.88266 
L 497.612547 277.540203 
L 500.127572 277.986663 
L 502.642597 278.574244 
L 505.157622 278.897542 
L 507.672648 279.36966 
L 510.187673 279.574928 
L 512.702698 280.026519 
L 520.247773 280.678247 
L 527.792849 281.068257 
L 532.822899 281.245301 
L 535.337924 195.422511 
L 535.337924 195.422511 
" clip-path="url(#pd3d804a412)" style="fill: none; stroke: #98fb98; stroke-opacity: 0.6; stroke-width: 1.5; stroke-linecap: round"/>
   </g>
   <g id="line2d_34">
    <path d="M 54.968125 95.818503 
L 57.48315 201.434315 
L 59.998175 225.943382 
L 62.5132 240.165928 
L 65.028226 249.413277 
L 67.543251 257.544479 
L 70.058276 264.123336 
L 72.573301 268.29542 
L 75.088326 273.124363 
L 80.118376 279.405582 
L 82.633401 281.897029 
L 85.148427 284.591179 
L 87.663452 287.04927 
L 90.178477 289.261039 
L 92.693502 290.836475 
L 95.208527 293.297132 
L 97.723552 294.864871 
L 100.238577 296.281224 
L 102.753602 298.015743 
L 105.268628 299.529599 
L 110.298678 302.965282 
L 112.813703 304.44065 
L 115.328728 306.062271 
L 117.843753 307.848108 
L 120.358778 309.00531 
L 125.388829 312.184407 
L 127.903854 313.374964 
L 130.418879 315.237777 
L 132.933904 316.879925 
L 135.448929 318.812016 
L 145.50903 325.431927 
L 148.024055 327.541062 
L 150.53908 329.080576 
L 155.56913 332.980679 
L 165.629231 340.675684 
L 168.144256 342.751463 
L 170.659281 344.550129 
L 175.689331 348.637539 
L 185.749432 355.91431 
L 188.264457 357.543629 
L 193.294507 360.40456 
L 195.809532 361.695186 
L 198.324557 362.783109 
L 200.839582 363.724779 
L 203.354607 364.476575 
L 205.869633 365.059025 
L 208.384658 365.482391 
L 210.899683 365.741543 
L 213.414708 294.320909 
L 215.929733 290.005137 
L 218.444758 291.778145 
L 220.959783 293.72563 
L 223.474808 294.387621 
L 225.989834 295.842462 
L 228.504859 296.607088 
L 231.019884 297.669353 
L 233.534909 298.187656 
L 236.049934 298.839384 
L 238.564959 299.858029 
L 246.110035 301.759329 
L 251.140085 303.180814 
L 253.65511 303.124365 
L 256.170135 303.812015 
L 258.68516 304.330318 
L 261.200185 305.038494 
L 263.71521 305.551666 
L 266.230236 306.203394 
L 268.745261 306.354779 
L 271.260286 307.247697 
L 273.775311 307.229736 
L 278.805361 308.540889 
L 281.320386 308.810304 
L 283.835411 309.692959 
L 288.865462 310.206131 
L 293.895512 311.524981 
L 296.410537 311.884201 
L 298.925562 312.76429 
L 301.440587 312.705276 
L 303.955612 313.94715 
L 306.470638 314.149853 
L 308.985663 314.686117 
L 311.500688 315.520021 
L 314.015713 315.89207 
L 319.045763 316.967164 
L 321.560788 317.847253 
L 324.075813 318.250093 
L 329.105864 319.458612 
L 331.620889 320.159091 
L 334.135914 320.638906 
L 336.650939 321.267541 
L 339.165964 322.150196 
L 344.196014 323.279173 
L 346.71104 324.036101 
L 349.226065 324.931585 
L 351.74109 325.44219 
L 354.256115 325.806542 
L 356.77114 326.863675 
L 361.80119 328.628985 
L 364.316215 329.414137 
L 369.346266 330.72529 
L 371.861291 331.818345 
L 374.376316 332.567576 
L 376.891341 333.619577 
L 379.406366 334.048075 
L 381.921391 334.971784 
L 384.436416 336.139249 
L 386.951442 336.734528 
L 389.466467 337.814754 
L 391.981492 338.694843 
L 394.496517 339.831517 
L 397.011542 340.780884 
L 399.526567 341.483929 
L 402.041592 342.846399 
L 404.556617 343.690566 
L 409.586668 345.794569 
L 412.101693 346.728541 
L 414.616718 347.78824 
L 417.131743 349.053208 
L 419.646768 349.966653 
L 424.676818 352.237437 
L 427.191844 353.425428 
L 429.706869 354.464601 
L 432.221894 355.739832 
L 439.766969 358.983075 
L 442.281994 360.04534 
L 444.797019 361.276951 
L 447.312045 362.33665 
L 449.82707 363.53234 
L 452.342095 364.520195 
L 454.85712 365.777465 
L 462.402195 368.92064 
L 464.91722 370.139422 
L 467.432246 371.117013 
L 469.947271 372.256254 
L 485.037421 377.852388 
L 487.552447 378.768399 
L 497.612547 381.714003 
L 502.642597 382.981537 
L 507.672648 384.051499 
L 512.702698 384.908496 
L 517.732748 385.573053 
L 525.277823 386.235044 
L 532.822899 386.558342 
L 535.337924 293.066205 
L 537.852949 292.209209 
L 540.367974 294.446636 
L 542.882999 295.904043 
L 545.398024 297.777119 
L 545.398024 297.777119 
" clip-path="url(#pd3d804a412)" style="fill: none; stroke: #dda0dd; stroke-opacity: 0.6; stroke-width: 1.5; stroke-linecap: round"/>
   </g>
   <g id="line2d_35">
    <path d="M 54.968125 22.098861 
L 57.48315 120.253161 
L 59.998175 142.273347 
L 62.5132 155.084671 
L 65.028226 163.61358 
L 67.543251 170.102633 
L 70.058276 175.085528 
L 72.573301 179.057475 
L 75.088326 182.480328 
L 77.603351 185.456722 
L 80.118376 188.248375 
L 82.633401 190.655149 
L 85.148427 192.864352 
L 87.663452 194.534725 
L 90.178477 196.510435 
L 97.723552 201.123846 
L 102.753602 203.74102 
L 105.268628 205.14711 
L 107.783653 206.25556 
L 112.813703 209.013857 
L 115.328728 210.053029 
L 117.843753 211.251284 
L 120.358778 212.652242 
L 122.873803 213.658058 
L 125.388829 215.020528 
L 130.418879 217.114268 
L 135.448929 219.59032 
L 137.963954 220.59357 
L 140.478979 221.953474 
L 165.629231 232.619742 
L 168.144256 233.4947 
L 170.659281 234.541569 
L 178.204356 237.048412 
L 188.264457 239.598874 
L 193.294507 240.594426 
L 198.324557 241.305169 
L 200.839582 241.597677 
L 208.384658 242.059531 
L 210.899683 242.169863 
L 213.414708 207.071503 
L 215.929733 204.179782 
L 220.959783 204.657031 
L 228.504859 205.891209 
L 236.049934 207.633426 
L 238.564959 207.941328 
L 241.079984 208.441671 
L 246.110035 209.27814 
L 248.62506 209.788746 
L 251.140085 209.927302 
L 253.65511 210.630347 
L 256.170135 210.902328 
L 258.68516 211.561753 
L 263.71521 212.164729 
L 266.230236 212.744613 
L 268.745261 212.94475 
L 271.260286 213.419433 
L 273.775311 213.778653 
L 276.290336 214.299522 
L 278.805361 214.992304 
L 281.320386 215.207836 
L 283.835411 215.295075 
L 286.350437 215.89292 
L 293.895512 217.263087 
L 296.410537 217.440132 
L 303.955612 218.989909 
L 306.470638 219.403012 
L 308.985663 219.633939 
L 311.500688 220.33955 
L 314.015713 220.585872 
L 316.530738 221.068254 
L 319.045763 221.727679 
L 326.590839 222.797641 
L 334.135914 224.429526 
L 336.650939 224.688678 
L 339.165964 225.502055 
L 341.680989 225.620084 
L 344.196014 226.153782 
L 346.71104 226.543793 
L 351.74109 227.739482 
L 356.77114 228.555425 
L 374.376316 232.401645 
L 376.891341 232.694152 
L 379.406366 233.268904 
L 381.921391 234.069452 
L 386.951442 234.926448 
L 389.466467 235.498634 
L 391.981492 236.26326 
L 394.496517 236.68406 
L 399.526567 238.005477 
L 407.071643 239.365381 
L 409.586668 240.088953 
L 412.101693 240.432777 
L 417.131743 241.749062 
L 419.646768 242.293024 
L 422.161793 242.595795 
L 424.676818 243.350157 
L 442.281994 247.129665 
L 444.797019 247.588953 
L 447.312045 248.215022 
L 449.82707 248.522925 
L 452.342095 249.061755 
L 454.85712 249.47999 
L 457.372145 250.203561 
L 459.88717 250.465279 
L 462.402195 250.996411 
L 464.91722 251.242734 
L 467.432246 251.840578 
L 469.947271 252.109993 
L 480.007371 253.628981 
L 490.067472 255.135139 
L 497.612547 255.663705 
L 500.127572 256.056282 
L 505.157622 256.215365 
L 507.672648 256.543794 
L 510.187673 256.613073 
L 515.217723 257.000517 
L 520.247773 257.005649 
L 522.762798 257.241708 
L 525.277823 257.213483 
L 530.307874 257.418752 
L 532.822899 257.37 
L 535.337924 215.379748 
L 535.337924 215.379748 
" clip-path="url(#pd3d804a412)" style="fill: none; stroke: #f0e68c; stroke-opacity: 0.6; stroke-width: 1.5; stroke-linecap: round"/>
   </g>
   <g id="patch_3">
    <path d="M 54.968125 384.5775 
L 54.968125 25.3575 
" style="fill: none; stroke: #cccccc; stroke-linejoin: miter; stroke-linecap: square"/>
   </g>
   <g id="patch_4">
    <path d="M 555.458125 384.5775 
L 555.458125 25.3575 
" style="fill: none; stroke: #cccccc; stroke-linejoin: miter; stroke-linecap: square"/>
   </g>
   <g id="patch_5">
    <path d="M 54.968125 384.5775 
L 555.458125 384.5775 
" style="fill: none; stroke: #cccccc; stroke-linejoin: miter; stroke-linecap: square"/>
   </g>
   <g id="patch_6">
    <path d="M 54.968125 25.3575 
L 555.458125 25.3575 
" style="fill: none; stroke: #cccccc; stroke-linejoin: miter; stroke-linecap: square"/>
   </g>
   <g id="text_18">
    <!-- Training Loss Comparison -->
    <g style="fill: #262626" transform="translate(189.535625 19.3575) scale(0.16 -0.16)">
     <defs>
      <path id="DejaVuSans-Bold-54" d="M 31 4666 
L 4331 4666 
L 4331 3756 
L 2784 3756 
L 2784 0 
L 1581 0 
L 1581 3756 
L 31 3756 
L 31 4666 
z
" transform="scale(0.015625)"/>
      <path id="DejaVuSans-Bold-72" d="M 3138 2547 
Q 2991 2616 2845 2648 
Q 2700 2681 2553 2681 
Q 2122 2681 1889 2404 
Q 1656 2128 1656 1613 
L 1656 0 
L 538 0 
L 538 3500 
L 1656 3500 
L 1656 2925 
Q 1872 3269 2151 3426 
Q 2431 3584 2822 3584 
Q 2878 3584 2943 3579 
Q 3009 3575 3134 3559 
L 3138 2547 
z
" transform="scale(0.015625)"/>
      <path id="DejaVuSans-Bold-61" d="M 2106 1575 
Q 1756 1575 1579 1456 
Q 1403 1338 1403 1106 
Q 1403 894 1545 773 
Q 1688 653 1941 653 
Q 2256 653 2472 879 
Q 2688 1106 2688 1447 
L 2688 1575 
L 2106 1575 
z
M 3816 1997 
L 3816 0 
L 2688 0 
L 2688 519 
Q 2463 200 2181 54 
Q 1900 -91 1497 -91 
Q 953 -91 614 226 
Q 275 544 275 1050 
Q 275 1666 698 1953 
Q 1122 2241 2028 2241 
L 2688 2241 
L 2688 2328 
Q 2688 2594 2478 2717 
Q 2269 2841 1825 2841 
Q 1466 2841 1156 2769 
Q 847 2697 581 2553 
L 581 3406 
Q 941 3494 1303 3539 
Q 1666 3584 2028 3584 
Q 2975 3584 3395 3211 
Q 3816 2838 3816 1997 
z
" transform="scale(0.015625)"/>
      <path id="DejaVuSans-Bold-69" d="M 538 3500 
L 1656 3500 
L 1656 0 
L 538 0 
L 538 3500 
z
M 538 4863 
L 1656 4863 
L 1656 3950 
L 538 3950 
L 538 4863 
z
" transform="scale(0.015625)"/>
      <path id="DejaVuSans-Bold-6e" d="M 4056 2131 
L 4056 0 
L 2931 0 
L 2931 347 
L 2931 1631 
Q 2931 2084 2911 2256 
Q 2891 2428 2841 2509 
Q 2775 2619 2662 2680 
Q 2550 2741 2406 2741 
Q 2056 2741 1856 2470 
Q 1656 2200 1656 1722 
L 1656 0 
L 538 0 
L 538 3500 
L 1656 3500 
L 1656 2988 
Q 1909 3294 2193 3439 
Q 2478 3584 2822 3584 
Q 3428 3584 3742 3212 
Q 4056 2841 4056 2131 
z
" transform="scale(0.015625)"/>
      <path id="DejaVuSans-Bold-67" d="M 2919 594 
Q 2688 288 2409 144 
Q 2131 0 1766 0 
Q 1125 0 706 504 
Q 288 1009 288 1791 
Q 288 2575 706 3076 
Q 1125 3578 1766 3578 
Q 2131 3578 2409 3434 
Q 2688 3291 2919 2981 
L 2919 3500 
L 4044 3500 
L 4044 353 
Q 4044 -491 3511 -936 
Q 2978 -1381 1966 -1381 
Q 1638 -1381 1331 -1331 
Q 1025 -1281 716 -1178 
L 716 -306 
Q 1009 -475 1290 -558 
Q 1572 -641 1856 -641 
Q 2406 -641 2662 -400 
Q 2919 -159 2919 353 
L 2919 594 
z
M 2181 2772 
Q 1834 2772 1640 2515 
Q 1447 2259 1447 1791 
Q 1447 1309 1634 1061 
Q 1822 813 2181 813 
Q 2531 813 2725 1069 
Q 2919 1325 2919 1791 
Q 2919 2259 2725 2515 
Q 2531 2772 2181 2772 
z
" transform="scale(0.015625)"/>
      <path id="DejaVuSans-Bold-20" transform="scale(0.015625)"/>
      <path id="DejaVuSans-Bold-4c" d="M 588 4666 
L 1791 4666 
L 1791 909 
L 3903 909 
L 3903 0 
L 588 0 
L 588 4666 
z
" transform="scale(0.015625)"/>
      <path id="DejaVuSans-Bold-6f" d="M 2203 2784 
Q 1831 2784 1636 2517 
Q 1441 2250 1441 1747 
Q 1441 1244 1636 976 
Q 1831 709 2203 709 
Q 2569 709 2762 976 
Q 2956 1244 2956 1747 
Q 2956 2250 2762 2517 
Q 2569 2784 2203 2784 
z
M 2203 3584 
Q 3106 3584 3614 3096 
Q 4122 2609 4122 1747 
Q 4122 884 3614 396 
Q 3106 -91 2203 -91 
Q 1297 -91 786 396 
Q 275 884 275 1747 
Q 275 2609 786 3096 
Q 1297 3584 2203 3584 
z
" transform="scale(0.015625)"/>
      <path id="DejaVuSans-Bold-73" d="M 3272 3391 
L 3272 2541 
Q 2913 2691 2578 2766 
Q 2244 2841 1947 2841 
Q 1628 2841 1473 2761 
Q 1319 2681 1319 2516 
Q 1319 2381 1436 2309 
Q 1553 2238 1856 2203 
L 2053 2175 
Q 2913 2066 3209 1816 
Q 3506 1566 3506 1031 
Q 3506 472 3093 190 
Q 2681 -91 1863 -91 
Q 1516 -91 1145 -36 
Q 775 19 384 128 
L 384 978 
Q 719 816 1070 734 
Q 1422 653 1784 653 
Q 2113 653 2278 743 
Q 2444 834 2444 1013 
Q 2444 1163 2330 1236 
Q 2216 1309 1875 1350 
L 1678 1375 
Q 931 1469 631 1722 
Q 331 1975 331 2491 
Q 331 3047 712 3315 
Q 1094 3584 1881 3584 
Q 2191 3584 2531 3537 
Q 2872 3491 3272 3391 
z
" transform="scale(0.015625)"/>
      <path id="DejaVuSans-Bold-43" d="M 4288 256 
Q 3956 84 3597 -3 
Q 3238 -91 2847 -91 
Q 1681 -91 1000 561 
Q 319 1213 319 2328 
Q 319 3447 1000 4098 
Q 1681 4750 2847 4750 
Q 3238 4750 3597 4662 
Q 3956 4575 4288 4403 
L 4288 3438 
Q 3953 3666 3628 3772 
Q 3303 3878 2944 3878 
Q 2300 3878 1931 3465 
Q 1563 3053 1563 2328 
Q 1563 1606 1931 1193 
Q 2300 781 2944 781 
Q 3303 781 3628 887 
Q 3953 994 4288 1222 
L 4288 256 
z
" transform="scale(0.015625)"/>
      <path id="DejaVuSans-Bold-6d" d="M 3781 2919 
Q 3994 3244 4286 3414 
Q 4578 3584 4928 3584 
Q 5531 3584 5847 3212 
Q 6163 2841 6163 2131 
L 6163 0 
L 5038 0 
L 5038 1825 
Q 5041 1866 5042 1909 
Q 5044 1953 5044 2034 
Q 5044 2406 4934 2573 
Q 4825 2741 4581 2741 
Q 4263 2741 4089 2478 
Q 3916 2216 3909 1719 
L 3909 0 
L 2784 0 
L 2784 1825 
Q 2784 2406 2684 2573 
Q 2584 2741 2328 2741 
Q 2006 2741 1831 2477 
Q 1656 2213 1656 1722 
L 1656 0 
L 531 0 
L 531 3500 
L 1656 3500 
L 1656 2988 
Q 1863 3284 2130 3434 
Q 2397 3584 2719 3584 
Q 3081 3584 3359 3409 
Q 3638 3234 3781 2919 
z
" transform="scale(0.015625)"/>
      <path id="DejaVuSans-Bold-70" d="M 1656 506 
L 1656 -1331 
L 538 -1331 
L 538 3500 
L 1656 3500 
L 1656 2988 
Q 1888 3294 2169 3439 
Q 2450 3584 2816 3584 
Q 3463 3584 3878 3070 
Q 4294 2556 4294 1747 
Q 4294 938 3878 423 
Q 3463 -91 2816 -91 
Q 2450 -91 2169 54 
Q 1888 200 1656 506 
z
M 2400 2772 
Q 2041 2772 1848 2508 
Q 1656 2244 1656 1747 
Q 1656 1250 1848 986 
Q 2041 722 2400 722 
Q 2759 722 2948 984 
Q 3138 1247 3138 1747 
Q 3138 2247 2948 2509 
Q 2759 2772 2400 2772 
z
" transform="scale(0.015625)"/>
     </defs>
     <use xlink:href="#DejaVuSans-Bold-54"/>
     <use xlink:href="#DejaVuSans-Bold-72" x="57.212891"/>
     <use xlink:href="#DejaVuSans-Bold-61" x="106.529297"/>
     <use xlink:href="#DejaVuSans-Bold-69" x="174.009766"/>
     <use xlink:href="#DejaVuSans-Bold-6e" x="208.287109"/>
     <use xlink:href="#DejaVuSans-Bold-69" x="279.478516"/>
     <use xlink:href="#DejaVuSans-Bold-6e" x="313.755859"/>
     <use xlink:href="#DejaVuSans-Bold-67" x="384.947266"/>
     <use xlink:href="#DejaVuSans-Bold-20" x="456.529297"/>
     <use xlink:href="#DejaVuSans-Bold-4c" x="491.34375"/>
     <use xlink:href="#DejaVuSans-Bold-6f" x="555.064453"/>
     <use xlink:href="#DejaVuSans-Bold-73" x="623.765625"/>
     <use xlink:href="#DejaVuSans-Bold-73" x="683.287109"/>
     <use xlink:href="#DejaVuSans-Bold-20" x="742.808594"/>
     <use xlink:href="#DejaVuSans-Bold-43" x="777.623047"/>
     <use xlink:href="#DejaVuSans-Bold-6f" x="851.011719"/>
     <use xlink:href="#DejaVuSans-Bold-6d" x="919.712891"/>
     <use xlink:href="#DejaVuSans-Bold-70" x="1023.912109"/>
     <use xlink:href="#DejaVuSans-Bold-61" x="1095.494141"/>
     <use xlink:href="#DejaVuSans-Bold-72" x="1162.974609"/>
     <use xlink:href="#DejaVuSans-Bold-69" x="1212.291016"/>
     <use xlink:href="#DejaVuSans-Bold-73" x="1246.568359"/>
     <use xlink:href="#DejaVuSans-Bold-6f" x="1306.089844"/>
     <use xlink:href="#DejaVuSans-Bold-6e" x="1374.791016"/>
    </g>
   </g>
   <g id="legend_1">
    <g id="line2d_36">
     <path d="M 396.109375 41.075625 
L 408.109375 41.075625 
L 420.109375 41.075625 
" style="fill: none; stroke: #a9a9a9; stroke-opacity: 0.6; stroke-width: 1.5; stroke-linecap: round"/>
    </g>
    <g id="text_19">
     <!-- Exp-1 -->
     <g style="fill: #262626" transform="translate(429.709375 45.275625) scale(0.12 -0.12)">
      <defs>
       <path id="DejaVuSans-78" d="M 3513 3500 
L 2247 1797 
L 3578 0 
L 2900 0 
L 1881 1375 
L 863 0 
L 184 0 
L 1544 1831 
L 300 3500 
L 978 3500 
L 1906 2253 
L 2834 3500 
L 3513 3500 
z
" transform="scale(0.015625)"/>
       <path id="DejaVuSans-2d" d="M 313 2009 
L 1997 2009 
L 1997 1497 
L 313 1497 
L 313 2009 
z
" transform="scale(0.015625)"/>
      </defs>
      <use xlink:href="#DejaVuSans-45"/>
      <use xlink:href="#DejaVuSans-78" x="63.183594"/>
      <use xlink:href="#DejaVuSans-70" x="122.363281"/>
      <use xlink:href="#DejaVuSans-2d" x="185.839844"/>
      <use xlink:href="#DejaVuSans-31" x="221.923828"/>
     </g>
    </g>
    <g id="line2d_37">
     <path d="M 396.109375 58.689375 
L 408.109375 58.689375 
L 420.109375 58.689375 
" style="fill: none; stroke: #87ceeb; stroke-opacity: 0.6; stroke-width: 1.5; stroke-linecap: round"/>
    </g>
    <g id="text_20">
     <!-- Exp-2 -->
     <g style="fill: #262626" transform="translate(429.709375 62.889375) scale(0.12 -0.12)">
      <use xlink:href="#DejaVuSans-45"/>
      <use xlink:href="#DejaVuSans-78" x="63.183594"/>
      <use xlink:href="#DejaVuSans-70" x="122.363281"/>
      <use xlink:href="#DejaVuSans-2d" x="185.839844"/>
      <use xlink:href="#DejaVuSans-32" x="221.923828"/>
     </g>
    </g>
    <g id="line2d_38">
     <path d="M 396.109375 76.303125 
L 408.109375 76.303125 
L 420.109375 76.303125 
" style="fill: none; stroke: #98fb98; stroke-opacity: 0.6; stroke-width: 1.5; stroke-linecap: round"/>
    </g>
    <g id="text_21">
     <!-- Exp-3 -->
     <g style="fill: #262626" transform="translate(429.709375 80.503125) scale(0.12 -0.12)">
      <defs>
       <path id="DejaVuSans-33" d="M 2597 2516 
Q 3050 2419 3304 2112 
Q 3559 1806 3559 1356 
Q 3559 666 3084 287 
Q 2609 -91 1734 -91 
Q 1441 -91 1130 -33 
Q 819 25 488 141 
L 488 750 
Q 750 597 1062 519 
Q 1375 441 1716 441 
Q 2309 441 2620 675 
Q 2931 909 2931 1356 
Q 2931 1769 2642 2001 
Q 2353 2234 1838 2234 
L 1294 2234 
L 1294 2753 
L 1863 2753 
Q 2328 2753 2575 2939 
Q 2822 3125 2822 3475 
Q 2822 3834 2567 4026 
Q 2313 4219 1838 4219 
Q 1578 4219 1281 4162 
Q 984 4106 628 3988 
L 628 4550 
Q 988 4650 1302 4700 
Q 1616 4750 1894 4750 
Q 2613 4750 3031 4423 
Q 3450 4097 3450 3541 
Q 3450 3153 3228 2886 
Q 3006 2619 2597 2516 
z
" transform="scale(0.015625)"/>
      </defs>
      <use xlink:href="#DejaVuSans-45"/>
      <use xlink:href="#DejaVuSans-78" x="63.183594"/>
      <use xlink:href="#DejaVuSans-70" x="122.363281"/>
      <use xlink:href="#DejaVuSans-2d" x="185.839844"/>
      <use xlink:href="#DejaVuSans-33" x="221.923828"/>
     </g>
    </g>
    <g id="line2d_39">
     <path d="M 396.109375 93.916875 
L 408.109375 93.916875 
L 420.109375 93.916875 
" style="fill: none; stroke: #dda0dd; stroke-opacity: 0.6; stroke-width: 1.5; stroke-linecap: round"/>
    </g>
    <g id="text_22">
     <!-- Exp-4 -->
     <g style="fill: #262626" transform="translate(429.709375 98.116875) scale(0.12 -0.12)">
      <use xlink:href="#DejaVuSans-45"/>
      <use xlink:href="#DejaVuSans-78" x="63.183594"/>
      <use xlink:href="#DejaVuSans-70" x="122.363281"/>
      <use xlink:href="#DejaVuSans-2d" x="185.839844"/>
      <use xlink:href="#DejaVuSans-34" x="221.923828"/>
     </g>
    </g>
    <g id="line2d_40">
     <path d="M 396.109375 111.530625 
L 408.109375 111.530625 
L 420.109375 111.530625 
" style="fill: none; stroke: #f0e68c; stroke-opacity: 0.6; stroke-width: 1.5; stroke-linecap: round"/>
    </g>
    <g id="text_23">
     <!-- Exp-5 -->
     <g style="fill: #262626" transform="translate(429.709375 115.730625) scale(0.12 -0.12)">
      <use xlink:href="#DejaVuSans-45"/>
      <use xlink:href="#DejaVuSans-78" x="63.183594"/>
      <use xlink:href="#DejaVuSans-70" x="122.363281"/>
      <use xlink:href="#DejaVuSans-2d" x="185.839844"/>
      <use xlink:href="#DejaVuSans-35" x="221.923828"/>
     </g>
    </g>
    <g id="line2d_41">
     <path d="M 396.109375 129.144375 
L 408.109375 129.144375 
L 420.109375 129.144375 
" style="fill: none; stroke: #e63946; stroke-width: 3; stroke-linecap: round"/>
    </g>
    <g id="text_24">
     <!-- Exp-6 (Final Model) -->
     <g style="fill: #262626" transform="translate(429.709375 133.344375) scale(0.12 -0.12)">
      <defs>
       <path id="DejaVuSans-20" transform="scale(0.015625)"/>
       <path id="DejaVuSans-28" d="M 1984 4856 
Q 1566 4138 1362 3434 
Q 1159 2731 1159 2009 
Q 1159 1288 1364 580 
Q 1569 -128 1984 -844 
L 1484 -844 
Q 1016 -109 783 600 
Q 550 1309 550 2009 
Q 550 2706 781 3412 
Q 1013 4119 1484 4856 
L 1984 4856 
z
" transform="scale(0.015625)"/>
       <path id="DejaVuSans-46" d="M 628 4666 
L 3309 4666 
L 3309 4134 
L 1259 4134 
L 1259 2759 
L 3109 2759 
L 3109 2228 
L 1259 2228 
L 1259 0 
L 628 0 
L 628 4666 
z
" transform="scale(0.015625)"/>
       <path id="DejaVuSans-69" d="M 603 3500 
L 1178 3500 
L 1178 0 
L 603 0 
L 603 3500 
z
M 603 4863 
L 1178 4863 
L 1178 4134 
L 603 4134 
L 603 4863 
z
" transform="scale(0.015625)"/>
       <path id="DejaVuSans-6e" d="M 3513 2113 
L 3513 0 
L 2938 0 
L 2938 2094 
Q 2938 2591 2744 2837 
Q 2550 3084 2163 3084 
Q 1697 3084 1428 2787 
Q 1159 2491 1159 1978 
L 1159 0 
L 581 0 
L 581 3500 
L 1159 3500 
L 1159 2956 
Q 1366 3272 1645 3428 
Q 1925 3584 2291 3584 
Q 2894 3584 3203 3211 
Q 3513 2838 3513 2113 
z
" transform="scale(0.015625)"/>
       <path id="DejaVuSans-61" d="M 2194 1759 
Q 1497 1759 1228 1600 
Q 959 1441 959 1056 
Q 959 750 1161 570 
Q 1363 391 1709 391 
Q 2188 391 2477 730 
Q 2766 1069 2766 1631 
L 2766 1759 
L 2194 1759 
z
M 3341 1997 
L 3341 0 
L 2766 0 
L 2766 531 
Q 2569 213 2275 61 
Q 1981 -91 1556 -91 
Q 1019 -91 701 211 
Q 384 513 384 1019 
Q 384 1609 779 1909 
Q 1175 2209 1959 2209 
L 2766 2209 
L 2766 2266 
Q 2766 2663 2505 2880 
Q 2244 3097 1772 3097 
Q 1472 3097 1187 3025 
Q 903 2953 641 2809 
L 641 3341 
Q 956 3463 1253 3523 
Q 1550 3584 1831 3584 
Q 2591 3584 2966 3190 
Q 3341 2797 3341 1997 
z
" transform="scale(0.015625)"/>
       <path id="DejaVuSans-6c" d="M 603 4863 
L 1178 4863 
L 1178 0 
L 603 0 
L 603 4863 
z
" transform="scale(0.015625)"/>
       <path id="DejaVuSans-4d" d="M 628 4666 
L 1569 4666 
L 2759 1491 
L 3956 4666 
L 4897 4666 
L 4897 0 
L 4281 0 
L 4281 4097 
L 3078 897 
L 2444 897 
L 1241 4097 
L 1241 0 
L 628 0 
L 628 4666 
z
" transform="scale(0.015625)"/>
       <path id="DejaVuSans-64" d="M 2906 2969 
L 2906 4863 
L 3481 4863 
L 3481 0 
L 2906 0 
L 2906 525 
Q 2725 213 2448 61 
Q 2172 -91 1784 -91 
Q 1150 -91 751 415 
Q 353 922 353 1747 
Q 353 2572 751 3078 
Q 1150 3584 1784 3584 
Q 2172 3584 2448 3432 
Q 2725 3281 2906 2969 
z
M 947 1747 
Q 947 1113 1208 752 
Q 1469 391 1925 391 
Q 2381 391 2643 752 
Q 2906 1113 2906 1747 
Q 2906 2381 2643 2742 
Q 2381 3103 1925 3103 
Q 1469 3103 1208 2742 
Q 947 2381 947 1747 
z
" transform="scale(0.015625)"/>
       <path id="DejaVuSans-65" d="M 3597 1894 
L 3597 1613 
L 953 1613 
Q 991 1019 1311 708 
Q 1631 397 2203 397 
Q 2534 397 2845 478 
Q 3156 559 3463 722 
L 3463 178 
Q 3153 47 2828 -22 
Q 2503 -91 2169 -91 
Q 1331 -91 842 396 
Q 353 884 353 1716 
Q 353 2575 817 3079 
Q 1281 3584 2069 3584 
Q 2775 3584 3186 3129 
Q 3597 2675 3597 1894 
z
M 3022 2063 
Q 3016 2534 2758 2815 
Q 2500 3097 2075 3097 
Q 1594 3097 1305 2825 
Q 1016 2553 972 2059 
L 3022 2063 
z
" transform="scale(0.015625)"/>
       <path id="DejaVuSans-29" d="M 513 4856 
L 1013 4856 
Q 1481 4119 1714 3412 
Q 1947 2706 1947 2009 
Q 1947 1309 1714 600 
Q 1481 -109 1013 -844 
L 513 -844 
Q 928 -128 1133 580 
Q 1338 1288 1338 2009 
Q 1338 2731 1133 3434 
Q 928 4138 513 4856 
z
" transform="scale(0.015625)"/>
      </defs>
      <use xlink:href="#DejaVuSans-45"/>
      <use xlink:href="#DejaVuSans-78" x="63.183594"/>
      <use xlink:href="#DejaVuSans-70" x="122.363281"/>
      <use xlink:href="#DejaVuSans-2d" x="185.839844"/>
      <use xlink:href="#DejaVuSans-36" x="221.923828"/>
      <use xlink:href="#DejaVuSans-20" x="285.546875"/>
      <use xlink:href="#DejaVuSans-28" x="317.333984"/>
      <use xlink:href="#DejaVuSans-46" x="356.347656"/>
      <use xlink:href="#DejaVuSans-69" x="406.617188"/>
      <use xlink:href="#DejaVuSans-6e" x="434.400391"/>
      <use xlink:href="#DejaVuSans-61" x="497.779297"/>
      <use xlink:href="#DejaVuSans-6c" x="559.058594"/>
      <use xlink:href="#DejaVuSans-20" x="586.841797"/>
      <use xlink:href="#DejaVuSans-4d" x="618.628906"/>
      <use xlink:href="#DejaVuSans-6f" x="704.908203"/>
      <use xlink:href="#DejaVuSans-64" x="766.089844"/>
      <use xlink:href="#DejaVuSans-65" x="829.566406"/>
      <use xlink:href="#DejaVuSans-6c" x="891.089844"/>
      <use xlink:href="#DejaVuSans-29" x="918.873047"/>
     </g>
    </g>
   </g>
   <g id="line2d_42">
    <path d="M 54.968125 55.226643 
L 57.48315 153.77865 
L 59.998175 175.562777 
L 62.5132 188.812863 
L 65.028226 198.414301 
L 67.543251 205.447315 
L 70.058276 211.094767 
L 72.573301 215.654295 
L 75.088326 219.482554 
L 77.603351 222.9285 
L 80.118376 226.01266 
L 82.633401 228.599044 
L 85.148427 230.705613 
L 87.663452 233.014884 
L 92.693502 236.899592 
L 97.723552 240.330143 
L 100.238577 241.65156 
L 105.268628 244.938423 
L 112.813703 248.92833 
L 117.843753 251.217075 
L 122.873803 253.993332 
L 125.388829 255.145402 
L 127.903854 256.469385 
L 130.418879 257.547045 
L 148.024055 266.024637 
L 150.53908 266.956043 
L 153.054105 268.33904 
L 155.56913 269.249919 
L 158.084155 270.517452 
L 160.59918 271.441161 
L 165.629231 273.650364 
L 168.144256 274.525321 
L 170.659281 275.579889 
L 180.719381 279.030966 
L 190.779482 281.594258 
L 200.839582 283.23384 
L 203.354607 283.32108 
L 205.869633 283.536612 
L 208.384658 283.554573 
L 210.899683 283.729051 
L 213.414708 244.189192 
L 215.929733 242.323814 
L 218.444758 242.429014 
L 220.959783 242.962713 
L 223.474808 243.634967 
L 228.504859 244.325183 
L 233.534909 245.900619 
L 236.049934 246.459976 
L 238.564959 246.560044 
L 241.079984 247.237431 
L 246.110035 247.896856 
L 251.140085 248.805169 
L 253.65511 249.410712 
L 256.170135 249.505648 
L 258.68516 250.234352 
L 261.200185 250.66285 
L 263.71521 251.268392 
L 266.230236 251.406948 
L 268.745261 251.827749 
L 273.775311 252.936199 
L 288.865462 255.548242 
L 291.380487 255.622652 
L 293.895512 256.040886 
L 298.925562 257.282761 
L 301.440587 257.767708 
L 306.470638 258.170548 
L 308.985663 258.891554 
L 314.015713 259.550979 
L 316.530738 260.31817 
L 319.045763 260.631205 
L 321.560788 261.108454 
L 326.590839 261.855119 
L 329.105864 262.753169 
L 339.165964 264.308078 
L 341.680989 265.116323 
L 344.196014 265.439621 
L 346.71104 266.160627 
L 354.256115 267.281907 
L 356.77114 268.000347 
L 359.286165 268.351869 
L 364.316215 269.444924 
L 366.831241 270.173628 
L 371.861291 270.925424 
L 374.376316 271.607942 
L 381.921391 273.139758 
L 384.436416 273.891555 
L 386.951442 274.314921 
L 402.041592 277.812184 
L 404.556617 278.199629 
L 407.071643 278.851356 
L 414.616718 280.385739 
L 417.131743 281.145233 
L 419.646768 281.430043 
L 424.676818 282.777118 
L 449.82707 288.047388 
L 452.342095 288.445096 
L 457.372145 289.581771 
L 462.402195 290.338699 
L 464.91722 290.695353 
L 467.432246 291.349647 
L 469.947271 291.652418 
L 477.492346 292.866068 
L 487.552447 294.174655 
L 490.067472 294.587758 
L 502.642597 295.724433 
L 515.217723 296.594259 
L 517.732748 296.558337 
L 522.762798 296.796961 
L 532.822899 296.989401 
L 535.337924 250.216391 
L 537.852949 248.489569 
L 540.367974 248.802603 
L 542.882999 249.785327 
L 545.398024 250.211259 
L 547.91305 250.960489 
L 550.428075 251.124704 
L 552.9431 251.84571 
L 555.458125 252.312696 
L 555.458125 252.312696 
" clip-path="url(#pd3d804a412)" style="fill: none; stroke: #e63946; stroke-width: 3; stroke-linecap: round"/>
   </g>
  </g>
  <g id="axes_2">
   <g id="patch_7">
    <path d="M 625.568125 384.5775 
L 1126.058125 384.5775 
L 1126.058125 25.3575 
L 625.568125 25.3575 
z
" style="fill: #ffffff"/>
   </g>
   <g id="matplotlib.axis_3">
    <g id="xtick_9">
     <g id="line2d_43">
      <path d="M 685.928728 384.5775 
L 685.928728 25.3575 
" clip-path="url(#p0e8202ee59)" style="fill: none; stroke: #cccccc; stroke-width: 0.8; stroke-linecap: round"/>
     </g>
     <g id="line2d_44"/>
     <g id="text_25">
      <!-- 25 -->
      <g style="fill: #262626" transform="translate(678.293728 397.195625) scale(0.12 -0.12)">
       <use xlink:href="#DejaVuSans-32"/>
       <use xlink:href="#DejaVuSans-35" x="63.623047"/>
      </g>
     </g>
    </g>
    <g id="xtick_10">
     <g id="line2d_45">
      <path d="M 748.804356 384.5775 
L 748.804356 25.3575 
" clip-path="url(#p0e8202ee59)" style="fill: none; stroke: #cccccc; stroke-width: 0.8; stroke-linecap: round"/>
     </g>
     <g id="line2d_46"/>
     <g id="text_26">
      <!-- 50 -->
      <g style="fill: #262626" transform="translate(741.169356 397.195625) scale(0.12 -0.12)">
       <use xlink:href="#DejaVuSans-35"/>
       <use xlink:href="#DejaVuSans-30" x="63.623047"/>
      </g>
     </g>
    </g>
    <g id="xtick_11">
     <g id="line2d_47">
      <path d="M 811.679984 384.5775 
L 811.679984 25.3575 
" clip-path="url(#p0e8202ee59)" style="fill: none; stroke: #cccccc; stroke-width: 0.8; stroke-linecap: round"/>
     </g>
     <g id="line2d_48"/>
     <g id="text_27">
      <!-- 75 -->
      <g style="fill: #262626" transform="translate(804.044984 397.195625) scale(0.12 -0.12)">
       <use xlink:href="#DejaVuSans-37"/>
       <use xlink:href="#DejaVuSans-35" x="63.623047"/>
      </g>
     </g>
    </g>
    <g id="xtick_12">
     <g id="line2d_49">
      <path d="M 874.555612 384.5775 
L 874.555612 25.3575 
" clip-path="url(#p0e8202ee59)" style="fill: none; stroke: #cccccc; stroke-width: 0.8; stroke-linecap: round"/>
     </g>
     <g id="line2d_50"/>
     <g id="text_28">
      <!-- 100 -->
      <g style="fill: #262626" transform="translate(863.103112 397.195625) scale(0.12 -0.12)">
       <use xlink:href="#DejaVuSans-31"/>
       <use xlink:href="#DejaVuSans-30" x="63.623047"/>
       <use xlink:href="#DejaVuSans-30" x="127.246094"/>
      </g>
     </g>
    </g>
    <g id="xtick_13">
     <g id="line2d_51">
      <path d="M 937.431241 384.5775 
L 937.431241 25.3575 
" clip-path="url(#p0e8202ee59)" style="fill: none; stroke: #cccccc; stroke-width: 0.8; stroke-linecap: round"/>
     </g>
     <g id="line2d_52"/>
     <g id="text_29">
      <!-- 125 -->
      <g style="fill: #262626" transform="translate(925.978741 397.195625) scale(0.12 -0.12)">
       <use xlink:href="#DejaVuSans-31"/>
       <use xlink:href="#DejaVuSans-32" x="63.623047"/>
       <use xlink:href="#DejaVuSans-35" x="127.246094"/>
      </g>
     </g>
    </g>
    <g id="xtick_14">
     <g id="line2d_53">
      <path d="M 1000.306869 384.5775 
L 1000.306869 25.3575 
" clip-path="url(#p0e8202ee59)" style="fill: none; stroke: #cccccc; stroke-width: 0.8; stroke-linecap: round"/>
     </g>
     <g id="line2d_54"/>
     <g id="text_30">
      <!-- 150 -->
      <g style="fill: #262626" transform="translate(988.854369 397.195625) scale(0.12 -0.12)">
       <use xlink:href="#DejaVuSans-31"/>
       <use xlink:href="#DejaVuSans-35" x="63.623047"/>
       <use xlink:href="#DejaVuSans-30" x="127.246094"/>
      </g>
     </g>
    </g>
    <g id="xtick_15">
     <g id="line2d_55">
      <path d="M 1063.182497 384.5775 
L 1063.182497 25.3575 
" clip-path="url(#p0e8202ee59)" style="fill: none; stroke: #cccccc; stroke-width: 0.8; stroke-linecap: round"/>
     </g>
     <g id="line2d_56"/>
     <g id="text_31">
      <!-- 175 -->
      <g style="fill: #262626" transform="translate(1051.729997 397.195625) scale(0.12 -0.12)">
       <use xlink:href="#DejaVuSans-31"/>
       <use xlink:href="#DejaVuSans-37" x="63.623047"/>
       <use xlink:href="#DejaVuSans-35" x="127.246094"/>
      </g>
     </g>
    </g>
    <g id="xtick_16">
     <g id="line2d_57">
      <path d="M 1126.058125 384.5775 
L 1126.058125 25.3575 
" clip-path="url(#p0e8202ee59)" style="fill: none; stroke: #cccccc; stroke-width: 0.8; stroke-linecap: round"/>
     </g>
     <g id="line2d_58"/>
     <g id="text_32">
      <!-- 200 -->
      <g style="fill: #262626" transform="translate(1114.605625 397.195625) scale(0.12 -0.12)">
       <use xlink:href="#DejaVuSans-32"/>
       <use xlink:href="#DejaVuSans-30" x="63.623047"/>
       <use xlink:href="#DejaVuSans-30" x="127.246094"/>
      </g>
     </g>
    </g>
    <g id="text_33">
     <!-- Epochs -->
     <g style="fill: #262626" transform="translate(850.73125 414.329062) scale(0.14 -0.14)">
      <use xlink:href="#DejaVuSans-45"/>
      <use xlink:href="#DejaVuSans-70" x="63.183594"/>
      <use xlink:href="#DejaVuSans-6f" x="126.660156"/>
      <use xlink:href="#DejaVuSans-63" x="187.841797"/>
      <use xlink:href="#DejaVuSans-68" x="242.822266"/>
      <use xlink:href="#DejaVuSans-73" x="306.201172"/>
     </g>
    </g>
   </g>
   <g id="matplotlib.axis_4">
    <g id="ytick_8">
     <g id="line2d_59">
      <path d="M 625.568125 358.918929 
L 1126.058125 358.918929 
" clip-path="url(#p0e8202ee59)" style="fill: none; stroke: #cccccc; stroke-width: 0.8; stroke-linecap: round"/>
     </g>
     <g id="line2d_60"/>
     <g id="text_34">
      <!-- 0.02 -->
      <g style="fill: #262626" transform="translate(595.349375 363.477991) scale(0.12 -0.12)">
       <use xlink:href="#DejaVuSans-30"/>
       <use xlink:href="#DejaVuSans-2e" x="63.623047"/>
       <use xlink:href="#DejaVuSans-30" x="95.410156"/>
       <use xlink:href="#DejaVuSans-32" x="159.033203"/>
      </g>
     </g>
    </g>
    <g id="ytick_9">
     <g id="line2d_61">
      <path d="M 625.568125 307.601786 
L 1126.058125 307.601786 
" clip-path="url(#p0e8202ee59)" style="fill: none; stroke: #cccccc; stroke-width: 0.8; stroke-linecap: round"/>
     </g>
     <g id="line2d_62"/>
     <g id="text_35">
      <!-- 0.04 -->
      <g style="fill: #262626" transform="translate(595.349375 312.160848) scale(0.12 -0.12)">
       <use xlink:href="#DejaVuSans-30"/>
       <use xlink:href="#DejaVuSans-2e" x="63.623047"/>
       <use xlink:href="#DejaVuSans-30" x="95.410156"/>
       <use xlink:href="#DejaVuSans-34" x="159.033203"/>
      </g>
     </g>
    </g>
    <g id="ytick_10">
     <g id="line2d_63">
      <path d="M 625.568125 256.284643 
L 1126.058125 256.284643 
" clip-path="url(#p0e8202ee59)" style="fill: none; stroke: #cccccc; stroke-width: 0.8; stroke-linecap: round"/>
     </g>
     <g id="line2d_64"/>
     <g id="text_36">
      <!-- 0.06 -->
      <g style="fill: #262626" transform="translate(595.349375 260.843705) scale(0.12 -0.12)">
       <use xlink:href="#DejaVuSans-30"/>
       <use xlink:href="#DejaVuSans-2e" x="63.623047"/>
       <use xlink:href="#DejaVuSans-30" x="95.410156"/>
       <use xlink:href="#DejaVuSans-36" x="159.033203"/>
      </g>
     </g>
    </g>
    <g id="ytick_11">
     <g id="line2d_65">
      <path d="M 625.568125 204.9675 
L 1126.058125 204.9675 
" clip-path="url(#p0e8202ee59)" style="fill: none; stroke: #cccccc; stroke-width: 0.8; stroke-linecap: round"/>
     </g>
     <g id="line2d_66"/>
     <g id="text_37">
      <!-- 0.08 -->
      <g style="fill: #262626" transform="translate(595.349375 209.526562) scale(0.12 -0.12)">
       <use xlink:href="#DejaVuSans-30"/>
       <use xlink:href="#DejaVuSans-2e" x="63.623047"/>
       <use xlink:href="#DejaVuSans-30" x="95.410156"/>
       <use xlink:href="#DejaVuSans-38" x="159.033203"/>
      </g>
     </g>
    </g>
    <g id="ytick_12">
     <g id="line2d_67">
      <path d="M 625.568125 153.650357 
L 1126.058125 153.650357 
" clip-path="url(#p0e8202ee59)" style="fill: none; stroke: #cccccc; stroke-width: 0.8; stroke-linecap: round"/>
     </g>
     <g id="line2d_68"/>
     <g id="text_38">
      <!-- 0.10 -->
      <g style="fill: #262626" transform="translate(595.349375 158.20942) scale(0.12 -0.12)">
       <use xlink:href="#DejaVuSans-30"/>
       <use xlink:href="#DejaVuSans-2e" x="63.623047"/>
       <use xlink:href="#DejaVuSans-31" x="95.410156"/>
       <use xlink:href="#DejaVuSans-30" x="159.033203"/>
      </g>
     </g>
    </g>
    <g id="ytick_13">
     <g id="line2d_69">
      <path d="M 625.568125 102.333214 
L 1126.058125 102.333214 
" clip-path="url(#p0e8202ee59)" style="fill: none; stroke: #cccccc; stroke-width: 0.8; stroke-linecap: round"/>
     </g>
     <g id="line2d_70"/>
     <g id="text_39">
      <!-- 0.12 -->
      <g style="fill: #262626" transform="translate(595.349375 106.892277) scale(0.12 -0.12)">
       <use xlink:href="#DejaVuSans-30"/>
       <use xlink:href="#DejaVuSans-2e" x="63.623047"/>
       <use xlink:href="#DejaVuSans-31" x="95.410156"/>
       <use xlink:href="#DejaVuSans-32" x="159.033203"/>
      </g>
     </g>
    </g>
    <g id="ytick_14">
     <g id="line2d_71">
      <path d="M 625.568125 51.016071 
L 1126.058125 51.016071 
" clip-path="url(#p0e8202ee59)" style="fill: none; stroke: #cccccc; stroke-width: 0.8; stroke-linecap: round"/>
     </g>
     <g id="line2d_72"/>
     <g id="text_40">
      <!-- 0.14 -->
      <g style="fill: #262626" transform="translate(595.349375 55.575134) scale(0.12 -0.12)">
       <use xlink:href="#DejaVuSans-30"/>
       <use xlink:href="#DejaVuSans-2e" x="63.623047"/>
       <use xlink:href="#DejaVuSans-31" x="95.410156"/>
       <use xlink:href="#DejaVuSans-34" x="159.033203"/>
      </g>
     </g>
    </g>
    <g id="text_41">
     <!-- Loss -->
     <g style="fill: #262626" transform="translate(588.437812 220.321562) rotate(-90) scale(0.14 -0.14)">
      <use xlink:href="#DejaVuSans-4c"/>
      <use xlink:href="#DejaVuSans-6f" x="53.962891"/>
      <use xlink:href="#DejaVuSans-73" x="115.144531"/>
      <use xlink:href="#DejaVuSans-73" x="167.244141"/>
     </g>
    </g>
   </g>
   <g id="line2d_73">
    <path d="M 625.568125 163.123502 
L 628.08315 185.392576 
L 630.598175 204.662163 
L 633.1132 211.920973 
L 635.628226 215.767193 
L 638.143251 224.339721 
L 640.658276 231.318853 
L 643.173301 233.628124 
L 645.688326 236.57886 
L 648.203351 235.942527 
L 650.718376 241.11273 
L 653.233401 245.413106 
L 655.748427 243.637533 
L 658.263452 247.778826 
L 660.778477 247.665929 
L 663.293502 249.459463 
L 665.808527 250.249747 
L 668.323552 250.76805 
L 670.838577 253.823986 
L 673.353602 253.475029 
L 675.868628 256.302604 
L 678.383653 257.37 
L 680.898678 259.579203 
L 683.413703 257.752313 
L 685.928728 259.476569 
L 688.443753 259.730589 
L 690.958778 259.148139 
L 693.473803 261.678075 
L 695.988829 263.558848 
L 698.503854 266.938082 
L 701.018879 261.937226 
L 703.533904 266.3505 
L 706.048929 265.752656 
L 708.563954 270.101784 
L 711.078979 270.938253 
L 713.594004 269.698944 
L 716.10903 270.804828 
L 718.624055 270.273696 
L 721.13908 273.971096 
L 723.654105 274.905068 
L 726.16913 273.516939 
L 728.684155 274.810131 
L 731.19918 277.958438 
L 733.714205 278.758986 
L 736.229231 279.161825 
L 738.744256 279.952109 
L 741.259281 279.628811 
L 743.774306 280.218958 
L 746.289331 281.358199 
L 751.319381 281.778999 
L 753.834406 282.541059 
L 756.349432 283.018308 
L 758.864457 284.165247 
L 761.379482 284.629667 
L 763.894507 284.814408 
L 766.409532 285.337843 
L 771.439582 285.776605 
L 773.954607 285.704761 
L 776.469633 285.856146 
L 778.984658 286.187142 
L 781.499683 285.97161 
L 784.014708 255.386593 
L 786.529733 248.68714 
L 789.044758 255.743247 
L 791.559783 248.458779 
L 794.074808 247.016767 
L 796.589834 255.517452 
L 799.104859 254.832368 
L 801.619884 255.096651 
L 804.134909 254.655324 
L 806.649934 257.146771 
L 809.164959 260.366922 
L 811.679984 252.287037 
L 814.195009 260.487517 
L 816.710035 259.694667 
L 819.22506 257.013346 
L 821.740085 258.699114 
L 824.25511 255.060729 
L 826.770135 248.325354 
L 829.28516 260.248892 
L 831.800185 260.066716 
L 834.31521 259.545847 
L 836.830236 256.772156 
L 839.345261 261.21622 
L 841.860286 261.837158 
L 844.375311 258.114099 
L 846.890336 262.296446 
L 849.405361 262.827579 
L 851.920386 258.093572 
L 854.435411 263.720497 
L 856.950437 264.01557 
L 859.465462 258.439963 
L 861.980487 264.392751 
L 864.495512 263.304828 
L 869.525562 259.515057 
L 872.040587 264.80842 
L 874.555612 262.955871 
L 877.070638 266.188851 
L 879.585663 265.932266 
L 882.100688 266.3505 
L 884.615713 264.572361 
L 887.130738 263.884712 
L 889.645763 264.803289 
L 892.160788 265.367777 
L 894.675813 266.991965 
L 897.190839 267.984951 
L 899.705864 263.179101 
L 902.220889 269.065177 
L 904.735914 269.349987 
L 907.250939 269.388475 
L 909.765964 271.235892 
L 912.280989 267.951595 
L 914.796014 272.131377 
L 917.31104 266.663535 
L 919.826065 268.423713 
L 922.34109 269.244787 
L 924.856115 271.997952 
L 927.37114 271.46682 
L 929.886165 272.213484 
L 932.40119 272.400792 
L 934.916215 272.154469 
L 937.431241 272.847251 
L 939.946266 277.019334 
L 942.461291 276.4959 
L 944.976316 276.336816 
L 947.491341 275.469557 
L 950.006366 277.842975 
L 952.521391 278.774381 
L 955.036416 277.314408 
L 957.551442 278.407463 
L 962.581492 279.890529 
L 965.096517 274.561243 
L 967.611542 278.584507 
L 970.126567 276.739656 
L 972.641592 275.438766 
L 975.156617 278.874449 
L 977.671643 280.97332 
L 980.186668 281.399253 
L 982.701693 281.022072 
L 985.216718 280.470412 
L 987.731743 282.012492 
L 990.246768 282.771986 
L 992.761793 281.088784 
L 995.276818 283.17226 
L 997.791844 283.603324 
L 1000.306869 285.638049 
L 1002.821894 284.265315 
L 1005.336919 281.286355 
L 1007.851944 285.237775 
L 1010.366969 285.956215 
L 1012.881994 284.342291 
L 1015.397019 285.681668 
L 1017.912045 287.580402 
L 1020.42707 287.403358 
L 1022.942095 288.488716 
L 1025.45712 287.66251 
L 1027.972145 289.681839 
L 1033.002195 289.5946 
L 1035.51722 289.125048 
L 1038.032246 289.645917 
L 1040.547271 289.689537 
L 1043.062296 290.980163 
L 1048.092346 290.423372 
L 1050.607371 290.682524 
L 1053.122396 290.738973 
L 1058.152447 292.222038 
L 1060.667472 292.314409 
L 1063.182497 291.909003 
L 1065.697522 291.724262 
L 1068.212547 293.004624 
L 1070.727572 293.404898 
L 1073.242597 292.653102 
L 1075.757622 292.760868 
L 1078.272648 293.176537 
L 1080.787673 293.453649 
L 1085.817723 293.563981 
L 1088.332748 293.345883 
L 1090.847773 293.756421 
L 1093.362798 293.717933 
L 1100.907874 293.884713 
L 1103.422899 293.83083 
L 1105.937924 255.029939 
L 1108.452949 253.002912 
L 1110.967974 263.692272 
L 1113.482999 256.992819 
L 1115.998024 260.128297 
L 1118.51305 259.376501 
L 1121.028075 262.016768 
L 1123.5431 260.990425 
L 1126.058125 262.119402 
L 1126.058125 262.119402 
" clip-path="url(#p0e8202ee59)" style="fill: none; stroke: #a9a9a9; stroke-opacity: 0.6; stroke-width: 1.5; stroke-linecap: round"/>
   </g>
   <g id="line2d_74">
    <path clip-path="url(#p0e8202ee59)" style="fill: none; stroke: #87ceeb; stroke-opacity: 0.6; stroke-width: 1.5; stroke-linecap: round"/>
   </g>
   <g id="line2d_75">
    <path d="M 625.568125 128.864177 
L 628.08315 155.656857 
L 630.598175 177.707834 
L 633.1132 182.562435 
L 635.628226 182.718953 
L 638.143251 194.711769 
L 640.658276 195.263428 
L 643.173301 199.630517 
L 645.688326 207.51283 
L 648.203351 213.008896 
L 650.718376 216.639584 
L 653.233401 206.781561 
L 655.748427 215.951934 
L 658.263452 216.68577 
L 660.778477 218.712797 
L 663.293502 224.550122 
L 665.808527 222.671914 
L 668.323552 233.212455 
L 670.838577 223.993331 
L 673.353602 231.336814 
L 675.868628 236.111874 
L 678.383653 235.832196 
L 680.898678 232.29901 
L 683.413703 235.144546 
L 685.928728 233.566544 
L 688.443753 230.151388 
L 690.958778 236.730246 
L 693.473803 236.766168 
L 695.988829 237.823301 
L 698.503854 245.815946 
L 701.018879 240.686797 
L 703.533904 234.898224 
L 706.048929 247.599216 
L 708.563954 250.159942 
L 711.078979 250.33442 
L 713.594004 256.415502 
L 716.10903 255.132573 
L 718.624055 251.050294 
L 721.13908 257.72922 
L 723.654105 255.612388 
L 726.16913 263.620428 
L 728.684155 260.020531 
L 731.19918 263.992478 
L 733.714205 264.77763 
L 736.229231 268.841948 
L 741.259281 266.917555 
L 743.774306 273.339895 
L 746.289331 272.267367 
L 748.804356 274.291828 
L 751.319381 275.2258 
L 753.834406 272.06723 
L 756.349432 276.113587 
L 758.864457 279.659601 
L 761.379482 277.891726 
L 763.894507 281.086218 
L 766.409532 280.488373 
L 768.924557 282.366581 
L 771.439582 283.095284 
L 773.954607 283.313382 
L 776.469633 283.174826 
L 781.499683 283.544309 
L 784.014708 225.917724 
L 786.529733 221.722547 
L 789.044758 233.948856 
L 791.559783 230.202705 
L 794.074808 222.269075 
L 796.589834 230.723574 
L 799.104859 237.233154 
L 801.619884 235.485805 
L 804.134909 226.851696 
L 806.649934 210.319878 
L 809.164959 236.091347 
L 811.679984 221.05799 
L 814.195009 238.567399 
L 816.710035 234.536438 
L 819.22506 234.780194 
L 821.740085 235.354946 
L 824.25511 234.0207 
L 826.770135 241.271813 
L 829.28516 239.60144 
L 831.800185 240.401987 
L 834.31521 238.880434 
L 836.830236 240.971607 
L 839.345261 248.443383 
L 841.860286 230.828774 
L 844.375311 240.902329 
L 846.890336 243.573387 
L 849.405361 243.165415 
L 851.920386 244.910198 
L 854.435411 241.992819 
L 856.950437 235.080399 
L 859.465462 240.204416 
L 861.980487 244.817827 
L 864.495512 241.772155 
L 869.525562 248.864184 
L 872.040587 240.289089 
L 874.555612 243.173113 
L 877.070638 235.519161 
L 879.585663 244.314919 
L 882.100688 246.698601 
L 884.615713 248.10469 
L 887.130738 245.359223 
L 889.645763 248.020017 
L 892.160788 241.705443 
L 894.675813 251.789261 
L 897.190839 254.809275 
L 899.705864 247.817314 
L 902.220889 252.969555 
L 904.735914 253.826552 
L 907.250939 252.389672 
L 909.765964 255.458437 
L 914.796014 254.349987 
L 917.31104 255.927989 
L 919.826065 253.07219 
L 922.34109 250.506333 
L 924.856115 256.538663 
L 927.37114 262.073217 
L 929.886165 255.520017 
L 932.40119 253.138902 
L 934.916215 259.797301 
L 937.431241 256.76959 
L 939.946266 252.199798 
L 942.461291 259.055769 
L 944.976316 261.706299 
L 947.491341 260.454161 
L 950.006366 263.114955 
L 952.521391 254.047215 
L 955.036416 258.688851 
L 957.551442 268.028571 
L 960.066467 266.486491 
L 962.581492 255.892067 
L 965.096517 257.63685 
L 967.611542 264.972635 
L 970.126567 264.41841 
L 972.641592 264.959806 
L 975.156617 266.958609 
L 977.671643 271.061414 
L 980.186668 268.059361 
L 982.701693 271.713142 
L 985.216718 268.015742 
L 987.731743 274.258472 
L 990.246768 270.738116 
L 992.761793 268.690562 
L 995.276818 274.407292 
L 997.791844 270.812526 
L 1000.306869 276.883344 
L 1002.821894 277.191247 
L 1005.336919 278.979649 
L 1007.851944 276.105889 
L 1010.366969 275.443898 
L 1012.881994 280.726998 
L 1015.397019 277.337501 
L 1017.912045 280.97332 
L 1020.42707 282.489742 
L 1022.942095 278.494702 
L 1025.45712 279.231103 
L 1027.972145 284.090837 
L 1030.48717 282.920806 
L 1033.002195 284.383344 
L 1035.51722 286.569455 
L 1038.032246 286.946636 
L 1040.547271 286.223064 
L 1043.062296 287.644549 
L 1045.577321 288.701682 
L 1048.092346 286.656694 
L 1050.607371 289.291829 
L 1053.122396 288.601614 
L 1055.637421 289.045507 
L 1058.152447 290.269421 
L 1060.667472 292.463229 
L 1063.182497 292.319541 
L 1065.697522 291.190563 
L 1068.212547 292.850673 
L 1070.727572 294.218275 
L 1073.242597 294.415846 
L 1075.757622 294.048928 
L 1078.272648 295.229223 
L 1080.787673 294.929017 
L 1085.817723 295.560218 
L 1088.332748 295.485808 
L 1090.847773 295.591008 
L 1093.362798 295.883516 
L 1095.877823 295.465281 
L 1098.392849 296.386424 
L 1100.907874 295.832199 
L 1103.422899 296.160629 
L 1105.937924 225.532845 
L 1105.937924 225.532845 
" clip-path="url(#p0e8202ee59)" style="fill: none; stroke: #98fb98; stroke-opacity: 0.6; stroke-width: 1.5; stroke-linecap: round"/>
   </g>
   <g id="line2d_76">
    <path d="M 625.568125 180.881799 
L 628.08315 215.071845 
L 630.598175 232.637703 
L 633.1132 247.576124 
L 635.628226 250.434489 
L 638.143251 259.099388 
L 640.658276 268.195352 
L 643.173301 272.71126 
L 645.688326 265.993846 
L 648.203351 279.551835 
L 650.718376 278.776947 
L 653.233401 286.081942 
L 655.748427 283.705958 
L 658.263452 288.588784 
L 660.778477 285.427648 
L 665.808527 294.718617 
L 668.323552 284.806711 
L 670.838577 290.854436 
L 673.353602 300.781737 
L 675.868628 293.661484 
L 678.383653 295.511467 
L 680.898678 299.016428 
L 683.413703 298.315949 
L 685.928728 303.416873 
L 688.443753 300.366069 
L 690.958778 304.797304 
L 693.473803 299.601443 
L 695.988829 303.17055 
L 698.503854 305.903188 
L 701.018879 310.803975 
L 703.533904 311.537811 
L 706.048929 310.75779 
L 711.078979 313.962546 
L 713.594004 312.535929 
L 716.10903 315.399426 
L 718.624055 311.571167 
L 721.13908 318.334766 
L 723.654105 318.150024 
L 726.16913 318.719645 
L 728.684155 322.46323 
L 731.19918 318.853069 
L 733.714205 321.826898 
L 736.229231 322.219474 
L 738.744256 324.936717 
L 741.259281 325.506337 
L 743.774306 327.292173 
L 746.289331 327.433296 
L 748.804356 328.477599 
L 751.319381 328.21075 
L 753.834406 327.410203 
L 756.349432 328.870176 
L 758.864457 328.993337 
L 761.379482 328.146604 
L 763.894507 329.355123 
L 766.409532 329.273015 
L 768.924557 328.900966 
L 771.439582 328.85478 
L 773.954607 328.449375 
L 776.469633 328.723922 
L 778.984658 328.400624 
L 781.499683 328.323648 
L 784.014708 286.692616 
L 786.529733 289.373937 
L 789.044758 287.069797 
L 791.559783 289.651049 
L 794.074808 287.167299 
L 796.589834 287.754881 
L 799.104859 287.685603 
L 801.619884 292.609482 
L 804.134909 294.554402 
L 806.649934 295.013691 
L 809.164959 289.822962 
L 811.679984 300.081258 
L 814.195009 290.561928 
L 816.710035 298.464768 
L 819.22506 293.258644 
L 821.740085 299.208867 
L 824.25511 295.614101 
L 826.770135 298.749579 
L 829.28516 292.460663 
L 831.800185 299.773356 
L 834.31521 300.994704 
L 836.830236 299.285843 
L 839.345261 298.611022 
L 841.860286 289.42782 
L 844.375311 296.355634 
L 846.890336 301.941505 
L 851.920386 303.624707 
L 854.435411 304.925597 
L 856.950437 300.20442 
L 859.465462 295.183037 
L 861.980487 303.332199 
L 864.495512 307.358029 
L 867.010537 304.943558 
L 869.525562 308.502402 
L 872.040587 292.30158 
L 874.555612 306.095628 
L 877.070638 308.861622 
L 879.585663 305.359227 
L 882.100688 311.16063 
L 884.615713 309.020705 
L 887.130738 304.592035 
L 889.645763 306.980848 
L 892.160788 306.742224 
L 894.675813 308.458782 
L 897.190839 309.015573 
L 899.705864 311.509586 
L 902.220889 310.336989 
L 904.735914 304.851187 
L 907.250939 310.662853 
L 909.765964 313.444242 
L 912.280989 312.276777 
L 914.796014 308.959124 
L 917.31104 309.793028 
L 919.826065 313.164564 
L 922.34109 312.274212 
L 924.856115 314.503941 
L 927.37114 313.161998 
L 929.886165 314.316634 
L 932.40119 312.576983 
L 934.916215 310.696209 
L 937.431241 314.475717 
L 939.946266 319.027548 
L 942.461291 316.890189 
L 944.976316 318.794055 
L 947.491341 317.367438 
L 950.006366 317.544482 
L 952.521391 313.031139 
L 955.036416 318.504113 
L 957.551442 320.130866 
L 960.066467 319.656183 
L 962.581492 320.654301 
L 965.096517 318.445098 
L 967.611542 321.501034 
L 970.126567 321.755054 
L 972.641592 322.447835 
L 975.156617 322.819884 
L 977.671643 320.438769 
L 980.186668 321.316292 
L 982.701693 323.612734 
L 985.216718 322.647972 
L 987.731743 323.864188 
L 990.246768 324.131037 
L 992.761793 324.900795 
L 995.276818 322.58126 
L 997.791844 321.247014 
L 1000.306869 324.73658 
L 1002.821894 320.41311 
L 1005.336919 324.698092 
L 1007.851944 325.031653 
L 1010.366969 326.301753 
L 1012.881994 326.258133 
L 1015.397019 324.431243 
L 1017.912045 325.983586 
L 1020.42707 327.394808 
L 1022.942095 327.992652 
L 1025.45712 327.094602 
L 1027.972145 326.7867 
L 1030.48717 325.852728 
L 1033.002195 328.557141 
L 1035.51722 326.16063 
L 1038.032246 327.53593 
L 1040.547271 328.141472 
L 1043.062296 326.59426 
L 1045.577321 328.120945 
L 1050.607371 327.415335 
L 1053.122396 327.661657 
L 1055.637421 327.151051 
L 1058.152447 327.615471 
L 1060.667472 327.279344 
L 1063.182497 326.430045 
L 1065.697522 326.48906 
L 1070.727572 327.14592 
L 1073.242597 326.650709 
L 1075.757622 326.689197 
L 1078.272648 326.558338 
L 1080.787673 325.970757 
L 1083.302698 326.127274 
L 1103.422899 325.449888 
L 1105.937924 288.334764 
L 1108.452949 288.937741 
L 1110.967974 291.647286 
L 1113.482999 292.717248 
L 1115.998024 291.993677 
L 1115.998024 291.993677 
" clip-path="url(#p0e8202ee59)" style="fill: none; stroke: #dda0dd; stroke-opacity: 0.6; stroke-width: 1.5; stroke-linecap: round"/>
   </g>
   <g id="line2d_77">
    <path d="M 625.568125 139.651041 
L 628.08315 177.718097 
L 630.598175 184.148135 
L 633.1132 186.64728 
L 635.628226 191.696887 
L 638.143251 207.025317 
L 640.658276 204.944407 
L 643.173301 195.117174 
L 645.688326 200.769758 
L 648.203351 203.956552 
L 650.718376 208.097846 
L 653.233401 212.482896 
L 655.748427 215.482383 
L 658.263452 217.455527 
L 660.778477 224.840064 
L 663.293502 218.315089 
L 665.808527 215.628636 
L 668.323552 225.245469 
L 670.838577 214.745982 
L 673.353602 229.456041 
L 675.868628 230.646598 
L 678.383653 224.550122 
L 680.898678 224.521897 
L 683.413703 228.865893 
L 685.928728 232.622308 
L 688.443753 231.087926 
L 690.958778 235.506332 
L 693.473803 236.912421 
L 695.988829 235.226653 
L 698.503854 239.914474 
L 701.018879 223.93175 
L 703.533904 237.092031 
L 706.048929 243.18081 
L 708.563954 244.281563 
L 711.078979 242.200653 
L 713.594004 245.900619 
L 716.10903 243.878724 
L 718.624055 247.435002 
L 721.13908 244.453476 
L 726.16913 250.242049 
L 728.684155 249.518478 
L 731.19918 252.761721 
L 733.714205 254.216562 
L 736.229231 253.457068 
L 738.744256 256.066545 
L 741.259281 254.324328 
L 743.774306 254.355118 
L 746.289331 257.677903 
L 748.804356 254.321762 
L 751.319381 256.407804 
L 753.834406 256.251287 
L 756.349432 259.348276 
L 758.864457 258.696549 
L 761.379482 257.536781 
L 763.894507 260.24376 
L 766.409532 260.60298 
L 768.924557 262.034729 
L 771.439582 260.431068 
L 776.469633 260.474688 
L 778.984658 260.882659 
L 781.499683 260.808249 
L 784.014708 215.23606 
L 786.529733 223.659769 
L 789.044758 224.573214 
L 791.559783 230.913447 
L 794.074808 228.560556 
L 796.589834 221.686625 
L 799.104859 221.938079 
L 801.619884 232.832709 
L 804.134909 225.060727 
L 806.649934 231.724258 
L 809.164959 229.381631 
L 811.679984 233.084163 
L 814.195009 237.692442 
L 816.710035 235.991279 
L 819.22506 234.592887 
L 821.740085 232.104005 
L 824.25511 228.511805 
L 826.770135 235.35238 
L 829.28516 227.44954 
L 831.800185 236.594255 
L 834.31521 238.880434 
L 836.830236 235.552517 
L 839.345261 245.415672 
L 841.860286 233.900105 
L 844.375311 245.033359 
L 846.890336 238.754707 
L 849.405361 234.70835 
L 851.920386 243.963397 
L 854.435411 244.920462 
L 856.950437 236.524977 
L 859.465462 245.41054 
L 861.980487 245.723575 
L 864.495512 246.619059 
L 867.010537 241.235891 
L 869.525562 245.361789 
L 872.040587 247.332367 
L 874.555612 246.434317 
L 877.070638 241.312866 
L 879.585663 248.271471 
L 882.100688 244.050636 
L 884.615713 244.553544 
L 887.130738 240.532846 
L 889.645763 243.060215 
L 892.160788 241.074242 
L 894.675813 250.339552 
L 897.190839 244.33288 
L 902.220889 251.465963 
L 904.735914 250.419093 
L 907.250939 252.902843 
L 909.765964 246.624191 
L 912.280989 247.778826 
L 914.796014 251.53011 
L 917.31104 249.036096 
L 919.826065 248.517793 
L 922.34109 254.260182 
L 924.856115 250.496069 
L 927.37114 253.708522 
L 929.886165 254.829802 
L 932.40119 249.47999 
L 934.916215 254.468016 
L 937.431241 252.938765 
L 939.946266 250.290801 
L 942.461291 255.448173 
L 944.976316 252.033018 
L 947.491341 253.000346 
L 950.006366 253.154297 
L 952.521391 256.266682 
L 955.036416 253.531478 
L 957.551442 259.155837 
L 960.066467 257.262234 
L 962.581492 256.782419 
L 965.096517 257.077493 
L 970.126567 261.975714 
L 972.641592 254.042084 
L 975.156617 259.273866 
L 977.671643 260.741537 
L 980.186668 260.644034 
L 982.701693 258.801749 
L 985.216718 262.668495 
L 987.731743 261.483069 
L 990.246768 260.531136 
L 992.761793 260.305341 
L 995.276818 262.953306 
L 997.791844 263.566545 
L 1000.306869 260.964766 
L 1002.821894 262.966135 
L 1005.336919 266.514715 
L 1007.851944 266.345369 
L 1010.366969 265.688509 
L 1012.881994 266.435174 
L 1015.397019 265.324158 
L 1017.912045 263.689707 
L 1020.42707 268.331342 
L 1022.942095 267.900278 
L 1025.45712 268.818855 
L 1030.48717 266.968872 
L 1033.002195 266.761038 
L 1035.51722 269.090836 
L 1038.032246 270.59956 
L 1040.547271 269.157548 
L 1043.062296 271.007531 
L 1045.577321 270.037637 
L 1048.092346 271.851698 
L 1050.607371 270.750945 
L 1053.122396 272.811329 
L 1058.152447 271.09477 
L 1060.667472 272.567572 
L 1063.182497 273.511808 
L 1068.212547 272.844685 
L 1070.727572 273.873594 
L 1073.242597 272.357172 
L 1075.757622 273.853067 
L 1078.272648 273.2193 
L 1080.787673 273.447661 
L 1083.302698 273.211602 
L 1085.817723 273.696549 
L 1088.332748 273.396344 
L 1090.847773 273.930042 
L 1093.362798 274.058335 
L 1095.877823 273.699115 
L 1098.392849 274.309789 
L 1100.907874 274.243077 
L 1103.422899 273.919779 
L 1105.937924 239.583479 
L 1105.937924 239.583479 
" clip-path="url(#p0e8202ee59)" style="fill: none; stroke: #f0e68c; stroke-opacity: 0.6; stroke-width: 1.5; stroke-linecap: round"/>
   </g>
   <g id="patch_8">
    <path d="M 625.568125 384.5775 
L 625.568125 25.3575 
" style="fill: none; stroke: #cccccc; stroke-linejoin: miter; stroke-linecap: square"/>
   </g>
   <g id="patch_9">
    <path d="M 1126.058125 384.5775 
L 1126.058125 25.3575 
" style="fill: none; stroke: #cccccc; stroke-linejoin: miter; stroke-linecap: square"/>
   </g>
   <g id="patch_10">
    <path d="M 625.568125 384.5775 
L 1126.058125 384.5775 
" style="fill: none; stroke: #cccccc; stroke-linejoin: miter; stroke-linecap: square"/>
   </g>
   <g id="patch_11">
    <path d="M 625.568125 25.3575 
L 1126.058125 25.3575 
" style="fill: none; stroke: #cccccc; stroke-linejoin: miter; stroke-linecap: square"/>
   </g>
   <g id="text_42">
    <!-- Validation Loss Comparison -->
    <g style="fill: #262626" transform="translate(751.140625 19.3575) scale(0.16 -0.16)">
     <defs>
      <path id="DejaVuSans-Bold-56" d="M 31 4666 
L 1241 4666 
L 2478 1222 
L 3713 4666 
L 4922 4666 
L 3194 0 
L 1759 0 
L 31 4666 
z
" transform="scale(0.015625)"/>
      <path id="DejaVuSans-Bold-6c" d="M 538 4863 
L 1656 4863 
L 1656 0 
L 538 0 
L 538 4863 
z
" transform="scale(0.015625)"/>
      <path id="DejaVuSans-Bold-64" d="M 2919 2988 
L 2919 4863 
L 4044 4863 
L 4044 0 
L 2919 0 
L 2919 506 
Q 2688 197 2409 53 
Q 2131 -91 1766 -91 
Q 1119 -91 703 423 
Q 288 938 288 1747 
Q 288 2556 703 3070 
Q 1119 3584 1766 3584 
Q 2128 3584 2408 3439 
Q 2688 3294 2919 2988 
z
M 2181 722 
Q 2541 722 2730 984 
Q 2919 1247 2919 1747 
Q 2919 2247 2730 2509 
Q 2541 2772 2181 2772 
Q 1825 2772 1636 2509 
Q 1447 2247 1447 1747 
Q 1447 1247 1636 984 
Q 1825 722 2181 722 
z
" transform="scale(0.015625)"/>
      <path id="DejaVuSans-Bold-74" d="M 1759 4494 
L 1759 3500 
L 2913 3500 
L 2913 2700 
L 1759 2700 
L 1759 1216 
Q 1759 972 1856 886 
Q 1953 800 2241 800 
L 2816 800 
L 2816 0 
L 1856 0 
Q 1194 0 917 276 
Q 641 553 641 1216 
L 641 2700 
L 84 2700 
L 84 3500 
L 641 3500 
L 641 4494 
L 1759 4494 
z
" transform="scale(0.015625)"/>
     </defs>
     <use xlink:href="#DejaVuSans-Bold-56"/>
     <use xlink:href="#DejaVuSans-Bold-61" x="71.892578"/>
     <use xlink:href="#DejaVuSans-Bold-6c" x="139.373047"/>
     <use xlink:href="#DejaVuSans-Bold-69" x="173.650391"/>
     <use xlink:href="#DejaVuSans-Bold-64" x="207.927734"/>
     <use xlink:href="#DejaVuSans-Bold-61" x="279.509766"/>
     <use xlink:href="#DejaVuSans-Bold-74" x="346.990234"/>
     <use xlink:href="#DejaVuSans-Bold-69" x="394.792969"/>
     <use xlink:href="#DejaVuSans-Bold-6f" x="429.070312"/>
     <use xlink:href="#DejaVuSans-Bold-6e" x="497.771484"/>
     <use xlink:href="#DejaVuSans-Bold-20" x="568.962891"/>
     <use xlink:href="#DejaVuSans-Bold-4c" x="603.777344"/>
     <use xlink:href="#DejaVuSans-Bold-6f" x="667.498047"/>
     <use xlink:href="#DejaVuSans-Bold-73" x="736.199219"/>
     <use xlink:href="#DejaVuSans-Bold-73" x="795.720703"/>
     <use xlink:href="#DejaVuSans-Bold-20" x="855.242188"/>
     <use xlink:href="#DejaVuSans-Bold-43" x="890.056641"/>
     <use xlink:href="#DejaVuSans-Bold-6f" x="963.445312"/>
     <use xlink:href="#DejaVuSans-Bold-6d" x="1032.146484"/>
     <use xlink:href="#DejaVuSans-Bold-70" x="1136.345703"/>
     <use xlink:href="#DejaVuSans-Bold-61" x="1207.927734"/>
     <use xlink:href="#DejaVuSans-Bold-72" x="1275.408203"/>
     <use xlink:href="#DejaVuSans-Bold-69" x="1324.724609"/>
     <use xlink:href="#DejaVuSans-Bold-73" x="1359.001953"/>
     <use xlink:href="#DejaVuSans-Bold-6f" x="1418.523438"/>
     <use xlink:href="#DejaVuSans-Bold-6e" x="1487.224609"/>
    </g>
   </g>
   <g id="legend_2">
    <g id="line2d_78">
     <path d="M 966.709375 41.075625 
L 978.709375 41.075625 
L 990.709375 41.075625 
" style="fill: none; stroke: #a9a9a9; stroke-opacity: 0.6; stroke-width: 1.5; stroke-linecap: round"/>
    </g>
    <g id="text_43">
     <!-- Exp-1 -->
     <g style="fill: #262626" transform="translate(1000.309375 45.275625) scale(0.12 -0.12)">
      <use xlink:href="#DejaVuSans-45"/>
      <use xlink:href="#DejaVuSans-78" x="63.183594"/>
      <use xlink:href="#DejaVuSans-70" x="122.363281"/>
      <use xlink:href="#DejaVuSans-2d" x="185.839844"/>
      <use xlink:href="#DejaVuSans-31" x="221.923828"/>
     </g>
    </g>
    <g id="line2d_79">
     <path d="M 966.709375 58.689375 
L 978.709375 58.689375 
L 990.709375 58.689375 
" style="fill: none; stroke: #87ceeb; stroke-opacity: 0.6; stroke-width: 1.5; stroke-linecap: round"/>
    </g>
    <g id="text_44">
     <!-- Exp-2 -->
     <g style="fill: #262626" transform="translate(1000.309375 62.889375) scale(0.12 -0.12)">
      <use xlink:href="#DejaVuSans-45"/>
      <use xlink:href="#DejaVuSans-78" x="63.183594"/>
      <use xlink:href="#DejaVuSans-70" x="122.363281"/>
      <use xlink:href="#DejaVuSans-2d" x="185.839844"/>
      <use xlink:href="#DejaVuSans-32" x="221.923828"/>
     </g>
    </g>
    <g id="line2d_80">
     <path d="M 966.709375 76.303125 
L 978.709375 76.303125 
L 990.709375 76.303125 
" style="fill: none; stroke: #98fb98; stroke-opacity: 0.6; stroke-width: 1.5; stroke-linecap: round"/>
    </g>
    <g id="text_45">
     <!-- Exp-3 -->
     <g style="fill: #262626" transform="translate(1000.309375 80.503125) scale(0.12 -0.12)">
      <use xlink:href="#DejaVuSans-45"/>
      <use xlink:href="#DejaVuSans-78" x="63.183594"/>
      <use xlink:href="#DejaVuSans-70" x="122.363281"/>
      <use xlink:href="#DejaVuSans-2d" x="185.839844"/>
      <use xlink:href="#DejaVuSans-33" x="221.923828"/>
     </g>
    </g>
    <g id="line2d_81">
     <path d="M 966.709375 93.916875 
L 978.709375 93.916875 
L 990.709375 93.916875 
" style="fill: none; stroke: #dda0dd; stroke-opacity: 0.6; stroke-width: 1.5; stroke-linecap: round"/>
    </g>
    <g id="text_46">
     <!-- Exp-4 -->
     <g style="fill: #262626" transform="translate(1000.309375 98.116875) scale(0.12 -0.12)">
      <use xlink:href="#DejaVuSans-45"/>
      <use xlink:href="#DejaVuSans-78" x="63.183594"/>
      <use xlink:href="#DejaVuSans-70" x="122.363281"/>
      <use xlink:href="#DejaVuSans-2d" x="185.839844"/>
      <use xlink:href="#DejaVuSans-34" x="221.923828"/>
     </g>
    </g>
    <g id="line2d_82">
     <path d="M 966.709375 111.530625 
L 978.709375 111.530625 
L 990.709375 111.530625 
" style="fill: none; stroke: #f0e68c; stroke-opacity: 0.6; stroke-width: 1.5; stroke-linecap: round"/>
    </g>
    <g id="text_47">
     <!-- Exp-5 -->
     <g style="fill: #262626" transform="translate(1000.309375 115.730625) scale(0.12 -0.12)">
      <use xlink:href="#DejaVuSans-45"/>
      <use xlink:href="#DejaVuSans-78" x="63.183594"/>
      <use xlink:href="#DejaVuSans-70" x="122.363281"/>
      <use xlink:href="#DejaVuSans-2d" x="185.839844"/>
      <use xlink:href="#DejaVuSans-35" x="221.923828"/>
     </g>
    </g>
    <g id="line2d_83">
     <path d="M 966.709375 129.144375 
L 978.709375 129.144375 
L 990.709375 129.144375 
" style="fill: none; stroke: #e63946; stroke-width: 3; stroke-linecap: round"/>
    </g>
    <g id="text_48">
     <!-- Exp-6 (Final Model) -->
     <g style="fill: #262626" transform="translate(1000.309375 133.344375) scale(0.12 -0.12)">
      <use xlink:href="#DejaVuSans-45"/>
      <use xlink:href="#DejaVuSans-78" x="63.183594"/>
      <use xlink:href="#DejaVuSans-70" x="122.363281"/>
      <use xlink:href="#DejaVuSans-2d" x="185.839844"/>
      <use xlink:href="#DejaVuSans-36" x="221.923828"/>
      <use xlink:href="#DejaVuSans-20" x="285.546875"/>
      <use xlink:href="#DejaVuSans-28" x="317.333984"/>
      <use xlink:href="#DejaVuSans-46" x="356.347656"/>
      <use xlink:href="#DejaVuSans-69" x="406.617188"/>
      <use xlink:href="#DejaVuSans-6e" x="434.400391"/>
      <use xlink:href="#DejaVuSans-61" x="497.779297"/>
      <use xlink:href="#DejaVuSans-6c" x="559.058594"/>
      <use xlink:href="#DejaVuSans-20" x="586.841797"/>
      <use xlink:href="#DejaVuSans-4d" x="618.628906"/>
      <use xlink:href="#DejaVuSans-6f" x="704.908203"/>
      <use xlink:href="#DejaVuSans-64" x="766.089844"/>
      <use xlink:href="#DejaVuSans-65" x="829.566406"/>
      <use xlink:href="#DejaVuSans-6c" x="891.089844"/>
      <use xlink:href="#DejaVuSans-29" x="918.873047"/>
     </g>
    </g>
   </g>
   <g id="line2d_84">
    <path d="M 625.568125 165.327573 
L 628.08315 195.992132 
L 630.598175 214.463737 
L 633.1132 219.767364 
L 635.628226 229.148138 
L 638.143251 231.044306 
L 640.658276 237.943896 
L 643.173301 234.803287 
L 645.688326 244.892237 
L 648.203351 252.276774 
L 650.718376 250.462713 
L 653.233401 245.472121 
L 655.748427 256.684917 
L 658.263452 255.707325 
L 660.778477 258.611875 
L 663.293502 265.408831 
L 665.808527 261.524123 
L 668.323552 259.481701 
L 670.838577 263.34075 
L 673.353602 262.894291 
L 675.868628 265.714168 
L 678.383653 263.099559 
L 680.898678 264.064322 
L 683.413703 267.990083 
L 685.928728 272.901134 
L 688.443753 268.382659 
L 690.958778 273.260354 
L 695.988829 277.314408 
L 698.503854 275.877528 
L 701.018879 278.643522 
L 703.533904 275.872396 
L 706.048929 280.542256 
L 708.563954 283.503255 
L 711.078979 282.330659 
L 713.594004 283.595626 
L 716.10903 284.308935 
L 718.624055 281.673799 
L 721.13908 284.642496 
L 723.654105 286.315435 
L 726.16913 287.734354 
L 728.684155 288.819711 
L 731.19918 287.423885 
L 733.714205 291.64472 
L 736.229231 292.868634 
L 738.744256 292.717248 
L 743.774306 294.964939 
L 746.289331 294.598022 
L 748.804356 295.575613 
L 751.319381 295.742394 
L 753.834406 295.693643 
L 756.349432 298.264632 
L 758.864457 297.597509 
L 763.894507 299.393609 
L 766.409532 299.763092 
L 768.924557 299.858029 
L 771.439582 299.683551 
L 776.469633 300.037639 
L 778.984658 300.253171 
L 781.499683 300.168498 
L 784.014708 266.199115 
L 786.529733 259.648482 
L 789.044758 263.291999 
L 791.559783 260.636337 
L 794.074808 263.938595 
L 796.589834 266.694325 
L 799.104859 264.002741 
L 801.619884 267.841263 
L 804.134909 264.618547 
L 806.649934 265.431924 
L 809.164959 272.244274 
L 811.679984 266.90216 
L 814.195009 266.016939 
L 816.710035 264.023268 
L 819.22506 267.977254 
L 821.740085 268.826553 
L 824.25511 268.344171 
L 829.28516 272.126245 
L 831.800185 271.03319 
L 834.31521 273.093573 
L 836.830236 265.53969 
L 839.345261 271.371883 
L 841.860286 273.391212 
L 844.375311 274.030111 
L 846.890336 274.404726 
L 849.405361 272.536782 
L 851.920386 275.992992 
L 854.435411 264.349132 
L 856.950437 273.1141 
L 859.465462 272.503426 
L 861.980487 277.535072 
L 864.495512 277.037295 
L 867.010537 259.581769 
L 869.525562 280.303632 
L 874.555612 271.910713 
L 877.070638 267.956727 
L 879.585663 270.455872 
L 882.100688 276.644719 
L 884.615713 278.292 
L 887.130738 279.092547 
L 889.645763 279.238801 
L 892.160788 279.243933 
L 894.675813 283.913793 
L 897.190839 282.389673 
L 902.220889 284.3115 
L 904.735914 281.029769 
L 907.250939 284.365383 
L 909.765964 281.948346 
L 912.280989 280.039348 
L 914.796014 285.130009 
L 917.31104 280.070139 
L 919.826065 284.529598 
L 922.34109 286.140957 
L 924.856115 286.574586 
L 927.37114 288.15772 
L 929.886165 285.122311 
L 932.40119 280.593573 
L 934.916215 285.645746 
L 937.431241 288.247525 
L 939.946266 287.685603 
L 942.461291 284.799013 
L 944.976316 288.763263 
L 947.491341 288.388647 
L 950.006366 291.552349 
L 952.521391 289.704932 
L 955.036416 291.46511 
L 957.551442 291.852555 
L 960.066467 291.200827 
L 962.581492 291.783276 
L 965.096517 287.924227 
L 967.611542 290.803119 
L 970.126567 293.004624 
L 972.641592 294.515914 
L 975.156617 293.607601 
L 977.671643 292.922517 
L 980.186668 296.20938 
L 982.701693 296.689195 
L 985.216718 295.732131 
L 987.731743 298.346739 
L 990.246768 295.360081 
L 992.761793 294.864871 
L 995.276818 300.971611 
L 997.791844 297.946465 
L 1000.306869 298.22871 
L 1002.821894 297.053547 
L 1005.336919 298.788066 
L 1007.851944 301.153787 
L 1010.366969 301.910715 
L 1015.397019 300.345542 
L 1017.912045 300.738118 
L 1020.42707 299.991453 
L 1022.942095 302.005651 
L 1025.45712 301.982559 
L 1027.972145 301.708012 
L 1030.48717 304.132747 
L 1033.002195 304.556113 
L 1035.51722 303.829976 
L 1038.032246 305.785159 
L 1040.547271 303.804317 
L 1043.062296 305.177051 
L 1045.577321 305.664564 
L 1048.092346 305.187314 
L 1050.607371 306.678077 
L 1053.122396 307.48119 
L 1058.152447 307.547903 
L 1060.667472 307.658235 
L 1063.182497 308.699973 
L 1065.697522 307.211775 
L 1070.727572 308.720499 
L 1073.242597 308.651221 
L 1075.757622 309.297817 
L 1078.272648 309.218276 
L 1080.787673 308.587075 
L 1083.302698 309.223407 
L 1090.847773 309.528744 
L 1093.362798 309.662169 
L 1095.877823 309.449203 
L 1098.392849 309.474861 
L 1103.422899 309.864872 
L 1105.937924 267.017623 
L 1108.452949 269.816973 
L 1110.967974 270.201852 
L 1113.482999 271.710576 
L 1115.998024 269.016426 
L 1118.51305 268.521216 
L 1121.028075 267.410199 
L 1123.5431 273.637535 
L 1126.058125 265.778314 
L 1126.058125 265.778314 
" clip-path="url(#p0e8202ee59)" style="fill: none; stroke: #e63946; stroke-width: 3; stroke-linecap: round"/>
   </g>
  </g>
 </g>
 <defs>
  <clipPath id="pd3d804a412">
   <rect x="54.968125" y="25.3575" width="500.49" height="359.22"/>
  </clipPath>
  <clipPath id="p0e8202ee59">
   <rect x="625.568125" y="25.3575" width="500.49" height="359.22"/>
  </clipPath>
 </defs>
</svg>
