<?xml version="1.0" encoding="utf-8" standalone="no"?>
<!DOCTYPE svg PUBLIC "-//W3C//DTD SVG 1.1//EN"
  "http://www.w3.org/Graphics/SVG/1.1/DTD/svg11.dtd">
<svg xmlns:xlink="http://www.w3.org/1999/xlink" width="610.916875pt" height="395.969687pt" viewBox="0 0 610.916875 395.969687" xmlns="http://www.w3.org/2000/svg" version="1.1">
 <metadata>
  <rdf:RDF xmlns:dc="http://purl.org/dc/elements/1.1/" xmlns:cc="http://creativecommons.org/ns#" xmlns:rdf="http://www.w3.org/1999/02/22-rdf-syntax-ns#">
   <cc:Work>
    <dc:type rdf:resource="http://purl.org/dc/dcmitype/StillImage"/>
    <dc:date>2026-03-21T04:10:28.494257</dc:date>
    <dc:format>image/svg+xml</dc:format>
    <dc:creator>
     <cc:Agent>
      <dc:title>Matplotlib v3.9.0, https://matplotlib.org/</dc:title>
     </cc:Agent>
    </dc:creator>
   </cc:Work>
  </rdf:RDF>
 </metadata>
 <defs>
  <style type="text/css">*{stroke-linejoin: round; stroke-linecap: butt}</style>
 </defs>
 <g id="figure_1">
  <g id="patch_1">
   <path d="M 0 395.969687 
L 610.916875 395.969687 
L 610.916875 0 
L 0 0 
z
" style="fill: #ffffff"/>
  </g>
  <g id="axes_1">
   <g id="patch_2">
    <path d="M 45.716875 356.477812 
L 603.716875 356.477812 
L 603.716875 23.837812 
L 45.716875 23.837812 
z
" style="fill: #ffffff"/>
   </g>
   <g id="matplotlib.axis_1">
    <g id="xtick_1">
     <g id="line2d_1">
      <path d="M 71.080511 356.477812 
L 71.080511 23.837812 
" clip-path="url(#p7efceedba2)" style="fill: none; stroke: #b0b0b0; stroke-opacity: 0.3; stroke-width: 0.8; stroke-linecap: square"/>
     </g>
     <g id="line2d_2">
      <defs>
       <path id="m98f3bfa95b" d="M 0 0 
L 0 3.5 
" style="stroke: #000000; stroke-width: 0.8"/>
      </defs>
      <g>
       <use xlink:href="#m98f3bfa95b" x="71.080511" y="356.477812" style="stroke: #000000; stroke-width: 0.8"/>
      </g>
     </g>
     <g id="text_1">
      <!-- 0 -->
      <g transform="translate(67.899261 371.07625) scale(0.1 -0.1)">
       <defs>
        <path id="DejaVuSans-30" d="M 2034 4250 
Q 1547 4250 1301 3770 
Q 1056 3291 1056 2328 
Q 1056 1369 1301 889 
Q 1547 409 2034 409 
Q 2525 409 2770 889 
Q 3016 1369 3016 2328 
Q 3016 3291 2770 3770 
Q 2525 4250 2034 4250 
z
M 2034 4750 
Q 2819 4750 3233 4129 
Q 3647 3509 3647 2328 
Q 3647 1150 3233 529 
Q 2819 -91 2034 -91 
Q 1250 -91 836 529 
Q 422 1150 422 2328 
Q 422 3509 836 4129 
Q 1250 4750 2034 4750 
z
" transform="scale(0.015625)"/>
       </defs>
       <use xlink:href="#DejaVuSans-30"/>
      </g>
     </g>
    </g>
    <g id="xtick_2">
     <g id="line2d_3">
      <path d="M 170.351104 356.477812 
L 170.351104 23.837812 
" clip-path="url(#p7efceedba2)" style="fill: none; stroke: #b0b0b0; stroke-opacity: 0.3; stroke-width: 0.8; stroke-linecap: square"/>
     </g>
     <g id="line2d_4">
      <g>
       <use xlink:href="#m98f3bfa95b" x="170.351104" y="356.477812" style="stroke: #000000; stroke-width: 0.8"/>
      </g>
     </g>
     <g id="text_2">
      <!-- 100 -->
      <g transform="translate(160.807354 371.07625) scale(0.1 -0.1)">
       <defs>
        <path id="DejaVuSans-31" d="M 794 531 
L 1825 531 
L 1825 4091 
L 703 3866 
L 703 4441 
L 1819 4666 
L 2450 4666 
L 2450 531 
L 3481 531 
L 3481 0 
L 794 0 
L 794 531 
z
" transform="scale(0.015625)"/>
       </defs>
       <use xlink:href="#DejaVuSans-31"/>
       <use xlink:href="#DejaVuSans-30" x="63.623047"/>
       <use xlink:href="#DejaVuSans-30" x="127.246094"/>
      </g>
     </g>
    </g>
    <g id="xtick_3">
     <g id="line2d_5">
      <path d="M 269.621696 356.477812 
L 269.621696 23.837812 
" clip-path="url(#p7efceedba2)" style="fill: none; stroke: #b0b0b0; stroke-opacity: 0.3; stroke-width: 0.8; stroke-linecap: square"/>
     </g>
     <g id="line2d_6">
      <g>
       <use xlink:href="#m98f3bfa95b" x="269.621696" y="356.477812" style="stroke: #000000; stroke-width: 0.8"/>
      </g>
     </g>
     <g id="text_3">
      <!-- 200 -->
      <g transform="translate(260.077946 371.07625) scale(0.1 -0.1)">
       <defs>
        <path id="DejaVuSans-32" d="M 1228 531 
L 3431 531 
L 3431 0 
L 469 0 
L 469 531 
Q 828 903 1448 1529 
Q 2069 2156 2228 2338 
Q 2531 2678 2651 2914 
Q 2772 3150 2772 3378 
Q 2772 3750 2511 3984 
Q 2250 4219 1831 4219 
Q 1534 4219 1204 4116 
Q 875 4013 500 3803 
L 500 4441 
Q 881 4594 1212 4672 
Q 1544 4750 1819 4750 
Q 2544 4750 2975 4387 
Q 3406 4025 3406 3419 
Q 3406 3131 3298 2873 
Q 3191 2616 2906 2266 
Q 2828 2175 2409 1742 
Q 1991 1309 1228 531 
z
" transform="scale(0.015625)"/>
       </defs>
       <use xlink:href="#DejaVuSans-32"/>
       <use xlink:href="#DejaVuSans-30" x="63.623047"/>
       <use xlink:href="#DejaVuSans-30" x="127.246094"/>
      </g>
     </g>
    </g>
    <g id="xtick_4">
     <g id="line2d_7">
      <path d="M 368.892289 356.477812 
L 368.892289 23.837812 
" clip-path="url(#p7efceedba2)" style="fill: none; stroke: #b0b0b0; stroke-opacity: 0.3; stroke-width: 0.8; stroke-linecap: square"/>
     </g>
     <g id="line2d_8">
      <g>
       <use xlink:href="#m98f3bfa95b" x="368.892289" y="356.477812" style="stroke: #000000; stroke-width: 0.8"/>
      </g>
     </g>
     <g id="text_4">
      <!-- 300 -->
      <g transform="translate(359.348539 371.07625) scale(0.1 -0.1)">
       <defs>
        <path id="DejaVuSans-33" d="M 2597 2516 
Q 3050 2419 3304 2112 
Q 3559 1806 3559 1356 
Q 3559 666 3084 287 
Q 2609 -91 1734 -91 
Q 1441 -91 1130 -33 
Q 819 25 488 141 
L 488 750 
Q 750 597 1062 519 
Q 1375 441 1716 441 
Q 2309 441 2620 675 
Q 2931 909 2931 1356 
Q 2931 1769 2642 2001 
Q 2353 2234 1838 2234 
L 1294 2234 
L 1294 2753 
L 1863 2753 
Q 2328 2753 2575 2939 
Q 2822 3125 2822 3475 
Q 2822 3834 2567 4026 
Q 2313 4219 1838 4219 
Q 1578 4219 1281 4162 
Q 984 4106 628 3988 
L 628 4550 
Q 988 4650 1302 4700 
Q 1616 4750 1894 4750 
Q 2613 4750 3031 4423 
Q 3450 4097 3450 3541 
Q 3450 3153 3228 2886 
Q 3006 2619 2597 2516 
z
" transform="scale(0.015625)"/>
       </defs>
       <use xlink:href="#DejaVuSans-33"/>
       <use xlink:href="#DejaVuSans-30" x="63.623047"/>
       <use xlink:href="#DejaVuSans-30" x="127.246094"/>
      </g>
     </g>
    </g>
    <g id="xtick_5">
     <g id="line2d_9">
      <path d="M 468.162881 356.477812 
L 468.162881 23.837812 
" clip-path="url(#p7efceedba2)" style="fill: none; stroke: #b0b0b0; stroke-opacity: 0.3; stroke-width: 0.8; stroke-linecap: square"/>
     </g>
     <g id="line2d_10">
      <g>
       <use xlink:href="#m98f3bfa95b" x="468.162881" y="356.477812" style="stroke: #000000; stroke-width: 0.8"/>
      </g>
     </g>
     <g id="text_5">
      <!-- 400 -->
      <g transform="translate(458.619131 371.07625) scale(0.1 -0.1)">
       <defs>
        <path id="DejaVuSans-34" d="M 2419 4116 
L 825 1625 
L 2419 1625 
L 2419 4116 
z
M 2253 4666 
L 3047 4666 
L 3047 1625 
L 3713 1625 
L 3713 1100 
L 3047 1100 
L 3047 0 
L 2419 0 
L 2419 1100 
L 313 1100 
L 313 1709 
L 2253 4666 
z
" transform="scale(0.015625)"/>
       </defs>
       <use xlink:href="#DejaVuSans-34"/>
       <use xlink:href="#DejaVuSans-30" x="63.623047"/>
       <use xlink:href="#DejaVuSans-30" x="127.246094"/>
      </g>
     </g>
    </g>
    <g id="xtick_6">
     <g id="line2d_11">
      <path d="M 567.433473 356.477812 
L 567.433473 23.837812 
" clip-path="url(#p7efceedba2)" style="fill: none; stroke: #b0b0b0; stroke-opacity: 0.3; stroke-width: 0.8; stroke-linecap: square"/>
     </g>
     <g id="line2d_12">
      <g>
       <use xlink:href="#m98f3bfa95b" x="567.433473" y="356.477812" style="stroke: #000000; stroke-width: 0.8"/>
      </g>
     </g>
     <g id="text_6">
      <!-- 500 -->
      <g transform="translate(557.889723 371.07625) scale(0.1 -0.1)">
       <defs>
        <path id="DejaVuSans-35" d="M 691 4666 
L 3169 4666 
L 3169 4134 
L 1269 4134 
L 1269 2991 
Q 1406 3038 1543 3061 
Q 1681 3084 1819 3084 
Q 2600 3084 3056 2656 
Q 3513 2228 3513 1497 
Q 3513 744 3044 326 
Q 2575 -91 1722 -91 
Q 1428 -91 1123 -41 
Q 819 9 494 109 
L 494 744 
Q 775 591 1075 516 
Q 1375 441 1709 441 
Q 2250 441 2565 725 
Q 2881 1009 2881 1497 
Q 2881 1984 2565 2268 
Q 2250 2553 1709 2553 
Q 1456 2553 1204 2497 
Q 953 2441 691 2322 
L 691 4666 
z
" transform="scale(0.015625)"/>
       </defs>
       <use xlink:href="#DejaVuSans-35"/>
       <use xlink:href="#DejaVuSans-30" x="63.623047"/>
       <use xlink:href="#DejaVuSans-30" x="127.246094"/>
      </g>
     </g>
    </g>
    <g id="text_7">
     <!-- Epoch -->
     <g transform="translate(306.34375 386.274062) scale(0.12 -0.12)">
      <defs>
       <path id="DejaVuSans-45" d="M 628 4666 
L 3578 4666 
L 3578 4134 
L 1259 4134 
L 1259 2753 
L 3481 2753 
L 3481 2222 
L 1259 2222 
L 1259 531 
L 3634 531 
L 3634 0 
L 628 0 
L 628 4666 
z
" transform="scale(0.015625)"/>
       <path id="DejaVuSans-70" d="M 1159 525 
L 1159 -1331 
L 581 -1331 
L 581 3500 
L 1159 3500 
L 1159 2969 
Q 1341 3281 1617 3432 
Q 1894 3584 2278 3584 
Q 2916 3584 3314 3078 
Q 3713 2572 3713 1747 
Q 3713 922 3314 415 
Q 2916 -91 2278 -91 
Q 1894 -91 1617 61 
Q 1341 213 1159 525 
z
M 3116 1747 
Q 3116 2381 2855 2742 
Q 2594 3103 2138 3103 
Q 1681 3103 1420 2742 
Q 1159 2381 1159 1747 
Q 1159 1113 1420 752 
Q 1681 391 2138 391 
Q 2594 391 2855 752 
Q 3116 1113 3116 1747 
z
" transform="scale(0.015625)"/>
       <path id="DejaVuSans-6f" d="M 1959 3097 
Q 1497 3097 1228 2736 
Q 959 2375 959 1747 
Q 959 1119 1226 758 
Q 1494 397 1959 397 
Q 2419 397 2687 759 
Q 2956 1122 2956 1747 
Q 2956 2369 2687 2733 
Q 2419 3097 1959 3097 
z
M 1959 3584 
Q 2709 3584 3137 3096 
Q 3566 2609 3566 1747 
Q 3566 888 3137 398 
Q 2709 -91 1959 -91 
Q 1206 -91 779 398 
Q 353 888 353 1747 
Q 353 2609 779 3096 
Q 1206 3584 1959 3584 
z
" transform="scale(0.015625)"/>
       <path id="DejaVuSans-63" d="M 3122 3366 
L 3122 2828 
Q 2878 2963 2633 3030 
Q 2388 3097 2138 3097 
Q 1578 3097 1268 2742 
Q 959 2388 959 1747 
Q 959 1106 1268 751 
Q 1578 397 2138 397 
Q 2388 397 2633 464 
Q 2878 531 3122 666 
L 3122 134 
Q 2881 22 2623 -34 
Q 2366 -91 2075 -91 
Q 1284 -91 818 406 
Q 353 903 353 1747 
Q 353 2603 823 3093 
Q 1294 3584 2113 3584 
Q 2378 3584 2631 3529 
Q 2884 3475 3122 3366 
z
" transform="scale(0.015625)"/>
       <path id="DejaVuSans-68" d="M 3513 2113 
L 3513 0 
L 2938 0 
L 2938 2094 
Q 2938 2591 2744 2837 
Q 2550 3084 2163 3084 
Q 1697 3084 1428 2787 
Q 1159 2491 1159 1978 
L 1159 0 
L 581 0 
L 581 4863 
L 1159 4863 
L 1159 2956 
Q 1366 3272 1645 3428 
Q 1925 3584 2291 3584 
Q 2894 3584 3203 3211 
Q 3513 2838 3513 2113 
z
" transform="scale(0.015625)"/>
      </defs>
      <use xlink:href="#DejaVuSans-45"/>
      <use xlink:href="#DejaVuSans-70" x="63.183594"/>
      <use xlink:href="#DejaVuSans-6f" x="126.660156"/>
      <use xlink:href="#DejaVuSans-63" x="187.841797"/>
      <use xlink:href="#DejaVuSans-68" x="242.822266"/>
     </g>
    </g>
   </g>
   <g id="matplotlib.axis_2">
    <g id="ytick_1">
     <g id="line2d_13">
      <path d="M 45.716875 333.142071 
L 603.716875 333.142071 
" clip-path="url(#p7efceedba2)" style="fill: none; stroke: #b0b0b0; stroke-opacity: 0.3; stroke-width: 0.8; stroke-linecap: square"/>
     </g>
     <g id="line2d_14">
      <defs>
       <path id="m4ef98e3c03" d="M 0 0 
L -3.5 0 
" style="stroke: #000000; stroke-width: 0.8"/>
      </defs>
      <g>
       <use xlink:href="#m4ef98e3c03" x="45.716875" y="333.142071" style="stroke: #000000; stroke-width: 0.8"/>
      </g>
     </g>
     <g id="text_8">
      <!-- 0.1 -->
      <g transform="translate(22.81375 336.941289) scale(0.1 -0.1)">
       <defs>
        <path id="DejaVuSans-2e" d="M 684 794 
L 1344 794 
L 1344 0 
L 684 0 
L 684 794 
z
" transform="scale(0.015625)"/>
       </defs>
       <use xlink:href="#DejaVuSans-30"/>
       <use xlink:href="#DejaVuSans-2e" x="63.623047"/>
       <use xlink:href="#DejaVuSans-31" x="95.410156"/>
      </g>
     </g>
    </g>
    <g id="ytick_2">
     <g id="line2d_15">
      <path d="M 45.716875 261.033873 
L 603.716875 261.033873 
" clip-path="url(#p7efceedba2)" style="fill: none; stroke: #b0b0b0; stroke-opacity: 0.3; stroke-width: 0.8; stroke-linecap: square"/>
     </g>
     <g id="line2d_16">
      <g>
       <use xlink:href="#m4ef98e3c03" x="45.716875" y="261.033873" style="stroke: #000000; stroke-width: 0.8"/>
      </g>
     </g>
     <g id="text_9">
      <!-- 0.2 -->
      <g transform="translate(22.81375 264.833091) scale(0.1 -0.1)">
       <use xlink:href="#DejaVuSans-30"/>
       <use xlink:href="#DejaVuSans-2e" x="63.623047"/>
       <use xlink:href="#DejaVuSans-32" x="95.410156"/>
      </g>
     </g>
    </g>
    <g id="ytick_3">
     <g id="line2d_17">
      <path d="M 45.716875 188.925675 
L 603.716875 188.925675 
" clip-path="url(#p7efceedba2)" style="fill: none; stroke: #b0b0b0; stroke-opacity: 0.3; stroke-width: 0.8; stroke-linecap: square"/>
     </g>
     <g id="line2d_18">
      <g>
       <use xlink:href="#m4ef98e3c03" x="45.716875" y="188.925675" style="stroke: #000000; stroke-width: 0.8"/>
      </g>
     </g>
     <g id="text_10">
      <!-- 0.3 -->
      <g transform="translate(22.81375 192.724893) scale(0.1 -0.1)">
       <use xlink:href="#DejaVuSans-30"/>
       <use xlink:href="#DejaVuSans-2e" x="63.623047"/>
       <use xlink:href="#DejaVuSans-33" x="95.410156"/>
      </g>
     </g>
    </g>
    <g id="ytick_4">
     <g id="line2d_19">
      <path d="M 45.716875 116.817477 
L 603.716875 116.817477 
" clip-path="url(#p7efceedba2)" style="fill: none; stroke: #b0b0b0; stroke-opacity: 0.3; stroke-width: 0.8; stroke-linecap: square"/>
     </g>
     <g id="line2d_20">
      <g>
       <use xlink:href="#m4ef98e3c03" x="45.716875" y="116.817477" style="stroke: #000000; stroke-width: 0.8"/>
      </g>
     </g>
     <g id="text_11">
      <!-- 0.4 -->
      <g transform="translate(22.81375 120.616696) scale(0.1 -0.1)">
       <use xlink:href="#DejaVuSans-30"/>
       <use xlink:href="#DejaVuSans-2e" x="63.623047"/>
       <use xlink:href="#DejaVuSans-34" x="95.410156"/>
      </g>
     </g>
    </g>
    <g id="ytick_5">
     <g id="line2d_21">
      <path d="M 45.716875 44.709279 
L 603.716875 44.709279 
" clip-path="url(#p7efceedba2)" style="fill: none; stroke: #b0b0b0; stroke-opacity: 0.3; stroke-width: 0.8; stroke-linecap: square"/>
     </g>
     <g id="line2d_22">
      <g>
       <use xlink:href="#m4ef98e3c03" x="45.716875" y="44.709279" style="stroke: #000000; stroke-width: 0.8"/>
      </g>
     </g>
     <g id="text_12">
      <!-- 0.5 -->
      <g transform="translate(22.81375 48.508498) scale(0.1 -0.1)">
       <use xlink:href="#DejaVuSans-30"/>
       <use xlink:href="#DejaVuSans-2e" x="63.623047"/>
       <use xlink:href="#DejaVuSans-35" x="95.410156"/>
      </g>
     </g>
    </g>
    <g id="text_13">
     <!-- Loss -->
     <g transform="translate(16.318125 203.318437) rotate(-90) scale(0.12 -0.12)">
      <defs>
       <path id="DejaVuSans-4c" d="M 628 4666 
L 1259 4666 
L 1259 531 
L 3531 531 
L 3531 0 
L 628 0 
L 628 4666 
z
" transform="scale(0.015625)"/>
       <path id="DejaVuSans-73" d="M 2834 3397 
L 2834 2853 
Q 2591 2978 2328 3040 
Q 2066 3103 1784 3103 
Q 1356 3103 1142 2972 
Q 928 2841 928 2578 
Q 928 2378 1081 2264 
Q 1234 2150 1697 2047 
L 1894 2003 
Q 2506 1872 2764 1633 
Q 3022 1394 3022 966 
Q 3022 478 2636 193 
Q 2250 -91 1575 -91 
Q 1294 -91 989 -36 
Q 684 19 347 128 
L 347 722 
Q 666 556 975 473 
Q 1284 391 1588 391 
Q 1994 391 2212 530 
Q 2431 669 2431 922 
Q 2431 1156 2273 1281 
Q 2116 1406 1581 1522 
L 1381 1569 
Q 847 1681 609 1914 
Q 372 2147 372 2553 
Q 372 3047 722 3315 
Q 1072 3584 1716 3584 
Q 2034 3584 2315 3537 
Q 2597 3491 2834 3397 
z
" transform="scale(0.015625)"/>
      </defs>
      <use xlink:href="#DejaVuSans-4c"/>
      <use xlink:href="#DejaVuSans-6f" x="53.962891"/>
      <use xlink:href="#DejaVuSans-73" x="115.144531"/>
      <use xlink:href="#DejaVuSans-73" x="167.244141"/>
     </g>
    </g>
   </g>
   <g id="line2d_23">
    <path d="M 71.080511 38.957812 
L 72.073217 68.916013 
L 73.065923 80.637197 
L 74.058629 88.189277 
L 76.044041 98.977977 
L 79.022159 111.908123 
L 80.014865 115.3848 
L 82.000277 123.076297 
L 86.963806 140.214504 
L 87.956512 143.454477 
L 88.949218 147.756945 
L 89.941924 151.310717 
L 91.927336 156.796767 
L 93.912748 161.143807 
L 95.898159 168.176736 
L 96.890865 170.772078 
L 97.883571 174.930106 
L 99.868983 180.190908 
L 100.861689 183.350112 
L 102.847101 188.617092 
L 103.839807 192.219352 
L 105.825219 198.095243 
L 106.817925 200.729543 
L 107.810631 202.731036 
L 108.803336 205.692133 
L 116.744984 222.219946 
L 117.73769 223.805169 
L 118.730396 225.153437 
L 119.723102 227.155246 
L 121.708513 230.227649 
L 128.657455 238.721169 
L 129.650161 239.89332 
L 130.642867 240.627319 
L 131.635573 241.688113 
L 132.628279 242.544584 
L 133.620985 244.013551 
L 135.606396 245.510577 
L 136.599102 246.45134 
L 137.591808 247.140486 
L 138.584514 248.127297 
L 139.57722 248.874754 
L 140.569926 250.006834 
L 141.562632 250.409409 
L 142.555338 251.097654 
L 143.548044 252.388327 
L 144.54075 253.036272 
L 145.533456 253.383557 
L 146.526162 254.580012 
L 147.518868 254.976941 
L 148.511573 255.641671 
L 149.504279 256.162452 
L 150.496985 257.175197 
L 153.475103 258.717162 
L 154.467809 259.607746 
L 155.460515 260.094951 
L 156.453221 260.90407 
L 158.438633 261.361816 
L 159.431339 262.16508 
L 160.424045 262.540135 
L 161.41675 263.566489 
L 162.409456 263.786861 
L 163.402162 264.49241 
L 164.394868 264.759079 
L 165.387574 265.31435 
L 166.38028 265.514782 
L 167.372986 266.497412 
L 168.365692 266.393731 
L 169.358398 267.090268 
L 171.34381 268.120488 
L 172.336516 268.127349 
L 173.329222 268.494448 
L 174.321927 269.501267 
L 175.314633 269.466303 
L 176.307339 270.369191 
L 177.300045 270.535848 
L 178.292751 270.57931 
L 179.285457 271.428745 
L 180.278163 271.686354 
L 181.270869 272.509872 
L 182.263575 272.492498 
L 183.256281 272.637297 
L 184.248987 273.329559 
L 185.241693 273.410821 
L 187.227104 274.42396 
L 188.21981 274.844239 
L 189.212516 274.941103 
L 190.205222 275.438598 
L 192.190634 276.01101 
L 193.18334 276.593969 
L 194.176046 276.641218 
L 195.168752 276.852396 
L 196.161458 277.582437 
L 198.14687 277.99915 
L 199.139576 278.483858 
L 201.124987 278.9042 
L 202.117693 279.556068 
L 203.110399 279.564559 
L 205.095811 280.281652 
L 206.088517 280.883717 
L 207.081223 280.68597 
L 208.073929 281.217637 
L 209.066635 281.883626 
L 210.059341 282.224352 
L 211.052047 282.405882 
L 212.044753 282.36765 
L 214.030164 283.133733 
L 215.02287 283.595532 
L 216.015576 283.818552 
L 217.008282 283.682357 
L 218.000988 284.636016 
L 218.993694 284.460759 
L 220.979106 285.200448 
L 221.971812 285.215397 
L 225.942636 286.480949 
L 226.935341 286.996315 
L 227.928047 286.804197 
L 229.913459 287.739254 
L 230.906165 287.660623 
L 232.891577 288.639211 
L 233.884283 288.609906 
L 234.876989 288.735343 
L 236.862401 289.522175 
L 237.855107 289.545085 
L 238.847813 289.980825 
L 239.840518 289.649121 
L 240.833224 290.384481 
L 241.82593 290.884346 
L 242.818636 290.840148 
L 247.782166 292.08346 
L 248.774872 291.961871 
L 249.767578 292.408782 
L 250.760284 292.428567 
L 251.75299 292.803983 
L 252.745695 293.382547 
L 253.738401 293.72647 
L 254.731107 293.692325 
L 255.723813 294.168555 
L 256.716519 294.217888 
L 257.709225 294.603824 
L 258.701931 294.504798 
L 260.687343 295.324733 
L 261.680049 295.303667 
L 262.672755 295.729239 
L 263.665461 295.968515 
L 264.658167 295.852944 
L 265.650873 296.534836 
L 266.643578 296.831285 
L 267.636284 296.691396 
L 268.62899 296.97126 
L 269.621696 297.037492 
L 270.614402 297.270425 
L 271.607108 297.747254 
L 272.599814 297.74347 
L 273.59252 298.289444 
L 274.585226 297.956452 
L 275.577932 298.24045 
L 276.570638 298.791546 
L 277.563344 298.852004 
L 280.541461 299.549692 
L 282.526873 299.85418 
L 283.519579 300.32174 
L 286.497697 300.710612 
L 287.490403 300.710589 
L 288.483109 301.076374 
L 289.475815 301.585497 
L 293.446638 302.421144 
L 294.439344 302.503547 
L 295.43205 302.442427 
L 296.424756 303.024194 
L 297.417462 303.324108 
L 299.402874 303.465595 
L 301.388286 304.08324 
L 302.380992 303.946686 
L 303.373698 304.096107 
L 304.366404 304.596849 
L 305.359109 304.493091 
L 306.351815 305.01398 
L 308.337227 305.047517 
L 309.329933 305.448832 
L 313.300757 306.379082 
L 314.293463 306.219713 
L 315.286169 306.454296 
L 316.278875 307.010333 
L 319.256992 307.342244 
L 322.23511 308.071442 
L 323.227816 308.097425 
L 324.220522 308.493935 
L 325.213228 308.226242 
L 326.205934 308.79198 
L 327.19864 308.971425 
L 328.191346 309.279798 
L 330.176758 309.393177 
L 331.169464 309.659337 
L 332.162169 310.072071 
L 333.154875 310.010504 
L 334.147581 310.377355 
L 336.132993 310.549401 
L 337.125699 310.924907 
L 338.118405 310.675671 
L 339.111111 311.074089 
L 340.103817 311.16167 
L 341.096523 311.108898 
L 342.089229 311.989037 
L 343.081935 311.939492 
L 345.067346 312.230209 
L 346.060052 312.488564 
L 347.052758 312.535683 
L 348.045464 312.858661 
L 350.030876 313.007556 
L 351.023582 313.352495 
L 352.016288 313.391798 
L 358.965229 314.611572 
L 359.957935 314.865169 
L 360.950641 314.965906 
L 361.943347 315.208314 
L 362.936053 315.310514 
L 363.928759 315.722792 
L 364.921465 315.619108 
L 365.914171 315.83039 
L 366.906877 315.890888 
L 367.899583 316.251066 
L 368.892289 316.350095 
L 369.884995 316.627726 
L 373.855818 317.048725 
L 374.848524 317.025166 
L 376.833936 317.75536 
L 377.826642 317.768026 
L 378.819348 318.012432 
L 379.812054 318.059428 
L 389.739113 319.732579 
L 390.731819 320.043581 
L 391.724525 320.060277 
L 392.717231 319.944453 
L 393.709937 320.388404 
L 394.702643 320.377337 
L 395.695349 320.663767 
L 399.666172 321.216216 
L 400.658878 321.376946 
L 401.651584 321.376547 
L 402.64429 321.795437 
L 403.636996 321.732045 
L 404.629702 321.947635 
L 405.622408 321.999288 
L 406.615114 322.32298 
L 407.60782 322.268617 
L 408.600526 322.610284 
L 409.593232 322.618309 
L 410.585937 322.782679 
L 411.578643 322.821345 
L 413.564055 323.220712 
L 414.556761 323.239034 
L 420.512997 324.231842 
L 421.505703 324.21846 
L 422.498409 324.398154 
L 423.491114 324.438449 
L 424.48382 324.694231 
L 426.469232 324.813267 
L 427.461938 325.021855 
L 428.454644 325.065354 
L 432.425468 325.731451 
L 442.352527 326.902315 
L 444.337939 327.135755 
L 445.330645 327.156237 
L 446.323351 327.383789 
L 449.301468 327.603608 
L 450.294174 327.816239 
L 451.28688 327.83864 
L 454.264998 328.245817 
L 457.243116 328.536199 
L 458.235822 328.707666 
L 459.228528 328.727026 
L 460.221234 328.887393 
L 462.206646 328.989172 
L 464.192057 329.255386 
L 465.184763 329.262273 
L 467.170175 329.572094 
L 468.162881 329.546382 
L 474.119117 330.151727 
L 476.104528 330.348687 
L 481.068058 330.764431 
L 482.060764 330.749492 
L 486.031588 331.172812 
L 489.009705 331.380647 
L 494.965941 331.85484 
L 496.951353 331.983723 
L 499.929471 332.139051 
L 501.914882 332.375121 
L 502.907588 332.309248 
L 504.893 332.482704 
L 510.849236 332.837292 
L 511.841942 332.96214 
L 513.827354 332.953837 
L 517.798177 333.217707 
L 519.783589 333.226502 
L 522.761707 333.409638 
L 540.630414 334.072625 
L 541.623119 334.003933 
L 542.615825 334.122306 
L 545.593943 334.148996 
L 553.535591 334.376188 
L 554.528296 334.291175 
L 555.521002 334.427552 
L 561.477238 334.411193 
L 567.433473 334.489647 
L 569.418885 334.491742 
L 578.353239 334.496163 
L 578.353239 334.496163 
" clip-path="url(#p7efceedba2)" style="fill: none; stroke: #0000ff; stroke-width: 2; stroke-linecap: square"/>
   </g>
   <g id="line2d_24">
    <path d="M 71.080511 63.595422 
L 72.073217 77.031938 
L 73.065923 86.072795 
L 74.058629 93.421046 
L 75.051335 98.721497 
L 76.044041 101.593183 
L 77.036747 105.461873 
L 80.014865 120.381919 
L 82.000277 125.447327 
L 82.992982 133.669067 
L 83.985688 136.059343 
L 84.978394 139.534882 
L 86.963806 144.189412 
L 87.956512 148.918609 
L 88.949218 148.337783 
L 89.941924 158.479368 
L 90.93463 157.288768 
L 91.927336 163.07954 
L 92.920042 164.927243 
L 93.912748 168.397823 
L 94.905454 169.57557 
L 96.890865 176.081475 
L 98.876277 182.73823 
L 99.868983 187.381512 
L 100.861689 182.050969 
L 101.854395 189.583969 
L 102.847101 194.232462 
L 103.839807 195.553109 
L 104.832513 198.731803 
L 105.825219 202.620586 
L 106.817925 201.40116 
L 107.810631 206.082771 
L 108.803336 213.053659 
L 109.796042 211.638384 
L 110.788748 216.098109 
L 111.781454 218.321669 
L 112.77416 218.352032 
L 113.766866 222.806604 
L 114.759572 223.600882 
L 115.752278 227.753114 
L 116.744984 230.233179 
L 117.73769 228.487839 
L 118.730396 231.179868 
L 119.723102 235.612113 
L 120.715808 235.047486 
L 121.708513 235.873895 
L 122.701219 239.678379 
L 123.693925 240.483984 
L 124.686631 241.943534 
L 125.679337 239.892995 
L 126.672043 243.940135 
L 127.664749 246.700717 
L 128.657455 245.909083 
L 129.650161 245.949548 
L 130.642867 245.540803 
L 131.635573 249.566735 
L 132.628279 249.666883 
L 133.620985 252.863128 
L 134.613691 252.392686 
L 135.606396 252.653184 
L 136.599102 254.930555 
L 138.584514 253.56166 
L 140.569926 253.203452 
L 141.562632 260.463953 
L 142.555338 257.417637 
L 143.548044 256.831948 
L 144.54075 260.38211 
L 145.533456 257.988978 
L 146.526162 261.120009 
L 147.518868 258.67365 
L 148.511573 261.697842 
L 149.504279 259.816439 
L 150.496985 263.481303 
L 151.489691 260.807417 
L 152.482397 266.131243 
L 153.475103 263.345286 
L 154.467809 265.434655 
L 156.453221 266.138901 
L 157.445927 267.282674 
L 158.438633 268.599436 
L 159.431339 269.432412 
L 160.424045 263.376605 
L 161.41675 270.38398 
L 162.409456 268.692605 
L 163.402162 270.792402 
L 165.387574 270.740078 
L 166.38028 271.332224 
L 167.372986 274.195059 
L 168.365692 272.872594 
L 169.358398 272.330469 
L 170.351104 277.423398 
L 171.34381 271.216323 
L 172.336516 275.324765 
L 173.329222 274.256294 
L 174.321927 273.837896 
L 175.314633 276.205366 
L 176.307339 276.822225 
L 177.300045 276.415038 
L 178.292751 275.509718 
L 179.285457 278.316718 
L 181.270869 277.618628 
L 182.263575 277.299265 
L 184.248987 280.509442 
L 185.241693 277.015022 
L 186.234399 282.163012 
L 187.227104 282.05613 
L 188.21981 281.003055 
L 189.212516 280.347046 
L 190.205222 281.878244 
L 191.197928 280.92356 
L 192.190634 282.192728 
L 193.18334 280.550247 
L 194.176046 281.31678 
L 195.168752 285.278028 
L 196.161458 283.263579 
L 197.154164 285.489658 
L 198.14687 285.459779 
L 199.139576 283.342857 
L 200.132282 283.380069 
L 201.124987 287.842653 
L 202.117693 288.02778 
L 203.110399 285.510047 
L 204.103105 287.738078 
L 205.095811 288.537673 
L 206.088517 287.801023 
L 207.081223 285.281599 
L 208.073929 288.420977 
L 209.066635 286.105872 
L 210.059341 290.262956 
L 211.052047 291.191677 
L 212.044753 285.331474 
L 213.037459 290.122214 
L 214.030164 289.923091 
L 215.02287 290.170366 
L 216.015576 290.914227 
L 217.008282 290.412347 
L 218.000988 291.70939 
L 218.993694 289.88417 
L 219.9864 291.085219 
L 220.979106 291.153775 
L 221.971812 290.728035 
L 222.964518 292.113776 
L 223.957224 284.559684 
L 224.94993 289.977155 
L 225.942636 294.773985 
L 226.935341 295.070987 
L 227.928047 291.848339 
L 228.920753 295.918944 
L 229.913459 293.180268 
L 230.906165 293.514341 
L 231.898871 295.193297 
L 232.891577 292.649206 
L 233.884283 295.857491 
L 234.876989 293.980456 
L 235.869695 290.744096 
L 236.862401 295.683064 
L 237.855107 293.985351 
L 238.847813 297.844158 
L 239.840518 295.932963 
L 240.833224 296.951259 
L 241.82593 296.940202 
L 242.818636 298.025248 
L 243.811342 296.199956 
L 244.804048 299.384215 
L 245.796754 298.146013 
L 246.78946 298.40737 
L 247.782166 300.35796 
L 248.774872 297.346486 
L 249.767578 298.168937 
L 250.760284 299.402388 
L 251.75299 302.961909 
L 253.738401 300.181344 
L 254.731107 297.368441 
L 255.723813 300.490803 
L 256.716519 301.353096 
L 257.709225 298.508932 
L 258.701931 299.940198 
L 259.694637 303.076382 
L 260.687343 301.42069 
L 261.680049 301.475283 
L 262.672755 304.446384 
L 263.665461 302.060098 
L 264.658167 302.422118 
L 265.650873 304.096639 
L 266.643578 303.818287 
L 267.636284 305.261286 
L 268.62899 303.050314 
L 269.621696 304.42344 
L 270.614402 304.367167 
L 271.607108 306.052007 
L 272.599814 306.807327 
L 273.59252 305.725597 
L 274.585226 306.443015 
L 275.577932 305.085647 
L 278.55605 308.098226 
L 279.548755 306.845849 
L 280.541461 307.004019 
L 281.534167 302.723775 
L 282.526873 307.615519 
L 283.519579 308.460488 
L 284.512285 306.512913 
L 285.504991 308.526398 
L 286.497697 309.86139 
L 287.490403 308.331 
L 288.483109 309.443154 
L 289.475815 308.800147 
L 291.461227 308.266227 
L 292.453932 309.691992 
L 293.446638 309.987904 
L 295.43205 309.890444 
L 296.424756 310.664518 
L 297.417462 310.186969 
L 298.410168 310.141875 
L 299.402874 309.678469 
L 300.39558 312.852127 
L 301.388286 311.764841 
L 302.380992 310.316266 
L 303.373698 312.18656 
L 304.366404 310.624759 
L 305.359109 312.048011 
L 306.351815 312.075539 
L 308.337227 313.272101 
L 309.329933 312.707736 
L 310.322639 311.157532 
L 311.315345 312.400148 
L 312.308051 313.079509 
L 313.300757 314.750195 
L 314.293463 313.05582 
L 315.286169 313.040734 
L 316.278875 314.139883 
L 317.271581 314.032526 
L 318.264286 314.489007 
L 319.256992 315.888191 
L 320.249698 315.418055 
L 321.242404 314.135791 
L 322.23511 314.722115 
L 323.227816 316.942135 
L 324.220522 314.518615 
L 325.213228 314.343182 
L 327.19864 316.827069 
L 328.191346 315.908325 
L 329.184052 315.664173 
L 330.176758 317.315737 
L 331.169464 317.191711 
L 332.162169 314.311451 
L 333.154875 316.71462 
L 334.147581 318.331223 
L 335.140287 316.257753 
L 336.132993 318.233232 
L 337.125699 317.995622 
L 338.118405 318.587364 
L 339.111111 318.062997 
L 340.103817 318.872265 
L 341.096523 318.268294 
L 342.089229 317.173347 
L 343.081935 319.967814 
L 344.074641 319.891795 
L 345.067346 320.620086 
L 346.060052 318.421854 
L 347.052758 317.958217 
L 348.045464 319.862513 
L 349.03817 319.070741 
L 350.030876 320.711009 
L 351.023582 318.760154 
L 352.016288 320.044961 
L 353.008994 318.484253 
L 354.0017 320.522034 
L 354.994406 321.537517 
L 355.987112 321.286008 
L 356.979818 321.68785 
L 357.972523 321.300166 
L 358.965229 320.418542 
L 359.957935 322.193427 
L 360.950641 322.307123 
L 361.943347 323.031672 
L 362.936053 322.749577 
L 363.928759 322.616935 
L 364.921465 322.910769 
L 365.914171 322.558702 
L 366.906877 322.823355 
L 367.899583 322.851382 
L 368.892289 323.390455 
L 369.884995 324.122206 
L 371.870406 324.508731 
L 372.863112 323.661259 
L 373.855818 324.090348 
L 374.848524 324.268422 
L 375.84123 325.291063 
L 376.833936 323.361013 
L 377.826642 325.12996 
L 378.819348 324.979868 
L 379.812054 325.562581 
L 380.80476 325.650753 
L 381.797466 325.589692 
L 382.790172 326.402613 
L 383.782877 325.207854 
L 384.775583 326.024866 
L 385.768289 326.410215 
L 386.760995 327.049208 
L 387.753701 327.062818 
L 388.746407 326.605954 
L 389.739113 327.137525 
L 390.731819 327.222811 
L 391.724525 326.967463 
L 392.717231 327.669843 
L 393.709937 326.349717 
L 394.702643 327.018251 
L 395.695349 328.203164 
L 396.688055 327.509276 
L 397.68076 327.20708 
L 398.673466 328.062305 
L 399.666172 327.756147 
L 401.651584 328.680061 
L 402.64429 327.921692 
L 404.629702 329.661104 
L 405.622408 329.282195 
L 406.615114 327.942689 
L 407.60782 329.96852 
L 408.600526 330.600174 
L 409.593232 330.141092 
L 410.585937 329.998446 
L 411.578643 330.357799 
L 412.571349 331.043544 
L 413.564055 329.732653 
L 414.556761 330.377036 
L 415.549467 330.549128 
L 416.542173 331.33466 
L 417.534879 330.70329 
L 418.527585 330.951636 
L 419.520291 330.962303 
L 420.512997 331.624995 
L 421.505703 332.146382 
L 422.498409 331.526423 
L 423.491114 331.609994 
L 424.48382 332.957826 
L 425.476526 332.150865 
L 426.469232 333.032699 
L 427.461938 332.508066 
L 428.454644 331.82562 
L 429.44735 333.089908 
L 430.440056 333.088458 
L 431.432762 333.327377 
L 432.425468 332.358969 
L 433.418174 332.311688 
L 434.41088 332.412458 
L 435.403586 333.646809 
L 436.396291 333.16594 
L 437.388997 334.081651 
L 438.381703 334.088476 
L 439.374409 334.320515 
L 440.367115 334.309673 
L 441.359821 333.78334 
L 442.352527 334.55832 
L 443.345233 334.425744 
L 444.337939 334.922389 
L 445.330645 334.043085 
L 446.323351 335.121407 
L 447.316057 334.337708 
L 448.308763 334.892447 
L 451.28688 335.473498 
L 452.279586 335.565864 
L 453.272292 335.33332 
L 454.264998 335.441912 
L 455.257704 335.782606 
L 456.25041 335.911601 
L 457.243116 336.155168 
L 458.235822 335.440287 
L 459.228528 336.254512 
L 460.221234 335.291848 
L 461.21394 336.17876 
L 462.206646 336.617065 
L 463.199351 337.224738 
L 464.192057 336.665611 
L 465.184763 336.457146 
L 466.177469 336.770064 
L 467.170175 335.823925 
L 468.162881 336.833525 
L 469.155587 337.379674 
L 470.148293 336.996293 
L 471.140999 337.15016 
L 472.133705 336.831164 
L 473.126411 336.637065 
L 474.119117 337.54086 
L 476.104528 337.802432 
L 478.08994 337.677155 
L 480.075352 338.102166 
L 481.068058 337.853734 
L 482.060764 337.87054 
L 483.05347 338.239236 
L 484.046176 337.9639 
L 485.038882 336.61554 
L 486.031588 338.072915 
L 487.024294 337.814647 
L 488.017 338.384962 
L 489.009705 337.993641 
L 490.002411 338.860722 
L 490.995117 338.334382 
L 491.987823 338.216361 
L 492.980529 338.70838 
L 495.958647 339.076213 
L 496.951353 338.551099 
L 497.944059 339.167056 
L 498.936765 338.630916 
L 502.907588 339.614426 
L 505.885706 339.43219 
L 506.878412 339.83233 
L 507.871118 339.098864 
L 508.863824 339.75483 
L 509.85653 339.618038 
L 510.849236 339.854184 
L 511.841942 339.240127 
L 512.834648 339.749063 
L 513.827354 339.673495 
L 514.820059 339.788726 
L 515.812765 339.762522 
L 516.805471 340.226658 
L 518.790883 339.577845 
L 519.783589 340.229527 
L 520.776295 340.075773 
L 521.769001 340.511289 
L 522.761707 339.764428 
L 523.754413 340.211347 
L 524.747119 340.527791 
L 525.739825 340.671241 
L 526.732531 340.402822 
L 527.725237 340.277135 
L 528.717942 340.360978 
L 529.710648 340.569003 
L 531.69606 340.374134 
L 532.688766 340.843172 
L 533.681472 340.510121 
L 534.674178 340.862658 
L 535.666884 340.819467 
L 536.65959 340.606397 
L 537.652296 341.004079 
L 538.645002 340.672827 
L 539.637708 340.797416 
L 542.615825 340.885609 
L 543.608531 341.092377 
L 544.601237 340.785247 
L 548.572061 341.121116 
L 549.564767 340.87569 
L 550.557473 341.064426 
L 552.542885 340.940164 
L 555.521002 341.195459 
L 556.513708 341.231402 
L 558.49912 341.142299 
L 559.491826 341.357812 
L 561.477238 341.197429 
L 563.46265 341.203424 
L 566.440768 341.212458 
L 577.360533 341.224167 
L 578.353239 341.224167 
L 578.353239 341.224167 
" clip-path="url(#p7efceedba2)" style="fill: none; stroke: #ff0000; stroke-width: 2; stroke-linecap: square"/>
   </g>
   <g id="patch_3">
    <path d="M 45.716875 356.477812 
L 45.716875 23.837812 
" style="fill: none; stroke: #000000; stroke-width: 0.8; stroke-linejoin: miter; stroke-linecap: square"/>
   </g>
   <g id="patch_4">
    <path d="M 603.716875 356.477812 
L 603.716875 23.837812 
" style="fill: none; stroke: #000000; stroke-width: 0.8; stroke-linejoin: miter; stroke-linecap: square"/>
   </g>
   <g id="patch_5">
    <path d="M 45.716875 356.477812 
L 603.716875 356.477812 
" style="fill: none; stroke: #000000; stroke-width: 0.8; stroke-linejoin: miter; stroke-linecap: square"/>
   </g>
   <g id="patch_6">
    <path d="M 45.716875 23.837812 
L 603.716875 23.837812 
" style="fill: none; stroke: #000000; stroke-width: 0.8; stroke-linejoin: miter; stroke-linecap: square"/>
   </g>
   <g id="text_14">
    <!-- Training and Validation Loss -->
    <g transform="translate(227.335938 17.837812) scale(0.14 -0.14)">
     <defs>
      <path id="DejaVuSans-54" d="M -19 4666 
L 3928 4666 
L 3928 4134 
L 2272 4134 
L 2272 0 
L 1638 0 
L 1638 4134 
L -19 4134 
L -19 4666 
z
" transform="scale(0.015625)"/>
      <path id="DejaVuSans-72" d="M 2631 2963 
Q 2534 3019 2420 3045 
Q 2306 3072 2169 3072 
Q 1681 3072 1420 2755 
Q 1159 2438 1159 1844 
L 1159 0 
L 581 0 
L 581 3500 
L 1159 3500 
L 1159 2956 
Q 1341 3275 1631 3429 
Q 1922 3584 2338 3584 
Q 2397 3584 2469 3576 
Q 2541 3569 2628 3553 
L 2631 2963 
z
" transform="scale(0.015625)"/>
      <path id="DejaVuSans-61" d="M 2194 1759 
Q 1497 1759 1228 1600 
Q 959 1441 959 1056 
Q 959 750 1161 570 
Q 1363 391 1709 391 
Q 2188 391 2477 730 
Q 2766 1069 2766 1631 
L 2766 1759 
L 2194 1759 
z
M 3341 1997 
L 3341 0 
L 2766 0 
L 2766 531 
Q 2569 213 2275 61 
Q 1981 -91 1556 -91 
Q 1019 -91 701 211 
Q 384 513 384 1019 
Q 384 1609 779 1909 
Q 1175 2209 1959 2209 
L 2766 2209 
L 2766 2266 
Q 2766 2663 2505 2880 
Q 2244 3097 1772 3097 
Q 1472 3097 1187 3025 
Q 903 2953 641 2809 
L 641 3341 
Q 956 3463 1253 3523 
Q 1550 3584 1831 3584 
Q 2591 3584 2966 3190 
Q 3341 2797 3341 1997 
z
" transform="scale(0.015625)"/>
      <path id="DejaVuSans-69" d="M 603 3500 
L 1178 3500 
L 1178 0 
L 603 0 
L 603 3500 
z
M 603 4863 
L 1178 4863 
L 1178 4134 
L 603 4134 
L 603 4863 
z
" transform="scale(0.015625)"/>
      <path id="DejaVuSans-6e" d="M 3513 2113 
L 3513 0 
L 2938 0 
L 2938 2094 
Q 2938 2591 2744 2837 
Q 2550 3084 2163 3084 
Q 1697 3084 1428 2787 
Q 1159 2491 1159 1978 
L 1159 0 
L 581 0 
L 581 3500 
L 1159 3500 
L 1159 2956 
Q 1366 3272 1645 3428 
Q 1925 3584 2291 3584 
Q 2894 3584 3203 3211 
Q 3513 2838 3513 2113 
z
" transform="scale(0.015625)"/>
      <path id="DejaVuSans-67" d="M 2906 1791 
Q 2906 2416 2648 2759 
Q 2391 3103 1925 3103 
Q 1463 3103 1205 2759 
Q 947 2416 947 1791 
Q 947 1169 1205 825 
Q 1463 481 1925 481 
Q 2391 481 2648 825 
Q 2906 1169 2906 1791 
z
M 3481 434 
Q 3481 -459 3084 -895 
Q 2688 -1331 1869 -1331 
Q 1566 -1331 1297 -1286 
Q 1028 -1241 775 -1147 
L 775 -588 
Q 1028 -725 1275 -790 
Q 1522 -856 1778 -856 
Q 2344 -856 2625 -561 
Q 2906 -266 2906 331 
L 2906 616 
Q 2728 306 2450 153 
Q 2172 0 1784 0 
Q 1141 0 747 490 
Q 353 981 353 1791 
Q 353 2603 747 3093 
Q 1141 3584 1784 3584 
Q 2172 3584 2450 3431 
Q 2728 3278 2906 2969 
L 2906 3500 
L 3481 3500 
L 3481 434 
z
" transform="scale(0.015625)"/>
      <path id="DejaVuSans-20" transform="scale(0.015625)"/>
      <path id="DejaVuSans-64" d="M 2906 2969 
L 2906 4863 
L 3481 4863 
L 3481 0 
L 2906 0 
L 2906 525 
Q 2725 213 2448 61 
Q 2172 -91 1784 -91 
Q 1150 -91 751 415 
Q 353 922 353 1747 
Q 353 2572 751 3078 
Q 1150 3584 1784 3584 
Q 2172 3584 2448 3432 
Q 2725 3281 2906 2969 
z
M 947 1747 
Q 947 1113 1208 752 
Q 1469 391 1925 391 
Q 2381 391 2643 752 
Q 2906 1113 2906 1747 
Q 2906 2381 2643 2742 
Q 2381 3103 1925 3103 
Q 1469 3103 1208 2742 
Q 947 2381 947 1747 
z
" transform="scale(0.015625)"/>
      <path id="DejaVuSans-56" d="M 1831 0 
L 50 4666 
L 709 4666 
L 2188 738 
L 3669 4666 
L 4325 4666 
L 2547 0 
L 1831 0 
z
" transform="scale(0.015625)"/>
      <path id="DejaVuSans-6c" d="M 603 4863 
L 1178 4863 
L 1178 0 
L 603 0 
L 603 4863 
z
" transform="scale(0.015625)"/>
      <path id="DejaVuSans-74" d="M 1172 4494 
L 1172 3500 
L 2356 3500 
L 2356 3053 
L 1172 3053 
L 1172 1153 
Q 1172 725 1289 603 
Q 1406 481 1766 481 
L 2356 481 
L 2356 0 
L 1766 0 
Q 1100 0 847 248 
Q 594 497 594 1153 
L 594 3053 
L 172 3053 
L 172 3500 
L 594 3500 
L 594 4494 
L 1172 4494 
z
" transform="scale(0.015625)"/>
     </defs>
     <use xlink:href="#DejaVuSans-54"/>
     <use xlink:href="#DejaVuSans-72" x="46.333984"/>
     <use xlink:href="#DejaVuSans-61" x="87.447266"/>
     <use xlink:href="#DejaVuSans-69" x="148.726562"/>
     <use xlink:href="#DejaVuSans-6e" x="176.509766"/>
     <use xlink:href="#DejaVuSans-69" x="239.888672"/>
     <use xlink:href="#DejaVuSans-6e" x="267.671875"/>
     <use xlink:href="#DejaVuSans-67" x="331.050781"/>
     <use xlink:href="#DejaVuSans-20" x="394.527344"/>
     <use xlink:href="#DejaVuSans-61" x="426.314453"/>
     <use xlink:href="#DejaVuSans-6e" x="487.59375"/>
     <use xlink:href="#DejaVuSans-64" x="550.972656"/>
     <use xlink:href="#DejaVuSans-20" x="614.449219"/>
     <use xlink:href="#DejaVuSans-56" x="646.236328"/>
     <use xlink:href="#DejaVuSans-61" x="706.894531"/>
     <use xlink:href="#DejaVuSans-6c" x="768.173828"/>
     <use xlink:href="#DejaVuSans-69" x="795.957031"/>
     <use xlink:href="#DejaVuSans-64" x="823.740234"/>
     <use xlink:href="#DejaVuSans-61" x="887.216797"/>
     <use xlink:href="#DejaVuSans-74" x="948.496094"/>
     <use xlink:href="#DejaVuSans-69" x="987.705078"/>
     <use xlink:href="#DejaVuSans-6f" x="1015.488281"/>
     <use xlink:href="#DejaVuSans-6e" x="1076.669922"/>
     <use xlink:href="#DejaVuSans-20" x="1140.048828"/>
     <use xlink:href="#DejaVuSans-4c" x="1171.835938"/>
     <use xlink:href="#DejaVuSans-6f" x="1225.798828"/>
     <use xlink:href="#DejaVuSans-73" x="1286.980469"/>
     <use xlink:href="#DejaVuSans-73" x="1339.080078"/>
    </g>
   </g>
   <g id="legend_1">
    <g id="patch_7">
     <path d="M 515.616875 61.194062 
L 596.716875 61.194062 
Q 598.716875 61.194062 598.716875 59.194062 
L 598.716875 30.837812 
Q 598.716875 28.837812 596.716875 28.837812 
L 515.616875 28.837812 
Q 513.616875 28.837812 513.616875 30.837812 
L 513.616875 59.194062 
Q 513.616875 61.194062 515.616875 61.194062 
z
" style="fill: #ffffff; opacity: 0.8; stroke: #cccccc; stroke-linejoin: miter"/>
    </g>
    <g id="line2d_25">
     <path d="M 517.616875 36.93625 
L 527.616875 36.93625 
L 537.616875 36.93625 
" style="fill: none; stroke: #0000ff; stroke-width: 2; stroke-linecap: square"/>
    </g>
    <g id="text_15">
     <!-- Train Loss -->
     <g transform="translate(545.616875 40.43625) scale(0.1 -0.1)">
      <use xlink:href="#DejaVuSans-54"/>
      <use xlink:href="#DejaVuSans-72" x="46.333984"/>
      <use xlink:href="#DejaVuSans-61" x="87.447266"/>
      <use xlink:href="#DejaVuSans-69" x="148.726562"/>
      <use xlink:href="#DejaVuSans-6e" x="176.509766"/>
      <use xlink:href="#DejaVuSans-20" x="239.888672"/>
      <use xlink:href="#DejaVuSans-4c" x="271.675781"/>
      <use xlink:href="#DejaVuSans-6f" x="325.638672"/>
      <use xlink:href="#DejaVuSans-73" x="386.820312"/>
      <use xlink:href="#DejaVuSans-73" x="438.919922"/>
     </g>
    </g>
    <g id="line2d_26">
     <path d="M 517.616875 51.614375 
L 527.616875 51.614375 
L 537.616875 51.614375 
" style="fill: none; stroke: #ff0000; stroke-width: 2; stroke-linecap: square"/>
    </g>
    <g id="text_16">
     <!-- Val loss -->
     <g transform="translate(545.616875 55.114375) scale(0.1 -0.1)">
      <use xlink:href="#DejaVuSans-56"/>
      <use xlink:href="#DejaVuSans-61" x="60.658203"/>
      <use xlink:href="#DejaVuSans-6c" x="121.9375"/>
      <use xlink:href="#DejaVuSans-20" x="149.720703"/>
      <use xlink:href="#DejaVuSans-6c" x="181.507812"/>
      <use xlink:href="#DejaVuSans-6f" x="209.291016"/>
      <use xlink:href="#DejaVuSans-73" x="270.472656"/>
      <use xlink:href="#DejaVuSans-73" x="322.572266"/>
     </g>
    </g>
   </g>
  </g>
 </g>
 <defs>
  <clipPath id="p7efceedba2">
   <rect x="45.716875" y="23.837812" width="558" height="332.64"/>
  </clipPath>
 </defs>
</svg>
