<?xml version="1.0" encoding="utf-8" standalone="no"?>
<!DOCTYPE svg PUBLIC "-//W3C//DTD SVG 1.1//EN"
  "http://www.w3.org/Graphics/SVG/1.1/DTD/svg11.dtd">
<svg xmlns:xlink="http://www.w3.org/1999/xlink" width="617.279375pt" height="395.969687pt" viewBox="0 0 617.279375 395.969687" xmlns="http://www.w3.org/2000/svg" version="1.1">
 <metadata>
  <rdf:RDF xmlns:dc="http://purl.org/dc/elements/1.1/" xmlns:cc="http://creativecommons.org/ns#" xmlns:rdf="http://www.w3.org/1999/02/22-rdf-syntax-ns#">
   <cc:Work>
    <dc:type rdf:resource="http://purl.org/dc/dcmitype/StillImage"/>
    <dc:date>2026-03-20T06:51:16.479421</dc:date>
    <dc:format>image/svg+xml</dc:format>
    <dc:creator>
     <cc:Agent>
      <dc:title>Matplotlib v3.9.0, https://matplotlib.org/</dc:title>
     </cc:Agent>
    </dc:creator>
   </cc:Work>
  </rdf:RDF>
 </metadata>
 <defs>
  <style type="text/css">*{stroke-linejoin: round; stroke-linecap: butt}</style>
 </defs>
 <g id="figure_1">
  <g id="patch_1">
   <path d="M 0 395.969687 
L 617.279375 395.969687 
L 617.279375 0 
L 0 0 
z
" style="fill: #ffffff"/>
  </g>
  <g id="axes_1">
   <g id="patch_2">
    <path d="M 52.079375 356.477812 
L 610.079375 356.477812 
L 610.079375 23.837812 
L 52.079375 23.837812 
z
" style="fill: #ffffff"/>
   </g>
   <g id="matplotlib.axis_1">
    <g id="xtick_1">
     <g id="line2d_1">
      <path d="M 77.443011 356.477812 
L 77.443011 23.837812 
" clip-path="url(#p52e7c626df)" style="fill: none; stroke: #b0b0b0; stroke-opacity: 0.3; stroke-width: 0.8; stroke-linecap: square"/>
     </g>
     <g id="line2d_2">
      <defs>
       <path id="m2d61d32690" d="M 0 0 
L 0 3.5 
" style="stroke: #000000; stroke-width: 0.8"/>
      </defs>
      <g>
       <use xlink:href="#m2d61d32690" x="77.443011" y="356.477812" style="stroke: #000000; stroke-width: 0.8"/>
      </g>
     </g>
     <g id="text_1">
      <!-- 0 -->
      <g transform="translate(74.261761 371.07625) scale(0.1 -0.1)">
       <defs>
        <path id="DejaVuSans-30" d="M 2034 4250 
Q 1547 4250 1301 3770 
Q 1056 3291 1056 2328 
Q 1056 1369 1301 889 
Q 1547 409 2034 409 
Q 2525 409 2770 889 
Q 3016 1369 3016 2328 
Q 3016 3291 2770 3770 
Q 2525 4250 2034 4250 
z
M 2034 4750 
Q 2819 4750 3233 4129 
Q 3647 3509 3647 2328 
Q 3647 1150 3233 529 
Q 2819 -91 2034 -91 
Q 1250 -91 836 529 
Q 422 1150 422 2328 
Q 422 3509 836 4129 
Q 1250 4750 2034 4750 
z
" transform="scale(0.015625)"/>
       </defs>
       <use xlink:href="#DejaVuSans-30"/>
      </g>
     </g>
    </g>
    <g id="xtick_2">
     <g id="line2d_3">
      <path d="M 177.694538 356.477812 
L 177.694538 23.837812 
" clip-path="url(#p52e7c626df)" style="fill: none; stroke: #b0b0b0; stroke-opacity: 0.3; stroke-width: 0.8; stroke-linecap: square"/>
     </g>
     <g id="line2d_4">
      <g>
       <use xlink:href="#m2d61d32690" x="177.694538" y="356.477812" style="stroke: #000000; stroke-width: 0.8"/>
      </g>
     </g>
     <g id="text_2">
      <!-- 100 -->
      <g transform="translate(168.150788 371.07625) scale(0.1 -0.1)">
       <defs>
        <path id="DejaVuSans-31" d="M 794 531 
L 1825 531 
L 1825 4091 
L 703 3866 
L 703 4441 
L 1819 4666 
L 2450 4666 
L 2450 531 
L 3481 531 
L 3481 0 
L 794 0 
L 794 531 
z
" transform="scale(0.015625)"/>
       </defs>
       <use xlink:href="#DejaVuSans-31"/>
       <use xlink:href="#DejaVuSans-30" x="63.623047"/>
       <use xlink:href="#DejaVuSans-30" x="127.246094"/>
      </g>
     </g>
    </g>
    <g id="xtick_3">
     <g id="line2d_5">
      <path d="M 277.946066 356.477812 
L 277.946066 23.837812 
" clip-path="url(#p52e7c626df)" style="fill: none; stroke: #b0b0b0; stroke-opacity: 0.3; stroke-width: 0.8; stroke-linecap: square"/>
     </g>
     <g id="line2d_6">
      <g>
       <use xlink:href="#m2d61d32690" x="277.946066" y="356.477812" style="stroke: #000000; stroke-width: 0.8"/>
      </g>
     </g>
     <g id="text_3">
      <!-- 200 -->
      <g transform="translate(268.402316 371.07625) scale(0.1 -0.1)">
       <defs>
        <path id="DejaVuSans-32" d="M 1228 531 
L 3431 531 
L 3431 0 
L 469 0 
L 469 531 
Q 828 903 1448 1529 
Q 2069 2156 2228 2338 
Q 2531 2678 2651 2914 
Q 2772 3150 2772 3378 
Q 2772 3750 2511 3984 
Q 2250 4219 1831 4219 
Q 1534 4219 1204 4116 
Q 875 4013 500 3803 
L 500 4441 
Q 881 4594 1212 4672 
Q 1544 4750 1819 4750 
Q 2544 4750 2975 4387 
Q 3406 4025 3406 3419 
Q 3406 3131 3298 2873 
Q 3191 2616 2906 2266 
Q 2828 2175 2409 1742 
Q 1991 1309 1228 531 
z
" transform="scale(0.015625)"/>
       </defs>
       <use xlink:href="#DejaVuSans-32"/>
       <use xlink:href="#DejaVuSans-30" x="63.623047"/>
       <use xlink:href="#DejaVuSans-30" x="127.246094"/>
      </g>
     </g>
    </g>
    <g id="xtick_4">
     <g id="line2d_7">
      <path d="M 378.197593 356.477812 
L 378.197593 23.837812 
" clip-path="url(#p52e7c626df)" style="fill: none; stroke: #b0b0b0; stroke-opacity: 0.3; stroke-width: 0.8; stroke-linecap: square"/>
     </g>
     <g id="line2d_8">
      <g>
       <use xlink:href="#m2d61d32690" x="378.197593" y="356.477812" style="stroke: #000000; stroke-width: 0.8"/>
      </g>
     </g>
     <g id="text_4">
      <!-- 300 -->
      <g transform="translate(368.653843 371.07625) scale(0.1 -0.1)">
       <defs>
        <path id="DejaVuSans-33" d="M 2597 2516 
Q 3050 2419 3304 2112 
Q 3559 1806 3559 1356 
Q 3559 666 3084 287 
Q 2609 -91 1734 -91 
Q 1441 -91 1130 -33 
Q 819 25 488 141 
L 488 750 
Q 750 597 1062 519 
Q 1375 441 1716 441 
Q 2309 441 2620 675 
Q 2931 909 2931 1356 
Q 2931 1769 2642 2001 
Q 2353 2234 1838 2234 
L 1294 2234 
L 1294 2753 
L 1863 2753 
Q 2328 2753 2575 2939 
Q 2822 3125 2822 3475 
Q 2822 3834 2567 4026 
Q 2313 4219 1838 4219 
Q 1578 4219 1281 4162 
Q 984 4106 628 3988 
L 628 4550 
Q 988 4650 1302 4700 
Q 1616 4750 1894 4750 
Q 2613 4750 3031 4423 
Q 3450 4097 3450 3541 
Q 3450 3153 3228 2886 
Q 3006 2619 2597 2516 
z
" transform="scale(0.015625)"/>
       </defs>
       <use xlink:href="#DejaVuSans-33"/>
       <use xlink:href="#DejaVuSans-30" x="63.623047"/>
       <use xlink:href="#DejaVuSans-30" x="127.246094"/>
      </g>
     </g>
    </g>
    <g id="xtick_5">
     <g id="line2d_9">
      <path d="M 478.44912 356.477812 
L 478.44912 23.837812 
" clip-path="url(#p52e7c626df)" style="fill: none; stroke: #b0b0b0; stroke-opacity: 0.3; stroke-width: 0.8; stroke-linecap: square"/>
     </g>
     <g id="line2d_10">
      <g>
       <use xlink:href="#m2d61d32690" x="478.44912" y="356.477812" style="stroke: #000000; stroke-width: 0.8"/>
      </g>
     </g>
     <g id="text_5">
      <!-- 400 -->
      <g transform="translate(468.90537 371.07625) scale(0.1 -0.1)">
       <defs>
        <path id="DejaVuSans-34" d="M 2419 4116 
L 825 1625 
L 2419 1625 
L 2419 4116 
z
M 2253 4666 
L 3047 4666 
L 3047 1625 
L 3713 1625 
L 3713 1100 
L 3047 1100 
L 3047 0 
L 2419 0 
L 2419 1100 
L 313 1100 
L 313 1709 
L 2253 4666 
z
" transform="scale(0.015625)"/>
       </defs>
       <use xlink:href="#DejaVuSans-34"/>
       <use xlink:href="#DejaVuSans-30" x="63.623047"/>
       <use xlink:href="#DejaVuSans-30" x="127.246094"/>
      </g>
     </g>
    </g>
    <g id="xtick_6">
     <g id="line2d_11">
      <path d="M 578.700647 356.477812 
L 578.700647 23.837812 
" clip-path="url(#p52e7c626df)" style="fill: none; stroke: #b0b0b0; stroke-opacity: 0.3; stroke-width: 0.8; stroke-linecap: square"/>
     </g>
     <g id="line2d_12">
      <g>
       <use xlink:href="#m2d61d32690" x="578.700647" y="356.477812" style="stroke: #000000; stroke-width: 0.8"/>
      </g>
     </g>
     <g id="text_6">
      <!-- 500 -->
      <g transform="translate(569.156897 371.07625) scale(0.1 -0.1)">
       <defs>
        <path id="DejaVuSans-35" d="M 691 4666 
L 3169 4666 
L 3169 4134 
L 1269 4134 
L 1269 2991 
Q 1406 3038 1543 3061 
Q 1681 3084 1819 3084 
Q 2600 3084 3056 2656 
Q 3513 2228 3513 1497 
Q 3513 744 3044 326 
Q 2575 -91 1722 -91 
Q 1428 -91 1123 -41 
Q 819 9 494 109 
L 494 744 
Q 775 591 1075 516 
Q 1375 441 1709 441 
Q 2250 441 2565 725 
Q 2881 1009 2881 1497 
Q 2881 1984 2565 2268 
Q 2250 2553 1709 2553 
Q 1456 2553 1204 2497 
Q 953 2441 691 2322 
L 691 4666 
z
" transform="scale(0.015625)"/>
       </defs>
       <use xlink:href="#DejaVuSans-35"/>
       <use xlink:href="#DejaVuSans-30" x="63.623047"/>
       <use xlink:href="#DejaVuSans-30" x="127.246094"/>
      </g>
     </g>
    </g>
    <g id="text_7">
     <!-- Epoch -->
     <g transform="translate(312.70625 386.274062) scale(0.12 -0.12)">
      <defs>
       <path id="DejaVuSans-45" d="M 628 4666 
L 3578 4666 
L 3578 4134 
L 1259 4134 
L 1259 2753 
L 3481 2753 
L 3481 2222 
L 1259 2222 
L 1259 531 
L 3634 531 
L 3634 0 
L 628 0 
L 628 4666 
z
" transform="scale(0.015625)"/>
       <path id="DejaVuSans-70" d="M 1159 525 
L 1159 -1331 
L 581 -1331 
L 581 3500 
L 1159 3500 
L 1159 2969 
Q 1341 3281 1617 3432 
Q 1894 3584 2278 3584 
Q 2916 3584 3314 3078 
Q 3713 2572 3713 1747 
Q 3713 922 3314 415 
Q 2916 -91 2278 -91 
Q 1894 -91 1617 61 
Q 1341 213 1159 525 
z
M 3116 1747 
Q 3116 2381 2855 2742 
Q 2594 3103 2138 3103 
Q 1681 3103 1420 2742 
Q 1159 2381 1159 1747 
Q 1159 1113 1420 752 
Q 1681 391 2138 391 
Q 2594 391 2855 752 
Q 3116 1113 3116 1747 
z
" transform="scale(0.015625)"/>
       <path id="DejaVuSans-6f" d="M 1959 3097 
Q 1497 3097 1228 2736 
Q 959 2375 959 1747 
Q 959 1119 1226 758 
Q 1494 397 1959 397 
Q 2419 397 2687 759 
Q 2956 1122 2956 1747 
Q 2956 2369 2687 2733 
Q 2419 3097 1959 3097 
z
M 1959 3584 
Q 2709 3584 3137 3096 
Q 3566 2609 3566 1747 
Q 3566 888 3137 398 
Q 2709 -91 1959 -91 
Q 1206 -91 779 398 
Q 353 888 353 1747 
Q 353 2609 779 3096 
Q 1206 3584 1959 3584 
z
" transform="scale(0.015625)"/>
       <path id="DejaVuSans-63" d="M 3122 3366 
L 3122 2828 
Q 2878 2963 2633 3030 
Q 2388 3097 2138 3097 
Q 1578 3097 1268 2742 
Q 959 2388 959 1747 
Q 959 1106 1268 751 
Q 1578 397 2138 397 
Q 2388 397 2633 464 
Q 2878 531 3122 666 
L 3122 134 
Q 2881 22 2623 -34 
Q 2366 -91 2075 -91 
Q 1284 -91 818 406 
Q 353 903 353 1747 
Q 353 2603 823 3093 
Q 1294 3584 2113 3584 
Q 2378 3584 2631 3529 
Q 2884 3475 3122 3366 
z
" transform="scale(0.015625)"/>
       <path id="DejaVuSans-68" d="M 3513 2113 
L 3513 0 
L 2938 0 
L 2938 2094 
Q 2938 2591 2744 2837 
Q 2550 3084 2163 3084 
Q 1697 3084 1428 2787 
Q 1159 2491 1159 1978 
L 1159 0 
L 581 0 
L 581 4863 
L 1159 4863 
L 1159 2956 
Q 1366 3272 1645 3428 
Q 1925 3584 2291 3584 
Q 2894 3584 3203 3211 
Q 3513 2838 3513 2113 
z
" transform="scale(0.015625)"/>
      </defs>
      <use xlink:href="#DejaVuSans-45"/>
      <use xlink:href="#DejaVuSans-70" x="63.183594"/>
      <use xlink:href="#DejaVuSans-6f" x="126.660156"/>
      <use xlink:href="#DejaVuSans-63" x="187.841797"/>
      <use xlink:href="#DejaVuSans-68" x="242.822266"/>
     </g>
    </g>
   </g>
   <g id="matplotlib.axis_2">
    <g id="ytick_1">
     <g id="line2d_13">
      <path d="M 52.079375 345.934297 
L 610.079375 345.934297 
" clip-path="url(#p52e7c626df)" style="fill: none; stroke: #b0b0b0; stroke-opacity: 0.3; stroke-width: 0.8; stroke-linecap: square"/>
     </g>
     <g id="line2d_14">
      <defs>
       <path id="m3621a61924" d="M 0 0 
L -3.5 0 
" style="stroke: #000000; stroke-width: 0.8"/>
      </defs>
      <g>
       <use xlink:href="#m3621a61924" x="52.079375" y="345.934297" style="stroke: #000000; stroke-width: 0.8"/>
      </g>
     </g>
     <g id="text_8">
      <!-- 0.20 -->
      <g transform="translate(22.81375 349.733516) scale(0.1 -0.1)">
       <defs>
        <path id="DejaVuSans-2e" d="M 684 794 
L 1344 794 
L 1344 0 
L 684 0 
L 684 794 
z
" transform="scale(0.015625)"/>
       </defs>
       <use xlink:href="#DejaVuSans-30"/>
       <use xlink:href="#DejaVuSans-2e" x="63.623047"/>
       <use xlink:href="#DejaVuSans-32" x="95.410156"/>
       <use xlink:href="#DejaVuSans-30" x="159.033203"/>
      </g>
     </g>
    </g>
    <g id="ytick_2">
     <g id="line2d_15">
      <path d="M 52.079375 297.999763 
L 610.079375 297.999763 
" clip-path="url(#p52e7c626df)" style="fill: none; stroke: #b0b0b0; stroke-opacity: 0.3; stroke-width: 0.8; stroke-linecap: square"/>
     </g>
     <g id="line2d_16">
      <g>
       <use xlink:href="#m3621a61924" x="52.079375" y="297.999763" style="stroke: #000000; stroke-width: 0.8"/>
      </g>
     </g>
     <g id="text_9">
      <!-- 0.25 -->
      <g transform="translate(22.81375 301.798982) scale(0.1 -0.1)">
       <use xlink:href="#DejaVuSans-30"/>
       <use xlink:href="#DejaVuSans-2e" x="63.623047"/>
       <use xlink:href="#DejaVuSans-32" x="95.410156"/>
       <use xlink:href="#DejaVuSans-35" x="159.033203"/>
      </g>
     </g>
    </g>
    <g id="ytick_3">
     <g id="line2d_17">
      <path d="M 52.079375 250.065229 
L 610.079375 250.065229 
" clip-path="url(#p52e7c626df)" style="fill: none; stroke: #b0b0b0; stroke-opacity: 0.3; stroke-width: 0.8; stroke-linecap: square"/>
     </g>
     <g id="line2d_18">
      <g>
       <use xlink:href="#m3621a61924" x="52.079375" y="250.065229" style="stroke: #000000; stroke-width: 0.8"/>
      </g>
     </g>
     <g id="text_10">
      <!-- 0.30 -->
      <g transform="translate(22.81375 253.864447) scale(0.1 -0.1)">
       <use xlink:href="#DejaVuSans-30"/>
       <use xlink:href="#DejaVuSans-2e" x="63.623047"/>
       <use xlink:href="#DejaVuSans-33" x="95.410156"/>
       <use xlink:href="#DejaVuSans-30" x="159.033203"/>
      </g>
     </g>
    </g>
    <g id="ytick_4">
     <g id="line2d_19">
      <path d="M 52.079375 202.130694 
L 610.079375 202.130694 
" clip-path="url(#p52e7c626df)" style="fill: none; stroke: #b0b0b0; stroke-opacity: 0.3; stroke-width: 0.8; stroke-linecap: square"/>
     </g>
     <g id="line2d_20">
      <g>
       <use xlink:href="#m3621a61924" x="52.079375" y="202.130694" style="stroke: #000000; stroke-width: 0.8"/>
      </g>
     </g>
     <g id="text_11">
      <!-- 0.35 -->
      <g transform="translate(22.81375 205.929913) scale(0.1 -0.1)">
       <use xlink:href="#DejaVuSans-30"/>
       <use xlink:href="#DejaVuSans-2e" x="63.623047"/>
       <use xlink:href="#DejaVuSans-33" x="95.410156"/>
       <use xlink:href="#DejaVuSans-35" x="159.033203"/>
      </g>
     </g>
    </g>
    <g id="ytick_5">
     <g id="line2d_21">
      <path d="M 52.079375 154.19616 
L 610.079375 154.19616 
" clip-path="url(#p52e7c626df)" style="fill: none; stroke: #b0b0b0; stroke-opacity: 0.3; stroke-width: 0.8; stroke-linecap: square"/>
     </g>
     <g id="line2d_22">
      <g>
       <use xlink:href="#m3621a61924" x="52.079375" y="154.19616" style="stroke: #000000; stroke-width: 0.8"/>
      </g>
     </g>
     <g id="text_12">
      <!-- 0.40 -->
      <g transform="translate(22.81375 157.995379) scale(0.1 -0.1)">
       <use xlink:href="#DejaVuSans-30"/>
       <use xlink:href="#DejaVuSans-2e" x="63.623047"/>
       <use xlink:href="#DejaVuSans-34" x="95.410156"/>
       <use xlink:href="#DejaVuSans-30" x="159.033203"/>
      </g>
     </g>
    </g>
    <g id="ytick_6">
     <g id="line2d_23">
      <path d="M 52.079375 106.261626 
L 610.079375 106.261626 
" clip-path="url(#p52e7c626df)" style="fill: none; stroke: #b0b0b0; stroke-opacity: 0.3; stroke-width: 0.8; stroke-linecap: square"/>
     </g>
     <g id="line2d_24">
      <g>
       <use xlink:href="#m3621a61924" x="52.079375" y="106.261626" style="stroke: #000000; stroke-width: 0.8"/>
      </g>
     </g>
     <g id="text_13">
      <!-- 0.45 -->
      <g transform="translate(22.81375 110.060844) scale(0.1 -0.1)">
       <use xlink:href="#DejaVuSans-30"/>
       <use xlink:href="#DejaVuSans-2e" x="63.623047"/>
       <use xlink:href="#DejaVuSans-34" x="95.410156"/>
       <use xlink:href="#DejaVuSans-35" x="159.033203"/>
      </g>
     </g>
    </g>
    <g id="ytick_7">
     <g id="line2d_25">
      <path d="M 52.079375 58.327091 
L 610.079375 58.327091 
" clip-path="url(#p52e7c626df)" style="fill: none; stroke: #b0b0b0; stroke-opacity: 0.3; stroke-width: 0.8; stroke-linecap: square"/>
     </g>
     <g id="line2d_26">
      <g>
       <use xlink:href="#m3621a61924" x="52.079375" y="58.327091" style="stroke: #000000; stroke-width: 0.8"/>
      </g>
     </g>
     <g id="text_14">
      <!-- 0.50 -->
      <g transform="translate(22.81375 62.12631) scale(0.1 -0.1)">
       <use xlink:href="#DejaVuSans-30"/>
       <use xlink:href="#DejaVuSans-2e" x="63.623047"/>
       <use xlink:href="#DejaVuSans-35" x="95.410156"/>
       <use xlink:href="#DejaVuSans-30" x="159.033203"/>
      </g>
     </g>
    </g>
    <g id="text_15">
     <!-- Loss -->
     <g transform="translate(16.318125 203.318437) rotate(-90) scale(0.12 -0.12)">
      <defs>
       <path id="DejaVuSans-4c" d="M 628 4666 
L 1259 4666 
L 1259 531 
L 3531 531 
L 3531 0 
L 628 0 
L 628 4666 
z
" transform="scale(0.015625)"/>
       <path id="DejaVuSans-73" d="M 2834 3397 
L 2834 2853 
Q 2591 2978 2328 3040 
Q 2066 3103 1784 3103 
Q 1356 3103 1142 2972 
Q 928 2841 928 2578 
Q 928 2378 1081 2264 
Q 1234 2150 1697 2047 
L 1894 2003 
Q 2506 1872 2764 1633 
Q 3022 1394 3022 966 
Q 3022 478 2636 193 
Q 2250 -91 1575 -91 
Q 1294 -91 989 -36 
Q 684 19 347 128 
L 347 722 
Q 666 556 975 473 
Q 1284 391 1588 391 
Q 1994 391 2212 530 
Q 2431 669 2431 922 
Q 2431 1156 2273 1281 
Q 2116 1406 1581 1522 
L 1381 1569 
Q 847 1681 609 1914 
Q 372 2147 372 2553 
Q 372 3047 722 3315 
Q 1072 3584 1716 3584 
Q 2034 3584 2315 3537 
Q 2597 3491 2834 3397 
z
" transform="scale(0.015625)"/>
      </defs>
      <use xlink:href="#DejaVuSans-4c"/>
      <use xlink:href="#DejaVuSans-6f" x="53.962891"/>
      <use xlink:href="#DejaVuSans-73" x="115.144531"/>
      <use xlink:href="#DejaVuSans-73" x="167.244141"/>
     </g>
    </g>
   </g>
   <g id="line2d_27">
    <path d="M 77.443011 38.957812 
L 78.445527 77.899874 
L 79.448042 85.790729 
L 80.450557 91.627438 
L 81.453072 96.73437 
L 85.463134 112.274248 
L 86.465649 115.253311 
L 87.468164 117.792918 
L 88.470679 121.375589 
L 89.473195 123.920482 
L 91.478225 128.180534 
L 92.48074 130.351946 
L 93.483256 133.118156 
L 95.488286 135.927891 
L 96.490802 137.523779 
L 97.493317 139.437573 
L 98.495832 141.069631 
L 99.498347 141.95746 
L 100.500863 143.601424 
L 101.503378 146.038988 
L 102.505893 149.259631 
L 103.508408 151.758313 
L 105.513439 155.655733 
L 106.515954 158.560187 
L 107.51847 160.588561 
L 108.520985 162.11022 
L 110.526015 167.565503 
L 111.528531 171.815282 
L 113.533561 175.601913 
L 116.541107 181.279877 
L 117.543622 183.052247 
L 118.546137 184.518787 
L 120.551168 188.345219 
L 121.553683 190.749303 
L 122.556199 192.476188 
L 124.561229 196.551133 
L 125.563744 200.051765 
L 127.568775 203.565267 
L 128.57129 205.101605 
L 129.573805 206.925803 
L 130.576321 207.607832 
L 131.578836 209.56046 
L 132.581351 210.657238 
L 133.583867 212.14555 
L 135.588897 214.610574 
L 136.591412 215.346652 
L 137.593928 217.095503 
L 138.596443 218.615613 
L 139.598958 218.957476 
L 140.601473 219.846964 
L 141.603989 220.3547 
L 142.606504 222.197718 
L 143.609019 221.640898 
L 144.611535 223.874314 
L 145.61405 224.222208 
L 147.61908 226.405295 
L 148.621596 228.794758 
L 149.624111 227.307632 
L 150.626626 228.946526 
L 151.629141 228.281778 
L 152.631657 230.426947 
L 153.634172 231.748151 
L 154.636687 231.392405 
L 155.639203 231.824748 
L 156.641718 232.416921 
L 157.644233 234.224908 
L 159.649264 234.047491 
L 160.651779 235.799858 
L 161.654294 236.609548 
L 162.656809 235.430772 
L 163.659325 236.366696 
L 164.66184 237.129369 
L 166.666871 238.097107 
L 167.669386 239.707431 
L 168.671901 239.115846 
L 169.674416 240.461187 
L 170.676932 240.044787 
L 171.679447 240.991941 
L 173.684477 242.112674 
L 175.689508 241.959474 
L 177.694538 243.679275 
L 178.697054 242.865335 
L 179.699569 244.011112 
L 180.702084 244.240092 
L 181.7046 243.383304 
L 184.712145 245.106265 
L 185.714661 246.866024 
L 186.717176 246.410056 
L 187.719691 247.745236 
L 188.722206 246.923354 
L 189.724722 247.551221 
L 190.727237 249.033266 
L 191.729752 247.728094 
L 192.732268 249.11514 
L 193.734783 249.544641 
L 194.737298 248.895241 
L 195.739813 249.538172 
L 196.742329 249.077074 
L 197.744844 250.244339 
L 198.747359 250.375073 
L 199.749874 250.138787 
L 200.75239 251.763404 
L 201.754905 250.803913 
L 202.75742 250.983401 
L 203.759936 251.394719 
L 204.762451 252.642076 
L 205.764966 252.153443 
L 206.767481 252.229701 
L 208.772512 252.879948 
L 210.777542 254.590601 
L 211.780058 255.034553 
L 212.782573 254.714641 
L 213.785088 255.269937 
L 215.790119 254.375957 
L 216.792634 256.074579 
L 217.795149 256.013919 
L 218.797665 256.69172 
L 219.80018 256.134447 
L 220.802695 256.973215 
L 221.80521 256.864912 
L 223.810241 257.65796 
L 224.812756 258.229979 
L 225.815272 257.597079 
L 226.817787 259.304584 
L 227.820302 258.630695 
L 228.822817 259.52302 
L 229.825333 258.054416 
L 230.827848 259.40074 
L 231.830363 259.327388 
L 232.832878 260.196831 
L 233.835394 259.786035 
L 234.837909 260.538742 
L 236.842939 260.630734 
L 237.845455 260.887842 
L 238.84797 261.683357 
L 239.850485 261.762693 
L 240.853001 261.665304 
L 241.855516 261.15166 
L 242.858031 261.6096 
L 243.860546 262.775339 
L 244.863062 262.803974 
L 245.865577 262.416322 
L 246.868092 262.833307 
L 247.870607 262.982652 
L 248.873123 263.934356 
L 249.875638 264.510724 
L 250.878153 265.260412 
L 251.880669 263.73643 
L 252.883184 264.894016 
L 253.885699 265.605375 
L 254.888214 265.014849 
L 255.89073 265.159076 
L 256.893245 266.216246 
L 257.89576 267.535999 
L 258.898275 266.116918 
L 259.900791 265.937732 
L 261.905821 266.830404 
L 262.908337 267.531902 
L 263.910852 266.985862 
L 264.913367 268.710427 
L 265.915882 267.369038 
L 268.923428 269.835496 
L 269.925943 268.13021 
L 270.928459 269.947562 
L 271.930974 269.707658 
L 272.933489 270.051162 
L 273.936005 269.922 
L 274.93852 270.794069 
L 275.941035 270.84615 
L 276.94355 270.495268 
L 277.946066 272.064179 
L 278.948581 270.832072 
L 279.951096 271.753129 
L 280.953611 272.012872 
L 281.956127 272.40191 
L 282.958642 272.481351 
L 283.961157 272.305705 
L 284.963673 273.447549 
L 285.966188 272.698766 
L 286.968703 273.63204 
L 287.971218 273.38351 
L 288.973734 274.307105 
L 289.976249 273.770677 
L 290.978764 273.051567 
L 291.981279 274.531298 
L 292.983795 274.945259 
L 293.98631 274.822219 
L 296.993856 275.372096 
L 298.998886 276.676102 
L 300.001402 275.981934 
L 301.003917 276.407458 
L 302.006432 277.250979 
L 304.011463 277.98213 
L 305.013978 278.102741 
L 306.016493 277.388181 
L 307.019008 278.048047 
L 308.021524 278.33826 
L 309.024039 278.274747 
L 310.026554 279.047453 
L 311.02907 279.136638 
L 312.031585 280.424577 
L 313.0341 280.146014 
L 315.039131 279.941524 
L 316.041646 280.314914 
L 317.044161 280.411225 
L 318.046676 280.767275 
L 319.049192 280.799101 
L 320.051707 281.299434 
L 321.054222 280.939119 
L 322.056738 281.395688 
L 323.059253 281.527585 
L 324.061768 282.374291 
L 325.064283 281.94224 
L 326.066799 283.227693 
L 327.069314 281.965629 
L 328.071829 283.442468 
L 329.074344 283.786836 
L 330.07686 283.935735 
L 331.079375 283.533492 
L 332.08189 284.414182 
L 333.084406 284.925224 
L 334.086921 284.474845 
L 335.089436 285.067821 
L 336.091951 285.494282 
L 337.094467 285.524406 
L 338.096982 286.094102 
L 339.099497 286.252027 
L 340.102012 286.08403 
L 341.104528 286.162827 
L 342.107043 286.947401 
L 343.109558 286.604519 
L 344.112074 287.070241 
L 345.114589 287.7475 
L 346.117104 287.37293 
L 347.119619 287.320706 
L 348.122135 287.488719 
L 349.12465 288.810011 
L 350.127165 288.198782 
L 351.12968 288.611867 
L 352.132196 289.416388 
L 353.134711 289.385877 
L 354.137226 289.754432 
L 355.139742 288.797668 
L 356.142257 289.419679 
L 358.147287 291.265646 
L 359.149803 290.933746 
L 361.154833 291.560801 
L 362.157348 291.127932 
L 364.162379 291.276709 
L 366.167409 292.177982 
L 367.169925 292.658137 
L 368.17244 292.531578 
L 369.174955 292.832959 
L 370.177471 293.942113 
L 371.179986 293.531616 
L 372.182501 293.403977 
L 373.185016 294.474847 
L 374.187532 294.21331 
L 375.190047 294.652958 
L 376.192562 294.585817 
L 377.195077 294.84668 
L 378.197593 295.388591 
L 379.200108 295.048961 
L 380.202623 295.835498 
L 382.207654 296.104909 
L 383.210169 297.115093 
L 384.212684 296.288756 
L 385.2152 296.851746 
L 386.217715 297.201158 
L 387.22023 297.268912 
L 388.222745 297.938336 
L 389.225261 297.581367 
L 390.227776 298.501221 
L 391.230291 298.864906 
L 392.232807 298.070056 
L 393.235322 298.534681 
L 394.237837 299.460314 
L 395.240352 299.215198 
L 396.242868 299.471581 
L 397.245383 299.380187 
L 398.247898 299.611724 
L 399.250413 300.380139 
L 401.255444 300.820453 
L 403.260475 300.594799 
L 404.26299 301.48999 
L 405.265505 301.906171 
L 406.26802 301.558076 
L 407.270536 302.284621 
L 408.273051 302.503938 
L 409.275566 302.858579 
L 410.278081 303.030344 
L 411.280597 302.709915 
L 412.283112 303.345459 
L 413.285627 303.298759 
L 415.290658 303.594585 
L 416.293173 304.237243 
L 417.295688 304.745415 
L 418.298204 304.839791 
L 419.300719 304.285323 
L 420.303234 304.639436 
L 421.305749 305.358789 
L 422.308265 305.267366 
L 424.313295 305.62767 
L 425.315811 306.035616 
L 426.318326 306.296457 
L 427.320841 306.289512 
L 428.323356 306.804717 
L 429.325872 306.66577 
L 430.328387 306.890097 
L 431.330902 308.003894 
L 433.335933 307.77325 
L 434.338448 308.375411 
L 435.340963 307.95272 
L 436.343478 308.630493 
L 437.345994 308.693593 
L 439.351024 309.267647 
L 440.35354 309.341183 
L 441.356055 309.671324 
L 443.361085 309.76128 
L 445.366116 310.431744 
L 446.368631 310.274242 
L 447.371146 310.523169 
L 448.373662 311.001643 
L 450.378692 310.884771 
L 451.381208 311.52501 
L 452.383723 311.997233 
L 453.386238 311.62984 
L 454.388753 312.048361 
L 455.391269 311.923838 
L 456.393784 311.994674 
L 457.396299 312.74896 
L 458.398814 312.580654 
L 459.40133 313.011509 
L 461.40636 313.560663 
L 462.408876 313.742584 
L 463.411391 313.526415 
L 464.413906 313.929424 
L 465.416421 314.171665 
L 466.418937 314.076588 
L 467.421452 314.621562 
L 468.423967 314.481662 
L 471.431513 314.994038 
L 472.434028 315.300562 
L 475.441574 315.694765 
L 476.444089 315.673049 
L 477.446605 316.373164 
L 478.44912 316.189662 
L 479.451635 316.211828 
L 480.45415 316.578968 
L 481.456666 316.693381 
L 483.461696 317.198611 
L 484.464212 317.108511 
L 485.466727 317.374773 
L 486.469242 317.397839 
L 489.476788 318.092749 
L 490.479303 317.941545 
L 492.484334 318.495304 
L 493.486849 318.523769 
L 494.489364 318.735636 
L 496.494395 319.012981 
L 497.49691 319.159721 
L 498.499425 319.106526 
L 499.501941 319.553749 
L 501.506971 319.598249 
L 503.512002 319.838519 
L 504.514517 320.109118 
L 507.522063 320.46575 
L 508.524578 320.752908 
L 509.527093 320.58928 
L 510.529609 320.77404 
L 512.534639 320.785156 
L 514.53967 321.37044 
L 515.542185 321.083659 
L 519.552246 321.733135 
L 520.554761 321.674777 
L 521.557277 321.886792 
L 522.559792 321.880418 
L 526.569853 322.389961 
L 533.58746 322.915497 
L 536.595006 322.926623 
L 541.607582 323.551334 
L 542.610097 323.508305 
L 547.622674 323.816091 
L 548.625189 323.650478 
L 549.627704 323.957605 
L 550.630219 324.079953 
L 552.63525 324.127021 
L 553.637765 324.268329 
L 554.64028 324.113111 
L 555.642796 324.145916 
L 556.645311 324.327516 
L 561.657887 324.357683 
L 562.660403 324.62586 
L 563.662918 324.685281 
L 564.665433 324.449738 
L 565.667948 324.552364 
L 567.672979 324.575479 
L 570.680525 324.730714 
L 571.68304 324.659737 
L 572.685555 324.875204 
L 574.690586 324.581207 
L 575.693101 324.773242 
L 578.700647 324.856702 
L 579.703162 324.773298 
L 580.705678 324.848593 
L 581.708193 324.709301 
L 582.710708 324.861022 
L 584.715739 324.962192 
L 584.715739 324.962192 
" clip-path="url(#p52e7c626df)" style="fill: none; stroke: #0000ff; stroke-width: 2; stroke-linecap: square"/>
   </g>
   <g id="line2d_28">
    <path d="M 77.443011 72.699054 
L 78.445527 82.38725 
L 79.448042 85.526651 
L 80.450557 96.213998 
L 81.453072 103.672332 
L 82.455588 103.454418 
L 83.458103 110.314018 
L 84.460618 111.768456 
L 85.463134 115.741144 
L 86.465649 116.613336 
L 87.468164 115.721214 
L 88.470679 126.197732 
L 89.473195 126.526097 
L 90.47571 128.53653 
L 91.478225 134.079509 
L 92.48074 135.865645 
L 93.483256 135.73233 
L 94.485771 134.804567 
L 95.488286 137.018793 
L 96.490802 142.76435 
L 97.493317 142.232766 
L 98.495832 147.387625 
L 99.498347 144.953424 
L 100.500863 149.569154 
L 101.503378 151.419252 
L 102.505893 150.762128 
L 103.508408 159.986736 
L 104.510924 158.082048 
L 105.513439 163.070309 
L 106.515954 156.062989 
L 107.51847 162.776003 
L 108.520985 166.500659 
L 109.5235 174.862964 
L 110.526015 172.750275 
L 111.528531 179.273881 
L 112.531046 180.386703 
L 113.533561 184.034535 
L 114.536076 183.123249 
L 115.538592 191.979041 
L 116.541107 187.812063 
L 117.543622 192.76162 
L 118.546137 192.364793 
L 120.551168 203.728465 
L 121.553683 202.678186 
L 122.556199 207.280953 
L 123.558714 210.228916 
L 124.561229 212.617071 
L 125.563744 211.207139 
L 126.56626 215.233088 
L 127.568775 218.608025 
L 128.57129 216.54171 
L 129.573805 219.954492 
L 130.576321 222.886384 
L 131.578836 224.236053 
L 132.581351 228.991434 
L 133.583867 228.429061 
L 134.586382 227.556631 
L 135.588897 221.452026 
L 136.591412 229.819341 
L 137.593928 233.57196 
L 139.598958 236.291404 
L 140.601473 224.361051 
L 141.603989 227.450038 
L 143.609019 246.488906 
L 144.611535 235.652705 
L 145.61405 237.946157 
L 146.616565 239.790472 
L 147.61908 250.154551 
L 148.621596 230.02179 
L 149.624111 249.205781 
L 150.626626 232.69279 
L 151.629141 245.451504 
L 152.631657 250.593256 
L 153.634172 248.666632 
L 154.636687 221.567126 
L 155.639203 248.506379 
L 156.641718 245.283128 
L 157.644233 245.561302 
L 158.646748 248.538108 
L 159.649264 257.716119 
L 160.651779 240.076949 
L 161.654294 259.462475 
L 162.656809 249.503553 
L 163.659325 252.28996 
L 164.66184 255.68022 
L 165.664355 255.034561 
L 166.666871 249.607817 
L 167.669386 256.248318 
L 168.671901 254.9567 
L 169.674416 259.440334 
L 170.676932 265.425236 
L 171.679447 257.800891 
L 172.681962 260.53656 
L 173.684477 256.639442 
L 174.686993 253.570949 
L 175.689508 266.006578 
L 176.692023 261.958309 
L 177.694538 260.682723 
L 178.697054 263.132779 
L 179.699569 251.092635 
L 180.702084 251.576637 
L 181.7046 266.45729 
L 182.707115 242.180183 
L 183.70963 262.267947 
L 184.712145 256.889541 
L 185.714661 261.507458 
L 186.717176 262.404341 
L 187.719691 262.703217 
L 188.722206 259.353615 
L 189.724722 265.830503 
L 190.727237 269.573376 
L 191.729752 268.669864 
L 192.732268 255.25935 
L 193.734783 266.12603 
L 194.737298 248.801526 
L 195.739813 257.141635 
L 196.742329 275.334958 
L 197.744844 271.698184 
L 198.747359 270.74985 
L 199.749874 270.669784 
L 201.754905 278.30387 
L 202.75742 272.94253 
L 203.759936 274.385333 
L 204.762451 268.217722 
L 205.764966 268.390296 
L 206.767481 270.622873 
L 207.769997 271.137228 
L 208.772512 275.915631 
L 209.775027 278.041745 
L 210.777542 260.840814 
L 211.780058 276.767306 
L 212.782573 268.688413 
L 213.785088 277.384703 
L 214.787604 276.166768 
L 215.790119 273.77951 
L 216.792634 276.727998 
L 217.795149 277.547785 
L 218.797665 278.104677 
L 219.80018 281.885679 
L 220.802695 274.467689 
L 221.80521 273.353852 
L 222.807726 279.115009 
L 223.810241 270.813076 
L 224.812756 272.026986 
L 225.815272 275.631689 
L 226.817787 279.711788 
L 227.820302 280.660679 
L 228.822817 285.286041 
L 229.825333 278.018703 
L 230.827848 268.123289 
L 231.830363 284.867015 
L 232.832878 282.093185 
L 233.835394 275.51721 
L 234.837909 277.583355 
L 235.840424 275.31758 
L 236.842939 279.649658 
L 237.845455 281.522145 
L 238.84797 280.075825 
L 239.850485 274.750443 
L 240.853001 282.005858 
L 241.855516 282.149856 
L 242.858031 281.152492 
L 243.860546 274.688241 
L 244.863062 277.193194 
L 245.865577 286.156382 
L 246.868092 270.62313 
L 247.870607 280.329918 
L 248.873123 280.705138 
L 249.875638 285.800197 
L 250.878153 284.019763 
L 251.880669 283.724071 
L 252.883184 285.293722 
L 253.885699 285.146649 
L 254.888214 287.01776 
L 255.89073 285.131203 
L 256.893245 280.488037 
L 257.89576 288.345393 
L 258.898275 285.657854 
L 259.900791 274.66782 
L 260.903306 285.139801 
L 261.905821 278.563867 
L 262.908337 281.011712 
L 263.910852 290.398457 
L 264.913367 284.083965 
L 265.915882 286.291934 
L 266.918398 281.966869 
L 267.920913 287.551947 
L 268.923428 290.371654 
L 269.925943 281.735761 
L 270.928459 292.272493 
L 271.930974 265.898394 
L 272.933489 288.254 
L 273.936005 285.453213 
L 274.93852 287.473527 
L 275.941035 288.115615 
L 276.94355 268.028837 
L 277.946066 293.845091 
L 278.948581 291.361943 
L 279.951096 292.965479 
L 280.953611 286.152211 
L 281.956127 281.813604 
L 282.958642 294.031143 
L 283.961157 286.35719 
L 284.963673 289.272887 
L 285.966188 277.343194 
L 286.968703 289.851172 
L 287.971218 293.25284 
L 288.973734 289.350767 
L 289.976249 281.638743 
L 290.978764 286.750244 
L 292.983795 294.215409 
L 293.98631 287.851361 
L 294.988825 298.08415 
L 295.991341 288.528794 
L 296.993856 293.940047 
L 297.996371 289.900717 
L 298.998886 295.926042 
L 300.001402 281.327879 
L 301.003917 295.00834 
L 302.006432 296.510981 
L 303.008947 300.130422 
L 304.011463 294.169276 
L 305.013978 299.294855 
L 306.016493 285.226472 
L 307.019008 291.221612 
L 308.021524 287.480732 
L 309.024039 299.980131 
L 310.026554 296.286557 
L 311.02907 295.694844 
L 312.031585 295.988834 
L 313.0341 290.928592 
L 314.036615 292.894808 
L 315.039131 299.699574 
L 316.041646 273.091297 
L 317.044161 297.998867 
L 318.046676 298.928032 
L 319.049192 303.315246 
L 320.051707 299.276514 
L 321.054222 300.428175 
L 322.056738 301.824578 
L 323.059253 299.748057 
L 324.061768 306.241197 
L 325.064283 301.378173 
L 326.066799 294.324346 
L 327.069314 293.570593 
L 328.071829 298.741044 
L 329.074344 301.486656 
L 330.07686 303.224728 
L 331.079375 299.642188 
L 333.084406 304.168691 
L 334.086921 297.485124 
L 335.089436 301.130921 
L 336.091951 280.30782 
L 337.094467 305.424115 
L 338.096982 305.023969 
L 339.099497 271.806226 
L 340.102012 300.378344 
L 341.104528 300.430986 
L 342.107043 303.438361 
L 343.109558 310.075459 
L 344.112074 304.484242 
L 345.114589 304.477299 
L 346.117104 306.882366 
L 347.119619 306.823704 
L 348.122135 307.329908 
L 349.12465 309.91731 
L 350.127165 310.340252 
L 351.12968 302.48723 
L 352.132196 301.877524 
L 353.134711 300.61337 
L 354.137226 302.677792 
L 355.139742 309.432766 
L 356.142257 308.752584 
L 357.144772 304.627189 
L 358.147287 309.194895 
L 359.149803 303.155954 
L 360.152318 307.291007 
L 361.154833 298.81065 
L 362.157348 298.850685 
L 363.159864 299.153531 
L 364.162379 307.476985 
L 365.164894 307.593301 
L 366.167409 309.049706 
L 367.169925 306.557052 
L 368.17244 308.959612 
L 369.174955 315.44626 
L 370.177471 314.159758 
L 371.179986 305.091001 
L 372.182501 294.812366 
L 373.185016 314.392675 
L 374.187532 313.173803 
L 375.190047 309.317676 
L 376.192562 294.831469 
L 377.195077 316.567539 
L 378.197593 309.010694 
L 379.200108 315.089553 
L 380.202623 289.72797 
L 381.205139 301.137974 
L 382.207654 310.034355 
L 383.210169 304.191804 
L 384.212684 313.050705 
L 385.2152 316.317033 
L 386.217715 307.812854 
L 387.22023 316.738882 
L 388.222745 316.345697 
L 389.225261 313.005731 
L 390.227776 317.456169 
L 391.230291 313.151333 
L 392.232807 301.873088 
L 393.235322 319.487434 
L 394.237837 318.423248 
L 395.240352 299.887141 
L 396.242868 315.536702 
L 397.245383 308.795106 
L 398.247898 315.322904 
L 399.250413 319.131528 
L 400.252929 321.965431 
L 401.255444 320.719809 
L 402.257959 316.91599 
L 403.260475 320.482417 
L 404.26299 315.296191 
L 405.265505 322.013881 
L 407.270536 314.607929 
L 408.273051 320.307189 
L 409.275566 322.0485 
L 410.278081 320.563801 
L 411.280597 315.389068 
L 412.283112 320.078661 
L 413.285627 317.807684 
L 414.288143 322.582508 
L 415.290658 322.990717 
L 416.293173 325.175047 
L 417.295688 322.359218 
L 418.298204 322.920093 
L 419.300719 323.097323 
L 420.303234 320.606116 
L 421.305749 325.210668 
L 422.308265 324.185616 
L 424.313295 321.614875 
L 425.315811 324.185123 
L 426.318326 322.766121 
L 427.320841 326.400743 
L 428.323356 326.253401 
L 429.325872 324.787401 
L 430.328387 321.096981 
L 431.330902 322.039468 
L 432.333417 321.297938 
L 433.335933 325.916077 
L 434.338448 317.489815 
L 435.340963 320.780333 
L 436.343478 313.638228 
L 437.345994 327.857418 
L 438.348509 321.16608 
L 439.351024 328.413521 
L 440.35354 326.642909 
L 441.356055 328.585383 
L 442.35857 329.780906 
L 443.361085 325.140465 
L 444.363601 328.915685 
L 445.366116 328.205572 
L 446.368631 327.78845 
L 447.371146 327.092073 
L 448.373662 325.996097 
L 449.376177 328.407507 
L 450.378692 327.827335 
L 451.381208 325.194282 
L 452.383723 327.103506 
L 453.386238 328.439007 
L 454.388753 329.986731 
L 455.391269 321.244214 
L 456.393784 328.098634 
L 457.396299 327.687983 
L 458.398814 329.100298 
L 459.40133 332.60255 
L 460.403845 325.021187 
L 461.40636 322.57158 
L 462.408876 328.993969 
L 463.411391 331.032864 
L 464.413906 326.568996 
L 465.416421 321.392254 
L 466.418937 332.358895 
L 467.421452 332.835251 
L 468.423967 320.14008 
L 469.426482 327.663125 
L 470.428998 330.857204 
L 471.431513 331.386652 
L 472.434028 334.139052 
L 473.436544 329.303959 
L 474.439059 333.107998 
L 475.441574 319.027013 
L 476.444089 335.803222 
L 477.446605 331.193918 
L 478.44912 330.216905 
L 479.451635 334.314548 
L 480.45415 335.765168 
L 481.456666 329.67637 
L 482.459181 329.472519 
L 483.461696 332.44614 
L 484.464212 334.084403 
L 485.466727 334.278067 
L 486.469242 330.97553 
L 487.471757 326.66071 
L 488.474273 334.547822 
L 489.476788 335.468444 
L 490.479303 333.725341 
L 491.481818 331.147296 
L 492.484334 335.203484 
L 493.486849 332.570246 
L 494.489364 332.789464 
L 495.491879 333.144423 
L 496.494395 334.737913 
L 497.49691 337.787308 
L 498.499425 337.363935 
L 499.501941 335.584664 
L 500.504456 337.039589 
L 501.506971 335.864883 
L 502.509486 338.527495 
L 503.512002 336.907653 
L 504.514517 338.296203 
L 505.517032 333.594697 
L 506.519547 336.432978 
L 507.522063 337.143066 
L 508.524578 335.803784 
L 509.527093 331.677041 
L 511.532124 335.793057 
L 512.534639 338.036846 
L 513.537154 338.018423 
L 514.53967 336.144699 
L 515.542185 337.66331 
L 516.5447 338.56188 
L 517.547215 338.056763 
L 518.549731 339.681775 
L 519.552246 339.14787 
L 520.554761 337.34757 
L 521.557277 338.408849 
L 522.559792 340.684425 
L 523.562307 338.920946 
L 524.564822 337.932038 
L 525.567338 337.818295 
L 527.572368 337.958852 
L 528.574883 339.685864 
L 529.577399 339.846056 
L 530.579914 337.02093 
L 531.582429 340.759374 
L 532.584945 340.612679 
L 533.58746 339.658206 
L 534.589975 339.171358 
L 535.59249 339.054981 
L 536.595006 339.873174 
L 537.597521 338.516572 
L 538.600036 341.190733 
L 539.602551 338.7983 
L 540.605067 335.737218 
L 541.607582 340.646086 
L 542.610097 338.985815 
L 543.612613 340.168741 
L 544.615128 339.383712 
L 545.617643 339.633892 
L 546.620158 339.635558 
L 547.622674 339.437948 
L 548.625189 338.551732 
L 549.627704 338.474146 
L 550.630219 339.05484 
L 551.632735 340.638419 
L 552.63525 340.62107 
L 553.637765 340.801408 
L 554.64028 340.794975 
L 555.642796 341.254691 
L 556.645311 338.691334 
L 557.647826 339.604715 
L 558.650342 340.913643 
L 559.652857 341.357813 
L 560.655372 337.728483 
L 561.657887 340.998889 
L 562.660403 338.654911 
L 563.662918 339.045551 
L 564.665433 340.433901 
L 566.670464 338.646929 
L 567.672979 340.679721 
L 568.675494 339.777458 
L 570.680525 340.304744 
L 571.68304 339.877116 
L 572.685555 340.542779 
L 573.688071 340.399279 
L 574.690586 339.687161 
L 575.693101 340.11903 
L 576.695616 340.412413 
L 577.698132 340.951941 
L 578.700647 340.757086 
L 579.703162 340.259089 
L 580.705678 340.249354 
L 581.708193 340.597647 
L 582.710708 340.29295 
L 584.715739 340.485166 
L 584.715739 340.485166 
" clip-path="url(#p52e7c626df)" style="fill: none; stroke: #ff0000; stroke-width: 2; stroke-linecap: square"/>
   </g>
   <g id="patch_3">
    <path d="M 52.079375 356.477813 
L 52.079375 23.837812 
" style="fill: none; stroke: #000000; stroke-width: 0.8; stroke-linejoin: miter; stroke-linecap: square"/>
   </g>
   <g id="patch_4">
    <path d="M 610.079375 356.477813 
L 610.079375 23.837812 
" style="fill: none; stroke: #000000; stroke-width: 0.8; stroke-linejoin: miter; stroke-linecap: square"/>
   </g>
   <g id="patch_5">
    <path d="M 52.079375 356.477812 
L 610.079375 356.477812 
" style="fill: none; stroke: #000000; stroke-width: 0.8; stroke-linejoin: miter; stroke-linecap: square"/>
   </g>
   <g id="patch_6">
    <path d="M 52.079375 23.837812 
L 610.079375 23.837812 
" style="fill: none; stroke: #000000; stroke-width: 0.8; stroke-linejoin: miter; stroke-linecap: square"/>
   </g>
   <g id="text_16">
    <!-- Training and Validation Loss -->
    <g transform="translate(233.698437 17.837812) scale(0.14 -0.14)">
     <defs>
      <path id="DejaVuSans-54" d="M -19 4666 
L 3928 4666 
L 3928 4134 
L 2272 4134 
L 2272 0 
L 1638 0 
L 1638 4134 
L -19 4134 
L -19 4666 
z
" transform="scale(0.015625)"/>
      <path id="DejaVuSans-72" d="M 2631 2963 
Q 2534 3019 2420 3045 
Q 2306 3072 2169 3072 
Q 1681 3072 1420 2755 
Q 1159 2438 1159 1844 
L 1159 0 
L 581 0 
L 581 3500 
L 1159 3500 
L 1159 2956 
Q 1341 3275 1631 3429 
Q 1922 3584 2338 3584 
Q 2397 3584 2469 3576 
Q 2541 3569 2628 3553 
L 2631 2963 
z
" transform="scale(0.015625)"/>
      <path id="DejaVuSans-61" d="M 2194 1759 
Q 1497 1759 1228 1600 
Q 959 1441 959 1056 
Q 959 750 1161 570 
Q 1363 391 1709 391 
Q 2188 391 2477 730 
Q 2766 1069 2766 1631 
L 2766 1759 
L 2194 1759 
z
M 3341 1997 
L 3341 0 
L 2766 0 
L 2766 531 
Q 2569 213 2275 61 
Q 1981 -91 1556 -91 
Q 1019 -91 701 211 
Q 384 513 384 1019 
Q 384 1609 779 1909 
Q 1175 2209 1959 2209 
L 2766 2209 
L 2766 2266 
Q 2766 2663 2505 2880 
Q 2244 3097 1772 3097 
Q 1472 3097 1187 3025 
Q 903 2953 641 2809 
L 641 3341 
Q 956 3463 1253 3523 
Q 1550 3584 1831 3584 
Q 2591 3584 2966 3190 
Q 3341 2797 3341 1997 
z
" transform="scale(0.015625)"/>
      <path id="DejaVuSans-69" d="M 603 3500 
L 1178 3500 
L 1178 0 
L 603 0 
L 603 3500 
z
M 603 4863 
L 1178 4863 
L 1178 4134 
L 603 4134 
L 603 4863 
z
" transform="scale(0.015625)"/>
      <path id="DejaVuSans-6e" d="M 3513 2113 
L 3513 0 
L 2938 0 
L 2938 2094 
Q 2938 2591 2744 2837 
Q 2550 3084 2163 3084 
Q 1697 3084 1428 2787 
Q 1159 2491 1159 1978 
L 1159 0 
L 581 0 
L 581 3500 
L 1159 3500 
L 1159 2956 
Q 1366 3272 1645 3428 
Q 1925 3584 2291 3584 
Q 2894 3584 3203 3211 
Q 3513 2838 3513 2113 
z
" transform="scale(0.015625)"/>
      <path id="DejaVuSans-67" d="M 2906 1791 
Q 2906 2416 2648 2759 
Q 2391 3103 1925 3103 
Q 1463 3103 1205 2759 
Q 947 2416 947 1791 
Q 947 1169 1205 825 
Q 1463 481 1925 481 
Q 2391 481 2648 825 
Q 2906 1169 2906 1791 
z
M 3481 434 
Q 3481 -459 3084 -895 
Q 2688 -1331 1869 -1331 
Q 1566 -1331 1297 -1286 
Q 1028 -1241 775 -1147 
L 775 -588 
Q 1028 -725 1275 -790 
Q 1522 -856 1778 -856 
Q 2344 -856 2625 -561 
Q 2906 -266 2906 331 
L 2906 616 
Q 2728 306 2450 153 
Q 2172 0 1784 0 
Q 1141 0 747 490 
Q 353 981 353 1791 
Q 353 2603 747 3093 
Q 1141 3584 1784 3584 
Q 2172 3584 2450 3431 
Q 2728 3278 2906 2969 
L 2906 3500 
L 3481 3500 
L 3481 434 
z
" transform="scale(0.015625)"/>
      <path id="DejaVuSans-20" transform="scale(0.015625)"/>
      <path id="DejaVuSans-64" d="M 2906 2969 
L 2906 4863 
L 3481 4863 
L 3481 0 
L 2906 0 
L 2906 525 
Q 2725 213 2448 61 
Q 2172 -91 1784 -91 
Q 1150 -91 751 415 
Q 353 922 353 1747 
Q 353 2572 751 3078 
Q 1150 3584 1784 3584 
Q 2172 3584 2448 3432 
Q 2725 3281 2906 2969 
z
M 947 1747 
Q 947 1113 1208 752 
Q 1469 391 1925 391 
Q 2381 391 2643 752 
Q 2906 1113 2906 1747 
Q 2906 2381 2643 2742 
Q 2381 3103 1925 3103 
Q 1469 3103 1208 2742 
Q 947 2381 947 1747 
z
" transform="scale(0.015625)"/>
      <path id="DejaVuSans-56" d="M 1831 0 
L 50 4666 
L 709 4666 
L 2188 738 
L 3669 4666 
L 4325 4666 
L 2547 0 
L 1831 0 
z
" transform="scale(0.015625)"/>
      <path id="DejaVuSans-6c" d="M 603 4863 
L 1178 4863 
L 1178 0 
L 603 0 
L 603 4863 
z
" transform="scale(0.015625)"/>
      <path id="DejaVuSans-74" d="M 1172 4494 
L 1172 3500 
L 2356 3500 
L 2356 3053 
L 1172 3053 
L 1172 1153 
Q 1172 725 1289 603 
Q 1406 481 1766 481 
L 2356 481 
L 2356 0 
L 1766 0 
Q 1100 0 847 248 
Q 594 497 594 1153 
L 594 3053 
L 172 3053 
L 172 3500 
L 594 3500 
L 594 4494 
L 1172 4494 
z
" transform="scale(0.015625)"/>
     </defs>
     <use xlink:href="#DejaVuSans-54"/>
     <use xlink:href="#DejaVuSans-72" x="46.333984"/>
     <use xlink:href="#DejaVuSans-61" x="87.447266"/>
     <use xlink:href="#DejaVuSans-69" x="148.726562"/>
     <use xlink:href="#DejaVuSans-6e" x="176.509766"/>
     <use xlink:href="#DejaVuSans-69" x="239.888672"/>
     <use xlink:href="#DejaVuSans-6e" x="267.671875"/>
     <use xlink:href="#DejaVuSans-67" x="331.050781"/>
     <use xlink:href="#DejaVuSans-20" x="394.527344"/>
     <use xlink:href="#DejaVuSans-61" x="426.314453"/>
     <use xlink:href="#DejaVuSans-6e" x="487.59375"/>
     <use xlink:href="#DejaVuSans-64" x="550.972656"/>
     <use xlink:href="#DejaVuSans-20" x="614.449219"/>
     <use xlink:href="#DejaVuSans-56" x="646.236328"/>
     <use xlink:href="#DejaVuSans-61" x="706.894531"/>
     <use xlink:href="#DejaVuSans-6c" x="768.173828"/>
     <use xlink:href="#DejaVuSans-69" x="795.957031"/>
     <use xlink:href="#DejaVuSans-64" x="823.740234"/>
     <use xlink:href="#DejaVuSans-61" x="887.216797"/>
     <use xlink:href="#DejaVuSans-74" x="948.496094"/>
     <use xlink:href="#DejaVuSans-69" x="987.705078"/>
     <use xlink:href="#DejaVuSans-6f" x="1015.488281"/>
     <use xlink:href="#DejaVuSans-6e" x="1076.669922"/>
     <use xlink:href="#DejaVuSans-20" x="1140.048828"/>
     <use xlink:href="#DejaVuSans-4c" x="1171.835938"/>
     <use xlink:href="#DejaVuSans-6f" x="1225.798828"/>
     <use xlink:href="#DejaVuSans-73" x="1286.980469"/>
     <use xlink:href="#DejaVuSans-73" x="1339.080078"/>
    </g>
   </g>
   <g id="legend_1">
    <g id="patch_7">
     <path d="M 521.979375 61.194062 
L 603.079375 61.194062 
Q 605.079375 61.194062 605.079375 59.194062 
L 605.079375 30.837812 
Q 605.079375 28.837812 603.079375 28.837812 
L 521.979375 28.837812 
Q 519.979375 28.837812 519.979375 30.837812 
L 519.979375 59.194062 
Q 519.979375 61.194062 521.979375 61.194062 
z
" style="fill: #ffffff; opacity: 0.8; stroke: #cccccc; stroke-linejoin: miter"/>
    </g>
    <g id="line2d_29">
     <path d="M 523.979375 36.93625 
L 533.979375 36.93625 
L 543.979375 36.93625 
" style="fill: none; stroke: #0000ff; stroke-width: 2; stroke-linecap: square"/>
    </g>
    <g id="text_17">
     <!-- Train Loss -->
     <g transform="translate(551.979375 40.43625) scale(0.1 -0.1)">
      <use xlink:href="#DejaVuSans-54"/>
      <use xlink:href="#DejaVuSans-72" x="46.333984"/>
      <use xlink:href="#DejaVuSans-61" x="87.447266"/>
      <use xlink:href="#DejaVuSans-69" x="148.726562"/>
      <use xlink:href="#DejaVuSans-6e" x="176.509766"/>
      <use xlink:href="#DejaVuSans-20" x="239.888672"/>
      <use xlink:href="#DejaVuSans-4c" x="271.675781"/>
      <use xlink:href="#DejaVuSans-6f" x="325.638672"/>
      <use xlink:href="#DejaVuSans-73" x="386.820312"/>
      <use xlink:href="#DejaVuSans-73" x="438.919922"/>
     </g>
    </g>
    <g id="line2d_30">
     <path d="M 523.979375 51.614375 
L 533.979375 51.614375 
L 543.979375 51.614375 
" style="fill: none; stroke: #ff0000; stroke-width: 2; stroke-linecap: square"/>
    </g>
    <g id="text_18">
     <!-- Val loss -->
     <g transform="translate(551.979375 55.114375) scale(0.1 -0.1)">
      <use xlink:href="#DejaVuSans-56"/>
      <use xlink:href="#DejaVuSans-61" x="60.658203"/>
      <use xlink:href="#DejaVuSans-6c" x="121.9375"/>
      <use xlink:href="#DejaVuSans-20" x="149.720703"/>
      <use xlink:href="#DejaVuSans-6c" x="181.507812"/>
      <use xlink:href="#DejaVuSans-6f" x="209.291016"/>
      <use xlink:href="#DejaVuSans-73" x="270.472656"/>
      <use xlink:href="#DejaVuSans-73" x="322.572266"/>
     </g>
    </g>
   </g>
  </g>
 </g>
 <defs>
  <clipPath id="p52e7c626df">
   <rect x="52.079375" y="23.837812" width="558" height="332.64"/>
  </clipPath>
 </defs>
</svg>
