<?xml version="1.0" encoding="utf-8" standalone="no"?>
<!DOCTYPE svg PUBLIC "-//W3C//DTD SVG 1.1//EN"
  "http://www.w3.org/Graphics/SVG/1.1/DTD/svg11.dtd">
<svg xmlns:xlink="http://www.w3.org/1999/xlink" width="460.8pt" height="345.6pt" viewBox="0 0 460.8 345.6" xmlns="http://www.w3.org/2000/svg" version="1.1">
 <metadata>
  <rdf:RDF xmlns:dc="http://purl.org/dc/elements/1.1/" xmlns:cc="http://creativecommons.org/ns#" xmlns:rdf="http://www.w3.org/1999/02/22-rdf-syntax-ns#">
   <cc:Work>
    <dc:type rdf:resource="http://purl.org/dc/dcmitype/StillImage"/>
    <dc:date>2024-11-14T10:43:07.201166</dc:date>
    <dc:format>image/svg+xml</dc:format>
    <dc:creator>
     <cc:Agent>
      <dc:title>Matplotlib v3.8.2, https://matplotlib.org/</dc:title>
     </cc:Agent>
    </dc:creator>
   </cc:Work>
  </rdf:RDF>
 </metadata>
 <defs>
  <style type="text/css">*{stroke-linejoin: round; stroke-linecap: butt}</style>
 </defs>
 <g id="figure_1">
  <g id="patch_1">
   <path d="M 0 345.6 
L 460.8 345.6 
L 460.8 0 
L 0 0 
z
" style="fill: #ffffff"/>
  </g>
  <g id="axes_1">
   <g id="patch_2">
    <path d="M 57.6 307.584 
L 414.72 307.584 
L 414.72 41.472 
L 57.6 41.472 
z
" style="fill: #ffffff"/>
   </g>
   <g id="matplotlib.axis_1">
    <g id="xtick_1">
     <g id="line2d_1">
      <defs>
       <path id="m2ba187f376" d="M 0 0 
L 0 3.5 
" style="stroke: #000000; stroke-width: 0.8"/>
      </defs>
      <g>
       <use xlink:href="#m2ba187f376" x="73.832727" y="307.584" style="stroke: #000000; stroke-width: 0.8"/>
      </g>
     </g>
     <g id="text_1">
      <!-- 0 -->
      <g transform="translate(70.651477 322.182437) scale(0.1 -0.1)">
       <defs>
        <path id="DejaVuSans-30" d="M 2034 4250 
Q 1547 4250 1301 3770 
Q 1056 3291 1056 2328 
Q 1056 1369 1301 889 
Q 1547 409 2034 409 
Q 2525 409 2770 889 
Q 3016 1369 3016 2328 
Q 3016 3291 2770 3770 
Q 2525 4250 2034 4250 
z
M 2034 4750 
Q 2819 4750 3233 4129 
Q 3647 3509 3647 2328 
Q 3647 1150 3233 529 
Q 2819 -91 2034 -91 
Q 1250 -91 836 529 
Q 422 1150 422 2328 
Q 422 3509 836 4129 
Q 1250 4750 2034 4750 
z
" transform="scale(0.015625)"/>
       </defs>
       <use xlink:href="#DejaVuSans-30"/>
      </g>
     </g>
    </g>
    <g id="xtick_2">
     <g id="line2d_2">
      <g>
       <use xlink:href="#m2ba187f376" x="120.545612" y="307.584" style="stroke: #000000; stroke-width: 0.8"/>
      </g>
     </g>
     <g id="text_2">
      <!-- 20 -->
      <g transform="translate(114.183112 322.182437) scale(0.1 -0.1)">
       <defs>
        <path id="DejaVuSans-32" d="M 1228 531 
L 3431 531 
L 3431 0 
L 469 0 
L 469 531 
Q 828 903 1448 1529 
Q 2069 2156 2228 2338 
Q 2531 2678 2651 2914 
Q 2772 3150 2772 3378 
Q 2772 3750 2511 3984 
Q 2250 4219 1831 4219 
Q 1534 4219 1204 4116 
Q 875 4013 500 3803 
L 500 4441 
Q 881 4594 1212 4672 
Q 1544 4750 1819 4750 
Q 2544 4750 2975 4387 
Q 3406 4025 3406 3419 
Q 3406 3131 3298 2873 
Q 3191 2616 2906 2266 
Q 2828 2175 2409 1742 
Q 1991 1309 1228 531 
z
" transform="scale(0.015625)"/>
       </defs>
       <use xlink:href="#DejaVuSans-32"/>
       <use xlink:href="#DejaVuSans-30" x="63.623047"/>
      </g>
     </g>
    </g>
    <g id="xtick_3">
     <g id="line2d_3">
      <g>
       <use xlink:href="#m2ba187f376" x="167.258496" y="307.584" style="stroke: #000000; stroke-width: 0.8"/>
      </g>
     </g>
     <g id="text_3">
      <!-- 40 -->
      <g transform="translate(160.895996 322.182437) scale(0.1 -0.1)">
       <defs>
        <path id="DejaVuSans-34" d="M 2419 4116 
L 825 1625 
L 2419 1625 
L 2419 4116 
z
M 2253 4666 
L 3047 4666 
L 3047 1625 
L 3713 1625 
L 3713 1100 
L 3047 1100 
L 3047 0 
L 2419 0 
L 2419 1100 
L 313 1100 
L 313 1709 
L 2253 4666 
z
" transform="scale(0.015625)"/>
       </defs>
       <use xlink:href="#DejaVuSans-34"/>
       <use xlink:href="#DejaVuSans-30" x="63.623047"/>
      </g>
     </g>
    </g>
    <g id="xtick_4">
     <g id="line2d_4">
      <g>
       <use xlink:href="#m2ba187f376" x="213.97138" y="307.584" style="stroke: #000000; stroke-width: 0.8"/>
      </g>
     </g>
     <g id="text_4">
      <!-- 60 -->
      <g transform="translate(207.60888 322.182437) scale(0.1 -0.1)">
       <defs>
        <path id="DejaVuSans-36" d="M 2113 2584 
Q 1688 2584 1439 2293 
Q 1191 2003 1191 1497 
Q 1191 994 1439 701 
Q 1688 409 2113 409 
Q 2538 409 2786 701 
Q 3034 994 3034 1497 
Q 3034 2003 2786 2293 
Q 2538 2584 2113 2584 
z
M 3366 4563 
L 3366 3988 
Q 3128 4100 2886 4159 
Q 2644 4219 2406 4219 
Q 1781 4219 1451 3797 
Q 1122 3375 1075 2522 
Q 1259 2794 1537 2939 
Q 1816 3084 2150 3084 
Q 2853 3084 3261 2657 
Q 3669 2231 3669 1497 
Q 3669 778 3244 343 
Q 2819 -91 2113 -91 
Q 1303 -91 875 529 
Q 447 1150 447 2328 
Q 447 3434 972 4092 
Q 1497 4750 2381 4750 
Q 2619 4750 2861 4703 
Q 3103 4656 3366 4563 
z
" transform="scale(0.015625)"/>
       </defs>
       <use xlink:href="#DejaVuSans-36"/>
       <use xlink:href="#DejaVuSans-30" x="63.623047"/>
      </g>
     </g>
    </g>
    <g id="xtick_5">
     <g id="line2d_5">
      <g>
       <use xlink:href="#m2ba187f376" x="260.684264" y="307.584" style="stroke: #000000; stroke-width: 0.8"/>
      </g>
     </g>
     <g id="text_5">
      <!-- 80 -->
      <g transform="translate(254.321764 322.182437) scale(0.1 -0.1)">
       <defs>
        <path id="DejaVuSans-38" d="M 2034 2216 
Q 1584 2216 1326 1975 
Q 1069 1734 1069 1313 
Q 1069 891 1326 650 
Q 1584 409 2034 409 
Q 2484 409 2743 651 
Q 3003 894 3003 1313 
Q 3003 1734 2745 1975 
Q 2488 2216 2034 2216 
z
M 1403 2484 
Q 997 2584 770 2862 
Q 544 3141 544 3541 
Q 544 4100 942 4425 
Q 1341 4750 2034 4750 
Q 2731 4750 3128 4425 
Q 3525 4100 3525 3541 
Q 3525 3141 3298 2862 
Q 3072 2584 2669 2484 
Q 3125 2378 3379 2068 
Q 3634 1759 3634 1313 
Q 3634 634 3220 271 
Q 2806 -91 2034 -91 
Q 1263 -91 848 271 
Q 434 634 434 1313 
Q 434 1759 690 2068 
Q 947 2378 1403 2484 
z
M 1172 3481 
Q 1172 3119 1398 2916 
Q 1625 2713 2034 2713 
Q 2441 2713 2670 2916 
Q 2900 3119 2900 3481 
Q 2900 3844 2670 4047 
Q 2441 4250 2034 4250 
Q 1625 4250 1398 4047 
Q 1172 3844 1172 3481 
z
" transform="scale(0.015625)"/>
       </defs>
       <use xlink:href="#DejaVuSans-38"/>
       <use xlink:href="#DejaVuSans-30" x="63.623047"/>
      </g>
     </g>
    </g>
    <g id="xtick_6">
     <g id="line2d_6">
      <g>
       <use xlink:href="#m2ba187f376" x="307.397148" y="307.584" style="stroke: #000000; stroke-width: 0.8"/>
      </g>
     </g>
     <g id="text_6">
      <!-- 100 -->
      <g transform="translate(297.853398 322.182437) scale(0.1 -0.1)">
       <defs>
        <path id="DejaVuSans-31" d="M 794 531 
L 1825 531 
L 1825 4091 
L 703 3866 
L 703 4441 
L 1819 4666 
L 2450 4666 
L 2450 531 
L 3481 531 
L 3481 0 
L 794 0 
L 794 531 
z
" transform="scale(0.015625)"/>
       </defs>
       <use xlink:href="#DejaVuSans-31"/>
       <use xlink:href="#DejaVuSans-30" x="63.623047"/>
       <use xlink:href="#DejaVuSans-30" x="127.246094"/>
      </g>
     </g>
    </g>
    <g id="xtick_7">
     <g id="line2d_7">
      <g>
       <use xlink:href="#m2ba187f376" x="354.110033" y="307.584" style="stroke: #000000; stroke-width: 0.8"/>
      </g>
     </g>
     <g id="text_7">
      <!-- 120 -->
      <g transform="translate(344.566283 322.182437) scale(0.1 -0.1)">
       <use xlink:href="#DejaVuSans-31"/>
       <use xlink:href="#DejaVuSans-32" x="63.623047"/>
       <use xlink:href="#DejaVuSans-30" x="127.246094"/>
      </g>
     </g>
    </g>
    <g id="xtick_8">
     <g id="line2d_8">
      <g>
       <use xlink:href="#m2ba187f376" x="400.822917" y="307.584" style="stroke: #000000; stroke-width: 0.8"/>
      </g>
     </g>
     <g id="text_8">
      <!-- 140 -->
      <g transform="translate(391.279167 322.182437) scale(0.1 -0.1)">
       <use xlink:href="#DejaVuSans-31"/>
       <use xlink:href="#DejaVuSans-34" x="63.623047"/>
       <use xlink:href="#DejaVuSans-30" x="127.246094"/>
      </g>
     </g>
    </g>
    <g id="text_9">
     <!-- Epoch -->
     <g transform="translate(220.849063 335.860562) scale(0.1 -0.1)">
      <defs>
       <path id="DejaVuSans-45" d="M 628 4666 
L 3578 4666 
L 3578 4134 
L 1259 4134 
L 1259 2753 
L 3481 2753 
L 3481 2222 
L 1259 2222 
L 1259 531 
L 3634 531 
L 3634 0 
L 628 0 
L 628 4666 
z
" transform="scale(0.015625)"/>
       <path id="DejaVuSans-70" d="M 1159 525 
L 1159 -1331 
L 581 -1331 
L 581 3500 
L 1159 3500 
L 1159 2969 
Q 1341 3281 1617 3432 
Q 1894 3584 2278 3584 
Q 2916 3584 3314 3078 
Q 3713 2572 3713 1747 
Q 3713 922 3314 415 
Q 2916 -91 2278 -91 
Q 1894 -91 1617 61 
Q 1341 213 1159 525 
z
M 3116 1747 
Q 3116 2381 2855 2742 
Q 2594 3103 2138 3103 
Q 1681 3103 1420 2742 
Q 1159 2381 1159 1747 
Q 1159 1113 1420 752 
Q 1681 391 2138 391 
Q 2594 391 2855 752 
Q 3116 1113 3116 1747 
z
" transform="scale(0.015625)"/>
       <path id="DejaVuSans-6f" d="M 1959 3097 
Q 1497 3097 1228 2736 
Q 959 2375 959 1747 
Q 959 1119 1226 758 
Q 1494 397 1959 397 
Q 2419 397 2687 759 
Q 2956 1122 2956 1747 
Q 2956 2369 2687 2733 
Q 2419 3097 1959 3097 
z
M 1959 3584 
Q 2709 3584 3137 3096 
Q 3566 2609 3566 1747 
Q 3566 888 3137 398 
Q 2709 -91 1959 -91 
Q 1206 -91 779 398 
Q 353 888 353 1747 
Q 353 2609 779 3096 
Q 1206 3584 1959 3584 
z
" transform="scale(0.015625)"/>
       <path id="DejaVuSans-63" d="M 3122 3366 
L 3122 2828 
Q 2878 2963 2633 3030 
Q 2388 3097 2138 3097 
Q 1578 3097 1268 2742 
Q 959 2388 959 1747 
Q 959 1106 1268 751 
Q 1578 397 2138 397 
Q 2388 397 2633 464 
Q 2878 531 3122 666 
L 3122 134 
Q 2881 22 2623 -34 
Q 2366 -91 2075 -91 
Q 1284 -91 818 406 
Q 353 903 353 1747 
Q 353 2603 823 3093 
Q 1294 3584 2113 3584 
Q 2378 3584 2631 3529 
Q 2884 3475 3122 3366 
z
" transform="scale(0.015625)"/>
       <path id="DejaVuSans-68" d="M 3513 2113 
L 3513 0 
L 2938 0 
L 2938 2094 
Q 2938 2591 2744 2837 
Q 2550 3084 2163 3084 
Q 1697 3084 1428 2787 
Q 1159 2491 1159 1978 
L 1159 0 
L 581 0 
L 581 4863 
L 1159 4863 
L 1159 2956 
Q 1366 3272 1645 3428 
Q 1925 3584 2291 3584 
Q 2894 3584 3203 3211 
Q 3513 2838 3513 2113 
z
" transform="scale(0.015625)"/>
      </defs>
      <use xlink:href="#DejaVuSans-45"/>
      <use xlink:href="#DejaVuSans-70" x="63.183594"/>
      <use xlink:href="#DejaVuSans-6f" x="126.660156"/>
      <use xlink:href="#DejaVuSans-63" x="187.841797"/>
      <use xlink:href="#DejaVuSans-68" x="242.822266"/>
     </g>
    </g>
   </g>
   <g id="matplotlib.axis_2">
    <g id="ytick_1">
     <g id="line2d_9">
      <defs>
       <path id="m291bd15f3d" d="M 0 0 
L -3.5 0 
" style="stroke: #000000; stroke-width: 0.8"/>
      </defs>
      <g>
       <use xlink:href="#m291bd15f3d" x="57.6" y="299.106451" style="stroke: #000000; stroke-width: 0.8"/>
      </g>
     </g>
     <g id="text_10">
      <!-- 0.08 -->
      <g transform="translate(28.334375 302.90567) scale(0.1 -0.1)">
       <defs>
        <path id="DejaVuSans-2e" d="M 684 794 
L 1344 794 
L 1344 0 
L 684 0 
L 684 794 
z
" transform="scale(0.015625)"/>
       </defs>
       <use xlink:href="#DejaVuSans-30"/>
       <use xlink:href="#DejaVuSans-2e" x="63.623047"/>
       <use xlink:href="#DejaVuSans-30" x="95.410156"/>
       <use xlink:href="#DejaVuSans-38" x="159.033203"/>
      </g>
     </g>
    </g>
    <g id="ytick_2">
     <g id="line2d_10">
      <g>
       <use xlink:href="#m291bd15f3d" x="57.6" y="248.151667" style="stroke: #000000; stroke-width: 0.8"/>
      </g>
     </g>
     <g id="text_11">
      <!-- 0.10 -->
      <g transform="translate(28.334375 251.950886) scale(0.1 -0.1)">
       <use xlink:href="#DejaVuSans-30"/>
       <use xlink:href="#DejaVuSans-2e" x="63.623047"/>
       <use xlink:href="#DejaVuSans-31" x="95.410156"/>
       <use xlink:href="#DejaVuSans-30" x="159.033203"/>
      </g>
     </g>
    </g>
    <g id="ytick_3">
     <g id="line2d_11">
      <g>
       <use xlink:href="#m291bd15f3d" x="57.6" y="197.196884" style="stroke: #000000; stroke-width: 0.8"/>
      </g>
     </g>
     <g id="text_12">
      <!-- 0.12 -->
      <g transform="translate(28.334375 200.996102) scale(0.1 -0.1)">
       <use xlink:href="#DejaVuSans-30"/>
       <use xlink:href="#DejaVuSans-2e" x="63.623047"/>
       <use xlink:href="#DejaVuSans-31" x="95.410156"/>
       <use xlink:href="#DejaVuSans-32" x="159.033203"/>
      </g>
     </g>
    </g>
    <g id="ytick_4">
     <g id="line2d_12">
      <g>
       <use xlink:href="#m291bd15f3d" x="57.6" y="146.2421" style="stroke: #000000; stroke-width: 0.8"/>
      </g>
     </g>
     <g id="text_13">
      <!-- 0.14 -->
      <g transform="translate(28.334375 150.041319) scale(0.1 -0.1)">
       <use xlink:href="#DejaVuSans-30"/>
       <use xlink:href="#DejaVuSans-2e" x="63.623047"/>
       <use xlink:href="#DejaVuSans-31" x="95.410156"/>
       <use xlink:href="#DejaVuSans-34" x="159.033203"/>
      </g>
     </g>
    </g>
    <g id="ytick_5">
     <g id="line2d_13">
      <g>
       <use xlink:href="#m291bd15f3d" x="57.6" y="95.287316" style="stroke: #000000; stroke-width: 0.8"/>
      </g>
     </g>
     <g id="text_14">
      <!-- 0.16 -->
      <g transform="translate(28.334375 99.086535) scale(0.1 -0.1)">
       <use xlink:href="#DejaVuSans-30"/>
       <use xlink:href="#DejaVuSans-2e" x="63.623047"/>
       <use xlink:href="#DejaVuSans-31" x="95.410156"/>
       <use xlink:href="#DejaVuSans-36" x="159.033203"/>
      </g>
     </g>
    </g>
    <g id="ytick_6">
     <g id="line2d_14">
      <g>
       <use xlink:href="#m291bd15f3d" x="57.6" y="44.332532" style="stroke: #000000; stroke-width: 0.8"/>
      </g>
     </g>
     <g id="text_15">
      <!-- 0.18 -->
      <g transform="translate(28.334375 48.131751) scale(0.1 -0.1)">
       <use xlink:href="#DejaVuSans-30"/>
       <use xlink:href="#DejaVuSans-2e" x="63.623047"/>
       <use xlink:href="#DejaVuSans-31" x="95.410156"/>
       <use xlink:href="#DejaVuSans-38" x="159.033203"/>
      </g>
     </g>
    </g>
    <g id="text_16">
     <!-- Loss -->
     <g transform="translate(22.254688 185.495187) rotate(-90) scale(0.1 -0.1)">
      <defs>
       <path id="DejaVuSans-4c" d="M 628 4666 
L 1259 4666 
L 1259 531 
L 3531 531 
L 3531 0 
L 628 0 
L 628 4666 
z
" transform="scale(0.015625)"/>
       <path id="DejaVuSans-73" d="M 2834 3397 
L 2834 2853 
Q 2591 2978 2328 3040 
Q 2066 3103 1784 3103 
Q 1356 3103 1142 2972 
Q 928 2841 928 2578 
Q 928 2378 1081 2264 
Q 1234 2150 1697 2047 
L 1894 2003 
Q 2506 1872 2764 1633 
Q 3022 1394 3022 966 
Q 3022 478 2636 193 
Q 2250 -91 1575 -91 
Q 1294 -91 989 -36 
Q 684 19 347 128 
L 347 722 
Q 666 556 975 473 
Q 1284 391 1588 391 
Q 1994 391 2212 530 
Q 2431 669 2431 922 
Q 2431 1156 2273 1281 
Q 2116 1406 1581 1522 
L 1381 1569 
Q 847 1681 609 1914 
Q 372 2147 372 2553 
Q 372 3047 722 3315 
Q 1072 3584 1716 3584 
Q 2034 3584 2315 3537 
Q 2597 3491 2834 3397 
z
" transform="scale(0.015625)"/>
      </defs>
      <use xlink:href="#DejaVuSans-4c"/>
      <use xlink:href="#DejaVuSans-6f" x="53.962891"/>
      <use xlink:href="#DejaVuSans-73" x="115.144531"/>
      <use xlink:href="#DejaVuSans-73" x="167.244141"/>
     </g>
    </g>
   </g>
   <g id="line2d_15">
    <path d="M 73.832727 53.568 
L 76.168371 113.056252 
L 78.504016 146.629869 
L 80.83966 162.412982 
L 83.175304 175.754802 
L 85.510948 186.43782 
L 87.846593 194.969722 
L 90.182237 202.72317 
L 92.517881 208.432266 
L 94.853525 213.607573 
L 97.189169 218.234629 
L 99.524814 222.151743 
L 101.860458 225.566429 
L 104.196102 229.704158 
L 106.531746 232.460955 
L 108.86739 235.567701 
L 111.203035 237.963432 
L 113.538679 240.59326 
L 115.874323 243.603177 
L 118.209967 245.960237 
L 122.881256 250.270355 
L 132.223833 257.66715 
L 134.559477 258.93453 
L 136.895121 260.497175 
L 139.230765 261.51244 
L 141.566409 263.228183 
L 148.573342 266.262925 
L 150.908986 267.496078 
L 153.24463 268.463061 
L 155.580275 269.225418 
L 157.915919 270.178731 
L 160.251563 270.738815 
L 162.587207 271.887387 
L 164.922852 272.757359 
L 169.59414 273.962676 
L 171.929784 274.850091 
L 174.265428 275.21614 
L 176.601073 276.259256 
L 178.936717 276.378588 
L 181.272361 276.96052 
L 183.608005 277.810784 
L 195.286226 280.322075 
L 199.957515 281.134732 
L 204.628803 282.113417 
L 206.964447 282.403455 
L 209.300092 282.944903 
L 227.985245 285.745787 
L 230.320889 285.820892 
L 234.992178 286.470944 
L 237.327822 286.631022 
L 239.663466 287.009958 
L 241.999111 287.274832 
L 244.334755 287.366799 
L 246.670399 287.982906 
L 249.006043 288.04774 
L 260.684264 289.101853 
L 263.019908 289.235967 
L 265.355553 289.625774 
L 270.026841 290.08615 
L 272.362485 290.158733 
L 279.369418 290.733222 
L 284.040706 291.093129 
L 286.376351 291.02293 
L 291.047639 291.564674 
L 295.718927 291.742444 
L 300.390216 291.99806 
L 302.72586 292.035412 
L 307.397148 292.44889 
L 316.739725 292.91544 
L 321.411014 293.160787 
L 328.417946 293.403445 
L 333.089235 293.671738 
L 335.424879 293.730431 
L 337.760523 293.905818 
L 342.431812 293.866546 
L 351.774388 294.332764 
L 354.110033 294.321595 
L 356.445677 294.491554 
L 361.116965 294.631097 
L 368.123898 294.839813 
L 370.459542 294.828891 
L 372.795186 294.967486 
L 375.130831 294.873593 
L 382.137763 295.131236 
L 386.809052 295.11193 
L 389.144696 295.309511 
L 393.815984 295.285996 
L 398.487273 295.488 
L 398.487273 295.488 
" clip-path="url(#p9310f9d812)" style="fill: none; stroke: #1f77b4; stroke-width: 1.5; stroke-linecap: square"/>
   </g>
   <g id="line2d_16">
    <path d="M 73.832727 93.736673 
L 76.168371 128.595126 
L 78.504016 153.054454 
L 80.83966 174.722911 
L 83.175304 182.572435 
L 85.510948 188.032227 
L 87.846593 201.551496 
L 90.182237 208.044872 
L 92.517881 212.54724 
L 94.853525 211.998235 
L 97.189169 222.70286 
L 99.524814 222.314653 
L 101.860458 222.728703 
L 104.196102 231.349283 
L 106.531746 235.18411 
L 111.203035 240.01775 
L 113.538679 242.605389 
L 115.874323 245.836943 
L 118.209967 247.11276 
L 120.545612 242.604841 
L 122.881256 251.220844 
L 127.552544 255.217096 
L 129.888188 256.565111 
L 132.223833 255.707299 
L 134.559477 257.449462 
L 136.895121 260.354897 
L 139.230765 260.811276 
L 141.566409 261.695288 
L 143.902054 265.063956 
L 146.237698 265.432632 
L 148.573342 265.927449 
L 150.908986 266.924661 
L 153.24463 266.597427 
L 155.580275 270.568724 
L 157.915919 266.616092 
L 160.251563 267.997435 
L 162.587207 272.298703 
L 164.922852 271.387871 
L 167.258496 272.110968 
L 169.59414 272.259202 
L 171.929784 273.603029 
L 174.265428 272.747243 
L 176.601073 274.541911 
L 178.936717 275.392058 
L 181.272361 277.000412 
L 183.608005 277.191746 
L 185.943649 277.533649 
L 188.279294 275.780391 
L 190.614938 278.735999 
L 192.950582 279.11405 
L 195.286226 279.713544 
L 197.621871 280.126153 
L 199.957515 280.076303 
L 202.293159 279.566455 
L 204.628803 278.876076 
L 206.964447 280.982025 
L 209.300092 280.741067 
L 211.635736 281.329293 
L 213.97138 281.430728 
L 216.307024 280.939936 
L 218.642668 282.426221 
L 220.978313 282.899054 
L 223.313957 282.951721 
L 225.649601 283.792866 
L 227.985245 284.080229 
L 230.320889 284.506939 
L 232.656534 283.61852 
L 234.992178 284.123559 
L 237.327822 283.548505 
L 239.663466 284.285394 
L 241.999111 284.728719 
L 244.334755 284.631828 
L 246.670399 285.338401 
L 249.006043 286.288497 
L 251.341687 286.278564 
L 253.677332 286.060212 
L 256.012976 286.105625 
L 258.34862 286.694864 
L 260.684264 285.343726 
L 263.019908 286.707175 
L 265.355553 286.617927 
L 267.691197 287.286303 
L 270.026841 287.575831 
L 272.362485 287.523534 
L 274.698129 288.064974 
L 277.033774 287.475219 
L 279.369418 287.788562 
L 281.705062 288.74724 
L 284.040706 288.209043 
L 286.376351 288.595653 
L 291.047639 288.776485 
L 293.383283 289.074953 
L 295.718927 288.579473 
L 298.054572 289.201909 
L 300.390216 289.411699 
L 302.72586 289.814501 
L 305.061504 288.930358 
L 307.397148 289.869927 
L 309.732793 290.030483 
L 312.068437 289.42167 
L 314.404081 290.072002 
L 316.739725 290.155996 
L 319.07537 290.473709 
L 321.411014 289.713211 
L 326.082302 290.510632 
L 328.417946 290.226073 
L 330.753591 290.433777 
L 333.089235 290.927824 
L 335.424879 290.927873 
L 337.760523 290.693079 
L 340.096167 291.335772 
L 344.767456 290.928904 
L 347.1031 291.336447 
L 351.774388 291.279062 
L 354.110033 291.720329 
L 356.445677 291.205953 
L 358.781321 291.855861 
L 363.45261 291.477103 
L 365.788254 291.64119 
L 368.123898 292.066444 
L 370.459542 291.683714 
L 372.795186 291.746658 
L 375.130831 292.490953 
L 377.466475 292.220455 
L 379.802119 292.329231 
L 382.137763 291.934952 
L 384.473407 292.384436 
L 386.809052 292.161363 
L 389.144696 291.808242 
L 393.815984 292.373868 
L 396.151629 292.287526 
L 398.487273 292.36969 
L 398.487273 292.36969 
" clip-path="url(#p9310f9d812)" style="fill: none; stroke: #ff7f0e; stroke-width: 1.5; stroke-linecap: square"/>
   </g>
   <g id="patch_3">
    <path d="M 57.6 307.584 
L 57.6 41.472 
" style="fill: none; stroke: #000000; stroke-width: 0.8; stroke-linejoin: miter; stroke-linecap: square"/>
   </g>
   <g id="patch_4">
    <path d="M 414.72 307.584 
L 414.72 41.472 
" style="fill: none; stroke: #000000; stroke-width: 0.8; stroke-linejoin: miter; stroke-linecap: square"/>
   </g>
   <g id="patch_5">
    <path d="M 57.6 307.584 
L 414.72 307.584 
" style="fill: none; stroke: #000000; stroke-width: 0.8; stroke-linejoin: miter; stroke-linecap: square"/>
   </g>
   <g id="patch_6">
    <path d="M 57.6 41.472 
L 414.72 41.472 
" style="fill: none; stroke: #000000; stroke-width: 0.8; stroke-linejoin: miter; stroke-linecap: square"/>
   </g>
   <g id="text_17">
    <!-- Training and Validation Loss Seed2_22 -->
    <g transform="translate(121.329375 35.472) scale(0.12 -0.12)">
     <defs>
      <path id="DejaVuSans-54" d="M -19 4666 
L 3928 4666 
L 3928 4134 
L 2272 4134 
L 2272 0 
L 1638 0 
L 1638 4134 
L -19 4134 
L -19 4666 
z
" transform="scale(0.015625)"/>
      <path id="DejaVuSans-72" d="M 2631 2963 
Q 2534 3019 2420 3045 
Q 2306 3072 2169 3072 
Q 1681 3072 1420 2755 
Q 1159 2438 1159 1844 
L 1159 0 
L 581 0 
L 581 3500 
L 1159 3500 
L 1159 2956 
Q 1341 3275 1631 3429 
Q 1922 3584 2338 3584 
Q 2397 3584 2469 3576 
Q 2541 3569 2628 3553 
L 2631 2963 
z
" transform="scale(0.015625)"/>
      <path id="DejaVuSans-61" d="M 2194 1759 
Q 1497 1759 1228 1600 
Q 959 1441 959 1056 
Q 959 750 1161 570 
Q 1363 391 1709 391 
Q 2188 391 2477 730 
Q 2766 1069 2766 1631 
L 2766 1759 
L 2194 1759 
z
M 3341 1997 
L 3341 0 
L 2766 0 
L 2766 531 
Q 2569 213 2275 61 
Q 1981 -91 1556 -91 
Q 1019 -91 701 211 
Q 384 513 384 1019 
Q 384 1609 779 1909 
Q 1175 2209 1959 2209 
L 2766 2209 
L 2766 2266 
Q 2766 2663 2505 2880 
Q 2244 3097 1772 3097 
Q 1472 3097 1187 3025 
Q 903 2953 641 2809 
L 641 3341 
Q 956 3463 1253 3523 
Q 1550 3584 1831 3584 
Q 2591 3584 2966 3190 
Q 3341 2797 3341 1997 
z
" transform="scale(0.015625)"/>
      <path id="DejaVuSans-69" d="M 603 3500 
L 1178 3500 
L 1178 0 
L 603 0 
L 603 3500 
z
M 603 4863 
L 1178 4863 
L 1178 4134 
L 603 4134 
L 603 4863 
z
" transform="scale(0.015625)"/>
      <path id="DejaVuSans-6e" d="M 3513 2113 
L 3513 0 
L 2938 0 
L 2938 2094 
Q 2938 2591 2744 2837 
Q 2550 3084 2163 3084 
Q 1697 3084 1428 2787 
Q 1159 2491 1159 1978 
L 1159 0 
L 581 0 
L 581 3500 
L 1159 3500 
L 1159 2956 
Q 1366 3272 1645 3428 
Q 1925 3584 2291 3584 
Q 2894 3584 3203 3211 
Q 3513 2838 3513 2113 
z
" transform="scale(0.015625)"/>
      <path id="DejaVuSans-67" d="M 2906 1791 
Q 2906 2416 2648 2759 
Q 2391 3103 1925 3103 
Q 1463 3103 1205 2759 
Q 947 2416 947 1791 
Q 947 1169 1205 825 
Q 1463 481 1925 481 
Q 2391 481 2648 825 
Q 2906 1169 2906 1791 
z
M 3481 434 
Q 3481 -459 3084 -895 
Q 2688 -1331 1869 -1331 
Q 1566 -1331 1297 -1286 
Q 1028 -1241 775 -1147 
L 775 -588 
Q 1028 -725 1275 -790 
Q 1522 -856 1778 -856 
Q 2344 -856 2625 -561 
Q 2906 -266 2906 331 
L 2906 616 
Q 2728 306 2450 153 
Q 2172 0 1784 0 
Q 1141 0 747 490 
Q 353 981 353 1791 
Q 353 2603 747 3093 
Q 1141 3584 1784 3584 
Q 2172 3584 2450 3431 
Q 2728 3278 2906 2969 
L 2906 3500 
L 3481 3500 
L 3481 434 
z
" transform="scale(0.015625)"/>
      <path id="DejaVuSans-20" transform="scale(0.015625)"/>
      <path id="DejaVuSans-64" d="M 2906 2969 
L 2906 4863 
L 3481 4863 
L 3481 0 
L 2906 0 
L 2906 525 
Q 2725 213 2448 61 
Q 2172 -91 1784 -91 
Q 1150 -91 751 415 
Q 353 922 353 1747 
Q 353 2572 751 3078 
Q 1150 3584 1784 3584 
Q 2172 3584 2448 3432 
Q 2725 3281 2906 2969 
z
M 947 1747 
Q 947 1113 1208 752 
Q 1469 391 1925 391 
Q 2381 391 2643 752 
Q 2906 1113 2906 1747 
Q 2906 2381 2643 2742 
Q 2381 3103 1925 3103 
Q 1469 3103 1208 2742 
Q 947 2381 947 1747 
z
" transform="scale(0.015625)"/>
      <path id="DejaVuSans-56" d="M 1831 0 
L 50 4666 
L 709 4666 
L 2188 738 
L 3669 4666 
L 4325 4666 
L 2547 0 
L 1831 0 
z
" transform="scale(0.015625)"/>
      <path id="DejaVuSans-6c" d="M 603 4863 
L 1178 4863 
L 1178 0 
L 603 0 
L 603 4863 
z
" transform="scale(0.015625)"/>
      <path id="DejaVuSans-74" d="M 1172 4494 
L 1172 3500 
L 2356 3500 
L 2356 3053 
L 1172 3053 
L 1172 1153 
Q 1172 725 1289 603 
Q 1406 481 1766 481 
L 2356 481 
L 2356 0 
L 1766 0 
Q 1100 0 847 248 
Q 594 497 594 1153 
L 594 3053 
L 172 3053 
L 172 3500 
L 594 3500 
L 594 4494 
L 1172 4494 
z
" transform="scale(0.015625)"/>
      <path id="DejaVuSans-53" d="M 3425 4513 
L 3425 3897 
Q 3066 4069 2747 4153 
Q 2428 4238 2131 4238 
Q 1616 4238 1336 4038 
Q 1056 3838 1056 3469 
Q 1056 3159 1242 3001 
Q 1428 2844 1947 2747 
L 2328 2669 
Q 3034 2534 3370 2195 
Q 3706 1856 3706 1288 
Q 3706 609 3251 259 
Q 2797 -91 1919 -91 
Q 1588 -91 1214 -16 
Q 841 59 441 206 
L 441 856 
Q 825 641 1194 531 
Q 1563 422 1919 422 
Q 2459 422 2753 634 
Q 3047 847 3047 1241 
Q 3047 1584 2836 1778 
Q 2625 1972 2144 2069 
L 1759 2144 
Q 1053 2284 737 2584 
Q 422 2884 422 3419 
Q 422 4038 858 4394 
Q 1294 4750 2059 4750 
Q 2388 4750 2728 4690 
Q 3069 4631 3425 4513 
z
" transform="scale(0.015625)"/>
      <path id="DejaVuSans-65" d="M 3597 1894 
L 3597 1613 
L 953 1613 
Q 991 1019 1311 708 
Q 1631 397 2203 397 
Q 2534 397 2845 478 
Q 3156 559 3463 722 
L 3463 178 
Q 3153 47 2828 -22 
Q 2503 -91 2169 -91 
Q 1331 -91 842 396 
Q 353 884 353 1716 
Q 353 2575 817 3079 
Q 1281 3584 2069 3584 
Q 2775 3584 3186 3129 
Q 3597 2675 3597 1894 
z
M 3022 2063 
Q 3016 2534 2758 2815 
Q 2500 3097 2075 3097 
Q 1594 3097 1305 2825 
Q 1016 2553 972 2059 
L 3022 2063 
z
" transform="scale(0.015625)"/>
      <path id="DejaVuSans-5f" d="M 3263 -1063 
L 3263 -1509 
L -63 -1509 
L -63 -1063 
L 3263 -1063 
z
" transform="scale(0.015625)"/>
     </defs>
     <use xlink:href="#DejaVuSans-54"/>
     <use xlink:href="#DejaVuSans-72" x="46.333984"/>
     <use xlink:href="#DejaVuSans-61" x="87.447266"/>
     <use xlink:href="#DejaVuSans-69" x="148.726562"/>
     <use xlink:href="#DejaVuSans-6e" x="176.509766"/>
     <use xlink:href="#DejaVuSans-69" x="239.888672"/>
     <use xlink:href="#DejaVuSans-6e" x="267.671875"/>
     <use xlink:href="#DejaVuSans-67" x="331.050781"/>
     <use xlink:href="#DejaVuSans-20" x="394.527344"/>
     <use xlink:href="#DejaVuSans-61" x="426.314453"/>
     <use xlink:href="#DejaVuSans-6e" x="487.59375"/>
     <use xlink:href="#DejaVuSans-64" x="550.972656"/>
     <use xlink:href="#DejaVuSans-20" x="614.449219"/>
     <use xlink:href="#DejaVuSans-56" x="646.236328"/>
     <use xlink:href="#DejaVuSans-61" x="706.894531"/>
     <use xlink:href="#DejaVuSans-6c" x="768.173828"/>
     <use xlink:href="#DejaVuSans-69" x="795.957031"/>
     <use xlink:href="#DejaVuSans-64" x="823.740234"/>
     <use xlink:href="#DejaVuSans-61" x="887.216797"/>
     <use xlink:href="#DejaVuSans-74" x="948.496094"/>
     <use xlink:href="#DejaVuSans-69" x="987.705078"/>
     <use xlink:href="#DejaVuSans-6f" x="1015.488281"/>
     <use xlink:href="#DejaVuSans-6e" x="1076.669922"/>
     <use xlink:href="#DejaVuSans-20" x="1140.048828"/>
     <use xlink:href="#DejaVuSans-4c" x="1171.835938"/>
     <use xlink:href="#DejaVuSans-6f" x="1225.798828"/>
     <use xlink:href="#DejaVuSans-73" x="1286.980469"/>
     <use xlink:href="#DejaVuSans-73" x="1339.080078"/>
     <use xlink:href="#DejaVuSans-20" x="1391.179688"/>
     <use xlink:href="#DejaVuSans-53" x="1422.966797"/>
     <use xlink:href="#DejaVuSans-65" x="1486.443359"/>
     <use xlink:href="#DejaVuSans-65" x="1547.966797"/>
     <use xlink:href="#DejaVuSans-64" x="1609.490234"/>
     <use xlink:href="#DejaVuSans-32" x="1672.966797"/>
     <use xlink:href="#DejaVuSans-5f" x="1736.589844"/>
     <use xlink:href="#DejaVuSans-32" x="1786.589844"/>
     <use xlink:href="#DejaVuSans-32" x="1850.212891"/>
    </g>
   </g>
   <g id="legend_1">
    <g id="patch_7">
     <path d="M 326.62 78.82825 
L 407.72 78.82825 
Q 409.72 78.82825 409.72 76.82825 
L 409.72 48.472 
Q 409.72 46.472 407.72 46.472 
L 326.62 46.472 
Q 324.62 46.472 324.62 48.472 
L 324.62 76.82825 
Q 324.62 78.82825 326.62 78.82825 
z
" style="fill: #ffffff; opacity: 0.8; stroke: #cccccc; stroke-linejoin: miter"/>
    </g>
    <g id="line2d_17">
     <path d="M 328.62 54.570437 
L 338.62 54.570437 
L 348.62 54.570437 
" style="fill: none; stroke: #1f77b4; stroke-width: 1.5; stroke-linecap: square"/>
    </g>
    <g id="text_18">
     <!-- Train Loss -->
     <g transform="translate(356.62 58.070437) scale(0.1 -0.1)">
      <use xlink:href="#DejaVuSans-54"/>
      <use xlink:href="#DejaVuSans-72" x="46.333984"/>
      <use xlink:href="#DejaVuSans-61" x="87.447266"/>
      <use xlink:href="#DejaVuSans-69" x="148.726562"/>
      <use xlink:href="#DejaVuSans-6e" x="176.509766"/>
      <use xlink:href="#DejaVuSans-20" x="239.888672"/>
      <use xlink:href="#DejaVuSans-4c" x="271.675781"/>
      <use xlink:href="#DejaVuSans-6f" x="325.638672"/>
      <use xlink:href="#DejaVuSans-73" x="386.820312"/>
      <use xlink:href="#DejaVuSans-73" x="438.919922"/>
     </g>
    </g>
    <g id="line2d_18">
     <path d="M 328.62 69.248562 
L 338.62 69.248562 
L 348.62 69.248562 
" style="fill: none; stroke: #ff7f0e; stroke-width: 1.5; stroke-linecap: square"/>
    </g>
    <g id="text_19">
     <!-- Val Loss -->
     <g transform="translate(356.62 72.748562) scale(0.1 -0.1)">
      <use xlink:href="#DejaVuSans-56"/>
      <use xlink:href="#DejaVuSans-61" x="60.658203"/>
      <use xlink:href="#DejaVuSans-6c" x="121.9375"/>
      <use xlink:href="#DejaVuSans-20" x="149.720703"/>
      <use xlink:href="#DejaVuSans-4c" x="181.507812"/>
      <use xlink:href="#DejaVuSans-6f" x="235.470703"/>
      <use xlink:href="#DejaVuSans-73" x="296.652344"/>
      <use xlink:href="#DejaVuSans-73" x="348.751953"/>
     </g>
    </g>
   </g>
  </g>
 </g>
 <defs>
  <clipPath id="p9310f9d812">
   <rect x="57.6" y="41.472" width="357.12" height="266.112"/>
  </clipPath>
 </defs>
</svg>
