<?xml version="1.0" encoding="utf-8" standalone="no"?>
<!DOCTYPE svg PUBLIC "-//W3C//DTD SVG 1.1//EN"
  "http://www.w3.org/Graphics/SVG/1.1/DTD/svg11.dtd">
<svg xmlns:xlink="http://www.w3.org/1999/xlink" width="1144.890625pt" height="424.571875pt" viewBox="0 0 1144.890625 424.571875" xmlns="http://www.w3.org/2000/svg" version="1.1">
 <metadata>
  <rdf:RDF xmlns:dc="http://purl.org/dc/elements/1.1/" xmlns:cc="http://creativecommons.org/ns#" xmlns:rdf="http://www.w3.org/1999/02/22-rdf-syntax-ns#">
   <cc:Work>
    <dc:type rdf:resource="http://purl.org/dc/dcmitype/StillImage"/>
    <dc:date>2026-05-01T11:32:54.258487</dc:date>
    <dc:format>image/svg+xml</dc:format>
    <dc:creator>
     <cc:Agent>
      <dc:title>Matplotlib v3.9.0, https://matplotlib.org/</dc:title>
     </cc:Agent>
    </dc:creator>
   </cc:Work>
  </rdf:RDF>
 </metadata>
 <defs>
  <style type="text/css">*{stroke-linejoin: round; stroke-linecap: butt}</style>
 </defs>
 <g id="figure_1">
  <g id="patch_1">
   <path d="M 0 424.571875 
L 1144.890625 424.571875 
L 1144.890625 0 
L 0 0 
z
" style="fill: #ffffff"/>
  </g>
  <g id="axes_1">
   <g id="patch_2">
    <path d="M 58.468125 381.20875 
L 541.038125 381.20875 
L 541.038125 25.3575 
L 58.468125 25.3575 
z
" style="fill: #ffffff"/>
   </g>
   <g id="line2d_1">
    <path d="M 74.866135 36.319812 
L 77.208708 106.732308 
L 79.55128 132.204978 
L 81.893853 145.752444 
L 84.236426 153.99354 
L 86.578999 160.032545 
L 88.921572 164.022266 
L 91.264144 167.325403 
L 93.606717 170.052898 
L 100.634436 176.029106 
L 102.977008 177.557173 
L 105.319581 178.951272 
L 107.662154 180.493992 
L 112.3473 183.047748 
L 117.032445 185.019583 
L 119.375018 186.415776 
L 124.060164 188.458781 
L 140.458174 196.300068 
L 142.800746 197.539267 
L 149.828465 200.963812 
L 152.171038 202.198825 
L 154.51361 203.664095 
L 156.856183 204.532791 
L 159.198756 205.845254 
L 163.883902 208.202245 
L 166.226475 209.474937 
L 168.569047 210.429455 
L 170.91162 211.509569 
L 173.254193 212.805286 
L 177.939339 214.879689 
L 180.281911 215.64163 
L 182.624484 216.633827 
L 187.30963 218.216318 
L 189.652203 219.02431 
L 191.994775 219.627164 
L 194.337348 220.456088 
L 199.022494 221.62621 
L 201.365067 222.044859 
L 203.70764 222.597475 
L 208.392785 223.210795 
L 210.735358 223.600138 
L 213.077931 223.86598 
L 220.105649 223.951803 
L 222.448222 189.672861 
L 224.790795 187.227954 
L 227.133368 186.962112 
L 229.475941 186.38647 
L 231.818513 186.120629 
L 234.161086 186.396937 
L 238.846232 186.129002 
L 241.188805 186.131095 
L 243.531377 186.269249 
L 245.87395 185.913398 
L 248.216523 186.384377 
L 250.559096 186.269249 
L 252.901669 186.474387 
L 257.586814 186.576955 
L 262.27196 187.181903 
L 264.614533 187.144224 
L 269.299678 187.575432 
L 271.642251 187.330523 
L 281.012542 189.40074 
L 283.355115 189.589132 
L 285.697688 189.503309 
L 288.040261 190.194079 
L 292.725407 191.075334 
L 297.410552 191.573526 
L 299.753125 192.24755 
L 302.095698 192.454781 
L 304.438271 193.151831 
L 306.780843 193.442791 
L 309.123416 194.058205 
L 311.465989 194.250783 
L 313.808562 195.048308 
L 316.151135 195.515102 
L 318.493708 196.122142 
L 320.83628 196.549163 
L 325.521426 197.717193 
L 327.863999 198.55449 
L 330.206572 198.881036 
L 332.549144 199.429465 
L 334.891717 199.720426 
L 337.23429 200.771234 
L 341.919436 201.422232 
L 344.262008 202.290928 
L 346.604581 202.950299 
L 348.947154 203.343829 
L 351.289727 204.33184 
L 353.6323 204.55791 
L 355.974873 205.112619 
L 358.317445 206.029459 
L 360.660018 206.626034 
L 363.002591 207.038402 
L 365.345164 207.71452 
L 367.687737 208.541351 
L 370.030309 208.930694 
L 372.372882 209.755431 
L 377.058028 210.758094 
L 381.743174 212.181499 
L 384.085746 212.941347 
L 391.113465 214.710137 
L 393.456038 215.434399 
L 398.141183 216.472647 
L 400.483756 217.355995 
L 405.168902 218.452854 
L 407.511475 219.0892 
L 409.854047 219.918124 
L 412.19662 220.428876 
L 421.566911 222.921928 
L 423.909484 223.340576 
L 430.937203 225.057035 
L 433.279775 225.507082 
L 435.622348 226.168547 
L 442.650067 227.780344 
L 447.335212 228.653226 
L 449.677785 229.195376 
L 452.020358 229.599372 
L 454.362931 230.16664 
L 454.362931 230.16664 
" clip-path="url(#pa9d13c06ec)" style="fill: none; stroke: #a9a9a9; stroke-opacity: 0.8; stroke-width: 1.5; stroke-linecap: square"/>
   </g>
   <g id="line2d_2">
    <path d="M 74.866135 265.557094 
L 77.208708 263.671082 
L 81.893853 262.586782 
L 86.578999 262.264423 
L 88.921572 262.329314 
L 91.264144 262.128362 
L 100.634436 262.383738 
L 102.977008 262.532358 
L 105.319581 262.840065 
L 107.662154 262.907049 
L 117.032445 264.121129 
L 119.375018 264.571176 
L 121.717591 264.824459 
L 124.060164 265.32893 
L 126.402737 265.590586 
L 135.773028 267.5687 
L 138.115601 268.127596 
L 140.458174 268.454142 
L 142.800746 269.170031 
L 145.143319 269.601239 
L 149.828465 270.733683 
L 152.171038 271.413987 
L 182.624484 278.248424 
L 184.967057 278.570783 
L 189.652203 279.49809 
L 191.994775 279.931391 
L 196.679921 280.546804 
L 199.022494 280.994758 
L 203.70764 281.482484 
L 206.050212 281.769258 
L 208.392785 281.861361 
L 213.077931 282.221398 
L 217.763076 282.447469 
L 222.448222 282.537478 
L 224.790795 260.870323 
L 227.133368 260.263283 
L 231.818513 259.811143 
L 236.503659 259.846728 
L 238.846232 259.687641 
L 241.188805 259.947203 
L 250.559096 260.166994 
L 255.244242 260.671465 
L 259.929387 260.71961 
L 264.614533 261.26176 
L 269.299678 261.42294 
L 271.642251 261.563187 
L 276.327397 262.119989 
L 278.66997 262.25605 
L 281.012542 262.574223 
L 283.355115 262.609808 
L 285.697688 262.969846 
L 288.040261 263.028457 
L 290.382834 263.248247 
L 292.725407 263.612471 
L 299.753125 264.087637 
L 302.095698 264.562803 
L 304.438271 264.661186 
L 309.123416 265.316371 
L 311.465989 265.393821 
L 316.151135 265.88364 
L 318.493708 266.289729 
L 325.521426 266.846531 
L 330.206572 267.545674 
L 337.23429 268.460421 
L 339.576863 268.793247 
L 341.919436 268.822552 
L 346.604581 269.720553 
L 348.947154 269.890106 
L 363.002591 271.698668 
L 365.345164 272.159181 
L 367.687737 272.358039 
L 370.030309 272.814366 
L 374.715455 273.287439 
L 388.770892 275.177637 
L 391.113465 275.324164 
L 393.456038 275.839102 
L 395.79861 276.033773 
L 400.483756 276.831299 
L 402.826329 277.002945 
L 412.19662 278.248424 
L 416.881766 278.815693 
L 421.566911 279.431106 
L 423.909484 279.747186 
L 423.909484 279.747186 
" clip-path="url(#pa9d13c06ec)" style="fill: none; stroke: #87ceeb; stroke-opacity: 0.8; stroke-width: 1.5; stroke-linecap: square"/>
   </g>
   <g id="line2d_3">
    <path d="M 74.866135 93.186935 
L 77.208708 173.240907 
L 79.55128 198.177706 
L 81.893853 212.499672 
L 84.236426 221.691101 
L 86.578999 228.272256 
L 88.921572 233.239521 
L 91.264144 237.095273 
L 93.606717 240.274909 
L 95.94929 242.983565 
L 98.291863 245.520575 
L 102.977008 249.321904 
L 105.319581 251.076041 
L 112.3473 255.226941 
L 117.032445 257.41438 
L 128.745309 261.967183 
L 131.087882 262.835878 
L 133.430455 263.5727 
L 135.773028 264.506286 
L 138.115601 265.199149 
L 140.458174 266.078311 
L 145.143319 267.616845 
L 147.485892 268.403904 
L 152.171038 269.783351 
L 156.856183 271.286299 
L 161.541329 272.506659 
L 163.883902 273.289532 
L 170.91162 275.142052 
L 177.939339 276.998758 
L 182.624484 277.959556 
L 189.652203 279.362029 
L 196.679921 280.561457 
L 201.365067 281.044996 
L 203.70764 281.386195 
L 217.763076 282.244424 
L 220.105649 282.242331 
L 222.448222 260.933121 
L 224.790795 259.658336 
L 227.133368 259.781837 
L 229.475941 260.48098 
L 231.818513 260.579363 
L 234.161086 260.826365 
L 236.503659 261.48155 
L 238.846232 261.655289 
L 245.87395 262.819132 
L 248.216523 262.708191 
L 250.559096 263.449198 
L 252.901669 263.547581 
L 262.27196 264.732356 
L 264.614533 265.326837 
L 269.299678 265.548721 
L 271.642251 265.854334 
L 273.984824 266.302288 
L 276.327397 266.348339 
L 278.66997 266.603715 
L 281.012542 266.974219 
L 283.355115 267.194009 
L 285.697688 267.654523 
L 295.067979 268.502286 
L 297.410552 268.761848 
L 302.095698 269.515416 
L 304.438271 269.626357 
L 306.780843 270.065938 
L 309.123416 270.222932 
L 311.465989 270.601809 
L 313.808562 270.662513 
L 318.493708 271.363749 
L 320.83628 271.495623 
L 325.521426 272.121503 
L 330.206572 272.770408 
L 332.549144 272.956707 
L 367.687737 277.58068 
L 370.030309 277.974209 
L 372.372882 278.120736 
L 374.715455 278.543571 
L 381.743174 279.307605 
L 386.428319 280.123969 
L 388.770892 280.324921 
L 391.113465 280.693331 
L 395.79861 281.250134 
L 400.483756 281.919972 
L 412.19662 283.41036 
L 414.539193 283.582006 
L 421.566911 284.595136 
L 423.909484 284.842138 
L 423.909484 284.842138 
" clip-path="url(#pa9d13c06ec)" style="fill: none; stroke: #98fb98; stroke-opacity: 0.8; stroke-width: 1.5; stroke-linecap: square"/>
   </g>
   <g id="line2d_4">
    <path d="M 74.866135 246.382991 
L 77.208708 288.965826 
L 79.55128 295.304165 
L 81.893853 298.971526 
L 84.236426 301.728327 
L 86.578999 303.666669 
L 88.921572 305.353823 
L 91.264144 306.618142 
L 93.606717 307.717094 
L 95.94929 308.726037 
L 98.291863 309.661716 
L 100.634436 310.452962 
L 102.977008 311.19397 
L 105.319581 311.870087 
L 107.662154 312.531552 
L 110.004727 313.121846 
L 112.3473 313.701675 
L 114.689873 314.27941 
L 117.032445 314.712711 
L 119.375018 315.259047 
L 121.717591 315.773985 
L 124.060164 316.28055 
L 126.402737 316.724317 
L 128.745309 317.304145 
L 131.087882 317.710234 
L 133.430455 318.1854 
L 135.773028 318.689872 
L 138.115601 319.125266 
L 140.458174 319.577407 
L 142.800746 320.075598 
L 145.143319 320.575883 
L 147.485892 320.979879 
L 149.828465 321.444579 
L 152.171038 321.965797 
L 154.51361 322.357233 
L 156.856183 322.874264 
L 159.198756 323.336871 
L 161.541329 323.740866 
L 163.883902 324.180447 
L 166.226475 324.668173 
L 168.569047 325.1245 
L 170.91162 325.522216 
L 173.254193 326.022501 
L 175.596766 326.432776 
L 177.939339 326.830493 
L 180.281911 327.284726 
L 182.624484 327.657323 
L 184.967057 328.0362 
L 187.30963 328.41717 
L 189.652203 328.762555 
L 191.994775 329.074449 
L 194.337348 329.384249 
L 196.679921 329.698235 
L 199.022494 329.949424 
L 201.365067 330.135723 
L 203.70764 330.403658 
L 206.050212 330.583677 
L 208.392785 330.72811 
L 210.735358 330.891383 
L 213.077931 330.968833 
L 215.420504 331.05047 
L 217.763076 331.083962 
L 220.105649 331.173971 
L 222.448222 316.73897 
L 224.790795 315.629551 
L 227.133368 315.591873 
L 229.475941 315.627458 
L 231.818513 315.765612 
L 234.161086 315.997962 
L 236.503659 316.134023 
L 238.846232 316.347533 
L 241.188805 316.561044 
L 243.531377 316.692918 
L 245.87395 316.847818 
L 248.216523 317.04249 
L 250.559096 317.18483 
L 252.901669 317.331357 
L 255.244242 317.50091 
L 257.586814 317.613945 
L 259.929387 317.796057 
L 262.27196 317.95305 
L 264.614533 318.095391 
L 266.957106 318.254477 
L 269.299678 318.43031 
L 271.642251 318.620795 
L 273.984824 318.66266 
L 276.327397 318.853145 
L 278.66997 319.024791 
L 281.012542 319.173411 
" clip-path="url(#pa9d13c06ec)" style="fill: none; stroke: #dda0dd; stroke-opacity: 0.8; stroke-width: 1.5; stroke-linecap: square"/>
   </g>
   <g id="matplotlib.axis_1">
    <g id="xtick_1">
     <g id="line2d_5">
      <defs>
       <path id="m9a22336d6c" d="M 0 0 
L 0 3.5 
" style="stroke: #000000; stroke-width: 0.8"/>
      </defs>
      <g>
       <use xlink:href="#m9a22336d6c" x="72.523562" y="381.20875" style="stroke: #000000; stroke-width: 0.8"/>
      </g>
     </g>
     <g id="text_1">
      <!-- 0 -->
      <g transform="translate(68.706062 397.326875) scale(0.12 -0.12)">
       <defs>
        <path id="DejaVuSerif-30" d="M 2034 219 
Q 2513 219 2750 744 
Q 2988 1269 2988 2328 
Q 2988 3391 2750 3916 
Q 2513 4441 2034 4441 
Q 1556 4441 1318 3916 
Q 1081 3391 1081 2328 
Q 1081 1269 1318 744 
Q 1556 219 2034 219 
z
M 2034 -91 
Q 1275 -91 848 546 
Q 422 1184 422 2328 
Q 422 3475 848 4112 
Q 1275 4750 2034 4750 
Q 2797 4750 3222 4112 
Q 3647 3475 3647 2328 
Q 3647 1184 3222 546 
Q 2797 -91 2034 -91 
z
" transform="scale(0.015625)"/>
       </defs>
       <use xlink:href="#DejaVuSerif-30"/>
      </g>
     </g>
    </g>
    <g id="xtick_2">
     <g id="line2d_6">
      <g>
       <use xlink:href="#m9a22336d6c" x="131.087882" y="381.20875" style="stroke: #000000; stroke-width: 0.8"/>
      </g>
     </g>
     <g id="text_2">
      <!-- 25 -->
      <g transform="translate(123.452882 397.326875) scale(0.12 -0.12)">
       <defs>
        <path id="DejaVuSerif-32" d="M 819 3553 
L 469 3553 
L 469 4384 
Q 803 4563 1142 4656 
Q 1481 4750 1806 4750 
Q 2534 4750 2956 4397 
Q 3378 4044 3378 3438 
Q 3378 2753 2422 1800 
Q 2347 1728 2309 1691 
L 1131 513 
L 3078 513 
L 3078 1088 
L 3444 1088 
L 3444 0 
L 434 0 
L 434 341 
L 1850 1753 
Q 2319 2222 2519 2614 
Q 2719 3006 2719 3438 
Q 2719 3909 2473 4175 
Q 2228 4441 1797 4441 
Q 1350 4441 1106 4219 
Q 863 3997 819 3553 
z
" transform="scale(0.015625)"/>
        <path id="DejaVuSerif-35" d="M 3219 4666 
L 3219 4153 
L 1081 4153 
L 1081 2816 
Q 1244 2928 1461 2984 
Q 1678 3041 1947 3041 
Q 2703 3041 3140 2622 
Q 3578 2203 3578 1478 
Q 3578 738 3136 323 
Q 2694 -91 1894 -91 
Q 1572 -91 1234 -12 
Q 897 66 544 225 
L 544 1131 
L 897 1131 
Q 925 688 1179 453 
Q 1434 219 1894 219 
Q 2388 219 2653 544 
Q 2919 869 2919 1478 
Q 2919 2084 2655 2407 
Q 2391 2731 1894 2731 
Q 1613 2731 1398 2631 
Q 1184 2531 1019 2322 
L 750 2322 
L 750 4666 
L 3219 4666 
z
" transform="scale(0.015625)"/>
       </defs>
       <use xlink:href="#DejaVuSerif-32"/>
       <use xlink:href="#DejaVuSerif-35" x="63.623047"/>
      </g>
     </g>
    </g>
    <g id="xtick_3">
     <g id="line2d_7">
      <g>
       <use xlink:href="#m9a22336d6c" x="189.652203" y="381.20875" style="stroke: #000000; stroke-width: 0.8"/>
      </g>
     </g>
     <g id="text_3">
      <!-- 50 -->
      <g transform="translate(182.017203 397.326875) scale(0.12 -0.12)">
       <use xlink:href="#DejaVuSerif-35"/>
       <use xlink:href="#DejaVuSerif-30" x="63.623047"/>
      </g>
     </g>
    </g>
    <g id="xtick_4">
     <g id="line2d_8">
      <g>
       <use xlink:href="#m9a22336d6c" x="248.216523" y="381.20875" style="stroke: #000000; stroke-width: 0.8"/>
      </g>
     </g>
     <g id="text_4">
      <!-- 75 -->
      <g transform="translate(240.581523 397.326875) scale(0.12 -0.12)">
       <defs>
        <path id="DejaVuSerif-37" d="M 3609 4347 
L 1784 0 
L 1319 0 
L 3059 4153 
L 903 4153 
L 903 3578 
L 538 3578 
L 538 4666 
L 3609 4666 
L 3609 4347 
z
" transform="scale(0.015625)"/>
       </defs>
       <use xlink:href="#DejaVuSerif-37"/>
       <use xlink:href="#DejaVuSerif-35" x="63.623047"/>
      </g>
     </g>
    </g>
    <g id="xtick_5">
     <g id="line2d_9">
      <g>
       <use xlink:href="#m9a22336d6c" x="306.780843" y="381.20875" style="stroke: #000000; stroke-width: 0.8"/>
      </g>
     </g>
     <g id="text_5">
      <!-- 100 -->
      <g transform="translate(295.328343 397.326875) scale(0.12 -0.12)">
       <defs>
        <path id="DejaVuSerif-31" d="M 909 0 
L 909 331 
L 1722 331 
L 1722 4213 
L 781 3603 
L 781 4013 
L 1919 4750 
L 2350 4750 
L 2350 331 
L 3163 331 
L 3163 0 
L 909 0 
z
" transform="scale(0.015625)"/>
       </defs>
       <use xlink:href="#DejaVuSerif-31"/>
       <use xlink:href="#DejaVuSerif-30" x="63.623047"/>
       <use xlink:href="#DejaVuSerif-30" x="127.246094"/>
      </g>
     </g>
    </g>
    <g id="xtick_6">
     <g id="line2d_10">
      <g>
       <use xlink:href="#m9a22336d6c" x="365.345164" y="381.20875" style="stroke: #000000; stroke-width: 0.8"/>
      </g>
     </g>
     <g id="text_6">
      <!-- 125 -->
      <g transform="translate(353.892664 397.326875) scale(0.12 -0.12)">
       <use xlink:href="#DejaVuSerif-31"/>
       <use xlink:href="#DejaVuSerif-32" x="63.623047"/>
       <use xlink:href="#DejaVuSerif-35" x="127.246094"/>
      </g>
     </g>
    </g>
    <g id="xtick_7">
     <g id="line2d_11">
      <g>
       <use xlink:href="#m9a22336d6c" x="423.909484" y="381.20875" style="stroke: #000000; stroke-width: 0.8"/>
      </g>
     </g>
     <g id="text_7">
      <!-- 150 -->
      <g transform="translate(412.456984 397.326875) scale(0.12 -0.12)">
       <use xlink:href="#DejaVuSerif-31"/>
       <use xlink:href="#DejaVuSerif-35" x="63.623047"/>
       <use xlink:href="#DejaVuSerif-30" x="127.246094"/>
      </g>
     </g>
    </g>
    <g id="xtick_8">
     <g id="line2d_12">
      <g>
       <use xlink:href="#m9a22336d6c" x="482.473805" y="381.20875" style="stroke: #000000; stroke-width: 0.8"/>
      </g>
     </g>
     <g id="text_8">
      <!-- 175 -->
      <g transform="translate(471.021305 397.326875) scale(0.12 -0.12)">
       <use xlink:href="#DejaVuSerif-31"/>
       <use xlink:href="#DejaVuSerif-37" x="63.623047"/>
       <use xlink:href="#DejaVuSerif-35" x="127.246094"/>
      </g>
     </g>
    </g>
    <g id="xtick_9">
     <g id="line2d_13">
      <g>
       <use xlink:href="#m9a22336d6c" x="541.038125" y="381.20875" style="stroke: #000000; stroke-width: 0.8"/>
      </g>
     </g>
     <g id="text_9">
      <!-- 200 -->
      <g transform="translate(529.585625 397.326875) scale(0.12 -0.12)">
       <use xlink:href="#DejaVuSerif-32"/>
       <use xlink:href="#DejaVuSerif-30" x="63.623047"/>
       <use xlink:href="#DejaVuSerif-30" x="127.246094"/>
      </g>
     </g>
    </g>
    <g id="text_10">
     <!-- Epochs -->
     <g transform="translate(273.9275 414.460312) scale(0.14 -0.14)">
      <defs>
       <path id="DejaVuSerif-45" d="M 353 0 
L 353 331 
L 947 331 
L 947 4331 
L 353 4331 
L 353 4666 
L 4109 4666 
L 4109 3628 
L 3725 3628 
L 3725 4281 
L 1581 4281 
L 1581 2719 
L 3109 2719 
L 3109 3303 
L 3494 3303 
L 3494 1753 
L 3109 1753 
L 3109 2338 
L 1581 2338 
L 1581 384 
L 3775 384 
L 3775 1038 
L 4159 1038 
L 4159 0 
L 353 0 
z
" transform="scale(0.015625)"/>
       <path id="DejaVuSerif-70" d="M 1313 1825 
L 1313 1497 
Q 1313 897 1542 583 
Q 1772 269 2209 269 
Q 2650 269 2876 622 
Q 3103 975 3103 1663 
Q 3103 2353 2876 2703 
Q 2650 3053 2209 3053 
Q 1772 3053 1542 2737 
Q 1313 2422 1313 1825 
z
M 738 2988 
L 184 2988 
L 184 3322 
L 1313 3322 
L 1313 2803 
Q 1481 3116 1742 3264 
Q 2003 3413 2388 3413 
Q 3000 3413 3387 2928 
Q 3775 2444 3775 1663 
Q 3775 881 3387 395 
Q 3000 -91 2388 -91 
Q 2003 -91 1742 57 
Q 1481 206 1313 519 
L 1313 -997 
L 1856 -997 
L 1856 -1331 
L 184 -1331 
L 184 -997 
L 738 -997 
L 738 2988 
z
" transform="scale(0.015625)"/>
       <path id="DejaVuSerif-6f" d="M 1925 219 
Q 2388 219 2623 584 
Q 2859 950 2859 1663 
Q 2859 2375 2623 2739 
Q 2388 3103 1925 3103 
Q 1463 3103 1227 2739 
Q 991 2375 991 1663 
Q 991 950 1228 584 
Q 1466 219 1925 219 
z
M 1925 -91 
Q 1200 -91 759 389 
Q 319 869 319 1663 
Q 319 2456 758 2934 
Q 1197 3413 1925 3413 
Q 2653 3413 3092 2934 
Q 3531 2456 3531 1663 
Q 3531 869 3092 389 
Q 2653 -91 1925 -91 
z
" transform="scale(0.015625)"/>
       <path id="DejaVuSerif-63" d="M 3291 997 
Q 3169 466 2822 187 
Q 2475 -91 1925 -91 
Q 1200 -91 759 389 
Q 319 869 319 1663 
Q 319 2459 759 2936 
Q 1200 3413 1925 3413 
Q 2241 3413 2553 3339 
Q 2866 3266 3181 3116 
L 3181 2266 
L 2847 2266 
Q 2781 2703 2561 2903 
Q 2341 3103 1931 3103 
Q 1466 3103 1228 2742 
Q 991 2381 991 1663 
Q 991 944 1227 581 
Q 1463 219 1931 219 
Q 2303 219 2525 412 
Q 2747 606 2828 997 
L 3291 997 
z
" transform="scale(0.015625)"/>
       <path id="DejaVuSerif-68" d="M 263 0 
L 263 331 
L 781 331 
L 781 4531 
L 231 4531 
L 231 4863 
L 1356 4863 
L 1356 2731 
Q 1516 3069 1770 3241 
Q 2025 3413 2363 3413 
Q 2913 3413 3172 3097 
Q 3431 2781 3431 2113 
L 3431 331 
L 3944 331 
L 3944 0 
L 2356 0 
L 2356 331 
L 2853 331 
L 2853 1931 
Q 2853 2541 2704 2764 
Q 2556 2988 2175 2988 
Q 1775 2988 1565 2697 
Q 1356 2406 1356 1850 
L 1356 331 
L 1856 331 
L 1856 0 
L 263 0 
z
" transform="scale(0.015625)"/>
       <path id="DejaVuSerif-73" d="M 359 184 
L 359 959 
L 691 959 
Q 703 588 923 403 
Q 1144 219 1575 219 
Q 1963 219 2166 364 
Q 2369 509 2369 788 
Q 2369 1006 2220 1140 
Q 2072 1275 1594 1428 
L 1178 1569 
Q 750 1706 558 1912 
Q 366 2119 366 2438 
Q 366 2894 700 3153 
Q 1034 3413 1625 3413 
Q 1888 3413 2178 3344 
Q 2469 3275 2778 3144 
L 2778 2419 
L 2447 2419 
Q 2434 2741 2221 2922 
Q 2009 3103 1644 3103 
Q 1281 3103 1095 2975 
Q 909 2847 909 2591 
Q 909 2381 1050 2254 
Q 1191 2128 1613 1997 
L 2069 1856 
Q 2541 1709 2748 1489 
Q 2956 1269 2956 922 
Q 2956 450 2595 179 
Q 2234 -91 1600 -91 
Q 1278 -91 972 -22 
Q 666 47 359 184 
z
" transform="scale(0.015625)"/>
      </defs>
      <use xlink:href="#DejaVuSerif-45"/>
      <use xlink:href="#DejaVuSerif-70" x="72.998047"/>
      <use xlink:href="#DejaVuSerif-6f" x="137.011719"/>
      <use xlink:href="#DejaVuSerif-63" x="197.216797"/>
      <use xlink:href="#DejaVuSerif-68" x="253.222656"/>
      <use xlink:href="#DejaVuSerif-73" x="317.626953"/>
     </g>
    </g>
   </g>
   <g id="matplotlib.axis_2">
    <g id="ytick_1">
     <g id="line2d_14">
      <defs>
       <path id="m3d793e847a" d="M 0 0 
L -3.5 0 
" style="stroke: #000000; stroke-width: 0.8"/>
      </defs>
      <g>
       <use xlink:href="#m3d793e847a" x="58.468125" y="360.276324" style="stroke: #000000; stroke-width: 0.8"/>
      </g>
     </g>
     <g id="text_11">
      <!-- 0.02 -->
      <g transform="translate(24.749375 364.835386) scale(0.12 -0.12)">
       <defs>
        <path id="DejaVuSerif-2e" d="M 603 325 
Q 603 500 722 622 
Q 841 744 1019 744 
Q 1191 744 1312 622 
Q 1434 500 1434 325 
Q 1434 153 1312 31 
Q 1191 -91 1019 -91 
Q 841 -91 722 29 
Q 603 150 603 325 
z
" transform="scale(0.015625)"/>
       </defs>
       <use xlink:href="#DejaVuSerif-30"/>
       <use xlink:href="#DejaVuSerif-2e" x="63.623047"/>
       <use xlink:href="#DejaVuSerif-30" x="95.410156"/>
       <use xlink:href="#DejaVuSerif-32" x="159.033203"/>
      </g>
     </g>
    </g>
    <g id="ytick_2">
     <g id="line2d_15">
      <g>
       <use xlink:href="#m3d793e847a" x="58.468125" y="318.411471" style="stroke: #000000; stroke-width: 0.8"/>
      </g>
     </g>
     <g id="text_12">
      <!-- 0.04 -->
      <g transform="translate(24.749375 322.970533) scale(0.12 -0.12)">
       <defs>
        <path id="DejaVuSerif-34" d="M 2234 1581 
L 2234 4063 
L 641 1581 
L 2234 1581 
z
M 3609 0 
L 1484 0 
L 1484 331 
L 2234 331 
L 2234 1247 
L 197 1247 
L 197 1588 
L 2241 4750 
L 2859 4750 
L 2859 1581 
L 3750 1581 
L 3750 1247 
L 2859 1247 
L 2859 331 
L 3609 331 
L 3609 0 
z
" transform="scale(0.015625)"/>
       </defs>
       <use xlink:href="#DejaVuSerif-30"/>
       <use xlink:href="#DejaVuSerif-2e" x="63.623047"/>
       <use xlink:href="#DejaVuSerif-30" x="95.410156"/>
       <use xlink:href="#DejaVuSerif-34" x="159.033203"/>
      </g>
     </g>
    </g>
    <g id="ytick_3">
     <g id="line2d_16">
      <g>
       <use xlink:href="#m3d793e847a" x="58.468125" y="276.546618" style="stroke: #000000; stroke-width: 0.8"/>
      </g>
     </g>
     <g id="text_13">
      <!-- 0.06 -->
      <g transform="translate(24.749375 281.10568) scale(0.12 -0.12)">
       <defs>
        <path id="DejaVuSerif-36" d="M 2094 219 
Q 2534 219 2771 542 
Q 3009 866 3009 1472 
Q 3009 2078 2771 2401 
Q 2534 2725 2094 2725 
Q 1647 2725 1412 2412 
Q 1178 2100 1178 1509 
Q 1178 888 1415 553 
Q 1653 219 2094 219 
z
M 1075 2569 
Q 1288 2803 1556 2918 
Q 1825 3034 2163 3034 
Q 2859 3034 3264 2615 
Q 3669 2197 3669 1472 
Q 3669 763 3233 336 
Q 2797 -91 2069 -91 
Q 1278 -91 853 498 
Q 428 1088 428 2181 
Q 428 3406 931 4078 
Q 1434 4750 2350 4750 
Q 2597 4750 2869 4703 
Q 3141 4656 3425 4563 
L 3425 3794 
L 3072 3794 
Q 3034 4109 2831 4275 
Q 2628 4441 2284 4441 
Q 1678 4441 1381 3981 
Q 1084 3522 1075 2569 
z
" transform="scale(0.015625)"/>
       </defs>
       <use xlink:href="#DejaVuSerif-30"/>
       <use xlink:href="#DejaVuSerif-2e" x="63.623047"/>
       <use xlink:href="#DejaVuSerif-30" x="95.410156"/>
       <use xlink:href="#DejaVuSerif-36" x="159.033203"/>
      </g>
     </g>
    </g>
    <g id="ytick_4">
     <g id="line2d_17">
      <g>
       <use xlink:href="#m3d793e847a" x="58.468125" y="234.681765" style="stroke: #000000; stroke-width: 0.8"/>
      </g>
     </g>
     <g id="text_14">
      <!-- 0.08 -->
      <g transform="translate(24.749375 239.240827) scale(0.12 -0.12)">
       <defs>
        <path id="DejaVuSerif-38" d="M 2981 1275 
Q 2981 1775 2732 2051 
Q 2484 2328 2034 2328 
Q 1584 2328 1336 2051 
Q 1088 1775 1088 1275 
Q 1088 772 1336 495 
Q 1584 219 2034 219 
Q 2484 219 2732 495 
Q 2981 772 2981 1275 
z
M 2853 3541 
Q 2853 3966 2637 4203 
Q 2422 4441 2034 4441 
Q 1650 4441 1433 4203 
Q 1216 3966 1216 3541 
Q 1216 3113 1433 2875 
Q 1650 2638 2034 2638 
Q 2422 2638 2637 2875 
Q 2853 3113 2853 3541 
z
M 2516 2484 
Q 3047 2413 3344 2092 
Q 3641 1772 3641 1275 
Q 3641 619 3225 264 
Q 2809 -91 2034 -91 
Q 1263 -91 845 264 
Q 428 619 428 1275 
Q 428 1772 725 2092 
Q 1022 2413 1556 2484 
Q 1084 2569 832 2842 
Q 581 3116 581 3541 
Q 581 4103 968 4426 
Q 1356 4750 2034 4750 
Q 2713 4750 3100 4426 
Q 3488 4103 3488 3541 
Q 3488 3116 3236 2842 
Q 2984 2569 2516 2484 
z
" transform="scale(0.015625)"/>
       </defs>
       <use xlink:href="#DejaVuSerif-30"/>
       <use xlink:href="#DejaVuSerif-2e" x="63.623047"/>
       <use xlink:href="#DejaVuSerif-30" x="95.410156"/>
       <use xlink:href="#DejaVuSerif-38" x="159.033203"/>
      </g>
     </g>
    </g>
    <g id="ytick_5">
     <g id="line2d_18">
      <g>
       <use xlink:href="#m3d793e847a" x="58.468125" y="192.816912" style="stroke: #000000; stroke-width: 0.8"/>
      </g>
     </g>
     <g id="text_15">
      <!-- 0.10 -->
      <g transform="translate(24.749375 197.375974) scale(0.12 -0.12)">
       <use xlink:href="#DejaVuSerif-30"/>
       <use xlink:href="#DejaVuSerif-2e" x="63.623047"/>
       <use xlink:href="#DejaVuSerif-31" x="95.410156"/>
       <use xlink:href="#DejaVuSerif-30" x="159.033203"/>
      </g>
     </g>
    </g>
    <g id="ytick_6">
     <g id="line2d_19">
      <g>
       <use xlink:href="#m3d793e847a" x="58.468125" y="150.952059" style="stroke: #000000; stroke-width: 0.8"/>
      </g>
     </g>
     <g id="text_16">
      <!-- 0.12 -->
      <g transform="translate(24.749375 155.511121) scale(0.12 -0.12)">
       <use xlink:href="#DejaVuSerif-30"/>
       <use xlink:href="#DejaVuSerif-2e" x="63.623047"/>
       <use xlink:href="#DejaVuSerif-31" x="95.410156"/>
       <use xlink:href="#DejaVuSerif-32" x="159.033203"/>
      </g>
     </g>
    </g>
    <g id="ytick_7">
     <g id="line2d_20">
      <g>
       <use xlink:href="#m3d793e847a" x="58.468125" y="109.087206" style="stroke: #000000; stroke-width: 0.8"/>
      </g>
     </g>
     <g id="text_17">
      <!-- 0.14 -->
      <g transform="translate(24.749375 113.646268) scale(0.12 -0.12)">
       <use xlink:href="#DejaVuSerif-30"/>
       <use xlink:href="#DejaVuSerif-2e" x="63.623047"/>
       <use xlink:href="#DejaVuSerif-31" x="95.410156"/>
       <use xlink:href="#DejaVuSerif-34" x="159.033203"/>
      </g>
     </g>
    </g>
    <g id="ytick_8">
     <g id="line2d_21">
      <g>
       <use xlink:href="#m3d793e847a" x="58.468125" y="67.222353" style="stroke: #000000; stroke-width: 0.8"/>
      </g>
     </g>
     <g id="text_18">
      <!-- 0.16 -->
      <g transform="translate(24.749375 71.781415) scale(0.12 -0.12)">
       <use xlink:href="#DejaVuSerif-30"/>
       <use xlink:href="#DejaVuSerif-2e" x="63.623047"/>
       <use xlink:href="#DejaVuSerif-31" x="95.410156"/>
       <use xlink:href="#DejaVuSerif-36" x="159.033203"/>
      </g>
     </g>
    </g>
    <g id="ytick_9">
     <g id="line2d_22">
      <g>
       <use xlink:href="#m3d793e847a" x="58.468125" y="25.3575" style="stroke: #000000; stroke-width: 0.8"/>
      </g>
     </g>
     <g id="text_19">
      <!-- 0.18 -->
      <g transform="translate(24.749375 29.916562) scale(0.12 -0.12)">
       <use xlink:href="#DejaVuSerif-30"/>
       <use xlink:href="#DejaVuSerif-2e" x="63.623047"/>
       <use xlink:href="#DejaVuSerif-31" x="95.410156"/>
       <use xlink:href="#DejaVuSerif-38" x="159.033203"/>
      </g>
     </g>
    </g>
    <g id="text_20">
     <!-- Loss -->
     <g transform="translate(17.837812 219.329531) rotate(-90) scale(0.14 -0.14)">
      <defs>
       <path id="DejaVuSerif-4c" d="M 353 0 
L 353 331 
L 947 331 
L 947 4331 
L 353 4331 
L 353 4666 
L 2175 4666 
L 2175 4331 
L 1581 4331 
L 1581 384 
L 3713 384 
L 3713 1166 
L 4097 1166 
L 4097 0 
L 353 0 
z
" transform="scale(0.015625)"/>
      </defs>
      <use xlink:href="#DejaVuSerif-4c"/>
      <use xlink:href="#DejaVuSerif-6f" x="66.40625"/>
      <use xlink:href="#DejaVuSerif-73" x="126.611328"/>
      <use xlink:href="#DejaVuSerif-73" x="177.929688"/>
     </g>
    </g>
   </g>
   <g id="patch_3">
    <path d="M 58.468125 381.20875 
L 58.468125 25.3575 
" style="fill: none; stroke: #000000; stroke-width: 0.8; stroke-linejoin: miter; stroke-linecap: square"/>
   </g>
   <g id="patch_4">
    <path d="M 58.468125 381.20875 
L 541.038125 381.20875 
" style="fill: none; stroke: #000000; stroke-width: 0.8; stroke-linejoin: miter; stroke-linecap: square"/>
   </g>
   <g id="text_21">
    <!-- Training Loss Comparison -->
    <g transform="translate(182.281875 19.3575) scale(0.16 -0.16)">
     <defs>
      <path id="DejaVuSerif-Bold-54" d="M 1159 0 
L 1159 378 
L 1778 378 
L 1778 4238 
L 500 4238 
L 500 3500 
L 72 3500 
L 72 4666 
L 4697 4666 
L 4697 3500 
L 4275 3500 
L 4275 4238 
L 2988 4238 
L 2988 378 
L 3609 378 
L 3609 0 
L 1159 0 
z
" transform="scale(0.015625)"/>
      <path id="DejaVuSerif-Bold-72" d="M 3438 3359 
L 3438 2369 
L 3084 2369 
Q 3066 2634 2941 2764 
Q 2816 2894 2578 2894 
Q 2216 2894 2006 2575 
Q 1797 2256 1797 1691 
L 1797 378 
L 2400 378 
L 2400 0 
L 219 0 
L 219 378 
L 691 378 
L 691 2944 
L 184 2944 
L 184 3322 
L 1797 3322 
L 1797 2731 
Q 1959 3078 2226 3245 
Q 2494 3413 2881 3413 
Q 2978 3413 3117 3398 
Q 3256 3384 3438 3359 
z
" transform="scale(0.015625)"/>
      <path id="DejaVuSerif-Bold-61" d="M 3525 2041 
L 3525 378 
L 4000 378 
L 4000 0 
L 2419 0 
L 2419 422 
Q 2200 159 1931 34 
Q 1663 -91 1319 -91 
Q 809 -91 536 182 
Q 263 456 263 966 
Q 263 1525 655 1803 
Q 1047 2081 1838 2081 
L 2419 2081 
L 2419 2278 
Q 2419 2681 2228 2873 
Q 2038 3066 1638 3066 
Q 1306 3066 1126 2930 
Q 947 2794 872 2484 
L 519 2484 
L 519 3200 
Q 816 3306 1134 3359 
Q 1453 3413 1806 3413 
Q 2697 3413 3111 3081 
Q 3525 2750 3525 2041 
z
M 2419 1044 
L 2419 1709 
L 2003 1709 
Q 1694 1709 1528 1540 
Q 1363 1372 1363 1056 
Q 1363 741 1483 584 
Q 1603 428 1850 428 
Q 2106 428 2262 597 
Q 2419 766 2419 1044 
z
" transform="scale(0.015625)"/>
      <path id="DejaVuSerif-Bold-69" d="M 588 4263 
Q 588 4516 763 4689 
Q 938 4863 1191 4863 
Q 1438 4863 1611 4689 
Q 1784 4516 1784 4263 
Q 1784 4016 1611 3842 
Q 1438 3669 1191 3669 
Q 938 3669 763 3841 
Q 588 4013 588 4263 
z
M 1797 378 
L 2272 378 
L 2272 0 
L 219 0 
L 219 378 
L 691 378 
L 691 2944 
L 219 2944 
L 219 3322 
L 1797 3322 
L 1797 378 
z
" transform="scale(0.015625)"/>
      <path id="DejaVuSerif-Bold-6e" d="M 219 0 
L 219 378 
L 691 378 
L 691 2944 
L 219 2944 
L 219 3322 
L 1797 3322 
L 1797 2853 
Q 1997 3150 2253 3281 
Q 2509 3413 2900 3413 
Q 3459 3413 3745 3083 
Q 4031 2753 4031 2113 
L 4031 378 
L 4506 378 
L 4506 0 
L 2522 0 
L 2522 378 
L 2925 378 
L 2925 2144 
Q 2925 2566 2817 2730 
Q 2709 2894 2444 2894 
Q 2109 2894 1953 2648 
Q 1797 2403 1797 1869 
L 1797 378 
L 2203 378 
L 2203 0 
L 219 0 
z
" transform="scale(0.015625)"/>
      <path id="DejaVuSerif-Bold-67" d="M 3853 2944 
L 3853 44 
Q 3853 -656 3354 -1039 
Q 2856 -1422 1947 -1422 
Q 1616 -1422 1275 -1370 
Q 934 -1319 575 -1216 
L 575 -422 
L 928 -422 
Q 975 -750 1192 -909 
Q 1409 -1069 1813 -1069 
Q 2325 -1069 2536 -823 
Q 2747 -578 2747 44 
L 2747 422 
Q 2606 163 2367 36 
Q 2128 -91 1778 -91 
Q 1072 -91 667 378 
Q 263 847 263 1663 
Q 263 2481 667 2947 
Q 1072 3413 1778 3413 
Q 2128 3413 2367 3286 
Q 2606 3159 2747 2900 
L 2747 3322 
L 4325 3322 
L 4325 2944 
L 3853 2944 
z
M 2747 1825 
Q 2747 2406 2597 2665 
Q 2447 2925 2119 2925 
Q 1775 2925 1636 2651 
Q 1497 2378 1497 1663 
Q 1497 947 1637 672 
Q 1778 397 2119 397 
Q 2447 397 2597 656 
Q 2747 916 2747 1497 
L 2747 1825 
z
" transform="scale(0.015625)"/>
      <path id="DejaVuSerif-Bold-20" transform="scale(0.015625)"/>
      <path id="DejaVuSerif-Bold-4c" d="M 300 0 
L 300 378 
L 897 378 
L 897 4288 
L 300 4288 
L 300 4666 
L 2700 4666 
L 2700 4288 
L 2100 4288 
L 2100 428 
L 3938 428 
L 3938 1166 
L 4359 1166 
L 4359 0 
L 300 0 
z
" transform="scale(0.015625)"/>
      <path id="DejaVuSerif-Bold-6f" d="M 2138 263 
Q 2488 263 2630 563 
Q 2772 863 2772 1663 
Q 2772 2463 2631 2761 
Q 2491 3059 2138 3059 
Q 1784 3059 1640 2757 
Q 1497 2456 1497 1663 
Q 1497 869 1640 566 
Q 1784 263 2138 263 
z
M 2138 -91 
Q 1259 -91 761 376 
Q 263 844 263 1663 
Q 263 2484 761 2948 
Q 1259 3413 2138 3413 
Q 3019 3413 3516 2948 
Q 4013 2484 4013 1663 
Q 4013 844 3514 376 
Q 3016 -91 2138 -91 
z
" transform="scale(0.015625)"/>
      <path id="DejaVuSerif-Bold-73" d="M 300 97 
L 300 1025 
L 653 1025 
Q 697 653 931 458 
Q 1166 263 1569 263 
Q 1906 263 2086 380 
Q 2266 497 2266 716 
Q 2266 916 2152 1025 
Q 2038 1134 1709 1216 
L 1253 1331 
Q 738 1459 506 1698 
Q 275 1938 275 2344 
Q 275 2884 650 3148 
Q 1025 3413 1806 3413 
Q 2100 3413 2433 3364 
Q 2766 3316 3169 3213 
L 3169 2375 
L 2816 2375 
Q 2788 2716 2573 2887 
Q 2359 3059 1959 3059 
Q 1622 3059 1448 2951 
Q 1275 2844 1275 2638 
Q 1275 2469 1375 2372 
Q 1475 2275 1734 2209 
L 2188 2094 
Q 2841 1928 3091 1684 
Q 3341 1441 3341 1006 
Q 3341 444 2939 176 
Q 2538 -91 1691 -91 
Q 1381 -91 1034 -44 
Q 688 3 300 97 
z
" transform="scale(0.015625)"/>
      <path id="DejaVuSerif-Bold-43" d="M 4769 1331 
Q 4584 609 4106 259 
Q 3628 -91 2822 -91 
Q 1641 -91 955 561 
Q 269 1213 269 2328 
Q 269 3447 955 4098 
Q 1641 4750 2822 4750 
Q 3238 4750 3688 4650 
Q 4138 4550 4641 4347 
L 4641 3200 
L 4244 3200 
Q 4122 3788 3800 4080 
Q 3478 4372 2950 4372 
Q 2269 4372 1937 3870 
Q 1606 3369 1606 2328 
Q 1606 1288 1937 788 
Q 2269 288 2956 288 
Q 3422 288 3717 547 
Q 4013 806 4147 1331 
L 4769 1331 
z
" transform="scale(0.015625)"/>
      <path id="DejaVuSerif-Bold-6d" d="M 3884 2778 
Q 4116 3109 4384 3261 
Q 4653 3413 5013 3413 
Q 5584 3413 5867 3089 
Q 6150 2766 6150 2113 
L 6150 378 
L 6625 378 
L 6625 0 
L 4647 0 
L 4647 378 
L 5044 378 
L 5044 1947 
Q 5044 2569 4948 2731 
Q 4853 2894 4594 2894 
Q 4300 2894 4137 2667 
Q 3975 2441 3975 2022 
L 3975 378 
L 4372 378 
L 4372 0 
L 2472 0 
L 2472 378 
L 2869 378 
L 2869 1947 
Q 2869 2569 2772 2731 
Q 2675 2894 2419 2894 
Q 2122 2894 1959 2667 
Q 1797 2441 1797 2022 
L 1797 378 
L 2194 378 
L 2194 0 
L 219 0 
L 219 378 
L 691 378 
L 691 2944 
L 219 2944 
L 219 3322 
L 1797 3322 
L 1797 2853 
Q 1991 3144 2241 3278 
Q 2491 3413 2834 3413 
Q 3241 3413 3494 3258 
Q 3747 3103 3884 2778 
z
" transform="scale(0.015625)"/>
      <path id="DejaVuSerif-Bold-70" d="M 1728 1825 
L 1728 1497 
Q 1728 916 1876 656 
Q 2025 397 2356 397 
Q 2697 397 2836 672 
Q 2975 947 2975 1663 
Q 2975 2378 2836 2651 
Q 2697 2925 2356 2925 
Q 2025 2925 1876 2665 
Q 1728 2406 1728 1825 
z
M 622 2944 
L 147 2944 
L 147 3322 
L 1728 3322 
L 1728 2900 
Q 1869 3159 2106 3286 
Q 2344 3413 2694 3413 
Q 3403 3413 3811 2945 
Q 4219 2478 4219 1663 
Q 4219 847 3811 378 
Q 3403 -91 2694 -91 
Q 2344 -91 2106 36 
Q 1869 163 1728 422 
L 1728 -953 
L 2241 -953 
L 2241 -1331 
L 147 -1331 
L 147 -953 
L 622 -953 
L 622 2944 
z
" transform="scale(0.015625)"/>
     </defs>
     <use xlink:href="#DejaVuSerif-Bold-54"/>
     <use xlink:href="#DejaVuSerif-Bold-72" x="67.164062"/>
     <use xlink:href="#DejaVuSerif-Bold-61" x="119.849609"/>
     <use xlink:href="#DejaVuSerif-Bold-69" x="184.644531"/>
     <use xlink:href="#DejaVuSerif-Bold-6e" x="222.632812"/>
     <use xlink:href="#DejaVuSerif-Bold-69" x="295.337891"/>
     <use xlink:href="#DejaVuSerif-Bold-6e" x="333.326172"/>
     <use xlink:href="#DejaVuSerif-Bold-67" x="406.03125"/>
     <use xlink:href="#DejaVuSerif-Bold-20" x="475.953125"/>
     <use xlink:href="#DejaVuSerif-Bold-4c" x="510.767578"/>
     <use xlink:href="#DejaVuSerif-Bold-6f" x="581.080078"/>
     <use xlink:href="#DejaVuSerif-Bold-73" x="647.779297"/>
     <use xlink:href="#DejaVuSerif-Bold-73" x="704.078125"/>
     <use xlink:href="#DejaVuSerif-Bold-20" x="760.376953"/>
     <use xlink:href="#DejaVuSerif-Bold-43" x="795.191406"/>
     <use xlink:href="#DejaVuSerif-Bold-6f" x="874.78125"/>
     <use xlink:href="#DejaVuSerif-Bold-6d" x="941.480469"/>
     <use xlink:href="#DejaVuSerif-Bold-70" x="1047.291016"/>
     <use xlink:href="#DejaVuSerif-Bold-61" x="1117.212891"/>
     <use xlink:href="#DejaVuSerif-Bold-72" x="1182.007812"/>
     <use xlink:href="#DejaVuSerif-Bold-69" x="1234.693359"/>
     <use xlink:href="#DejaVuSerif-Bold-73" x="1272.681641"/>
     <use xlink:href="#DejaVuSerif-Bold-6f" x="1328.980469"/>
     <use xlink:href="#DejaVuSerif-Bold-6e" x="1395.679688"/>
    </g>
   </g>
   <g id="legend_1">
    <g id="line2d_23">
     <path d="M 386.035625 41.075625 
L 398.035625 41.075625 
L 410.035625 41.075625 
" style="fill: none; stroke: #a9a9a9; stroke-opacity: 0.8; stroke-width: 1.5; stroke-linecap: square"/>
    </g>
    <g id="text_22">
     <!-- vanilla_RNN -->
     <g transform="translate(419.635625 45.275625) scale(0.12 -0.12)">
      <defs>
       <path id="DejaVuSerif-76" d="M 1581 0 
L 359 2988 
L -19 2988 
L -19 3322 
L 1509 3322 
L 1509 2988 
L 978 2988 
L 1913 703 
L 2847 2988 
L 2350 2988 
L 2350 3322 
L 3597 3322 
L 3597 2988 
L 3225 2988 
L 2003 0 
L 1581 0 
z
" transform="scale(0.015625)"/>
       <path id="DejaVuSerif-61" d="M 2547 1044 
L 2547 1747 
L 1806 1747 
Q 1378 1747 1168 1562 
Q 959 1378 959 997 
Q 959 650 1171 447 
Q 1384 244 1747 244 
Q 2106 244 2326 466 
Q 2547 688 2547 1044 
z
M 3122 2075 
L 3122 331 
L 3634 331 
L 3634 0 
L 2547 0 
L 2547 359 
Q 2356 128 2106 18 
Q 1856 -91 1522 -91 
Q 969 -91 644 203 
Q 319 497 319 997 
Q 319 1513 691 1797 
Q 1063 2081 1741 2081 
L 2547 2081 
L 2547 2309 
Q 2547 2688 2317 2895 
Q 2088 3103 1672 3103 
Q 1328 3103 1125 2947 
Q 922 2791 872 2484 
L 575 2484 
L 575 3156 
Q 875 3284 1158 3348 
Q 1441 3413 1709 3413 
Q 2400 3413 2761 3070 
Q 3122 2728 3122 2075 
z
" transform="scale(0.015625)"/>
       <path id="DejaVuSerif-6e" d="M 263 0 
L 263 331 
L 781 331 
L 781 2988 
L 231 2988 
L 231 3322 
L 1356 3322 
L 1356 2731 
Q 1516 3069 1770 3241 
Q 2025 3413 2363 3413 
Q 2913 3413 3172 3097 
Q 3431 2781 3431 2113 
L 3431 331 
L 3944 331 
L 3944 0 
L 2356 0 
L 2356 331 
L 2853 331 
L 2853 1931 
Q 2853 2541 2703 2767 
Q 2553 2994 2175 2994 
Q 1775 2994 1565 2701 
Q 1356 2409 1356 1850 
L 1356 331 
L 1856 331 
L 1856 0 
L 263 0 
z
" transform="scale(0.015625)"/>
       <path id="DejaVuSerif-69" d="M 622 4353 
Q 622 4497 726 4603 
Q 831 4709 978 4709 
Q 1122 4709 1226 4603 
Q 1331 4497 1331 4353 
Q 1331 4206 1228 4103 
Q 1125 4000 978 4000 
Q 831 4000 726 4103 
Q 622 4206 622 4353 
z
M 1356 331 
L 1900 331 
L 1900 0 
L 231 0 
L 231 331 
L 781 331 
L 781 2988 
L 231 2988 
L 231 3322 
L 1356 3322 
L 1356 331 
z
" transform="scale(0.015625)"/>
       <path id="DejaVuSerif-6c" d="M 1313 331 
L 1856 331 
L 1856 0 
L 184 0 
L 184 331 
L 738 331 
L 738 4531 
L 184 4531 
L 184 4863 
L 1313 4863 
L 1313 331 
z
" transform="scale(0.015625)"/>
       <path id="DejaVuSerif-5f" d="M 3200 -1259 
L 3200 -1509 
L 0 -1509 
L 0 -1259 
L 3200 -1259 
z
" transform="scale(0.015625)"/>
       <path id="DejaVuSerif-52" d="M 3066 2316 
Q 3284 2256 3442 2114 
Q 3600 1972 3725 1716 
L 4403 331 
L 4972 331 
L 4972 0 
L 3872 0 
L 3144 1484 
Q 2934 1916 2759 2042 
Q 2584 2169 2278 2169 
L 1581 2169 
L 1581 331 
L 2241 331 
L 2241 0 
L 353 0 
L 353 331 
L 947 331 
L 947 4331 
L 353 4331 
L 353 4666 
L 2719 4666 
Q 3400 4666 3770 4341 
Q 4141 4016 4141 3419 
Q 4141 2938 3870 2661 
Q 3600 2384 3066 2316 
z
M 1581 2503 
L 2503 2503 
Q 2975 2503 3200 2726 
Q 3425 2950 3425 3419 
Q 3425 3888 3200 4109 
Q 2975 4331 2503 4331 
L 1581 4331 
L 1581 2503 
z
" transform="scale(0.015625)"/>
       <path id="DejaVuSerif-4e" d="M 313 0 
L 313 331 
L 941 331 
L 941 4331 
L 313 4331 
L 313 4666 
L 1509 4666 
L 4306 984 
L 4306 4331 
L 3681 4331 
L 3681 4666 
L 5319 4666 
L 5319 4331 
L 4691 4331 
L 4691 -91 
L 4313 -91 
L 1325 3841 
L 1325 331 
L 1953 331 
L 1953 0 
L 313 0 
z
" transform="scale(0.015625)"/>
      </defs>
      <use xlink:href="#DejaVuSerif-76"/>
      <use xlink:href="#DejaVuSerif-61" x="56.494141"/>
      <use xlink:href="#DejaVuSerif-6e" x="116.113281"/>
      <use xlink:href="#DejaVuSerif-69" x="180.517578"/>
      <use xlink:href="#DejaVuSerif-6c" x="212.5"/>
      <use xlink:href="#DejaVuSerif-6c" x="244.482422"/>
      <use xlink:href="#DejaVuSerif-61" x="276.464844"/>
      <use xlink:href="#DejaVuSerif-5f" x="336.083984"/>
      <use xlink:href="#DejaVuSerif-52" x="386.083984"/>
      <use xlink:href="#DejaVuSerif-4e" x="461.376953"/>
      <use xlink:href="#DejaVuSerif-4e" x="548.876953"/>
     </g>
    </g>
    <g id="line2d_24">
     <path d="M 386.035625 59.023125 
L 398.035625 59.023125 
L 410.035625 59.023125 
" style="fill: none; stroke: #87ceeb; stroke-opacity: 0.8; stroke-width: 1.5; stroke-linecap: square"/>
    </g>
    <g id="text_23">
     <!-- GRU -->
     <g transform="translate(419.635625 63.223125) scale(0.12 -0.12)">
      <defs>
       <path id="DejaVuSerif-47" d="M 4097 3272 
Q 3988 3856 3641 4136 
Q 3294 4416 2675 4416 
Q 1869 4416 1472 3897 
Q 1075 3378 1075 2328 
Q 1075 1300 1484 772 
Q 1894 244 2688 244 
Q 3041 244 3362 331 
Q 3684 419 3975 594 
L 3975 1797 
L 3097 1797 
L 3097 2131 
L 4609 2131 
L 4609 391 
Q 4194 150 3714 29 
Q 3234 -91 2688 -91 
Q 1631 -91 995 570 
Q 359 1231 359 2328 
Q 359 3434 996 4092 
Q 1634 4750 2713 4750 
Q 3113 4750 3539 4658 
Q 3966 4566 4447 4378 
L 4447 3272 
L 4097 3272 
z
" transform="scale(0.015625)"/>
       <path id="DejaVuSerif-55" d="M 897 4331 
L 300 4331 
L 300 4666 
L 2125 4666 
L 2125 4331 
L 1528 4331 
L 1528 1919 
Q 1528 1025 1820 672 
Q 2113 319 2828 319 
Q 3544 319 3836 672 
Q 4128 1025 4128 1919 
L 4128 4331 
L 3531 4331 
L 3531 4666 
L 5106 4666 
L 5106 4331 
L 4513 4331 
L 4513 1856 
Q 4513 791 4103 350 
Q 3694 -91 2713 -91 
Q 1731 -91 1314 353 
Q 897 797 897 1856 
L 897 4331 
z
" transform="scale(0.015625)"/>
      </defs>
      <use xlink:href="#DejaVuSerif-47"/>
      <use xlink:href="#DejaVuSerif-52" x="79.882812"/>
      <use xlink:href="#DejaVuSerif-55" x="155.175781"/>
     </g>
    </g>
    <g id="line2d_25">
     <path d="M 386.035625 76.636875 
L 398.035625 76.636875 
L 410.035625 76.636875 
" style="fill: none; stroke: #98fb98; stroke-opacity: 0.8; stroke-width: 1.5; stroke-linecap: square"/>
    </g>
    <g id="text_24">
     <!-- LSTM -->
     <g transform="translate(419.635625 80.836875) scale(0.12 -0.12)">
      <defs>
       <path id="DejaVuSerif-53" d="M 594 225 
L 594 1288 
L 953 1284 
Q 969 753 1261 498 
Q 1553 244 2150 244 
Q 2706 244 2998 464 
Q 3291 684 3291 1106 
Q 3291 1444 3114 1625 
Q 2938 1806 2369 1978 
L 1753 2163 
Q 1084 2366 811 2669 
Q 538 2972 538 3500 
Q 538 4094 959 4422 
Q 1381 4750 2144 4750 
Q 2469 4750 2856 4679 
Q 3244 4609 3681 4475 
L 3681 3481 
L 3328 3481 
Q 3275 3975 2998 4195 
Q 2722 4416 2156 4416 
Q 1663 4416 1405 4214 
Q 1147 4013 1147 3628 
Q 1147 3294 1340 3103 
Q 1534 2913 2163 2725 
L 2741 2553 
Q 3375 2363 3645 2067 
Q 3916 1772 3916 1275 
Q 3916 597 3481 253 
Q 3047 -91 2188 -91 
Q 1803 -91 1404 -12 
Q 1006 66 594 225 
z
" transform="scale(0.015625)"/>
       <path id="DejaVuSerif-54" d="M 1222 0 
L 1222 331 
L 1819 331 
L 1819 4294 
L 447 4294 
L 447 3566 
L 63 3566 
L 63 4666 
L 4206 4666 
L 4206 3566 
L 3822 3566 
L 3822 4294 
L 2450 4294 
L 2450 331 
L 3047 331 
L 3047 0 
L 1222 0 
z
" transform="scale(0.015625)"/>
       <path id="DejaVuSerif-4d" d="M 353 0 
L 353 331 
L 947 331 
L 947 4331 
L 319 4331 
L 319 4666 
L 1678 4666 
L 3316 1344 
L 4953 4666 
L 6228 4666 
L 6228 4331 
L 5606 4331 
L 5606 331 
L 6203 331 
L 6203 0 
L 4378 0 
L 4378 331 
L 4972 331 
L 4972 3938 
L 3372 684 
L 2931 684 
L 1331 3938 
L 1331 331 
L 1925 331 
L 1925 0 
L 353 0 
z
" transform="scale(0.015625)"/>
      </defs>
      <use xlink:href="#DejaVuSerif-4c"/>
      <use xlink:href="#DejaVuSerif-53" x="66.40625"/>
      <use xlink:href="#DejaVuSerif-54" x="134.912109"/>
      <use xlink:href="#DejaVuSerif-4d" x="201.611328"/>
     </g>
    </g>
    <g id="line2d_26">
     <path d="M 386.035625 94.250625 
L 398.035625 94.250625 
L 410.035625 94.250625 
" style="fill: none; stroke: #dda0dd; stroke-opacity: 0.8; stroke-width: 1.5; stroke-linecap: square"/>
    </g>
    <g id="text_25">
     <!-- AR_Transformer -->
     <g transform="translate(419.635625 98.450625) scale(0.12 -0.12)">
      <defs>
       <path id="DejaVuSerif-41" d="M 1281 1691 
L 2994 1691 
L 2138 3909 
L 1281 1691 
z
M -38 0 
L -38 331 
L 372 331 
L 2034 4666 
L 2559 4666 
L 4225 331 
L 4684 331 
L 4684 0 
L 2988 0 
L 2988 331 
L 3506 331 
L 3116 1356 
L 1153 1356 
L 763 331 
L 1275 331 
L 1275 0 
L -38 0 
z
" transform="scale(0.015625)"/>
       <path id="DejaVuSerif-72" d="M 3059 3328 
L 3059 2497 
L 2728 2497 
Q 2713 2744 2591 2866 
Q 2469 2988 2234 2988 
Q 1809 2988 1582 2694 
Q 1356 2400 1356 1850 
L 1356 331 
L 2022 331 
L 2022 0 
L 263 0 
L 263 331 
L 781 331 
L 781 2994 
L 231 2994 
L 231 3322 
L 1356 3322 
L 1356 2731 
Q 1525 3078 1790 3245 
Q 2056 3413 2438 3413 
Q 2578 3413 2733 3391 
Q 2888 3369 3059 3328 
z
" transform="scale(0.015625)"/>
       <path id="DejaVuSerif-66" d="M 2753 4078 
L 2450 4078 
Q 2447 4313 2317 4434 
Q 2188 4556 1941 4556 
Q 1619 4556 1487 4379 
Q 1356 4203 1356 3750 
L 1356 3322 
L 2284 3322 
L 2284 2988 
L 1356 2988 
L 1356 331 
L 2094 331 
L 2094 0 
L 231 0 
L 231 331 
L 781 331 
L 781 2988 
L 231 2988 
L 231 3322 
L 781 3322 
L 781 3738 
Q 781 4294 1070 4578 
Q 1359 4863 1919 4863 
Q 2128 4863 2337 4825 
Q 2547 4788 2753 4709 
L 2753 4078 
z
" transform="scale(0.015625)"/>
       <path id="DejaVuSerif-6d" d="M 3316 2675 
Q 3481 3041 3739 3227 
Q 3997 3413 4341 3413 
Q 4863 3413 5119 3089 
Q 5375 2766 5375 2113 
L 5375 331 
L 5894 331 
L 5894 0 
L 4300 0 
L 4300 331 
L 4800 331 
L 4800 2047 
Q 4800 2556 4650 2772 
Q 4500 2988 4153 2988 
Q 3769 2988 3567 2697 
Q 3366 2406 3366 1850 
L 3366 331 
L 3866 331 
L 3866 0 
L 2291 0 
L 2291 331 
L 2791 331 
L 2791 2069 
Q 2791 2566 2641 2777 
Q 2491 2988 2144 2988 
Q 1759 2988 1557 2697 
Q 1356 2406 1356 1850 
L 1356 331 
L 1856 331 
L 1856 0 
L 263 0 
L 263 331 
L 781 331 
L 781 2994 
L 231 2994 
L 231 3322 
L 1356 3322 
L 1356 2731 
Q 1516 3063 1762 3238 
Q 2009 3413 2322 3413 
Q 2709 3413 2968 3220 
Q 3228 3028 3316 2675 
z
" transform="scale(0.015625)"/>
       <path id="DejaVuSerif-65" d="M 3469 1600 
L 991 1600 
L 991 1575 
Q 991 903 1244 561 
Q 1497 219 1991 219 
Q 2369 219 2611 417 
Q 2853 616 2950 1006 
L 3413 1006 
Q 3275 459 2904 184 
Q 2534 -91 1931 -91 
Q 1203 -91 761 389 
Q 319 869 319 1663 
Q 319 2450 753 2931 
Q 1188 3413 1894 3413 
Q 2647 3413 3050 2948 
Q 3453 2484 3469 1600 
z
M 2791 1931 
Q 2772 2513 2545 2808 
Q 2319 3103 1894 3103 
Q 1497 3103 1269 2806 
Q 1041 2509 991 1931 
L 2791 1931 
z
" transform="scale(0.015625)"/>
      </defs>
      <use xlink:href="#DejaVuSerif-41"/>
      <use xlink:href="#DejaVuSerif-52" x="72.216797"/>
      <use xlink:href="#DejaVuSerif-5f" x="147.509766"/>
      <use xlink:href="#DejaVuSerif-54" x="197.509766"/>
      <use xlink:href="#DejaVuSerif-72" x="264.208984"/>
      <use xlink:href="#DejaVuSerif-61" x="312.011719"/>
      <use xlink:href="#DejaVuSerif-6e" x="371.630859"/>
      <use xlink:href="#DejaVuSerif-73" x="436.035156"/>
      <use xlink:href="#DejaVuSerif-66" x="487.353516"/>
      <use xlink:href="#DejaVuSerif-6f" x="524.365234"/>
      <use xlink:href="#DejaVuSerif-72" x="584.570312"/>
      <use xlink:href="#DejaVuSerif-6d" x="632.373047"/>
      <use xlink:href="#DejaVuSerif-65" x="727.197266"/>
      <use xlink:href="#DejaVuSerif-72" x="786.376953"/>
     </g>
    </g>
    <g id="line2d_27">
     <path d="M 386.035625 112.198125 
L 398.035625 112.198125 
L 410.035625 112.198125 
" style="fill: none; stroke: #e63946; stroke-width: 3; stroke-linecap: square"/>
    </g>
    <g id="text_26">
     <!-- NAR_Transformer -->
     <g transform="translate(419.635625 116.398125) scale(0.12 -0.12)">
      <use xlink:href="#DejaVuSerif-4e"/>
      <use xlink:href="#DejaVuSerif-41" x="87.5"/>
      <use xlink:href="#DejaVuSerif-52" x="159.716797"/>
      <use xlink:href="#DejaVuSerif-5f" x="235.009766"/>
      <use xlink:href="#DejaVuSerif-54" x="285.009766"/>
      <use xlink:href="#DejaVuSerif-72" x="351.708984"/>
      <use xlink:href="#DejaVuSerif-61" x="399.511719"/>
      <use xlink:href="#DejaVuSerif-6e" x="459.130859"/>
      <use xlink:href="#DejaVuSerif-73" x="523.535156"/>
      <use xlink:href="#DejaVuSerif-66" x="574.853516"/>
      <use xlink:href="#DejaVuSerif-6f" x="611.865234"/>
      <use xlink:href="#DejaVuSerif-72" x="672.070312"/>
      <use xlink:href="#DejaVuSerif-6d" x="719.873047"/>
      <use xlink:href="#DejaVuSerif-65" x="814.697266"/>
      <use xlink:href="#DejaVuSerif-72" x="873.876953"/>
     </g>
    </g>
   </g>
   <g id="line2d_28">
    <path d="M 74.866135 85.496361 
L 77.208708 165.571265 
L 79.55128 183.535474 
L 81.893853 193.987034 
L 84.236426 200.944973 
L 86.578999 206.238784 
L 88.921572 210.303861 
L 91.264144 213.5442 
L 93.606717 216.336586 
L 98.291863 221.042196 
L 100.634436 223.005657 
L 102.977008 224.807939 
L 105.319581 226.17064 
L 107.662154 227.782437 
L 114.689873 231.546087 
L 119.375018 233.681195 
L 121.717591 234.828292 
L 124.060164 235.732573 
L 128.745309 237.982808 
L 131.087882 238.830572 
L 133.430455 239.808116 
L 135.773028 240.951026 
L 138.115601 241.771578 
L 140.458174 242.883089 
L 145.143319 244.591175 
L 149.828465 246.611155 
L 152.171038 247.429612 
L 154.51361 248.539031 
L 177.939339 257.240641 
L 180.281911 257.954436 
L 182.624484 258.808479 
L 189.652203 260.853578 
L 199.022494 262.934261 
L 206.050212 264.058332 
L 210.735358 264.564897 
L 217.763076 264.94168 
L 220.105649 265.03169 
L 222.448222 236.398224 
L 224.790795 234.039139 
L 229.475941 234.428482 
L 236.503659 235.435332 
L 243.531377 236.856644 
L 245.87395 237.107833 
L 250.559096 237.813256 
L 255.244242 238.614968 
L 257.586814 238.728003 
L 259.929387 239.301551 
L 262.27196 239.523435 
L 264.614533 240.061398 
L 269.299678 240.55331 
L 271.642251 241.026383 
L 273.984824 241.189656 
L 281.012542 242.294888 
L 283.355115 242.860064 
L 288.040261 243.107066 
L 290.382834 243.594792 
L 297.410552 244.712583 
L 299.753125 244.857017 
L 306.780843 246.121336 
L 309.123416 246.458348 
L 311.465989 246.64674 
L 313.808562 247.222381 
L 316.151135 247.423333 
L 318.493708 247.816862 
L 320.83628 248.354826 
L 330.206572 249.656823 
L 334.891717 250.55901 
L 337.23429 250.770428 
L 339.576863 251.433986 
L 341.919436 251.530275 
L 344.262008 251.965669 
L 346.604581 252.283842 
L 351.289727 253.259293 
L 355.974873 253.924944 
L 372.372882 257.062715 
L 374.715455 257.301345 
L 377.058028 257.770231 
L 379.400601 258.423323 
L 384.085746 259.122466 
L 386.428319 259.589259 
L 388.770892 260.213045 
L 391.113465 260.556337 
L 395.79861 261.634357 
L 402.826329 262.743776 
L 405.168902 263.33407 
L 407.511475 263.614565 
L 414.539193 265.132165 
L 416.881766 265.379168 
L 419.224339 265.994581 
L 435.622348 269.077928 
L 437.964921 269.452618 
L 440.307494 269.96337 
L 442.650067 270.214559 
L 449.677785 271.585633 
L 452.020358 271.799143 
L 454.362931 272.232445 
L 456.705504 272.433396 
L 459.048076 272.921121 
L 463.733222 273.469551 
L 475.446086 275.014364 
L 477.788659 275.206942 
L 480.131232 275.608845 
L 487.15895 276.040053 
L 489.501523 276.360319 
L 494.186669 276.4901 
L 496.529242 276.758035 
L 498.871814 276.814553 
L 503.55696 277.130632 
L 508.242106 277.134819 
L 510.584678 277.327397 
L 512.927251 277.304371 
L 517.612397 277.471831 
L 519.95497 277.432059 
L 522.297542 243.176143 
L 522.297542 243.176143 
" clip-path="url(#pa9d13c06ec)" style="fill: none; stroke: #e63946; stroke-width: 3; stroke-linecap: square"/>
   </g>
  </g>
  <g id="axes_2">
   <g id="patch_5">
    <path d="M 643.668125 381.20875 
L 1126.238125 381.20875 
L 1126.238125 25.3575 
L 643.668125 25.3575 
z
" style="fill: #ffffff"/>
   </g>
   <g id="line2d_29">
    <path d="M 660.066135 106.219463 
L 662.408708 141.128471 
L 664.75128 157.181549 
L 667.093853 165.407993 
L 669.436426 180.527484 
L 671.778999 187.024909 
L 674.121572 184.55279 
L 676.464144 191.012537 
L 678.806717 193.185322 
L 681.14929 197.886745 
L 683.491863 196.423569 
L 685.834436 198.261436 
L 688.177008 200.440501 
L 690.519581 201.692261 
L 692.862154 201.909958 
L 695.204727 203.161717 
L 697.5473 206.726509 
L 699.889873 205.765711 
L 702.232445 206.387404 
L 704.575018 210.578076 
L 706.917591 209.839161 
L 709.260164 210.992538 
L 711.602737 214.348006 
L 713.945309 214.806426 
L 716.287882 212.93716 
L 718.630455 218.712417 
L 720.973028 215.827928 
L 723.315601 219.378068 
L 725.658174 219.342483 
L 728.000746 218.230971 
L 730.343319 223.369881 
L 732.685892 220.537724 
L 735.028465 220.110703 
L 737.371038 225.758271 
L 739.71361 224.941907 
L 742.056183 228.173873 
L 744.398756 230.080817 
L 746.741329 230.962073 
L 749.083902 231.48957 
L 751.426475 232.969492 
L 753.769047 233.40698 
L 756.11162 234.688044 
L 758.454193 237.030383 
L 760.796766 236.624294 
L 763.139339 237.162257 
L 765.481911 238.051885 
L 767.824484 239.355976 
L 770.167057 239.527621 
L 772.50963 241.32781 
L 774.852203 241.359209 
L 777.194775 242.416296 
L 779.537348 243.598978 
L 786.565067 245.424286 
L 788.90764 245.63989 
L 791.250212 246.230184 
L 793.592785 246.514865 
L 795.935358 247.019337 
L 800.620504 246.9377 
L 802.963076 247.036083 
L 805.305649 246.918861 
L 807.648222 208.859523 
L 809.990795 209.349342 
L 812.333368 211.331643 
L 814.675941 206.575796 
L 817.018513 209.845441 
L 819.361086 208.260856 
L 821.703659 207.63707 
L 824.046232 208.311094 
L 826.388805 208.047345 
L 828.731377 207.526128 
L 831.07395 208.158287 
L 833.416523 209.868466 
L 835.759096 206.646966 
L 838.101669 207.270752 
L 840.444242 208.94744 
L 842.786814 207.758478 
L 845.129387 209.079314 
L 847.47196 210.672272 
L 849.814533 211.892632 
L 852.157106 211.917751 
L 854.499678 211.614231 
L 856.842251 205.807576 
L 859.184824 207.846394 
L 861.527397 209.594252 
L 863.86997 213.062755 
L 866.212542 206.619754 
L 868.555115 212.049625 
L 870.897688 213.018797 
L 873.240261 210.504812 
L 875.582834 212.694344 
L 877.925407 211.132785 
L 880.267979 212.69853 
L 882.610552 215.038776 
L 884.953125 214.276835 
L 887.295698 214.760374 
L 889.638271 215.970269 
L 891.980843 215.708613 
L 894.323416 217.46903 
L 896.665989 218.41099 
L 899.008562 217.956756 
L 901.351135 212.654572 
L 903.693708 218.130495 
L 906.03628 217.127832 
L 908.378853 218.925927 
L 910.721426 221.098713 
L 913.063999 221.762271 
L 915.406572 223.708987 
L 917.749144 220.677971 
L 922.43429 222.951233 
L 924.776863 225.463124 
L 927.119436 226.279489 
L 929.462008 223.583392 
L 931.804581 225.957129 
L 934.147154 224.969119 
L 936.489727 225.643143 
L 938.8323 225.607558 
L 941.174873 229.105366 
L 943.517445 230.009647 
L 945.860018 226.013647 
L 948.202591 228.207365 
L 952.887737 230.524585 
L 955.230309 230.985098 
L 957.572882 232.596895 
L 959.915455 231.569113 
L 962.258028 232.663879 
L 964.600601 235.596512 
L 966.943174 233.015544 
L 969.285746 235.297178 
L 971.628319 235.55674 
L 973.970892 234.757121 
L 976.313465 236.973865 
L 978.656038 237.442752 
L 980.99861 237.141325 
L 983.341183 239.02315 
L 985.683756 239.435519 
L 988.026329 238.547984 
L 990.368902 241.047316 
L 992.711475 240.79194 
L 995.054047 241.591559 
L 997.39662 242.169294 
L 999.739193 243.488037 
L 1002.081766 243.190796 
L 1004.424339 242.600502 
L 1006.766911 244.306494 
L 1009.109484 245.685941 
L 1011.452057 244.892602 
L 1016.137203 248.55787 
L 1018.479775 247.87966 
L 1020.822348 247.877566 
L 1023.164921 248.953493 
L 1025.507494 247.940364 
L 1027.850067 250.473187 
L 1030.19264 250.280609 
L 1032.535212 251.080228 
L 1034.877785 251.758438 
L 1037.220358 251.233034 
L 1039.562931 251.810769 
L 1039.562931 251.810769 
" clip-path="url(#pf87bd566fb)" style="fill: none; stroke: #a9a9a9; stroke-opacity: 0.8; stroke-width: 1.5; stroke-linecap: square"/>
   </g>
   <g id="line2d_30">
    <path d="M 660.066135 283.590379 
L 662.408708 282.009981 
L 664.75128 282.537478 
L 667.093853 282.35118 
L 669.436426 284.174394 
L 671.778999 280.488194 
L 674.121572 281.227108 
L 676.464144 283.977629 
L 678.806717 283.88134 
L 681.14929 280.992665 
L 683.491863 283.448039 
L 685.834436 282.405604 
L 688.177008 282.604462 
L 690.519581 283.837382 
L 692.862154 283.02311 
L 695.204727 284.593042 
L 697.5473 280.980106 
L 699.889873 283.125679 
L 702.232445 281.876013 
L 706.917591 285.987142 
L 709.260164 284.496753 
L 711.602737 285.712927 
L 713.945309 285.084954 
L 716.287882 287.197036 
L 718.630455 282.782387 
L 720.973028 288.099224 
L 723.315601 287.255647 
L 725.658174 287.770585 
L 728.000746 285.482671 
L 730.343319 288.603695 
L 732.685892 288.980479 
L 735.028465 289.673342 
L 737.371038 290.133856 
L 739.71361 290.131762 
L 742.056183 291.207689 
L 744.398756 291.203503 
L 746.741329 291.645177 
L 749.083902 293.520722 
L 751.426475 293.095794 
L 753.769047 293.997982 
L 756.11162 293.143939 
L 758.454193 294.462681 
L 760.796766 294.795507 
L 763.139339 295.64327 
L 765.481911 295.517676 
L 767.824484 296.532898 
L 770.167057 296.294269 
L 772.50963 297.401594 
L 777.194775 297.975143 
L 779.537348 297.366009 
L 781.879921 298.521479 
L 784.222494 298.695218 
L 786.565067 299.072002 
L 788.90764 299.162011 
L 793.592785 299.584846 
L 795.935358 299.524142 
L 802.963076 299.974189 
L 807.648222 300.078851 
L 809.990795 278.650327 
L 812.333368 279.822542 
L 814.675941 280.029773 
L 817.018513 277.48439 
L 819.361086 280.144902 
L 821.703659 278.158414 
L 824.046232 279.979536 
L 826.388805 278.3489 
L 828.731377 278.409604 
L 831.07395 280.065359 
L 833.416523 276.938054 
L 835.759096 281.721113 
L 838.101669 280.785434 
L 840.444242 280.56983 
L 842.786814 276.197046 
L 845.129387 279.676015 
L 847.47196 281.348516 
L 849.814533 277.731393 
L 852.157106 279.753465 
L 854.499678 280.35004 
L 856.842251 280.119783 
L 859.184824 277.383915 
L 861.527397 281.574586 
L 863.86997 282.462121 
L 866.212542 281.932531 
L 868.555115 282.462121 
L 870.897688 283.558981 
L 873.240261 282.058126 
L 875.582834 282.280009 
L 877.925407 282.993805 
L 880.267979 283.228248 
L 882.610552 282.146042 
L 884.953125 282.221398 
L 887.295698 281.695995 
L 889.638271 283.818543 
L 891.980843 284.898656 
L 894.323416 284.335574 
L 896.665989 284.994945 
L 899.008562 284.318828 
L 901.351135 286.587903 
L 903.693708 281.842522 
L 906.03628 285.359169 
L 908.378853 286.558597 
L 910.721426 284.41093 
L 913.063999 286.12111 
L 915.406572 287.086094 
L 917.749144 287.201223 
L 920.091717 285.844801 
L 922.43429 280.460981 
L 924.776863 286.104364 
L 927.119436 289.041183 
L 929.462008 287.774771 
L 931.804581 287.668016 
L 934.147154 283.906459 
L 936.489727 290.362019 
L 938.8323 287.49637 
L 941.174873 289.229575 
L 943.517445 290.112923 
L 945.860018 288.304362 
L 948.202591 289.901506 
L 950.545164 290.650887 
L 952.887737 289.564494 
L 955.230309 291.333284 
L 957.572882 290.935568 
L 959.915455 291.234901 
L 962.258028 291.770771 
L 964.600601 293.259067 
L 969.285746 292.888563 
L 973.970892 293.606545 
L 976.313465 293.568867 
L 978.656038 292.019867 
L 980.99861 294.270103 
L 983.341183 294.408257 
L 985.683756 295.350216 
L 988.026329 293.786564 
L 990.368902 294.669912 
L 992.711475 295.195316 
L 997.39662 295.586753 
L 999.739193 295.258114 
L 1002.081766 295.052976 
L 1004.424339 296.744316 
L 1006.766911 297.152498 
L 1009.109484 297.058302 
L 1009.109484 297.058302 
" clip-path="url(#pf87bd566fb)" style="fill: none; stroke: #87ceeb; stroke-opacity: 0.8; stroke-width: 1.5; stroke-linecap: square"/>
   </g>
   <g id="line2d_31">
    <path d="M 660.066135 178.957552 
L 662.408708 210.525745 
L 664.75128 223.93715 
L 667.093853 235.757691 
L 669.436426 244.532565 
L 671.778999 251.18489 
L 674.121572 251.534461 
L 676.464144 259.126652 
L 678.806717 258.716377 
L 681.14929 263.765278 
L 683.491863 263.999721 
L 685.834436 268.680212 
L 688.177008 271.018364 
L 692.862154 270.666699 
L 695.204727 273.992862 
L 697.5473 271.48725 
L 699.889873 274.932728 
L 702.232445 274.744336 
L 704.575018 274.409417 
L 706.917591 278.346806 
L 709.260164 277.865361 
L 711.602737 279.357843 
L 713.945309 279.818356 
L 716.287882 281.480391 
L 718.630455 283.49409 
L 720.973028 283.276393 
L 723.315601 284.49466 
L 725.658174 283.33919 
L 728.000746 285.390568 
L 730.343319 284.957267 
L 732.685892 286.26345 
L 735.028465 285.865734 
L 737.371038 287.123773 
L 739.71361 288.697891 
L 742.056183 288.56183 
L 744.398756 289.464018 
L 746.741329 291.339563 
L 749.083902 291.622151 
L 751.426475 291.149078 
L 753.769047 291.869154 
L 758.454193 292.792274 
L 760.796766 293.062302 
L 763.139339 294.03566 
L 765.481911 294.458495 
L 767.824484 295.329284 
L 770.167057 295.892366 
L 772.50963 296.045173 
L 774.852203 296.677332 
L 777.194775 296.516152 
L 779.537348 297.26972 
L 784.222494 298.092364 
L 786.565067 297.88932 
L 788.90764 298.395884 
L 791.250212 298.783134 
L 795.935358 298.873144 
L 802.963076 299.120146 
L 805.305649 299.107587 
L 807.648222 269.084208 
L 809.990795 277.452992 
L 812.333368 276.571737 
L 814.675941 278.95594 
L 817.018513 280.973826 
L 819.361086 280.990572 
L 821.703659 279.816263 
L 824.046232 272.519219 
L 826.388805 279.772305 
L 828.731377 276.848045 
L 831.07395 280.848231 
L 833.416523 278.824066 
L 835.759096 283.11312 
L 838.101669 281.4155 
L 840.444242 282.342807 
L 842.786814 279.56298 
L 845.129387 282.175347 
L 847.47196 283.052416 
L 849.814533 284.105317 
L 852.157106 281.788097 
L 854.499678 282.265357 
L 856.842251 278.784294 
L 859.184824 283.540141 
L 861.527397 284.936334 
L 863.86997 285.549654 
L 866.212542 279.659269 
L 868.555115 282.25489 
L 870.897688 286.885143 
L 873.240261 284.628628 
L 875.582834 285.660596 
L 877.925407 286.924915 
L 880.267979 283.064975 
L 882.610552 284.863071 
L 884.953125 287.314258 
L 887.295698 283.715974 
L 889.638271 287.351936 
L 891.980843 288.57439 
L 899.008562 288.578576 
L 901.351135 286.602555 
L 903.693708 288.358786 
L 906.03628 290.57553 
L 908.378853 286.851651 
L 910.721426 289.510069 
L 915.406572 290.81416 
L 917.749144 288.725103 
L 920.091717 290.100364 
L 922.43429 290.987899 
L 924.776863 290.937661 
L 927.119436 290.519012 
L 929.462008 291.762398 
L 931.804581 290.971153 
L 934.147154 292.208259 
L 936.489727 293.832615 
L 941.174873 290.663446 
L 943.517445 293.192083 
L 945.860018 294.033567 
L 948.202591 292.689705 
L 950.545164 292.865537 
L 952.887737 294.025194 
L 955.230309 292.785994 
L 957.572882 294.069152 
L 959.915455 293.056022 
L 962.258028 295.419293 
L 964.600601 296.237751 
L 966.943174 295.130426 
L 969.285746 293.376289 
L 971.628319 297.014344 
L 973.970892 296.545458 
L 976.313465 296.235658 
L 978.656038 296.932708 
L 980.99861 296.595696 
L 983.341183 297.65069 
L 985.683756 298.086084 
L 988.026329 299.360869 
L 990.368902 298.531945 
L 992.711475 299.687415 
L 995.054047 298.958967 
L 997.39662 299.203876 
L 999.739193 299.756492 
L 1002.081766 299.281326 
L 1004.424339 300.748689 
L 1006.766911 300.551924 
L 1009.109484 301.292932 
L 1009.109484 301.292932 
" clip-path="url(#pf87bd566fb)" style="fill: none; stroke: #98fb98; stroke-opacity: 0.8; stroke-width: 1.5; stroke-linecap: square"/>
   </g>
   <g id="line2d_32">
    <path d="M 660.066135 176.788953 
L 662.408708 213.897958 
L 664.75128 213.133925 
L 667.093853 225.586625 
L 669.436426 224.320214 
L 671.778999 238.591942 
L 674.121572 237.595558 
L 676.464144 245.141698 
L 678.806717 238.192133 
L 681.14929 241.038943 
L 683.491863 238.045606 
L 685.834436 249.49355 
L 688.177008 242.63818 
L 690.519581 252.082891 
L 692.862154 252.078704 
L 695.204727 246.971192 
L 697.5473 256.916188 
L 699.889873 251.243501 
L 702.232445 257.648823 
L 704.575018 248.359012 
L 706.917591 254.762241 
L 709.260164 256.918281 
L 711.602737 263.221035 
L 713.945309 260.977079 
L 716.287882 261.037783 
L 718.630455 261.117326 
L 720.973028 262.166041 
L 723.315601 256.775941 
L 725.658174 262.72703 
L 728.000746 266.471841 
L 730.343319 263.281739 
L 732.685892 265.929691 
L 735.028465 268.876977 
L 737.371038 267.472411 
L 739.71361 265.448245 
L 742.056183 271.989628 
L 744.398756 264.897722 
L 746.741329 269.917318 
L 749.083902 268.841391 
L 751.426475 273.827495 
L 753.769047 272.247097 
L 756.11162 272.341293 
L 758.454193 273.651663 
L 760.796766 272.021027 
L 763.139339 272.138249 
L 765.481911 276.621974 
L 767.824484 274.50152 
L 770.167057 275.897712 
L 772.50963 277.693715 
L 774.852203 275.014364 
L 777.194775 276.073545 
L 779.537348 278.449375 
L 781.879921 277.810936 
L 784.222494 276.862697 
L 786.565067 276.776874 
L 788.90764 278.727776 
L 791.250212 277.304371 
L 793.592785 277.787911 
L 795.935358 277.930251 
L 798.277931 278.240051 
L 800.620504 279.037576 
L 802.963076 278.554037 
L 805.305649 279.144332 
L 807.648222 259.103627 
L 809.990795 253.690501 
L 812.333368 256.074705 
L 814.675941 264.837018 
L 817.018513 261.64273 
L 819.361086 256.935027 
L 821.703659 248.202019 
L 824.046232 261.303625 
L 826.388805 256.972706 
L 828.731377 258.87965 
L 831.07395 260.596109 
L 833.416523 257.345303 
L 835.759096 258.743589 
L 838.101669 264.139968 
L 840.444242 263.248247 
L 842.786814 260.231884 
L 845.129387 252.409437 
L 847.47196 262.898676 
L 849.814533 265.349863 
L 852.157106 260.047679 
L 854.499678 264.797247 
L 856.842251 267.376122 
L 859.184824 262.919608 
L 861.527397 264.435116 
L 863.86997 262.884023 
L 866.212542 270.798573 
" clip-path="url(#pf87bd566fb)" style="fill: none; stroke: #dda0dd; stroke-opacity: 0.8; stroke-width: 1.5; stroke-linecap: square"/>
   </g>
   <g id="matplotlib.axis_3">
    <g id="xtick_10">
     <g id="line2d_33">
      <g>
       <use xlink:href="#m9a22336d6c" x="657.723562" y="381.20875" style="stroke: #000000; stroke-width: 0.8"/>
      </g>
     </g>
     <g id="text_27">
      <!-- 0 -->
      <g transform="translate(653.906062 397.326875) scale(0.12 -0.12)">
       <use xlink:href="#DejaVuSerif-30"/>
      </g>
     </g>
    </g>
    <g id="xtick_11">
     <g id="line2d_34">
      <g>
       <use xlink:href="#m9a22336d6c" x="716.287882" y="381.20875" style="stroke: #000000; stroke-width: 0.8"/>
      </g>
     </g>
     <g id="text_28">
      <!-- 25 -->
      <g transform="translate(708.652882 397.326875) scale(0.12 -0.12)">
       <use xlink:href="#DejaVuSerif-32"/>
       <use xlink:href="#DejaVuSerif-35" x="63.623047"/>
      </g>
     </g>
    </g>
    <g id="xtick_12">
     <g id="line2d_35">
      <g>
       <use xlink:href="#m9a22336d6c" x="774.852203" y="381.20875" style="stroke: #000000; stroke-width: 0.8"/>
      </g>
     </g>
     <g id="text_29">
      <!-- 50 -->
      <g transform="translate(767.217203 397.326875) scale(0.12 -0.12)">
       <use xlink:href="#DejaVuSerif-35"/>
       <use xlink:href="#DejaVuSerif-30" x="63.623047"/>
      </g>
     </g>
    </g>
    <g id="xtick_13">
     <g id="line2d_36">
      <g>
       <use xlink:href="#m9a22336d6c" x="833.416523" y="381.20875" style="stroke: #000000; stroke-width: 0.8"/>
      </g>
     </g>
     <g id="text_30">
      <!-- 75 -->
      <g transform="translate(825.781523 397.326875) scale(0.12 -0.12)">
       <use xlink:href="#DejaVuSerif-37"/>
       <use xlink:href="#DejaVuSerif-35" x="63.623047"/>
      </g>
     </g>
    </g>
    <g id="xtick_14">
     <g id="line2d_37">
      <g>
       <use xlink:href="#m9a22336d6c" x="891.980843" y="381.20875" style="stroke: #000000; stroke-width: 0.8"/>
      </g>
     </g>
     <g id="text_31">
      <!-- 100 -->
      <g transform="translate(880.528343 397.326875) scale(0.12 -0.12)">
       <use xlink:href="#DejaVuSerif-31"/>
       <use xlink:href="#DejaVuSerif-30" x="63.623047"/>
       <use xlink:href="#DejaVuSerif-30" x="127.246094"/>
      </g>
     </g>
    </g>
    <g id="xtick_15">
     <g id="line2d_38">
      <g>
       <use xlink:href="#m9a22336d6c" x="950.545164" y="381.20875" style="stroke: #000000; stroke-width: 0.8"/>
      </g>
     </g>
     <g id="text_32">
      <!-- 125 -->
      <g transform="translate(939.092664 397.326875) scale(0.12 -0.12)">
       <use xlink:href="#DejaVuSerif-31"/>
       <use xlink:href="#DejaVuSerif-32" x="63.623047"/>
       <use xlink:href="#DejaVuSerif-35" x="127.246094"/>
      </g>
     </g>
    </g>
    <g id="xtick_16">
     <g id="line2d_39">
      <g>
       <use xlink:href="#m9a22336d6c" x="1009.109484" y="381.20875" style="stroke: #000000; stroke-width: 0.8"/>
      </g>
     </g>
     <g id="text_33">
      <!-- 150 -->
      <g transform="translate(997.656984 397.326875) scale(0.12 -0.12)">
       <use xlink:href="#DejaVuSerif-31"/>
       <use xlink:href="#DejaVuSerif-35" x="63.623047"/>
       <use xlink:href="#DejaVuSerif-30" x="127.246094"/>
      </g>
     </g>
    </g>
    <g id="xtick_17">
     <g id="line2d_40">
      <g>
       <use xlink:href="#m9a22336d6c" x="1067.673805" y="381.20875" style="stroke: #000000; stroke-width: 0.8"/>
      </g>
     </g>
     <g id="text_34">
      <!-- 175 -->
      <g transform="translate(1056.221305 397.326875) scale(0.12 -0.12)">
       <use xlink:href="#DejaVuSerif-31"/>
       <use xlink:href="#DejaVuSerif-37" x="63.623047"/>
       <use xlink:href="#DejaVuSerif-35" x="127.246094"/>
      </g>
     </g>
    </g>
    <g id="xtick_18">
     <g id="line2d_41">
      <g>
       <use xlink:href="#m9a22336d6c" x="1126.238125" y="381.20875" style="stroke: #000000; stroke-width: 0.8"/>
      </g>
     </g>
     <g id="text_35">
      <!-- 200 -->
      <g transform="translate(1114.785625 397.326875) scale(0.12 -0.12)">
       <use xlink:href="#DejaVuSerif-32"/>
       <use xlink:href="#DejaVuSerif-30" x="63.623047"/>
       <use xlink:href="#DejaVuSerif-30" x="127.246094"/>
      </g>
     </g>
    </g>
    <g id="text_36">
     <!-- Epochs -->
     <g transform="translate(859.1275 414.460312) scale(0.14 -0.14)">
      <use xlink:href="#DejaVuSerif-45"/>
      <use xlink:href="#DejaVuSerif-70" x="72.998047"/>
      <use xlink:href="#DejaVuSerif-6f" x="137.011719"/>
      <use xlink:href="#DejaVuSerif-63" x="197.216797"/>
      <use xlink:href="#DejaVuSerif-68" x="253.222656"/>
      <use xlink:href="#DejaVuSerif-73" x="317.626953"/>
     </g>
    </g>
   </g>
   <g id="matplotlib.axis_4">
    <g id="ytick_10">
     <g id="line2d_42">
      <g>
       <use xlink:href="#m3d793e847a" x="643.668125" y="360.276324" style="stroke: #000000; stroke-width: 0.8"/>
      </g>
     </g>
     <g id="text_37">
      <!-- 0.02 -->
      <g transform="translate(609.949375 364.835386) scale(0.12 -0.12)">
       <use xlink:href="#DejaVuSerif-30"/>
       <use xlink:href="#DejaVuSerif-2e" x="63.623047"/>
       <use xlink:href="#DejaVuSerif-30" x="95.410156"/>
       <use xlink:href="#DejaVuSerif-32" x="159.033203"/>
      </g>
     </g>
    </g>
    <g id="ytick_11">
     <g id="line2d_43">
      <g>
       <use xlink:href="#m3d793e847a" x="643.668125" y="318.411471" style="stroke: #000000; stroke-width: 0.8"/>
      </g>
     </g>
     <g id="text_38">
      <!-- 0.04 -->
      <g transform="translate(609.949375 322.970533) scale(0.12 -0.12)">
       <use xlink:href="#DejaVuSerif-30"/>
       <use xlink:href="#DejaVuSerif-2e" x="63.623047"/>
       <use xlink:href="#DejaVuSerif-30" x="95.410156"/>
       <use xlink:href="#DejaVuSerif-34" x="159.033203"/>
      </g>
     </g>
    </g>
    <g id="ytick_12">
     <g id="line2d_44">
      <g>
       <use xlink:href="#m3d793e847a" x="643.668125" y="276.546618" style="stroke: #000000; stroke-width: 0.8"/>
      </g>
     </g>
     <g id="text_39">
      <!-- 0.06 -->
      <g transform="translate(609.949375 281.10568) scale(0.12 -0.12)">
       <use xlink:href="#DejaVuSerif-30"/>
       <use xlink:href="#DejaVuSerif-2e" x="63.623047"/>
       <use xlink:href="#DejaVuSerif-30" x="95.410156"/>
       <use xlink:href="#DejaVuSerif-36" x="159.033203"/>
      </g>
     </g>
    </g>
    <g id="ytick_13">
     <g id="line2d_45">
      <g>
       <use xlink:href="#m3d793e847a" x="643.668125" y="234.681765" style="stroke: #000000; stroke-width: 0.8"/>
      </g>
     </g>
     <g id="text_40">
      <!-- 0.08 -->
      <g transform="translate(609.949375 239.240827) scale(0.12 -0.12)">
       <use xlink:href="#DejaVuSerif-30"/>
       <use xlink:href="#DejaVuSerif-2e" x="63.623047"/>
       <use xlink:href="#DejaVuSerif-30" x="95.410156"/>
       <use xlink:href="#DejaVuSerif-38" x="159.033203"/>
      </g>
     </g>
    </g>
    <g id="ytick_14">
     <g id="line2d_46">
      <g>
       <use xlink:href="#m3d793e847a" x="643.668125" y="192.816912" style="stroke: #000000; stroke-width: 0.8"/>
      </g>
     </g>
     <g id="text_41">
      <!-- 0.10 -->
      <g transform="translate(609.949375 197.375974) scale(0.12 -0.12)">
       <use xlink:href="#DejaVuSerif-30"/>
       <use xlink:href="#DejaVuSerif-2e" x="63.623047"/>
       <use xlink:href="#DejaVuSerif-31" x="95.410156"/>
       <use xlink:href="#DejaVuSerif-30" x="159.033203"/>
      </g>
     </g>
    </g>
    <g id="ytick_15">
     <g id="line2d_47">
      <g>
       <use xlink:href="#m3d793e847a" x="643.668125" y="150.952059" style="stroke: #000000; stroke-width: 0.8"/>
      </g>
     </g>
     <g id="text_42">
      <!-- 0.12 -->
      <g transform="translate(609.949375 155.511121) scale(0.12 -0.12)">
       <use xlink:href="#DejaVuSerif-30"/>
       <use xlink:href="#DejaVuSerif-2e" x="63.623047"/>
       <use xlink:href="#DejaVuSerif-31" x="95.410156"/>
       <use xlink:href="#DejaVuSerif-32" x="159.033203"/>
      </g>
     </g>
    </g>
    <g id="ytick_16">
     <g id="line2d_48">
      <g>
       <use xlink:href="#m3d793e847a" x="643.668125" y="109.087206" style="stroke: #000000; stroke-width: 0.8"/>
      </g>
     </g>
     <g id="text_43">
      <!-- 0.14 -->
      <g transform="translate(609.949375 113.646268) scale(0.12 -0.12)">
       <use xlink:href="#DejaVuSerif-30"/>
       <use xlink:href="#DejaVuSerif-2e" x="63.623047"/>
       <use xlink:href="#DejaVuSerif-31" x="95.410156"/>
       <use xlink:href="#DejaVuSerif-34" x="159.033203"/>
      </g>
     </g>
    </g>
    <g id="ytick_17">
     <g id="line2d_49">
      <g>
       <use xlink:href="#m3d793e847a" x="643.668125" y="67.222353" style="stroke: #000000; stroke-width: 0.8"/>
      </g>
     </g>
     <g id="text_44">
      <!-- 0.16 -->
      <g transform="translate(609.949375 71.781415) scale(0.12 -0.12)">
       <use xlink:href="#DejaVuSerif-30"/>
       <use xlink:href="#DejaVuSerif-2e" x="63.623047"/>
       <use xlink:href="#DejaVuSerif-31" x="95.410156"/>
       <use xlink:href="#DejaVuSerif-36" x="159.033203"/>
      </g>
     </g>
    </g>
    <g id="ytick_18">
     <g id="line2d_50">
      <g>
       <use xlink:href="#m3d793e847a" x="643.668125" y="25.3575" style="stroke: #000000; stroke-width: 0.8"/>
      </g>
     </g>
     <g id="text_45">
      <!-- 0.18 -->
      <g transform="translate(609.949375 29.916562) scale(0.12 -0.12)">
       <use xlink:href="#DejaVuSerif-30"/>
       <use xlink:href="#DejaVuSerif-2e" x="63.623047"/>
       <use xlink:href="#DejaVuSerif-31" x="95.410156"/>
       <use xlink:href="#DejaVuSerif-38" x="159.033203"/>
      </g>
     </g>
    </g>
    <g id="text_46">
     <!-- Loss -->
     <g transform="translate(603.037812 219.329531) rotate(-90) scale(0.14 -0.14)">
      <use xlink:href="#DejaVuSerif-4c"/>
      <use xlink:href="#DejaVuSerif-6f" x="66.40625"/>
      <use xlink:href="#DejaVuSerif-73" x="126.611328"/>
      <use xlink:href="#DejaVuSerif-73" x="177.929688"/>
     </g>
    </g>
   </g>
   <g id="patch_6">
    <path d="M 643.668125 381.20875 
L 643.668125 25.3575 
" style="fill: none; stroke: #000000; stroke-width: 0.8; stroke-linejoin: miter; stroke-linecap: square"/>
   </g>
   <g id="patch_7">
    <path d="M 643.668125 381.20875 
L 1126.238125 381.20875 
" style="fill: none; stroke: #000000; stroke-width: 0.8; stroke-linejoin: miter; stroke-linecap: square"/>
   </g>
   <g id="text_47">
    <!-- Validation Loss Comparison -->
    <g transform="translate(760.155625 19.3575) scale(0.16 -0.16)">
     <defs>
      <path id="DejaVuSerif-Bold-56" d="M 5056 4666 
L 5056 4288 
L 4666 4288 
L 2906 0 
L 2163 0 
L 403 4288 
L -38 4288 
L -38 4666 
L 2150 4666 
L 2150 4288 
L 1697 4288 
L 2956 1197 
L 4225 4288 
L 3669 4288 
L 3669 4666 
L 5056 4666 
z
" transform="scale(0.015625)"/>
      <path id="DejaVuSerif-Bold-6c" d="M 1797 378 
L 2272 378 
L 2272 0 
L 219 0 
L 219 378 
L 691 378 
L 691 4488 
L 219 4488 
L 219 4863 
L 1797 4863 
L 1797 378 
z
" transform="scale(0.015625)"/>
      <path id="DejaVuSerif-Bold-64" d="M 2747 1497 
L 2747 1825 
Q 2747 2406 2597 2665 
Q 2447 2925 2119 2925 
Q 1775 2925 1636 2651 
Q 1497 2378 1497 1663 
Q 1497 947 1637 672 
Q 1778 397 2119 397 
Q 2447 397 2597 656 
Q 2747 916 2747 1497 
z
M 3853 378 
L 4325 378 
L 4325 0 
L 2747 0 
L 2747 422 
Q 2606 163 2367 36 
Q 2128 -91 1778 -91 
Q 1072 -91 667 378 
Q 263 847 263 1663 
Q 263 2481 667 2947 
Q 1072 3413 1778 3413 
Q 2128 3413 2367 3286 
Q 2606 3159 2747 2900 
L 2747 4488 
L 2272 4488 
L 2272 4863 
L 3853 4863 
L 3853 378 
z
" transform="scale(0.015625)"/>
      <path id="DejaVuSerif-Bold-74" d="M 634 2944 
L 153 2944 
L 153 3322 
L 634 3322 
L 634 4353 
L 1741 4353 
L 1741 3322 
L 2663 3322 
L 2663 2944 
L 1741 2944 
L 1741 909 
Q 1741 475 1809 369 
Q 1878 263 2059 263 
Q 2259 263 2356 397 
Q 2453 531 2459 813 
L 2925 813 
Q 2897 313 2651 111 
Q 2406 -91 1806 -91 
Q 1122 -91 878 123 
Q 634 338 634 909 
L 634 2944 
z
" transform="scale(0.015625)"/>
     </defs>
     <use xlink:href="#DejaVuSerif-Bold-56"/>
     <use xlink:href="#DejaVuSerif-Bold-61" x="68.462891"/>
     <use xlink:href="#DejaVuSerif-Bold-6c" x="133.257812"/>
     <use xlink:href="#DejaVuSerif-Bold-69" x="171.246094"/>
     <use xlink:href="#DejaVuSerif-Bold-64" x="209.234375"/>
     <use xlink:href="#DejaVuSerif-Bold-61" x="279.15625"/>
     <use xlink:href="#DejaVuSerif-Bold-74" x="343.951172"/>
     <use xlink:href="#DejaVuSerif-Bold-69" x="390.142578"/>
     <use xlink:href="#DejaVuSerif-Bold-6f" x="428.130859"/>
     <use xlink:href="#DejaVuSerif-Bold-6e" x="494.830078"/>
     <use xlink:href="#DejaVuSerif-Bold-20" x="567.535156"/>
     <use xlink:href="#DejaVuSerif-Bold-4c" x="602.349609"/>
     <use xlink:href="#DejaVuSerif-Bold-6f" x="672.662109"/>
     <use xlink:href="#DejaVuSerif-Bold-73" x="739.361328"/>
     <use xlink:href="#DejaVuSerif-Bold-73" x="795.660156"/>
     <use xlink:href="#DejaVuSerif-Bold-20" x="851.958984"/>
     <use xlink:href="#DejaVuSerif-Bold-43" x="886.773438"/>
     <use xlink:href="#DejaVuSerif-Bold-6f" x="966.363281"/>
     <use xlink:href="#DejaVuSerif-Bold-6d" x="1033.0625"/>
     <use xlink:href="#DejaVuSerif-Bold-70" x="1138.873047"/>
     <use xlink:href="#DejaVuSerif-Bold-61" x="1208.794922"/>
     <use xlink:href="#DejaVuSerif-Bold-72" x="1273.589844"/>
     <use xlink:href="#DejaVuSerif-Bold-69" x="1326.275391"/>
     <use xlink:href="#DejaVuSerif-Bold-73" x="1364.263672"/>
     <use xlink:href="#DejaVuSerif-Bold-6f" x="1420.5625"/>
     <use xlink:href="#DejaVuSerif-Bold-6e" x="1487.261719"/>
    </g>
   </g>
   <g id="legend_2">
    <g id="line2d_51">
     <path d="M 971.235625 41.075625 
L 983.235625 41.075625 
L 995.235625 41.075625 
" style="fill: none; stroke: #a9a9a9; stroke-opacity: 0.8; stroke-width: 1.5; stroke-linecap: square"/>
    </g>
    <g id="text_48">
     <!-- vanilla_RNN -->
     <g transform="translate(1004.835625 45.275625) scale(0.12 -0.12)">
      <use xlink:href="#DejaVuSerif-76"/>
      <use xlink:href="#DejaVuSerif-61" x="56.494141"/>
      <use xlink:href="#DejaVuSerif-6e" x="116.113281"/>
      <use xlink:href="#DejaVuSerif-69" x="180.517578"/>
      <use xlink:href="#DejaVuSerif-6c" x="212.5"/>
      <use xlink:href="#DejaVuSerif-6c" x="244.482422"/>
      <use xlink:href="#DejaVuSerif-61" x="276.464844"/>
      <use xlink:href="#DejaVuSerif-5f" x="336.083984"/>
      <use xlink:href="#DejaVuSerif-52" x="386.083984"/>
      <use xlink:href="#DejaVuSerif-4e" x="461.376953"/>
      <use xlink:href="#DejaVuSerif-4e" x="548.876953"/>
     </g>
    </g>
    <g id="line2d_52">
     <path d="M 971.235625 59.023125 
L 983.235625 59.023125 
L 995.235625 59.023125 
" style="fill: none; stroke: #87ceeb; stroke-opacity: 0.8; stroke-width: 1.5; stroke-linecap: square"/>
    </g>
    <g id="text_49">
     <!-- GRU -->
     <g transform="translate(1004.835625 63.223125) scale(0.12 -0.12)">
      <use xlink:href="#DejaVuSerif-47"/>
      <use xlink:href="#DejaVuSerif-52" x="79.882812"/>
      <use xlink:href="#DejaVuSerif-55" x="155.175781"/>
     </g>
    </g>
    <g id="line2d_53">
     <path d="M 971.235625 76.636875 
L 983.235625 76.636875 
L 995.235625 76.636875 
" style="fill: none; stroke: #98fb98; stroke-opacity: 0.8; stroke-width: 1.5; stroke-linecap: square"/>
    </g>
    <g id="text_50">
     <!-- LSTM -->
     <g transform="translate(1004.835625 80.836875) scale(0.12 -0.12)">
      <use xlink:href="#DejaVuSerif-4c"/>
      <use xlink:href="#DejaVuSerif-53" x="66.40625"/>
      <use xlink:href="#DejaVuSerif-54" x="134.912109"/>
      <use xlink:href="#DejaVuSerif-4d" x="201.611328"/>
     </g>
    </g>
    <g id="line2d_54">
     <path d="M 971.235625 94.250625 
L 983.235625 94.250625 
L 995.235625 94.250625 
" style="fill: none; stroke: #dda0dd; stroke-opacity: 0.8; stroke-width: 1.5; stroke-linecap: square"/>
    </g>
    <g id="text_51">
     <!-- AR_Transformer -->
     <g transform="translate(1004.835625 98.450625) scale(0.12 -0.12)">
      <use xlink:href="#DejaVuSerif-41"/>
      <use xlink:href="#DejaVuSerif-52" x="72.216797"/>
      <use xlink:href="#DejaVuSerif-5f" x="147.509766"/>
      <use xlink:href="#DejaVuSerif-54" x="197.509766"/>
      <use xlink:href="#DejaVuSerif-72" x="264.208984"/>
      <use xlink:href="#DejaVuSerif-61" x="312.011719"/>
      <use xlink:href="#DejaVuSerif-6e" x="371.630859"/>
      <use xlink:href="#DejaVuSerif-73" x="436.035156"/>
      <use xlink:href="#DejaVuSerif-66" x="487.353516"/>
      <use xlink:href="#DejaVuSerif-6f" x="524.365234"/>
      <use xlink:href="#DejaVuSerif-72" x="584.570312"/>
      <use xlink:href="#DejaVuSerif-6d" x="632.373047"/>
      <use xlink:href="#DejaVuSerif-65" x="727.197266"/>
      <use xlink:href="#DejaVuSerif-72" x="786.376953"/>
     </g>
    </g>
    <g id="line2d_55">
     <path d="M 971.235625 112.198125 
L 983.235625 112.198125 
L 995.235625 112.198125 
" style="fill: none; stroke: #e63946; stroke-width: 3; stroke-linecap: square"/>
    </g>
    <g id="text_52">
     <!-- NAR_Transformer -->
     <g transform="translate(1004.835625 116.398125) scale(0.12 -0.12)">
      <use xlink:href="#DejaVuSerif-4e"/>
      <use xlink:href="#DejaVuSerif-41" x="87.5"/>
      <use xlink:href="#DejaVuSerif-52" x="159.716797"/>
      <use xlink:href="#DejaVuSerif-5f" x="235.009766"/>
      <use xlink:href="#DejaVuSerif-54" x="285.009766"/>
      <use xlink:href="#DejaVuSerif-72" x="351.708984"/>
      <use xlink:href="#DejaVuSerif-61" x="399.511719"/>
      <use xlink:href="#DejaVuSerif-6e" x="459.130859"/>
      <use xlink:href="#DejaVuSerif-73" x="523.535156"/>
      <use xlink:href="#DejaVuSerif-66" x="574.853516"/>
      <use xlink:href="#DejaVuSerif-6f" x="611.865234"/>
      <use xlink:href="#DejaVuSerif-72" x="672.070312"/>
      <use xlink:href="#DejaVuSerif-6d" x="719.873047"/>
      <use xlink:href="#DejaVuSerif-65" x="814.697266"/>
      <use xlink:href="#DejaVuSerif-72" x="873.876953"/>
     </g>
    </g>
   </g>
   <g id="line2d_56">
    <path d="M 660.066135 181.39618 
L 662.408708 212.451528 
L 664.75128 217.697194 
L 667.093853 219.736012 
L 669.436426 223.855514 
L 671.778999 236.360545 
L 674.121572 234.662926 
L 676.464144 226.645806 
L 678.806717 231.25722 
L 681.14929 233.857027 
L 683.491863 237.235521 
L 685.834436 240.812872 
L 688.177008 243.259873 
L 690.519581 244.869577 
L 692.862154 250.893929 
L 695.204727 245.570813 
L 697.5473 243.379188 
L 699.889873 251.224661 
L 702.232445 242.659112 
L 704.575018 254.659673 
L 706.917591 255.630937 
L 709.260164 250.657393 
L 711.602737 250.634367 
L 713.945309 254.178227 
L 716.287882 257.242734 
L 718.630455 255.990975 
L 720.973028 259.595539 
L 723.315601 260.742636 
L 725.658174 259.367375 
L 728.000746 263.19173 
L 730.343319 250.152921 
L 732.685892 260.889163 
L 735.028465 265.856427 
L 737.371038 266.754429 
L 739.71361 265.056809 
L 742.056183 268.075265 
L 744.398756 266.425789 
L 746.741329 269.327024 
L 749.083902 266.894676 
L 753.769047 271.617031 
L 756.11162 271.026737 
L 758.454193 273.672595 
L 760.796766 274.859464 
L 763.139339 274.239864 
L 765.481911 276.368692 
L 767.824484 274.94738 
L 770.167057 274.972499 
L 772.50963 277.683248 
L 774.852203 274.945287 
L 777.194775 276.647093 
L 779.537348 276.519405 
L 781.879921 279.045949 
L 784.222494 278.514266 
L 786.565067 277.56812 
L 788.90764 279.776491 
L 791.250212 280.069545 
L 793.592785 281.237574 
L 795.935358 279.929298 
L 800.620504 279.964883 
L 802.963076 280.297708 
L 805.305649 280.237004 
L 807.648222 243.058922 
L 809.990795 249.931037 
L 812.333368 250.676232 
L 814.675941 255.848634 
L 817.018513 253.929131 
L 819.361086 248.321334 
L 821.703659 248.526472 
L 824.046232 257.41438 
L 826.388805 251.073948 
L 828.731377 256.510099 
L 831.07395 254.598968 
L 833.416523 257.619518 
L 835.759096 261.378981 
L 838.101669 259.991162 
L 840.444242 258.850344 
L 842.786814 256.819899 
L 845.129387 253.889359 
L 847.47196 259.469944 
L 849.814533 253.022757 
L 852.157106 260.483074 
L 854.499678 262.348153 
L 856.842251 259.633217 
L 859.184824 267.679642 
L 861.527397 258.285169 
L 863.86997 267.367749 
L 866.212542 262.245584 
L 868.555115 258.94454 
L 870.897688 266.494866 
L 873.240261 267.275646 
L 875.582834 260.426556 
L 877.925407 267.675455 
L 880.267979 267.930831 
L 882.610552 268.661373 
L 884.953125 264.26975 
L 887.295698 267.635684 
L 889.638271 269.243294 
L 891.980843 268.510659 
L 894.323416 264.332547 
L 896.665989 270.009421 
L 899.008562 266.566037 
L 901.351135 266.976312 
L 903.693708 263.696201 
L 906.03628 265.758045 
L 908.378853 264.137875 
L 910.721426 271.696574 
L 913.063999 266.796293 
L 917.749144 272.615508 
L 920.091717 271.761465 
L 922.43429 273.787724 
L 924.776863 268.665559 
L 927.119436 269.607518 
L 929.462008 272.667839 
L 931.804581 270.633207 
L 934.147154 270.210372 
L 936.489727 274.895049 
L 938.8323 271.824262 
L 941.174873 274.445002 
L 943.517445 275.359749 
L 945.860018 270.995338 
L 948.202591 275.064602 
L 950.545164 273.817029 
L 952.887737 271.656803 
L 955.230309 275.864221 
L 957.572882 273.078115 
L 959.915455 273.867267 
L 962.258028 273.992862 
L 964.600601 276.531965 
L 966.943174 274.300568 
L 969.285746 278.888956 
L 971.628319 277.344143 
L 973.970892 276.952707 
L 976.313465 277.19343 
L 980.99861 281.18943 
L 983.341183 274.717124 
L 985.683756 278.985245 
L 988.026329 280.18258 
L 990.368902 280.103037 
L 992.711475 278.600089 
L 995.054047 281.754605 
L 997.39662 280.787527 
L 999.739193 280.010934 
L 1002.081766 279.826729 
L 1004.424339 281.986955 
L 1006.766911 282.48724 
L 1009.109484 280.364692 
L 1011.452057 281.997421 
L 1013.79463 284.892376 
L 1016.137203 284.754222 
L 1018.479775 284.218352 
L 1020.822348 284.827486 
L 1023.164921 283.921111 
L 1025.507494 282.587716 
L 1027.850067 286.374392 
L 1030.19264 286.022727 
L 1032.535212 286.772108 
L 1037.220358 285.26288 
L 1039.562931 285.093327 
L 1041.905504 286.993992 
L 1044.248076 288.224818 
L 1046.590649 287.048416 
L 1048.933222 288.557644 
L 1051.275795 287.766398 
L 1053.618368 289.246321 
L 1055.960941 288.34832 
L 1058.303513 290.029194 
L 1062.988659 288.628814 
L 1065.331232 289.830335 
L 1067.673805 290.600649 
L 1072.35895 290.056406 
L 1074.701523 290.895796 
L 1077.044096 289.65869 
L 1079.386669 290.87905 
L 1081.729242 290.362019 
L 1084.071814 290.548318 
L 1086.414387 290.355739 
L 1088.75696 290.751362 
L 1091.099533 290.506453 
L 1093.442106 290.941847 
L 1095.784678 291.046509 
L 1098.127251 290.753455 
L 1100.469824 291.251647 
L 1102.812397 291.197223 
L 1105.15497 290.933474 
L 1107.497542 262.921701 
L 1107.497542 262.921701 
" clip-path="url(#pf87bd566fb)" style="fill: none; stroke: #e63946; stroke-width: 3; stroke-linecap: square"/>
   </g>
  </g>
 </g>
 <defs>
  <clipPath id="pa9d13c06ec">
   <rect x="58.468125" y="25.3575" width="482.57" height="355.85125"/>
  </clipPath>
  <clipPath id="pf87bd566fb">
   <rect x="643.668125" y="25.3575" width="482.57" height="355.85125"/>
  </clipPath>
 </defs>
</svg>
