<?xml version="1.0" encoding="utf-8" standalone="no"?>
<!DOCTYPE svg PUBLIC "-//W3C//DTD SVG 1.1//EN"
  "http://www.w3.org/Graphics/SVG/1.1/DTD/svg11.dtd">
<svg xmlns:xlink="http://www.w3.org/1999/xlink" width="617.279375pt" height="395.969687pt" viewBox="0 0 617.279375 395.969687" xmlns="http://www.w3.org/2000/svg" version="1.1">
 <metadata>
  <rdf:RDF xmlns:dc="http://purl.org/dc/elements/1.1/" xmlns:cc="http://creativecommons.org/ns#" xmlns:rdf="http://www.w3.org/1999/02/22-rdf-syntax-ns#">
   <cc:Work>
    <dc:type rdf:resource="http://purl.org/dc/dcmitype/StillImage"/>
    <dc:date>2026-03-17T12:52:07.333055</dc:date>
    <dc:format>image/svg+xml</dc:format>
    <dc:creator>
     <cc:Agent>
      <dc:title>Matplotlib v3.9.0, https://matplotlib.org/</dc:title>
     </cc:Agent>
    </dc:creator>
   </cc:Work>
  </rdf:RDF>
 </metadata>
 <defs>
  <style type="text/css">*{stroke-linejoin: round; stroke-linecap: butt}</style>
 </defs>
 <g id="figure_1">
  <g id="patch_1">
   <path d="M 0 395.969687 
L 617.279375 395.969687 
L 617.279375 0 
L 0 0 
z
" style="fill: #ffffff"/>
  </g>
  <g id="axes_1">
   <g id="patch_2">
    <path d="M 52.079375 356.477812 
L 610.079375 356.477812 
L 610.079375 23.837812 
L 52.079375 23.837812 
z
" style="fill: #ffffff"/>
   </g>
   <g id="matplotlib.axis_1">
    <g id="xtick_1">
     <g id="line2d_1">
      <path d="M 77.443011 356.477812 
L 77.443011 23.837812 
" clip-path="url(#pf65abd2348)" style="fill: none; stroke: #b0b0b0; stroke-opacity: 0.3; stroke-width: 0.8; stroke-linecap: square"/>
     </g>
     <g id="line2d_2">
      <defs>
       <path id="mf07bd83817" d="M 0 0 
L 0 3.5 
" style="stroke: #000000; stroke-width: 0.8"/>
      </defs>
      <g>
       <use xlink:href="#mf07bd83817" x="77.443011" y="356.477812" style="stroke: #000000; stroke-width: 0.8"/>
      </g>
     </g>
     <g id="text_1">
      <!-- 0 -->
      <g transform="translate(74.261761 371.07625) scale(0.1 -0.1)">
       <defs>
        <path id="DejaVuSans-30" d="M 2034 4250 
Q 1547 4250 1301 3770 
Q 1056 3291 1056 2328 
Q 1056 1369 1301 889 
Q 1547 409 2034 409 
Q 2525 409 2770 889 
Q 3016 1369 3016 2328 
Q 3016 3291 2770 3770 
Q 2525 4250 2034 4250 
z
M 2034 4750 
Q 2819 4750 3233 4129 
Q 3647 3509 3647 2328 
Q 3647 1150 3233 529 
Q 2819 -91 2034 -91 
Q 1250 -91 836 529 
Q 422 1150 422 2328 
Q 422 3509 836 4129 
Q 1250 4750 2034 4750 
z
" transform="scale(0.015625)"/>
       </defs>
       <use xlink:href="#DejaVuSans-30"/>
      </g>
     </g>
    </g>
    <g id="xtick_2">
     <g id="line2d_3">
      <path d="M 153.610088 356.477812 
L 153.610088 23.837812 
" clip-path="url(#pf65abd2348)" style="fill: none; stroke: #b0b0b0; stroke-opacity: 0.3; stroke-width: 0.8; stroke-linecap: square"/>
     </g>
     <g id="line2d_4">
      <g>
       <use xlink:href="#mf07bd83817" x="153.610088" y="356.477812" style="stroke: #000000; stroke-width: 0.8"/>
      </g>
     </g>
     <g id="text_2">
      <!-- 50 -->
      <g transform="translate(147.247588 371.07625) scale(0.1 -0.1)">
       <defs>
        <path id="DejaVuSans-35" d="M 691 4666 
L 3169 4666 
L 3169 4134 
L 1269 4134 
L 1269 2991 
Q 1406 3038 1543 3061 
Q 1681 3084 1819 3084 
Q 2600 3084 3056 2656 
Q 3513 2228 3513 1497 
Q 3513 744 3044 326 
Q 2575 -91 1722 -91 
Q 1428 -91 1123 -41 
Q 819 9 494 109 
L 494 744 
Q 775 591 1075 516 
Q 1375 441 1709 441 
Q 2250 441 2565 725 
Q 2881 1009 2881 1497 
Q 2881 1984 2565 2268 
Q 2250 2553 1709 2553 
Q 1456 2553 1204 2497 
Q 953 2441 691 2322 
L 691 4666 
z
" transform="scale(0.015625)"/>
       </defs>
       <use xlink:href="#DejaVuSans-35"/>
       <use xlink:href="#DejaVuSans-30" x="63.623047"/>
      </g>
     </g>
    </g>
    <g id="xtick_3">
     <g id="line2d_5">
      <path d="M 229.777164 356.477812 
L 229.777164 23.837812 
" clip-path="url(#pf65abd2348)" style="fill: none; stroke: #b0b0b0; stroke-opacity: 0.3; stroke-width: 0.8; stroke-linecap: square"/>
     </g>
     <g id="line2d_6">
      <g>
       <use xlink:href="#mf07bd83817" x="229.777164" y="356.477812" style="stroke: #000000; stroke-width: 0.8"/>
      </g>
     </g>
     <g id="text_3">
      <!-- 100 -->
      <g transform="translate(220.233414 371.07625) scale(0.1 -0.1)">
       <defs>
        <path id="DejaVuSans-31" d="M 794 531 
L 1825 531 
L 1825 4091 
L 703 3866 
L 703 4441 
L 1819 4666 
L 2450 4666 
L 2450 531 
L 3481 531 
L 3481 0 
L 794 0 
L 794 531 
z
" transform="scale(0.015625)"/>
       </defs>
       <use xlink:href="#DejaVuSans-31"/>
       <use xlink:href="#DejaVuSans-30" x="63.623047"/>
       <use xlink:href="#DejaVuSans-30" x="127.246094"/>
      </g>
     </g>
    </g>
    <g id="xtick_4">
     <g id="line2d_7">
      <path d="M 305.94424 356.477812 
L 305.94424 23.837812 
" clip-path="url(#pf65abd2348)" style="fill: none; stroke: #b0b0b0; stroke-opacity: 0.3; stroke-width: 0.8; stroke-linecap: square"/>
     </g>
     <g id="line2d_8">
      <g>
       <use xlink:href="#mf07bd83817" x="305.94424" y="356.477812" style="stroke: #000000; stroke-width: 0.8"/>
      </g>
     </g>
     <g id="text_4">
      <!-- 150 -->
      <g transform="translate(296.40049 371.07625) scale(0.1 -0.1)">
       <use xlink:href="#DejaVuSans-31"/>
       <use xlink:href="#DejaVuSans-35" x="63.623047"/>
       <use xlink:href="#DejaVuSans-30" x="127.246094"/>
      </g>
     </g>
    </g>
    <g id="xtick_5">
     <g id="line2d_9">
      <path d="M 382.111316 356.477812 
L 382.111316 23.837812 
" clip-path="url(#pf65abd2348)" style="fill: none; stroke: #b0b0b0; stroke-opacity: 0.3; stroke-width: 0.8; stroke-linecap: square"/>
     </g>
     <g id="line2d_10">
      <g>
       <use xlink:href="#mf07bd83817" x="382.111316" y="356.477812" style="stroke: #000000; stroke-width: 0.8"/>
      </g>
     </g>
     <g id="text_5">
      <!-- 200 -->
      <g transform="translate(372.567566 371.07625) scale(0.1 -0.1)">
       <defs>
        <path id="DejaVuSans-32" d="M 1228 531 
L 3431 531 
L 3431 0 
L 469 0 
L 469 531 
Q 828 903 1448 1529 
Q 2069 2156 2228 2338 
Q 2531 2678 2651 2914 
Q 2772 3150 2772 3378 
Q 2772 3750 2511 3984 
Q 2250 4219 1831 4219 
Q 1534 4219 1204 4116 
Q 875 4013 500 3803 
L 500 4441 
Q 881 4594 1212 4672 
Q 1544 4750 1819 4750 
Q 2544 4750 2975 4387 
Q 3406 4025 3406 3419 
Q 3406 3131 3298 2873 
Q 3191 2616 2906 2266 
Q 2828 2175 2409 1742 
Q 1991 1309 1228 531 
z
" transform="scale(0.015625)"/>
       </defs>
       <use xlink:href="#DejaVuSans-32"/>
       <use xlink:href="#DejaVuSans-30" x="63.623047"/>
       <use xlink:href="#DejaVuSans-30" x="127.246094"/>
      </g>
     </g>
    </g>
    <g id="xtick_6">
     <g id="line2d_11">
      <path d="M 458.278392 356.477812 
L 458.278392 23.837812 
" clip-path="url(#pf65abd2348)" style="fill: none; stroke: #b0b0b0; stroke-opacity: 0.3; stroke-width: 0.8; stroke-linecap: square"/>
     </g>
     <g id="line2d_12">
      <g>
       <use xlink:href="#mf07bd83817" x="458.278392" y="356.477812" style="stroke: #000000; stroke-width: 0.8"/>
      </g>
     </g>
     <g id="text_6">
      <!-- 250 -->
      <g transform="translate(448.734642 371.07625) scale(0.1 -0.1)">
       <use xlink:href="#DejaVuSans-32"/>
       <use xlink:href="#DejaVuSans-35" x="63.623047"/>
       <use xlink:href="#DejaVuSans-30" x="127.246094"/>
      </g>
     </g>
    </g>
    <g id="xtick_7">
     <g id="line2d_13">
      <path d="M 534.445468 356.477812 
L 534.445468 23.837812 
" clip-path="url(#pf65abd2348)" style="fill: none; stroke: #b0b0b0; stroke-opacity: 0.3; stroke-width: 0.8; stroke-linecap: square"/>
     </g>
     <g id="line2d_14">
      <g>
       <use xlink:href="#mf07bd83817" x="534.445468" y="356.477812" style="stroke: #000000; stroke-width: 0.8"/>
      </g>
     </g>
     <g id="text_7">
      <!-- 300 -->
      <g transform="translate(524.901718 371.07625) scale(0.1 -0.1)">
       <defs>
        <path id="DejaVuSans-33" d="M 2597 2516 
Q 3050 2419 3304 2112 
Q 3559 1806 3559 1356 
Q 3559 666 3084 287 
Q 2609 -91 1734 -91 
Q 1441 -91 1130 -33 
Q 819 25 488 141 
L 488 750 
Q 750 597 1062 519 
Q 1375 441 1716 441 
Q 2309 441 2620 675 
Q 2931 909 2931 1356 
Q 2931 1769 2642 2001 
Q 2353 2234 1838 2234 
L 1294 2234 
L 1294 2753 
L 1863 2753 
Q 2328 2753 2575 2939 
Q 2822 3125 2822 3475 
Q 2822 3834 2567 4026 
Q 2313 4219 1838 4219 
Q 1578 4219 1281 4162 
Q 984 4106 628 3988 
L 628 4550 
Q 988 4650 1302 4700 
Q 1616 4750 1894 4750 
Q 2613 4750 3031 4423 
Q 3450 4097 3450 3541 
Q 3450 3153 3228 2886 
Q 3006 2619 2597 2516 
z
" transform="scale(0.015625)"/>
       </defs>
       <use xlink:href="#DejaVuSans-33"/>
       <use xlink:href="#DejaVuSans-30" x="63.623047"/>
       <use xlink:href="#DejaVuSans-30" x="127.246094"/>
      </g>
     </g>
    </g>
    <g id="text_8">
     <!-- Epoch -->
     <g transform="translate(312.70625 386.274062) scale(0.12 -0.12)">
      <defs>
       <path id="DejaVuSans-45" d="M 628 4666 
L 3578 4666 
L 3578 4134 
L 1259 4134 
L 1259 2753 
L 3481 2753 
L 3481 2222 
L 1259 2222 
L 1259 531 
L 3634 531 
L 3634 0 
L 628 0 
L 628 4666 
z
" transform="scale(0.015625)"/>
       <path id="DejaVuSans-70" d="M 1159 525 
L 1159 -1331 
L 581 -1331 
L 581 3500 
L 1159 3500 
L 1159 2969 
Q 1341 3281 1617 3432 
Q 1894 3584 2278 3584 
Q 2916 3584 3314 3078 
Q 3713 2572 3713 1747 
Q 3713 922 3314 415 
Q 2916 -91 2278 -91 
Q 1894 -91 1617 61 
Q 1341 213 1159 525 
z
M 3116 1747 
Q 3116 2381 2855 2742 
Q 2594 3103 2138 3103 
Q 1681 3103 1420 2742 
Q 1159 2381 1159 1747 
Q 1159 1113 1420 752 
Q 1681 391 2138 391 
Q 2594 391 2855 752 
Q 3116 1113 3116 1747 
z
" transform="scale(0.015625)"/>
       <path id="DejaVuSans-6f" d="M 1959 3097 
Q 1497 3097 1228 2736 
Q 959 2375 959 1747 
Q 959 1119 1226 758 
Q 1494 397 1959 397 
Q 2419 397 2687 759 
Q 2956 1122 2956 1747 
Q 2956 2369 2687 2733 
Q 2419 3097 1959 3097 
z
M 1959 3584 
Q 2709 3584 3137 3096 
Q 3566 2609 3566 1747 
Q 3566 888 3137 398 
Q 2709 -91 1959 -91 
Q 1206 -91 779 398 
Q 353 888 353 1747 
Q 353 2609 779 3096 
Q 1206 3584 1959 3584 
z
" transform="scale(0.015625)"/>
       <path id="DejaVuSans-63" d="M 3122 3366 
L 3122 2828 
Q 2878 2963 2633 3030 
Q 2388 3097 2138 3097 
Q 1578 3097 1268 2742 
Q 959 2388 959 1747 
Q 959 1106 1268 751 
Q 1578 397 2138 397 
Q 2388 397 2633 464 
Q 2878 531 3122 666 
L 3122 134 
Q 2881 22 2623 -34 
Q 2366 -91 2075 -91 
Q 1284 -91 818 406 
Q 353 903 353 1747 
Q 353 2603 823 3093 
Q 1294 3584 2113 3584 
Q 2378 3584 2631 3529 
Q 2884 3475 3122 3366 
z
" transform="scale(0.015625)"/>
       <path id="DejaVuSans-68" d="M 3513 2113 
L 3513 0 
L 2938 0 
L 2938 2094 
Q 2938 2591 2744 2837 
Q 2550 3084 2163 3084 
Q 1697 3084 1428 2787 
Q 1159 2491 1159 1978 
L 1159 0 
L 581 0 
L 581 4863 
L 1159 4863 
L 1159 2956 
Q 1366 3272 1645 3428 
Q 1925 3584 2291 3584 
Q 2894 3584 3203 3211 
Q 3513 2838 3513 2113 
z
" transform="scale(0.015625)"/>
      </defs>
      <use xlink:href="#DejaVuSans-45"/>
      <use xlink:href="#DejaVuSans-70" x="63.183594"/>
      <use xlink:href="#DejaVuSans-6f" x="126.660156"/>
      <use xlink:href="#DejaVuSans-63" x="187.841797"/>
      <use xlink:href="#DejaVuSans-68" x="242.822266"/>
     </g>
    </g>
   </g>
   <g id="matplotlib.axis_2">
    <g id="ytick_1">
     <g id="line2d_15">
      <path d="M 52.079375 305.792988 
L 610.079375 305.792988 
" clip-path="url(#pf65abd2348)" style="fill: none; stroke: #b0b0b0; stroke-opacity: 0.3; stroke-width: 0.8; stroke-linecap: square"/>
     </g>
     <g id="line2d_16">
      <defs>
       <path id="m0711e20521" d="M 0 0 
L -3.5 0 
" style="stroke: #000000; stroke-width: 0.8"/>
      </defs>
      <g>
       <use xlink:href="#m0711e20521" x="52.079375" y="305.792988" style="stroke: #000000; stroke-width: 0.8"/>
      </g>
     </g>
     <g id="text_9">
      <!-- 0.06 -->
      <g transform="translate(22.81375 309.592206) scale(0.1 -0.1)">
       <defs>
        <path id="DejaVuSans-2e" d="M 684 794 
L 1344 794 
L 1344 0 
L 684 0 
L 684 794 
z
" transform="scale(0.015625)"/>
        <path id="DejaVuSans-36" d="M 2113 2584 
Q 1688 2584 1439 2293 
Q 1191 2003 1191 1497 
Q 1191 994 1439 701 
Q 1688 409 2113 409 
Q 2538 409 2786 701 
Q 3034 994 3034 1497 
Q 3034 2003 2786 2293 
Q 2538 2584 2113 2584 
z
M 3366 4563 
L 3366 3988 
Q 3128 4100 2886 4159 
Q 2644 4219 2406 4219 
Q 1781 4219 1451 3797 
Q 1122 3375 1075 2522 
Q 1259 2794 1537 2939 
Q 1816 3084 2150 3084 
Q 2853 3084 3261 2657 
Q 3669 2231 3669 1497 
Q 3669 778 3244 343 
Q 2819 -91 2113 -91 
Q 1303 -91 875 529 
Q 447 1150 447 2328 
Q 447 3434 972 4092 
Q 1497 4750 2381 4750 
Q 2619 4750 2861 4703 
Q 3103 4656 3366 4563 
z
" transform="scale(0.015625)"/>
       </defs>
       <use xlink:href="#DejaVuSans-30"/>
       <use xlink:href="#DejaVuSans-2e" x="63.623047"/>
       <use xlink:href="#DejaVuSans-30" x="95.410156"/>
       <use xlink:href="#DejaVuSans-36" x="159.033203"/>
      </g>
     </g>
    </g>
    <g id="ytick_2">
     <g id="line2d_17">
      <path d="M 52.079375 241.275052 
L 610.079375 241.275052 
" clip-path="url(#pf65abd2348)" style="fill: none; stroke: #b0b0b0; stroke-opacity: 0.3; stroke-width: 0.8; stroke-linecap: square"/>
     </g>
     <g id="line2d_18">
      <g>
       <use xlink:href="#m0711e20521" x="52.079375" y="241.275052" style="stroke: #000000; stroke-width: 0.8"/>
      </g>
     </g>
     <g id="text_10">
      <!-- 0.08 -->
      <g transform="translate(22.81375 245.074271) scale(0.1 -0.1)">
       <defs>
        <path id="DejaVuSans-38" d="M 2034 2216 
Q 1584 2216 1326 1975 
Q 1069 1734 1069 1313 
Q 1069 891 1326 650 
Q 1584 409 2034 409 
Q 2484 409 2743 651 
Q 3003 894 3003 1313 
Q 3003 1734 2745 1975 
Q 2488 2216 2034 2216 
z
M 1403 2484 
Q 997 2584 770 2862 
Q 544 3141 544 3541 
Q 544 4100 942 4425 
Q 1341 4750 2034 4750 
Q 2731 4750 3128 4425 
Q 3525 4100 3525 3541 
Q 3525 3141 3298 2862 
Q 3072 2584 2669 2484 
Q 3125 2378 3379 2068 
Q 3634 1759 3634 1313 
Q 3634 634 3220 271 
Q 2806 -91 2034 -91 
Q 1263 -91 848 271 
Q 434 634 434 1313 
Q 434 1759 690 2068 
Q 947 2378 1403 2484 
z
M 1172 3481 
Q 1172 3119 1398 2916 
Q 1625 2713 2034 2713 
Q 2441 2713 2670 2916 
Q 2900 3119 2900 3481 
Q 2900 3844 2670 4047 
Q 2441 4250 2034 4250 
Q 1625 4250 1398 4047 
Q 1172 3844 1172 3481 
z
" transform="scale(0.015625)"/>
       </defs>
       <use xlink:href="#DejaVuSans-30"/>
       <use xlink:href="#DejaVuSans-2e" x="63.623047"/>
       <use xlink:href="#DejaVuSans-30" x="95.410156"/>
       <use xlink:href="#DejaVuSans-38" x="159.033203"/>
      </g>
     </g>
    </g>
    <g id="ytick_3">
     <g id="line2d_19">
      <path d="M 52.079375 176.757117 
L 610.079375 176.757117 
" clip-path="url(#pf65abd2348)" style="fill: none; stroke: #b0b0b0; stroke-opacity: 0.3; stroke-width: 0.8; stroke-linecap: square"/>
     </g>
     <g id="line2d_20">
      <g>
       <use xlink:href="#m0711e20521" x="52.079375" y="176.757117" style="stroke: #000000; stroke-width: 0.8"/>
      </g>
     </g>
     <g id="text_11">
      <!-- 0.10 -->
      <g transform="translate(22.81375 180.556336) scale(0.1 -0.1)">
       <use xlink:href="#DejaVuSans-30"/>
       <use xlink:href="#DejaVuSans-2e" x="63.623047"/>
       <use xlink:href="#DejaVuSans-31" x="95.410156"/>
       <use xlink:href="#DejaVuSans-30" x="159.033203"/>
      </g>
     </g>
    </g>
    <g id="ytick_4">
     <g id="line2d_21">
      <path d="M 52.079375 112.239182 
L 610.079375 112.239182 
" clip-path="url(#pf65abd2348)" style="fill: none; stroke: #b0b0b0; stroke-opacity: 0.3; stroke-width: 0.8; stroke-linecap: square"/>
     </g>
     <g id="line2d_22">
      <g>
       <use xlink:href="#m0711e20521" x="52.079375" y="112.239182" style="stroke: #000000; stroke-width: 0.8"/>
      </g>
     </g>
     <g id="text_12">
      <!-- 0.12 -->
      <g transform="translate(22.81375 116.038401) scale(0.1 -0.1)">
       <use xlink:href="#DejaVuSans-30"/>
       <use xlink:href="#DejaVuSans-2e" x="63.623047"/>
       <use xlink:href="#DejaVuSans-31" x="95.410156"/>
       <use xlink:href="#DejaVuSans-32" x="159.033203"/>
      </g>
     </g>
    </g>
    <g id="ytick_5">
     <g id="line2d_23">
      <path d="M 52.079375 47.721247 
L 610.079375 47.721247 
" clip-path="url(#pf65abd2348)" style="fill: none; stroke: #b0b0b0; stroke-opacity: 0.3; stroke-width: 0.8; stroke-linecap: square"/>
     </g>
     <g id="line2d_24">
      <g>
       <use xlink:href="#m0711e20521" x="52.079375" y="47.721247" style="stroke: #000000; stroke-width: 0.8"/>
      </g>
     </g>
     <g id="text_13">
      <!-- 0.14 -->
      <g transform="translate(22.81375 51.520465) scale(0.1 -0.1)">
       <defs>
        <path id="DejaVuSans-34" d="M 2419 4116 
L 825 1625 
L 2419 1625 
L 2419 4116 
z
M 2253 4666 
L 3047 4666 
L 3047 1625 
L 3713 1625 
L 3713 1100 
L 3047 1100 
L 3047 0 
L 2419 0 
L 2419 1100 
L 313 1100 
L 313 1709 
L 2253 4666 
z
" transform="scale(0.015625)"/>
       </defs>
       <use xlink:href="#DejaVuSans-30"/>
       <use xlink:href="#DejaVuSans-2e" x="63.623047"/>
       <use xlink:href="#DejaVuSans-31" x="95.410156"/>
       <use xlink:href="#DejaVuSans-34" x="159.033203"/>
      </g>
     </g>
    </g>
    <g id="text_14">
     <!-- Loss -->
     <g transform="translate(16.318125 203.318437) rotate(-90) scale(0.12 -0.12)">
      <defs>
       <path id="DejaVuSans-4c" d="M 628 4666 
L 1259 4666 
L 1259 531 
L 3531 531 
L 3531 0 
L 628 0 
L 628 4666 
z
" transform="scale(0.015625)"/>
       <path id="DejaVuSans-73" d="M 2834 3397 
L 2834 2853 
Q 2591 2978 2328 3040 
Q 2066 3103 1784 3103 
Q 1356 3103 1142 2972 
Q 928 2841 928 2578 
Q 928 2378 1081 2264 
Q 1234 2150 1697 2047 
L 1894 2003 
Q 2506 1872 2764 1633 
Q 3022 1394 3022 966 
Q 3022 478 2636 193 
Q 2250 -91 1575 -91 
Q 1294 -91 989 -36 
Q 684 19 347 128 
L 347 722 
Q 666 556 975 473 
Q 1284 391 1588 391 
Q 1994 391 2212 530 
Q 2431 669 2431 922 
Q 2431 1156 2273 1281 
Q 2116 1406 1581 1522 
L 1381 1569 
Q 847 1681 609 1914 
Q 372 2147 372 2553 
Q 372 3047 722 3315 
Q 1072 3584 1716 3584 
Q 2034 3584 2315 3537 
Q 2597 3491 2834 3397 
z
" transform="scale(0.015625)"/>
      </defs>
      <use xlink:href="#DejaVuSans-4c"/>
      <use xlink:href="#DejaVuSans-6f" x="53.962891"/>
      <use xlink:href="#DejaVuSans-73" x="115.144531"/>
      <use xlink:href="#DejaVuSans-73" x="167.244141"/>
     </g>
    </g>
   </g>
   <g id="line2d_25">
    <path d="M 77.443011 38.957812 
L 78.966353 160.768862 
L 80.489694 191.559568 
L 82.013036 207.337045 
L 83.536377 217.278034 
L 85.059719 224.675256 
L 86.583061 230.075448 
L 88.106402 234.167754 
L 89.629744 237.868552 
L 92.676427 243.326563 
L 94.199768 245.565764 
L 97.246451 249.719986 
L 98.769793 251.135251 
L 100.293134 252.827159 
L 101.816476 254.335072 
L 104.863159 256.846379 
L 109.433183 260.621227 
L 110.956525 261.44969 
L 112.479866 262.609717 
L 114.003208 263.528353 
L 115.526549 264.193005 
L 118.573232 266.02403 
L 120.096574 266.745675 
L 121.619916 267.750127 
L 123.143257 268.204807 
L 127.713282 270.082071 
L 129.236623 271.069835 
L 130.759965 271.564214 
L 132.283306 272.241253 
L 133.806648 272.728535 
L 135.329989 273.483595 
L 139.900014 274.834824 
L 142.946697 276.17325 
L 144.470038 276.377882 
L 145.99338 276.796692 
L 147.516721 277.491384 
L 149.040063 277.908784 
L 150.563404 278.445679 
L 153.610088 279.253857 
L 156.656771 280.381156 
L 158.180112 280.808806 
L 162.750137 281.820297 
L 168.843503 283.54222 
L 173.413527 284.51859 
L 174.936869 284.674734 
L 176.46021 285.370762 
L 179.506893 285.99317 
L 181.030235 286.506534 
L 182.553576 286.730133 
L 188.646943 288.131201 
L 191.693626 288.642879 
L 193.216967 289.114166 
L 197.786992 289.956238 
L 199.310333 290.387239 
L 200.833675 290.424888 
L 202.357016 290.96105 
L 203.880358 290.964189 
L 206.927041 291.66069 
L 208.450382 291.799942 
L 209.973724 292.217123 
L 211.497065 292.418069 
L 213.020407 292.898723 
L 214.543748 293.095125 
L 216.06709 293.132813 
L 217.590432 293.328135 
L 222.160456 294.246909 
L 225.207139 294.67167 
L 226.730481 295.051988 
L 228.253822 295.100623 
L 229.777164 295.459132 
L 235.87053 296.300341 
L 240.440554 297.064556 
L 241.963896 297.120742 
L 245.010579 297.573927 
L 246.53392 297.862116 
L 248.057262 297.906945 
L 249.580604 298.294982 
L 251.103945 298.283704 
L 254.150628 298.863586 
L 257.197311 299.060351 
L 258.720653 299.283039 
L 260.243994 299.645832 
L 261.767336 299.62725 
L 263.290677 299.761724 
L 266.33736 300.314265 
L 267.860702 300.500698 
L 269.384043 300.548581 
L 270.907385 300.800622 
L 273.954068 301.052141 
L 275.477409 301.315642 
L 281.570775 301.914887 
L 283.094117 301.822603 
L 284.617459 302.104356 
L 286.1408 302.055629 
L 287.664142 302.554562 
L 289.187483 302.769959 
L 293.757508 302.982402 
L 295.280849 303.282771 
L 296.804191 303.27709 
L 298.327532 303.558856 
L 302.897557 303.86503 
L 304.420898 304.168343 
L 305.94424 304.100754 
L 310.514264 304.632066 
L 312.037606 304.812783 
L 315.084289 304.93996 
L 316.607631 305.193667 
L 318.130972 305.122654 
L 319.654314 305.282823 
L 321.177655 305.331041 
L 322.700997 305.554139 
L 327.271021 305.88776 
L 328.794363 306.097542 
L 330.317704 306.140935 
L 331.841046 306.037105 
L 334.887729 306.51769 
L 336.41107 306.398753 
L 339.457753 306.696258 
L 342.504436 306.992547 
L 350.121144 307.535329 
L 351.644486 307.473836 
L 356.21451 307.788075 
L 357.737852 307.990773 
L 377.541291 309.00779 
L 379.064633 309.253074 
L 380.587975 309.133779 
L 383.634658 309.315804 
L 388.204682 309.661855 
L 389.728024 309.612543 
L 391.251365 309.809357 
L 392.774707 309.71273 
L 394.298048 309.96577 
L 397.344731 310.022429 
L 398.868073 310.204059 
L 400.391414 310.096445 
L 401.914756 310.300593 
L 403.438097 310.319741 
L 404.961439 310.479727 
L 409.531463 310.553703 
L 411.054805 310.67317 
L 412.578146 310.648994 
L 415.62483 310.949064 
L 417.148171 310.805076 
L 418.671513 311.031764 
L 420.194854 310.919275 
L 421.718196 311.190399 
L 423.241537 311.078301 
L 424.764879 311.366596 
L 426.28822 311.206396 
L 427.811562 311.431193 
L 429.334903 311.37454 
L 435.428269 311.635739 
L 443.044977 311.7402 
L 444.568318 311.99042 
L 446.09166 312.084047 
L 447.615002 311.854344 
L 449.138343 312.055615 
L 452.185026 312.185923 
L 453.708368 312.165469 
L 456.755051 312.384565 
L 462.848417 312.446573 
L 464.371758 312.465804 
L 465.8951 312.62944 
L 467.418441 312.629107 
L 468.941783 312.880215 
L 470.465124 312.627344 
L 471.988466 312.683197 
L 473.511807 312.876675 
L 478.081832 313.045848 
L 479.605174 312.980746 
L 482.651857 313.161103 
L 484.175198 313.054998 
L 485.69854 313.20678 
L 488.745223 313.134015 
L 490.268564 313.388518 
L 491.791906 313.160862 
L 493.315247 313.441915 
L 502.455296 313.482364 
L 505.501979 313.786043 
L 507.025321 313.809436 
L 508.548662 313.638138 
L 510.072004 313.800928 
L 513.118687 313.756672 
L 514.642029 313.964594 
L 520.735395 313.931319 
L 522.258736 313.964944 
L 525.305419 314.164357 
L 528.352102 314.166124 
L 529.875444 314.048198 
L 531.398785 314.072132 
L 532.922127 314.322837 
L 534.445468 314.343299 
L 535.96881 314.237837 
L 539.015493 314.441768 
L 542.062176 314.360418 
L 548.155542 314.521133 
L 549.678884 314.674508 
L 552.725567 314.541261 
L 557.295591 314.712156 
L 558.818933 314.652753 
L 560.342274 314.722853 
L 561.865616 314.668501 
L 563.388957 314.863152 
L 564.912299 314.899605 
L 566.43564 314.811912 
L 567.958982 314.933571 
L 575.575689 314.941743 
L 578.622373 315.071785 
L 580.145714 314.818208 
L 583.192397 315.225976 
L 584.715739 314.978544 
L 584.715739 314.978544 
" clip-path="url(#pf65abd2348)" style="fill: none; stroke: #0000ff; stroke-width: 2; stroke-linecap: square"/>
   </g>
   <g id="line2d_26">
    <path d="M 77.443011 179.221801 
L 78.966353 216.926116 
L 80.489694 241.578953 
L 82.013036 247.402283 
L 83.536377 258.518794 
L 85.059719 261.047311 
L 86.583061 266.918042 
L 88.106402 274.621759 
L 89.629744 275.926079 
L 91.153085 276.040629 
L 92.676427 281.428748 
L 94.199768 282.304481 
L 95.72311 282.454868 
L 97.246451 285.951815 
L 98.769793 287.014548 
L 100.293134 289.351381 
L 101.816476 286.075039 
L 103.339817 292.976913 
L 104.863159 292.989474 
L 106.3865 293.316426 
L 107.909842 291.792343 
L 109.433183 295.271794 
L 110.956525 297.621099 
L 112.479866 296.416507 
L 114.003208 298.428225 
L 115.526549 299.712534 
L 117.049891 300.229204 
L 118.573232 297.509006 
L 120.096574 298.214408 
L 121.619916 301.545241 
L 123.143257 302.280389 
L 124.666599 302.230081 
L 126.18994 304.226758 
L 127.713282 304.691148 
L 129.236623 304.206848 
L 130.759965 305.695057 
L 132.283306 305.992497 
L 133.806648 306.862768 
L 135.329989 308.765907 
L 136.853331 306.869316 
L 138.376672 305.516614 
L 139.900014 306.098884 
L 141.423355 306.876033 
L 142.946697 308.094022 
L 144.470038 309.465218 
L 145.99338 309.831372 
L 147.516721 310.92543 
L 149.040063 308.976192 
L 150.563404 312.663951 
L 152.086746 310.884062 
L 153.610088 311.452419 
L 155.133429 310.047957 
L 156.656771 313.099936 
L 158.180112 312.834672 
L 159.703454 313.53053 
L 162.750137 314.293054 
L 164.273478 314.429297 
L 165.79682 313.925812 
L 167.320161 315.916951 
L 168.843503 315.233041 
L 170.366844 316.162534 
L 171.890186 314.996513 
L 173.413527 317.272841 
L 174.936869 317.294002 
L 176.46021 316.820431 
L 177.983552 317.021263 
L 179.506893 316.063573 
L 181.030235 318.126372 
L 184.076918 317.090915 
L 185.60026 319.226265 
L 187.123601 317.169525 
L 188.646943 318.743892 
L 190.170284 317.75545 
L 191.693626 319.634367 
L 193.216967 320.568692 
L 194.740309 321.239548 
L 196.26365 320.355599 
L 197.786992 320.392952 
L 199.310333 321.208025 
L 200.833675 320.412925 
L 202.357016 321.626269 
L 203.880358 321.459452 
L 205.403699 321.58406 
L 206.927041 321.050326 
L 208.450382 322.233673 
L 209.973724 322.682925 
L 211.497065 321.939067 
L 213.020407 322.587917 
L 217.590432 323.989373 
L 219.113773 322.437285 
L 220.637115 324.382616 
L 222.160456 324.287763 
L 223.683798 325.261537 
L 225.207139 324.160836 
L 226.730481 325.684555 
L 228.253822 324.93562 
L 229.777164 321.710526 
L 231.300505 321.589049 
L 232.823847 325.788313 
L 234.347188 325.340861 
L 235.87053 324.143618 
L 237.393871 324.721775 
L 238.917213 325.686611 
L 241.963896 326.189947 
L 243.487237 327.021089 
L 245.010579 326.262195 
L 246.53392 323.482371 
L 248.057262 327.381634 
L 249.580604 326.975428 
L 251.103945 327.664189 
L 252.627287 325.721498 
L 254.150628 326.457263 
L 255.67397 326.955711 
L 257.197311 329.453819 
L 258.720653 326.588607 
L 260.243994 326.629687 
L 261.767336 329.486078 
L 263.290677 328.345014 
L 264.814019 328.880086 
L 266.33736 328.517656 
L 267.860702 328.731738 
L 269.384043 329.100066 
L 270.907385 331.001304 
L 272.430726 329.399584 
L 273.954068 330.242497 
L 275.477409 330.081614 
L 277.000751 329.42853 
L 278.524092 330.729177 
L 280.047434 328.919873 
L 281.570775 329.864307 
L 283.094117 331.542841 
L 284.617459 331.462889 
L 286.1408 331.222805 
L 287.664142 330.72688 
L 289.187483 331.150548 
L 290.710825 331.051174 
L 293.757508 329.64188 
L 295.280849 331.294211 
L 296.804191 331.378043 
L 298.327532 331.573787 
L 301.374215 331.18536 
L 302.897557 332.583698 
L 304.420898 332.091344 
L 305.94424 331.999071 
L 307.467581 332.285214 
L 308.990923 331.354542 
L 310.514264 332.152649 
L 312.037606 332.256624 
L 313.560947 332.962127 
L 315.084289 333.257463 
L 316.607631 333.946718 
L 318.130972 333.100442 
L 319.654314 332.094462 
L 321.177655 333.392445 
L 322.700997 333.129663 
L 324.224338 333.6616 
L 325.74768 333.535328 
L 327.271021 333.867683 
L 328.794363 333.958106 
L 330.317704 334.451933 
L 331.841046 333.225718 
L 333.364387 334.34089 
L 334.887729 333.168811 
L 336.41107 334.520499 
L 337.934412 333.481984 
L 339.457753 334.456868 
L 340.981095 334.24181 
L 342.504436 334.878766 
L 344.027778 335.160931 
L 348.597803 335.279541 
L 350.121144 334.839705 
L 351.644486 334.912046 
L 353.167827 335.79324 
L 354.691169 334.821123 
L 356.21451 335.643421 
L 359.261193 335.340879 
L 360.784535 335.908168 
L 362.307876 335.315126 
L 363.831218 335.511423 
L 365.354559 335.277106 
L 366.877901 335.792981 
L 368.401242 335.10736 
L 369.924584 335.773016 
L 371.447925 336.037571 
L 372.971267 335.5677 
L 374.494608 336.721709 
L 376.01795 335.939251 
L 377.541291 336.299311 
L 379.064633 335.569902 
L 380.587975 336.454505 
L 382.111316 335.84616 
L 383.634658 336.645923 
L 385.157999 336.671843 
L 386.681341 336.418345 
L 388.204682 336.729786 
L 389.728024 336.864706 
L 391.251365 337.237609 
L 392.774707 337.11517 
L 394.298048 336.559554 
L 395.82139 337.889074 
L 397.344731 337.242987 
L 398.868073 337.373471 
L 400.391414 337.365114 
L 401.914756 337.563647 
L 403.438097 337.535186 
L 404.961439 337.773531 
L 406.48478 337.385515 
L 408.008122 337.896535 
L 411.054805 336.490954 
L 412.578146 337.69777 
L 414.101488 337.52497 
L 415.62483 338.18667 
L 417.148171 337.713051 
L 418.671513 338.054059 
L 420.194854 338.088034 
L 423.241537 337.364919 
L 424.764879 337.916535 
L 426.28822 337.844728 
L 427.811562 338.267637 
L 429.334903 337.626786 
L 430.858245 338.15482 
L 432.381586 338.253617 
L 433.904928 338.040951 
L 435.428269 338.09794 
L 436.951611 337.874903 
L 438.474952 338.51873 
L 439.998294 338.069492 
L 441.521635 338.316277 
L 443.044977 338.71124 
L 444.568318 337.976005 
L 446.09166 338.615203 
L 447.615002 338.130638 
L 450.661685 338.531164 
L 452.185026 339.317436 
L 453.708368 338.820936 
L 455.231709 338.488491 
L 458.278392 339.685513 
L 459.801734 338.523252 
L 461.325075 338.76823 
L 462.848417 339.427701 
L 464.371758 338.896977 
L 465.8951 339.275994 
L 467.418441 339.005123 
L 468.941783 338.988677 
L 470.465124 338.753478 
L 471.988466 339.087559 
L 473.511807 338.780946 
L 475.035149 339.15912 
L 476.55849 339.07805 
L 478.081832 338.741299 
L 479.605174 339.717455 
L 481.128515 339.291459 
L 484.175198 339.267597 
L 487.221881 339.501444 
L 488.745223 339.913203 
L 490.268564 339.753207 
L 491.791906 339.42028 
L 493.315247 339.818055 
L 494.838589 339.760515 
L 496.36193 339.343129 
L 497.885272 339.206712 
L 500.931955 340.219315 
L 502.455296 340.285119 
L 503.978638 339.815096 
L 507.025321 339.464469 
L 508.548662 339.742317 
L 510.072004 340.401458 
L 513.118687 339.766542 
L 514.642029 339.973362 
L 516.16537 339.84681 
L 517.688712 339.514222 
L 519.212053 339.737532 
L 520.735395 340.453802 
L 523.782078 340.443344 
L 525.305419 339.971023 
L 526.828761 340.579684 
L 529.875444 339.403948 
L 531.398785 340.289947 
L 532.922127 340.379151 
L 535.96881 340.230888 
L 537.492151 340.52495 
L 539.015493 340.158636 
L 540.538834 340.622586 
L 542.062176 340.703655 
L 545.108859 340.205637 
L 546.632201 340.612864 
L 548.155542 340.211482 
L 549.678884 340.954323 
L 551.202225 340.583413 
L 552.725567 340.82453 
L 554.248908 340.91111 
L 555.77225 340.605321 
L 557.295591 340.566741 
L 558.818933 340.694758 
L 561.865616 340.368979 
L 563.388957 340.869568 
L 564.912299 340.51518 
L 566.43564 340.522996 
L 567.958982 340.900365 
L 569.482323 340.065086 
L 571.005665 340.733296 
L 572.529006 340.336437 
L 574.052348 340.687455 
L 575.575689 340.300922 
L 577.099031 341.111207 
L 578.622373 340.923362 
L 580.145714 340.87018 
L 583.192397 341.357812 
L 584.715739 340.436912 
L 584.715739 340.436912 
" clip-path="url(#pf65abd2348)" style="fill: none; stroke: #ff0000; stroke-width: 2; stroke-linecap: square"/>
   </g>
   <g id="patch_3">
    <path d="M 52.079375 356.477812 
L 52.079375 23.837812 
" style="fill: none; stroke: #000000; stroke-width: 0.8; stroke-linejoin: miter; stroke-linecap: square"/>
   </g>
   <g id="patch_4">
    <path d="M 610.079375 356.477812 
L 610.079375 23.837812 
" style="fill: none; stroke: #000000; stroke-width: 0.8; stroke-linejoin: miter; stroke-linecap: square"/>
   </g>
   <g id="patch_5">
    <path d="M 52.079375 356.477812 
L 610.079375 356.477812 
" style="fill: none; stroke: #000000; stroke-width: 0.8; stroke-linejoin: miter; stroke-linecap: square"/>
   </g>
   <g id="patch_6">
    <path d="M 52.079375 23.837812 
L 610.079375 23.837812 
" style="fill: none; stroke: #000000; stroke-width: 0.8; stroke-linejoin: miter; stroke-linecap: square"/>
   </g>
   <g id="text_15">
    <!-- Training and Validation Loss -->
    <g transform="translate(233.698437 17.837812) scale(0.14 -0.14)">
     <defs>
      <path id="DejaVuSans-54" d="M -19 4666 
L 3928 4666 
L 3928 4134 
L 2272 4134 
L 2272 0 
L 1638 0 
L 1638 4134 
L -19 4134 
L -19 4666 
z
" transform="scale(0.015625)"/>
      <path id="DejaVuSans-72" d="M 2631 2963 
Q 2534 3019 2420 3045 
Q 2306 3072 2169 3072 
Q 1681 3072 1420 2755 
Q 1159 2438 1159 1844 
L 1159 0 
L 581 0 
L 581 3500 
L 1159 3500 
L 1159 2956 
Q 1341 3275 1631 3429 
Q 1922 3584 2338 3584 
Q 2397 3584 2469 3576 
Q 2541 3569 2628 3553 
L 2631 2963 
z
" transform="scale(0.015625)"/>
      <path id="DejaVuSans-61" d="M 2194 1759 
Q 1497 1759 1228 1600 
Q 959 1441 959 1056 
Q 959 750 1161 570 
Q 1363 391 1709 391 
Q 2188 391 2477 730 
Q 2766 1069 2766 1631 
L 2766 1759 
L 2194 1759 
z
M 3341 1997 
L 3341 0 
L 2766 0 
L 2766 531 
Q 2569 213 2275 61 
Q 1981 -91 1556 -91 
Q 1019 -91 701 211 
Q 384 513 384 1019 
Q 384 1609 779 1909 
Q 1175 2209 1959 2209 
L 2766 2209 
L 2766 2266 
Q 2766 2663 2505 2880 
Q 2244 3097 1772 3097 
Q 1472 3097 1187 3025 
Q 903 2953 641 2809 
L 641 3341 
Q 956 3463 1253 3523 
Q 1550 3584 1831 3584 
Q 2591 3584 2966 3190 
Q 3341 2797 3341 1997 
z
" transform="scale(0.015625)"/>
      <path id="DejaVuSans-69" d="M 603 3500 
L 1178 3500 
L 1178 0 
L 603 0 
L 603 3500 
z
M 603 4863 
L 1178 4863 
L 1178 4134 
L 603 4134 
L 603 4863 
z
" transform="scale(0.015625)"/>
      <path id="DejaVuSans-6e" d="M 3513 2113 
L 3513 0 
L 2938 0 
L 2938 2094 
Q 2938 2591 2744 2837 
Q 2550 3084 2163 3084 
Q 1697 3084 1428 2787 
Q 1159 2491 1159 1978 
L 1159 0 
L 581 0 
L 581 3500 
L 1159 3500 
L 1159 2956 
Q 1366 3272 1645 3428 
Q 1925 3584 2291 3584 
Q 2894 3584 3203 3211 
Q 3513 2838 3513 2113 
z
" transform="scale(0.015625)"/>
      <path id="DejaVuSans-67" d="M 2906 1791 
Q 2906 2416 2648 2759 
Q 2391 3103 1925 3103 
Q 1463 3103 1205 2759 
Q 947 2416 947 1791 
Q 947 1169 1205 825 
Q 1463 481 1925 481 
Q 2391 481 2648 825 
Q 2906 1169 2906 1791 
z
M 3481 434 
Q 3481 -459 3084 -895 
Q 2688 -1331 1869 -1331 
Q 1566 -1331 1297 -1286 
Q 1028 -1241 775 -1147 
L 775 -588 
Q 1028 -725 1275 -790 
Q 1522 -856 1778 -856 
Q 2344 -856 2625 -561 
Q 2906 -266 2906 331 
L 2906 616 
Q 2728 306 2450 153 
Q 2172 0 1784 0 
Q 1141 0 747 490 
Q 353 981 353 1791 
Q 353 2603 747 3093 
Q 1141 3584 1784 3584 
Q 2172 3584 2450 3431 
Q 2728 3278 2906 2969 
L 2906 3500 
L 3481 3500 
L 3481 434 
z
" transform="scale(0.015625)"/>
      <path id="DejaVuSans-20" transform="scale(0.015625)"/>
      <path id="DejaVuSans-64" d="M 2906 2969 
L 2906 4863 
L 3481 4863 
L 3481 0 
L 2906 0 
L 2906 525 
Q 2725 213 2448 61 
Q 2172 -91 1784 -91 
Q 1150 -91 751 415 
Q 353 922 353 1747 
Q 353 2572 751 3078 
Q 1150 3584 1784 3584 
Q 2172 3584 2448 3432 
Q 2725 3281 2906 2969 
z
M 947 1747 
Q 947 1113 1208 752 
Q 1469 391 1925 391 
Q 2381 391 2643 752 
Q 2906 1113 2906 1747 
Q 2906 2381 2643 2742 
Q 2381 3103 1925 3103 
Q 1469 3103 1208 2742 
Q 947 2381 947 1747 
z
" transform="scale(0.015625)"/>
      <path id="DejaVuSans-56" d="M 1831 0 
L 50 4666 
L 709 4666 
L 2188 738 
L 3669 4666 
L 4325 4666 
L 2547 0 
L 1831 0 
z
" transform="scale(0.015625)"/>
      <path id="DejaVuSans-6c" d="M 603 4863 
L 1178 4863 
L 1178 0 
L 603 0 
L 603 4863 
z
" transform="scale(0.015625)"/>
      <path id="DejaVuSans-74" d="M 1172 4494 
L 1172 3500 
L 2356 3500 
L 2356 3053 
L 1172 3053 
L 1172 1153 
Q 1172 725 1289 603 
Q 1406 481 1766 481 
L 2356 481 
L 2356 0 
L 1766 0 
Q 1100 0 847 248 
Q 594 497 594 1153 
L 594 3053 
L 172 3053 
L 172 3500 
L 594 3500 
L 594 4494 
L 1172 4494 
z
" transform="scale(0.015625)"/>
     </defs>
     <use xlink:href="#DejaVuSans-54"/>
     <use xlink:href="#DejaVuSans-72" x="46.333984"/>
     <use xlink:href="#DejaVuSans-61" x="87.447266"/>
     <use xlink:href="#DejaVuSans-69" x="148.726562"/>
     <use xlink:href="#DejaVuSans-6e" x="176.509766"/>
     <use xlink:href="#DejaVuSans-69" x="239.888672"/>
     <use xlink:href="#DejaVuSans-6e" x="267.671875"/>
     <use xlink:href="#DejaVuSans-67" x="331.050781"/>
     <use xlink:href="#DejaVuSans-20" x="394.527344"/>
     <use xlink:href="#DejaVuSans-61" x="426.314453"/>
     <use xlink:href="#DejaVuSans-6e" x="487.59375"/>
     <use xlink:href="#DejaVuSans-64" x="550.972656"/>
     <use xlink:href="#DejaVuSans-20" x="614.449219"/>
     <use xlink:href="#DejaVuSans-56" x="646.236328"/>
     <use xlink:href="#DejaVuSans-61" x="706.894531"/>
     <use xlink:href="#DejaVuSans-6c" x="768.173828"/>
     <use xlink:href="#DejaVuSans-69" x="795.957031"/>
     <use xlink:href="#DejaVuSans-64" x="823.740234"/>
     <use xlink:href="#DejaVuSans-61" x="887.216797"/>
     <use xlink:href="#DejaVuSans-74" x="948.496094"/>
     <use xlink:href="#DejaVuSans-69" x="987.705078"/>
     <use xlink:href="#DejaVuSans-6f" x="1015.488281"/>
     <use xlink:href="#DejaVuSans-6e" x="1076.669922"/>
     <use xlink:href="#DejaVuSans-20" x="1140.048828"/>
     <use xlink:href="#DejaVuSans-4c" x="1171.835938"/>
     <use xlink:href="#DejaVuSans-6f" x="1225.798828"/>
     <use xlink:href="#DejaVuSans-73" x="1286.980469"/>
     <use xlink:href="#DejaVuSans-73" x="1339.080078"/>
    </g>
   </g>
   <g id="legend_1">
    <g id="patch_7">
     <path d="M 521.979375 61.194062 
L 603.079375 61.194062 
Q 605.079375 61.194062 605.079375 59.194062 
L 605.079375 30.837812 
Q 605.079375 28.837812 603.079375 28.837812 
L 521.979375 28.837812 
Q 519.979375 28.837812 519.979375 30.837812 
L 519.979375 59.194062 
Q 519.979375 61.194062 521.979375 61.194062 
z
" style="fill: #ffffff; opacity: 0.8; stroke: #cccccc; stroke-linejoin: miter"/>
    </g>
    <g id="line2d_27">
     <path d="M 523.979375 36.93625 
L 533.979375 36.93625 
L 543.979375 36.93625 
" style="fill: none; stroke: #0000ff; stroke-width: 2; stroke-linecap: square"/>
    </g>
    <g id="text_16">
     <!-- Train Loss -->
     <g transform="translate(551.979375 40.43625) scale(0.1 -0.1)">
      <use xlink:href="#DejaVuSans-54"/>
      <use xlink:href="#DejaVuSans-72" x="46.333984"/>
      <use xlink:href="#DejaVuSans-61" x="87.447266"/>
      <use xlink:href="#DejaVuSans-69" x="148.726562"/>
      <use xlink:href="#DejaVuSans-6e" x="176.509766"/>
      <use xlink:href="#DejaVuSans-20" x="239.888672"/>
      <use xlink:href="#DejaVuSans-4c" x="271.675781"/>
      <use xlink:href="#DejaVuSans-6f" x="325.638672"/>
      <use xlink:href="#DejaVuSans-73" x="386.820312"/>
      <use xlink:href="#DejaVuSans-73" x="438.919922"/>
     </g>
    </g>
    <g id="line2d_28">
     <path d="M 523.979375 51.614375 
L 533.979375 51.614375 
L 543.979375 51.614375 
" style="fill: none; stroke: #ff0000; stroke-width: 2; stroke-linecap: square"/>
    </g>
    <g id="text_17">
     <!-- Val loss -->
     <g transform="translate(551.979375 55.114375) scale(0.1 -0.1)">
      <use xlink:href="#DejaVuSans-56"/>
      <use xlink:href="#DejaVuSans-61" x="60.658203"/>
      <use xlink:href="#DejaVuSans-6c" x="121.9375"/>
      <use xlink:href="#DejaVuSans-20" x="149.720703"/>
      <use xlink:href="#DejaVuSans-6c" x="181.507812"/>
      <use xlink:href="#DejaVuSans-6f" x="209.291016"/>
      <use xlink:href="#DejaVuSans-73" x="270.472656"/>
      <use xlink:href="#DejaVuSans-73" x="322.572266"/>
     </g>
    </g>
   </g>
  </g>
 </g>
 <defs>
  <clipPath id="pf65abd2348">
   <rect x="52.079375" y="23.837812" width="558" height="332.64"/>
  </clipPath>
 </defs>
</svg>
