<?xml version="1.0" encoding="utf-8" standalone="no"?>
<!DOCTYPE svg PUBLIC "-//W3C//DTD SVG 1.1//EN"
  "http://www.w3.org/Graphics/SVG/1.1/DTD/svg11.dtd">
<svg xmlns:xlink="http://www.w3.org/1999/xlink" width="625.362392pt" height="395.969687pt" viewBox="0 0 625.362392 395.969687" xmlns="http://www.w3.org/2000/svg" version="1.1">
 <metadata>
  <rdf:RDF xmlns:dc="http://purl.org/dc/elements/1.1/" xmlns:cc="http://creativecommons.org/ns#" xmlns:rdf="http://www.w3.org/1999/02/22-rdf-syntax-ns#">
   <cc:Work>
    <dc:type rdf:resource="http://purl.org/dc/dcmitype/StillImage"/>
    <dc:date>2026-04-18T10:03:14.312253</dc:date>
    <dc:format>image/svg+xml</dc:format>
    <dc:creator>
     <cc:Agent>
      <dc:title>Matplotlib v3.9.0, https://matplotlib.org/</dc:title>
     </cc:Agent>
    </dc:creator>
   </cc:Work>
  </rdf:RDF>
 </metadata>
 <defs>
  <style type="text/css">*{stroke-linejoin: round; stroke-linecap: butt}</style>
 </defs>
 <g id="figure_1">
  <g id="patch_1">
   <path d="M 0 395.969687 
L 625.362392 395.969687 
L 625.362392 0 
L 0 0 
z
" style="fill: #ffffff"/>
  </g>
  <g id="axes_1">
   <g id="patch_2">
    <path d="M 52.079375 356.477812 
L 610.079375 356.477812 
L 610.079375 23.837812 
L 52.079375 23.837812 
z
" style="fill: #ffffff"/>
   </g>
   <g id="matplotlib.axis_1">
    <g id="xtick_1">
     <g id="line2d_1">
      <path d="M 77.443011 356.477812 
L 77.443011 23.837812 
" clip-path="url(#p952957f911)" style="fill: none; stroke: #b0b0b0; stroke-opacity: 0.3; stroke-width: 0.8; stroke-linecap: square"/>
     </g>
     <g id="line2d_2">
      <defs>
       <path id="m88a6f5b583" d="M 0 0 
L 0 3.5 
" style="stroke: #000000; stroke-width: 0.8"/>
      </defs>
      <g>
       <use xlink:href="#m88a6f5b583" x="77.443011" y="356.477812" style="stroke: #000000; stroke-width: 0.8"/>
      </g>
     </g>
     <g id="text_1">
      <!-- 0 -->
      <g transform="translate(74.261761 371.07625) scale(0.1 -0.1)">
       <defs>
        <path id="DejaVuSans-30" d="M 2034 4250 
Q 1547 4250 1301 3770 
Q 1056 3291 1056 2328 
Q 1056 1369 1301 889 
Q 1547 409 2034 409 
Q 2525 409 2770 889 
Q 3016 1369 3016 2328 
Q 3016 3291 2770 3770 
Q 2525 4250 2034 4250 
z
M 2034 4750 
Q 2819 4750 3233 4129 
Q 3647 3509 3647 2328 
Q 3647 1150 3233 529 
Q 2819 -91 2034 -91 
Q 1250 -91 836 529 
Q 422 1150 422 2328 
Q 422 3509 836 4129 
Q 1250 4750 2034 4750 
z
" transform="scale(0.015625)"/>
       </defs>
       <use xlink:href="#DejaVuSans-30"/>
      </g>
     </g>
    </g>
    <g id="xtick_2">
     <g id="line2d_3">
      <path d="M 143.839965 356.477812 
L 143.839965 23.837812 
" clip-path="url(#p952957f911)" style="fill: none; stroke: #b0b0b0; stroke-opacity: 0.3; stroke-width: 0.8; stroke-linecap: square"/>
     </g>
     <g id="line2d_4">
      <g>
       <use xlink:href="#m88a6f5b583" x="143.839965" y="356.477812" style="stroke: #000000; stroke-width: 0.8"/>
      </g>
     </g>
     <g id="text_2">
      <!-- 25 -->
      <g transform="translate(137.477465 371.07625) scale(0.1 -0.1)">
       <defs>
        <path id="DejaVuSans-32" d="M 1228 531 
L 3431 531 
L 3431 0 
L 469 0 
L 469 531 
Q 828 903 1448 1529 
Q 2069 2156 2228 2338 
Q 2531 2678 2651 2914 
Q 2772 3150 2772 3378 
Q 2772 3750 2511 3984 
Q 2250 4219 1831 4219 
Q 1534 4219 1204 4116 
Q 875 4013 500 3803 
L 500 4441 
Q 881 4594 1212 4672 
Q 1544 4750 1819 4750 
Q 2544 4750 2975 4387 
Q 3406 4025 3406 3419 
Q 3406 3131 3298 2873 
Q 3191 2616 2906 2266 
Q 2828 2175 2409 1742 
Q 1991 1309 1228 531 
z
" transform="scale(0.015625)"/>
        <path id="DejaVuSans-35" d="M 691 4666 
L 3169 4666 
L 3169 4134 
L 1269 4134 
L 1269 2991 
Q 1406 3038 1543 3061 
Q 1681 3084 1819 3084 
Q 2600 3084 3056 2656 
Q 3513 2228 3513 1497 
Q 3513 744 3044 326 
Q 2575 -91 1722 -91 
Q 1428 -91 1123 -41 
Q 819 9 494 109 
L 494 744 
Q 775 591 1075 516 
Q 1375 441 1709 441 
Q 2250 441 2565 725 
Q 2881 1009 2881 1497 
Q 2881 1984 2565 2268 
Q 2250 2553 1709 2553 
Q 1456 2553 1204 2497 
Q 953 2441 691 2322 
L 691 4666 
z
" transform="scale(0.015625)"/>
       </defs>
       <use xlink:href="#DejaVuSans-32"/>
       <use xlink:href="#DejaVuSans-35" x="63.623047"/>
      </g>
     </g>
    </g>
    <g id="xtick_3">
     <g id="line2d_5">
      <path d="M 210.236919 356.477812 
L 210.236919 23.837812 
" clip-path="url(#p952957f911)" style="fill: none; stroke: #b0b0b0; stroke-opacity: 0.3; stroke-width: 0.8; stroke-linecap: square"/>
     </g>
     <g id="line2d_6">
      <g>
       <use xlink:href="#m88a6f5b583" x="210.236919" y="356.477812" style="stroke: #000000; stroke-width: 0.8"/>
      </g>
     </g>
     <g id="text_3">
      <!-- 50 -->
      <g transform="translate(203.874419 371.07625) scale(0.1 -0.1)">
       <use xlink:href="#DejaVuSans-35"/>
       <use xlink:href="#DejaVuSans-30" x="63.623047"/>
      </g>
     </g>
    </g>
    <g id="xtick_4">
     <g id="line2d_7">
      <path d="M 276.633873 356.477812 
L 276.633873 23.837812 
" clip-path="url(#p952957f911)" style="fill: none; stroke: #b0b0b0; stroke-opacity: 0.3; stroke-width: 0.8; stroke-linecap: square"/>
     </g>
     <g id="line2d_8">
      <g>
       <use xlink:href="#m88a6f5b583" x="276.633873" y="356.477812" style="stroke: #000000; stroke-width: 0.8"/>
      </g>
     </g>
     <g id="text_4">
      <!-- 75 -->
      <g transform="translate(270.271373 371.07625) scale(0.1 -0.1)">
       <defs>
        <path id="DejaVuSans-37" d="M 525 4666 
L 3525 4666 
L 3525 4397 
L 1831 0 
L 1172 0 
L 2766 4134 
L 525 4134 
L 525 4666 
z
" transform="scale(0.015625)"/>
       </defs>
       <use xlink:href="#DejaVuSans-37"/>
       <use xlink:href="#DejaVuSans-35" x="63.623047"/>
      </g>
     </g>
    </g>
    <g id="xtick_5">
     <g id="line2d_9">
      <path d="M 343.030827 356.477812 
L 343.030827 23.837812 
" clip-path="url(#p952957f911)" style="fill: none; stroke: #b0b0b0; stroke-opacity: 0.3; stroke-width: 0.8; stroke-linecap: square"/>
     </g>
     <g id="line2d_10">
      <g>
       <use xlink:href="#m88a6f5b583" x="343.030827" y="356.477812" style="stroke: #000000; stroke-width: 0.8"/>
      </g>
     </g>
     <g id="text_5">
      <!-- 100 -->
      <g transform="translate(333.487077 371.07625) scale(0.1 -0.1)">
       <defs>
        <path id="DejaVuSans-31" d="M 794 531 
L 1825 531 
L 1825 4091 
L 703 3866 
L 703 4441 
L 1819 4666 
L 2450 4666 
L 2450 531 
L 3481 531 
L 3481 0 
L 794 0 
L 794 531 
z
" transform="scale(0.015625)"/>
       </defs>
       <use xlink:href="#DejaVuSans-31"/>
       <use xlink:href="#DejaVuSans-30" x="63.623047"/>
       <use xlink:href="#DejaVuSans-30" x="127.246094"/>
      </g>
     </g>
    </g>
    <g id="xtick_6">
     <g id="line2d_11">
      <path d="M 409.427781 356.477812 
L 409.427781 23.837812 
" clip-path="url(#p952957f911)" style="fill: none; stroke: #b0b0b0; stroke-opacity: 0.3; stroke-width: 0.8; stroke-linecap: square"/>
     </g>
     <g id="line2d_12">
      <g>
       <use xlink:href="#m88a6f5b583" x="409.427781" y="356.477812" style="stroke: #000000; stroke-width: 0.8"/>
      </g>
     </g>
     <g id="text_6">
      <!-- 125 -->
      <g transform="translate(399.884031 371.07625) scale(0.1 -0.1)">
       <use xlink:href="#DejaVuSans-31"/>
       <use xlink:href="#DejaVuSans-32" x="63.623047"/>
       <use xlink:href="#DejaVuSans-35" x="127.246094"/>
      </g>
     </g>
    </g>
    <g id="xtick_7">
     <g id="line2d_13">
      <path d="M 475.824734 356.477812 
L 475.824734 23.837812 
" clip-path="url(#p952957f911)" style="fill: none; stroke: #b0b0b0; stroke-opacity: 0.3; stroke-width: 0.8; stroke-linecap: square"/>
     </g>
     <g id="line2d_14">
      <g>
       <use xlink:href="#m88a6f5b583" x="475.824734" y="356.477812" style="stroke: #000000; stroke-width: 0.8"/>
      </g>
     </g>
     <g id="text_7">
      <!-- 150 -->
      <g transform="translate(466.280984 371.07625) scale(0.1 -0.1)">
       <use xlink:href="#DejaVuSans-31"/>
       <use xlink:href="#DejaVuSans-35" x="63.623047"/>
       <use xlink:href="#DejaVuSans-30" x="127.246094"/>
      </g>
     </g>
    </g>
    <g id="xtick_8">
     <g id="line2d_15">
      <path d="M 542.221688 356.477812 
L 542.221688 23.837812 
" clip-path="url(#p952957f911)" style="fill: none; stroke: #b0b0b0; stroke-opacity: 0.3; stroke-width: 0.8; stroke-linecap: square"/>
     </g>
     <g id="line2d_16">
      <g>
       <use xlink:href="#m88a6f5b583" x="542.221688" y="356.477812" style="stroke: #000000; stroke-width: 0.8"/>
      </g>
     </g>
     <g id="text_8">
      <!-- 175 -->
      <g transform="translate(532.677938 371.07625) scale(0.1 -0.1)">
       <use xlink:href="#DejaVuSans-31"/>
       <use xlink:href="#DejaVuSans-37" x="63.623047"/>
       <use xlink:href="#DejaVuSans-35" x="127.246094"/>
      </g>
     </g>
    </g>
    <g id="xtick_9">
     <g id="line2d_17">
      <path d="M 608.618642 356.477812 
L 608.618642 23.837812 
" clip-path="url(#p952957f911)" style="fill: none; stroke: #b0b0b0; stroke-opacity: 0.3; stroke-width: 0.8; stroke-linecap: square"/>
     </g>
     <g id="line2d_18">
      <g>
       <use xlink:href="#m88a6f5b583" x="608.618642" y="356.477812" style="stroke: #000000; stroke-width: 0.8"/>
      </g>
     </g>
     <g id="text_9">
      <!-- 200 -->
      <g transform="translate(599.074892 371.07625) scale(0.1 -0.1)">
       <use xlink:href="#DejaVuSans-32"/>
       <use xlink:href="#DejaVuSans-30" x="63.623047"/>
       <use xlink:href="#DejaVuSans-30" x="127.246094"/>
      </g>
     </g>
    </g>
    <g id="text_10">
     <!-- Epoch -->
     <g transform="translate(312.70625 386.274062) scale(0.12 -0.12)">
      <defs>
       <path id="DejaVuSans-45" d="M 628 4666 
L 3578 4666 
L 3578 4134 
L 1259 4134 
L 1259 2753 
L 3481 2753 
L 3481 2222 
L 1259 2222 
L 1259 531 
L 3634 531 
L 3634 0 
L 628 0 
L 628 4666 
z
" transform="scale(0.015625)"/>
       <path id="DejaVuSans-70" d="M 1159 525 
L 1159 -1331 
L 581 -1331 
L 581 3500 
L 1159 3500 
L 1159 2969 
Q 1341 3281 1617 3432 
Q 1894 3584 2278 3584 
Q 2916 3584 3314 3078 
Q 3713 2572 3713 1747 
Q 3713 922 3314 415 
Q 2916 -91 2278 -91 
Q 1894 -91 1617 61 
Q 1341 213 1159 525 
z
M 3116 1747 
Q 3116 2381 2855 2742 
Q 2594 3103 2138 3103 
Q 1681 3103 1420 2742 
Q 1159 2381 1159 1747 
Q 1159 1113 1420 752 
Q 1681 391 2138 391 
Q 2594 391 2855 752 
Q 3116 1113 3116 1747 
z
" transform="scale(0.015625)"/>
       <path id="DejaVuSans-6f" d="M 1959 3097 
Q 1497 3097 1228 2736 
Q 959 2375 959 1747 
Q 959 1119 1226 758 
Q 1494 397 1959 397 
Q 2419 397 2687 759 
Q 2956 1122 2956 1747 
Q 2956 2369 2687 2733 
Q 2419 3097 1959 3097 
z
M 1959 3584 
Q 2709 3584 3137 3096 
Q 3566 2609 3566 1747 
Q 3566 888 3137 398 
Q 2709 -91 1959 -91 
Q 1206 -91 779 398 
Q 353 888 353 1747 
Q 353 2609 779 3096 
Q 1206 3584 1959 3584 
z
" transform="scale(0.015625)"/>
       <path id="DejaVuSans-63" d="M 3122 3366 
L 3122 2828 
Q 2878 2963 2633 3030 
Q 2388 3097 2138 3097 
Q 1578 3097 1268 2742 
Q 959 2388 959 1747 
Q 959 1106 1268 751 
Q 1578 397 2138 397 
Q 2388 397 2633 464 
Q 2878 531 3122 666 
L 3122 134 
Q 2881 22 2623 -34 
Q 2366 -91 2075 -91 
Q 1284 -91 818 406 
Q 353 903 353 1747 
Q 353 2603 823 3093 
Q 1294 3584 2113 3584 
Q 2378 3584 2631 3529 
Q 2884 3475 3122 3366 
z
" transform="scale(0.015625)"/>
       <path id="DejaVuSans-68" d="M 3513 2113 
L 3513 0 
L 2938 0 
L 2938 2094 
Q 2938 2591 2744 2837 
Q 2550 3084 2163 3084 
Q 1697 3084 1428 2787 
Q 1159 2491 1159 1978 
L 1159 0 
L 581 0 
L 581 4863 
L 1159 4863 
L 1159 2956 
Q 1366 3272 1645 3428 
Q 1925 3584 2291 3584 
Q 2894 3584 3203 3211 
Q 3513 2838 3513 2113 
z
" transform="scale(0.015625)"/>
      </defs>
      <use xlink:href="#DejaVuSans-45"/>
      <use xlink:href="#DejaVuSans-70" x="63.183594"/>
      <use xlink:href="#DejaVuSans-6f" x="126.660156"/>
      <use xlink:href="#DejaVuSans-63" x="187.841797"/>
      <use xlink:href="#DejaVuSans-68" x="242.822266"/>
     </g>
    </g>
   </g>
   <g id="matplotlib.axis_2">
    <g id="ytick_1">
     <g id="line2d_19">
      <path d="M 52.079375 355.675675 
L 610.079375 355.675675 
" clip-path="url(#p952957f911)" style="fill: none; stroke: #b0b0b0; stroke-opacity: 0.3; stroke-width: 0.8; stroke-linecap: square"/>
     </g>
     <g id="line2d_20">
      <defs>
       <path id="m1e594906ef" d="M 0 0 
L -3.5 0 
" style="stroke: #000000; stroke-width: 0.8"/>
      </defs>
      <g>
       <use xlink:href="#m1e594906ef" x="52.079375" y="355.675675" style="stroke: #000000; stroke-width: 0.8"/>
      </g>
     </g>
     <g id="text_11">
      <!-- 0.04 -->
      <g transform="translate(22.81375 359.474894) scale(0.1 -0.1)">
       <defs>
        <path id="DejaVuSans-2e" d="M 684 794 
L 1344 794 
L 1344 0 
L 684 0 
L 684 794 
z
" transform="scale(0.015625)"/>
        <path id="DejaVuSans-34" d="M 2419 4116 
L 825 1625 
L 2419 1625 
L 2419 4116 
z
M 2253 4666 
L 3047 4666 
L 3047 1625 
L 3713 1625 
L 3713 1100 
L 3047 1100 
L 3047 0 
L 2419 0 
L 2419 1100 
L 313 1100 
L 313 1709 
L 2253 4666 
z
" transform="scale(0.015625)"/>
       </defs>
       <use xlink:href="#DejaVuSans-30"/>
       <use xlink:href="#DejaVuSans-2e" x="63.623047"/>
       <use xlink:href="#DejaVuSans-30" x="95.410156"/>
       <use xlink:href="#DejaVuSans-34" x="159.033203"/>
      </g>
     </g>
    </g>
    <g id="ytick_2">
     <g id="line2d_21">
      <path d="M 52.079375 290.165081 
L 610.079375 290.165081 
" clip-path="url(#p952957f911)" style="fill: none; stroke: #b0b0b0; stroke-opacity: 0.3; stroke-width: 0.8; stroke-linecap: square"/>
     </g>
     <g id="line2d_22">
      <g>
       <use xlink:href="#m1e594906ef" x="52.079375" y="290.165081" style="stroke: #000000; stroke-width: 0.8"/>
      </g>
     </g>
     <g id="text_12">
      <!-- 0.06 -->
      <g transform="translate(22.81375 293.9643) scale(0.1 -0.1)">
       <defs>
        <path id="DejaVuSans-36" d="M 2113 2584 
Q 1688 2584 1439 2293 
Q 1191 2003 1191 1497 
Q 1191 994 1439 701 
Q 1688 409 2113 409 
Q 2538 409 2786 701 
Q 3034 994 3034 1497 
Q 3034 2003 2786 2293 
Q 2538 2584 2113 2584 
z
M 3366 4563 
L 3366 3988 
Q 3128 4100 2886 4159 
Q 2644 4219 2406 4219 
Q 1781 4219 1451 3797 
Q 1122 3375 1075 2522 
Q 1259 2794 1537 2939 
Q 1816 3084 2150 3084 
Q 2853 3084 3261 2657 
Q 3669 2231 3669 1497 
Q 3669 778 3244 343 
Q 2819 -91 2113 -91 
Q 1303 -91 875 529 
Q 447 1150 447 2328 
Q 447 3434 972 4092 
Q 1497 4750 2381 4750 
Q 2619 4750 2861 4703 
Q 3103 4656 3366 4563 
z
" transform="scale(0.015625)"/>
       </defs>
       <use xlink:href="#DejaVuSans-30"/>
       <use xlink:href="#DejaVuSans-2e" x="63.623047"/>
       <use xlink:href="#DejaVuSans-30" x="95.410156"/>
       <use xlink:href="#DejaVuSans-36" x="159.033203"/>
      </g>
     </g>
    </g>
    <g id="ytick_3">
     <g id="line2d_23">
      <path d="M 52.079375 224.654487 
L 610.079375 224.654487 
" clip-path="url(#p952957f911)" style="fill: none; stroke: #b0b0b0; stroke-opacity: 0.3; stroke-width: 0.8; stroke-linecap: square"/>
     </g>
     <g id="line2d_24">
      <g>
       <use xlink:href="#m1e594906ef" x="52.079375" y="224.654487" style="stroke: #000000; stroke-width: 0.8"/>
      </g>
     </g>
     <g id="text_13">
      <!-- 0.08 -->
      <g transform="translate(22.81375 228.453705) scale(0.1 -0.1)">
       <defs>
        <path id="DejaVuSans-38" d="M 2034 2216 
Q 1584 2216 1326 1975 
Q 1069 1734 1069 1313 
Q 1069 891 1326 650 
Q 1584 409 2034 409 
Q 2484 409 2743 651 
Q 3003 894 3003 1313 
Q 3003 1734 2745 1975 
Q 2488 2216 2034 2216 
z
M 1403 2484 
Q 997 2584 770 2862 
Q 544 3141 544 3541 
Q 544 4100 942 4425 
Q 1341 4750 2034 4750 
Q 2731 4750 3128 4425 
Q 3525 4100 3525 3541 
Q 3525 3141 3298 2862 
Q 3072 2584 2669 2484 
Q 3125 2378 3379 2068 
Q 3634 1759 3634 1313 
Q 3634 634 3220 271 
Q 2806 -91 2034 -91 
Q 1263 -91 848 271 
Q 434 634 434 1313 
Q 434 1759 690 2068 
Q 947 2378 1403 2484 
z
M 1172 3481 
Q 1172 3119 1398 2916 
Q 1625 2713 2034 2713 
Q 2441 2713 2670 2916 
Q 2900 3119 2900 3481 
Q 2900 3844 2670 4047 
Q 2441 4250 2034 4250 
Q 1625 4250 1398 4047 
Q 1172 3844 1172 3481 
z
" transform="scale(0.015625)"/>
       </defs>
       <use xlink:href="#DejaVuSans-30"/>
       <use xlink:href="#DejaVuSans-2e" x="63.623047"/>
       <use xlink:href="#DejaVuSans-30" x="95.410156"/>
       <use xlink:href="#DejaVuSans-38" x="159.033203"/>
      </g>
     </g>
    </g>
    <g id="ytick_4">
     <g id="line2d_25">
      <path d="M 52.079375 159.143892 
L 610.079375 159.143892 
" clip-path="url(#p952957f911)" style="fill: none; stroke: #b0b0b0; stroke-opacity: 0.3; stroke-width: 0.8; stroke-linecap: square"/>
     </g>
     <g id="line2d_26">
      <g>
       <use xlink:href="#m1e594906ef" x="52.079375" y="159.143892" style="stroke: #000000; stroke-width: 0.8"/>
      </g>
     </g>
     <g id="text_14">
      <!-- 0.10 -->
      <g transform="translate(22.81375 162.943111) scale(0.1 -0.1)">
       <use xlink:href="#DejaVuSans-30"/>
       <use xlink:href="#DejaVuSans-2e" x="63.623047"/>
       <use xlink:href="#DejaVuSans-31" x="95.410156"/>
       <use xlink:href="#DejaVuSans-30" x="159.033203"/>
      </g>
     </g>
    </g>
    <g id="ytick_5">
     <g id="line2d_27">
      <path d="M 52.079375 93.633298 
L 610.079375 93.633298 
" clip-path="url(#p952957f911)" style="fill: none; stroke: #b0b0b0; stroke-opacity: 0.3; stroke-width: 0.8; stroke-linecap: square"/>
     </g>
     <g id="line2d_28">
      <g>
       <use xlink:href="#m1e594906ef" x="52.079375" y="93.633298" style="stroke: #000000; stroke-width: 0.8"/>
      </g>
     </g>
     <g id="text_15">
      <!-- 0.12 -->
      <g transform="translate(22.81375 97.432517) scale(0.1 -0.1)">
       <use xlink:href="#DejaVuSans-30"/>
       <use xlink:href="#DejaVuSans-2e" x="63.623047"/>
       <use xlink:href="#DejaVuSans-31" x="95.410156"/>
       <use xlink:href="#DejaVuSans-32" x="159.033203"/>
      </g>
     </g>
    </g>
    <g id="ytick_6">
     <g id="line2d_29">
      <path d="M 52.079375 28.122704 
L 610.079375 28.122704 
" clip-path="url(#p952957f911)" style="fill: none; stroke: #b0b0b0; stroke-opacity: 0.3; stroke-width: 0.8; stroke-linecap: square"/>
     </g>
     <g id="line2d_30">
      <g>
       <use xlink:href="#m1e594906ef" x="52.079375" y="28.122704" style="stroke: #000000; stroke-width: 0.8"/>
      </g>
     </g>
     <g id="text_16">
      <!-- 0.14 -->
      <g transform="translate(22.81375 31.921923) scale(0.1 -0.1)">
       <use xlink:href="#DejaVuSans-30"/>
       <use xlink:href="#DejaVuSans-2e" x="63.623047"/>
       <use xlink:href="#DejaVuSans-31" x="95.410156"/>
       <use xlink:href="#DejaVuSans-34" x="159.033203"/>
      </g>
     </g>
    </g>
    <g id="text_17">
     <!-- Loss -->
     <g transform="translate(16.318125 203.318437) rotate(-90) scale(0.12 -0.12)">
      <defs>
       <path id="DejaVuSans-4c" d="M 628 4666 
L 1259 4666 
L 1259 531 
L 3531 531 
L 3531 0 
L 628 0 
L 628 4666 
z
" transform="scale(0.015625)"/>
       <path id="DejaVuSans-73" d="M 2834 3397 
L 2834 2853 
Q 2591 2978 2328 3040 
Q 2066 3103 1784 3103 
Q 1356 3103 1142 2972 
Q 928 2841 928 2578 
Q 928 2378 1081 2264 
Q 1234 2150 1697 2047 
L 1894 2003 
Q 2506 1872 2764 1633 
Q 3022 1394 3022 966 
Q 3022 478 2636 193 
Q 2250 -91 1575 -91 
Q 1294 -91 989 -36 
Q 684 19 347 128 
L 347 722 
Q 666 556 975 473 
Q 1284 391 1588 391 
Q 1994 391 2212 530 
Q 2431 669 2431 922 
Q 2431 1156 2273 1281 
Q 2116 1406 1581 1522 
L 1381 1569 
Q 847 1681 609 1914 
Q 372 2147 372 2553 
Q 372 3047 722 3315 
Q 1072 3584 1716 3584 
Q 2034 3584 2315 3537 
Q 2597 3491 2834 3397 
z
" transform="scale(0.015625)"/>
      </defs>
      <use xlink:href="#DejaVuSans-4c"/>
      <use xlink:href="#DejaVuSans-6f" x="53.962891"/>
      <use xlink:href="#DejaVuSans-73" x="115.144531"/>
      <use xlink:href="#DejaVuSans-73" x="167.244141"/>
     </g>
    </g>
   </g>
   <g id="line2d_31">
    <path d="M 77.443011 38.957812 
L 80.09889 106.922648 
L 82.754768 138.342659 
L 85.410646 154.961907 
L 88.066524 162.368756 
L 90.722402 170.530177 
L 93.37828 176.879756 
L 96.034158 182.836702 
L 98.690037 187.316646 
L 101.345915 191.143859 
L 104.001793 194.72185 
L 106.657671 198.930915 
L 109.313549 202.734073 
L 111.969427 206.089681 
L 114.625306 209.840781 
L 122.59294 218.32982 
L 125.248818 220.961578 
L 127.904696 223.330152 
L 130.560574 225.906048 
L 133.216453 228.812019 
L 138.528209 233.78858 
L 151.8076 244.39788 
L 154.463478 246.311378 
L 159.775234 250.629239 
L 162.431112 252.487019 
L 165.08699 254.670029 
L 167.742869 256.683626 
L 170.398747 259.078399 
L 173.054625 260.977614 
L 183.678137 269.78119 
L 186.334016 271.776217 
L 194.30165 278.379072 
L 199.613406 282.619226 
L 202.269285 284.501035 
L 204.925163 286.713513 
L 212.892797 292.182975 
L 218.204553 295.431621 
L 220.860432 296.788985 
L 226.172188 299.156504 
L 228.828066 300.175953 
L 231.483944 300.812537 
L 234.139822 301.64582 
L 239.451579 302.409762 
L 242.107457 302.67874 
L 244.763335 209.584812 
L 247.419213 215.830218 
L 250.075091 220.127648 
L 255.386848 225.14404 
L 266.01036 230.286784 
L 268.666238 230.889347 
L 271.322117 231.698548 
L 273.977995 232.657215 
L 276.633873 233.020625 
L 279.289751 233.508949 
L 281.945629 234.286106 
L 287.257385 235.656985 
L 289.913264 235.899984 
L 295.22502 237.423434 
L 297.880898 237.815823 
L 300.536776 238.400895 
L 311.160289 240.27106 
L 313.816167 240.859234 
L 316.472045 241.582436 
L 319.127923 241.898318 
L 321.783801 242.770684 
L 324.43968 243.096899 
L 327.095558 243.793746 
L 329.751436 244.820632 
L 332.407314 245.221728 
L 335.063192 245.788083 
L 337.71907 246.59852 
L 340.374949 247.057658 
L 348.342583 249.426655 
L 350.998461 249.953413 
L 353.654339 250.838219 
L 358.966096 252.14749 
L 374.901365 256.604234 
L 380.213121 258.446059 
L 382.868999 259.070683 
L 390.836633 261.681748 
L 396.14839 263.215714 
L 398.804268 264.181701 
L 401.460146 264.551292 
L 404.116024 265.803727 
L 406.771902 266.856067 
L 409.427781 267.494937 
L 412.083659 268.322398 
L 417.395415 270.380353 
L 420.051293 271.203756 
L 422.707171 271.847302 
L 425.363049 272.960197 
L 428.018928 273.649855 
L 430.674806 274.937118 
L 433.330684 275.711528 
L 438.64244 277.768694 
L 441.298318 278.696421 
L 443.954197 279.969984 
L 446.610075 280.827641 
L 449.265953 281.993702 
L 454.577709 283.982951 
L 457.233587 284.879499 
L 459.889465 286.050723 
L 462.545344 286.945653 
L 465.201222 288.126935 
L 467.8571 289.160616 
L 470.512978 290.406035 
L 473.168856 291.29051 
L 475.824734 292.418523 
L 481.136491 294.322679 
L 483.792369 295.548896 
L 489.104125 297.804418 
L 494.415881 300.003039 
L 502.383516 303.008192 
L 507.695272 304.878641 
L 510.35115 306.115694 
L 513.007028 307.186212 
L 515.662907 308.100681 
L 518.318785 309.165127 
L 520.974663 309.982471 
L 523.630541 311.026356 
L 536.909932 315.182576 
L 544.877566 317.30035 
L 547.533444 317.870683 
L 550.189323 318.621225 
L 552.845201 319.03257 
L 555.501079 319.634661 
L 558.156957 319.898324 
L 560.812835 320.473107 
L 568.78047 321.307113 
L 574.092226 321.575459 
L 579.403982 321.961381 
L 582.05986 322.029025 
L 584.715739 212.469233 
L 584.715739 212.469233 
" clip-path="url(#p952957f911)" style="fill: none; stroke: #0000ff; stroke-width: 2; stroke-linecap: square"/>
   </g>
   <g id="line2d_32">
    <path d="M 77.443011 127.502036 
L 80.09889 161.706371 
L 82.754768 189.855541 
L 85.410646 196.051227 
L 88.066524 196.251181 
L 90.722402 211.561343 
L 93.37828 212.266747 
L 96.034158 217.840963 
L 98.690037 227.904417 
L 101.345915 234.919494 
L 104.001793 239.555993 
L 106.657671 226.970268 
L 109.313549 238.675965 
L 111.969427 239.613884 
L 114.625306 242.200366 
L 117.281184 249.651699 
L 119.937062 247.256833 
L 122.59294 260.710927 
L 125.248818 248.942156 
L 127.904696 258.31763 
L 130.560574 264.413574 
L 133.216453 264.054785 
L 135.872331 259.546917 
L 138.528209 263.178904 
L 141.184087 261.163634 
L 143.839965 256.804614 
L 146.495843 265.202014 
L 149.151722 265.249742 
L 151.8076 266.598976 
L 154.463478 276.801771 
L 157.119356 270.254317 
L 159.775234 262.864508 
L 162.431112 279.078112 
L 165.08699 282.346955 
L 167.742869 282.569268 
L 170.398747 290.332471 
L 173.054625 288.693108 
L 175.710503 283.483323 
L 178.366381 292.010322 
L 181.022259 289.307096 
L 183.678137 299.531304 
L 186.334016 294.933473 
L 188.989894 300.004993 
L 191.645772 301.005865 
L 194.30165 306.195416 
L 199.613406 303.737503 
L 202.269285 311.936136 
L 204.925163 310.569652 
L 207.581041 313.153012 
L 210.236919 314.345599 
L 212.892797 310.314103 
L 215.548675 315.478409 
L 218.204553 320.00424 
L 220.860432 317.747643 
L 223.51631 321.826034 
L 226.172188 321.061885 
L 228.828066 323.45981 
L 231.483944 324.389858 
L 234.139822 324.670141 
L 236.795701 324.494124 
L 239.451579 324.797322 
L 242.107457 324.964729 
L 244.763335 251.397729 
L 247.419213 246.043072 
L 250.075091 261.651939 
L 252.730969 256.870079 
L 255.386848 246.742387 
L 258.042726 257.532753 
L 260.698604 265.84291 
L 263.354482 263.613041 
L 266.01036 252.592328 
L 268.666238 231.486536 
L 271.322117 264.388082 
L 273.977995 245.195241 
L 276.633873 267.548889 
L 279.289751 262.400765 
L 281.945629 262.713039 
L 284.601507 263.445945 
L 287.257385 261.74301 
L 289.913264 270.999592 
L 292.569142 268.866093 
L 295.22502 269.890087 
L 297.880898 267.945743 
L 300.536776 270.617936 
L 303.192654 280.155111 
L 305.848533 257.668574 
L 308.504411 270.527609 
L 311.160289 273.938298 
L 313.816167 273.416 
L 316.472045 275.64316 
L 319.127923 271.920099 
L 321.783801 263.09655 
L 324.43968 269.636147 
L 327.095558 275.526212 
L 329.751436 271.638182 
L 335.063192 280.693495 
L 337.71907 269.74569 
L 340.374949 273.426159 
L 343.030827 263.657336 
L 345.686705 274.883138 
L 348.342583 277.926324 
L 350.998461 279.721629 
L 353.654339 276.216691 
L 356.310217 279.615983 
L 358.966096 271.55337 
L 361.621974 284.426474 
L 364.277852 288.283208 
L 366.93373 279.357286 
L 369.589608 285.932395 
L 372.245486 287.028246 
L 374.901365 285.19385 
L 377.557243 289.109951 
L 382.868999 287.693756 
L 385.524877 289.709062 
L 388.180755 286.065394 
L 390.836633 282.788538 
L 393.492512 290.488544 
L 396.14839 297.555392 
L 398.804268 289.18782 
L 401.460146 286.148821 
L 404.116024 294.650667 
L 406.771902 290.783826 
L 409.427781 284.951382 
L 412.083659 293.701432 
L 414.739537 297.085704 
L 417.395415 295.488987 
L 420.051293 298.883463 
L 422.707171 287.310034 
L 425.363049 293.233386 
L 428.018928 305.15863 
L 430.674806 303.189043 
L 433.330684 289.665189 
L 435.986562 291.890595 
L 438.64244 301.255083 
L 441.298318 300.55003 
L 443.954197 301.240872 
L 446.610075 303.792268 
L 449.265953 309.03015 
L 451.921831 305.194979 
L 454.577709 309.860629 
L 457.233587 305.139463 
L 459.889465 313.109119 
L 462.545344 308.616743 
L 465.201222 306.002272 
L 467.8571 313.301328 
L 470.512978 308.710877 
L 473.168856 316.462545 
L 475.824734 316.854665 
L 478.480613 319.137212 
L 481.136491 315.468518 
L 483.792369 314.62219 
L 486.448247 321.367716 
L 489.104125 317.040426 
L 491.760003 321.681936 
L 494.415881 323.618266 
L 497.07176 318.516685 
L 499.727638 319.457059 
L 502.383516 325.661295 
L 505.039394 324.167607 
L 507.695272 326.035959 
L 510.35115 328.824597 
L 513.007028 329.30683 
L 515.662907 328.382464 
L 518.318785 330.198985 
L 520.974663 331.548111 
L 523.630541 328.937355 
L 526.286419 332.302908 
L 528.942297 331.418842 
L 531.598176 331.987129 
L 534.254054 333.54899 
L 536.909932 336.350479 
L 539.56581 336.166649 
L 542.221688 334.724597 
L 544.877566 336.84622 
L 547.533444 338.589458 
L 550.189323 338.841521 
L 552.845201 338.374088 
L 555.501079 339.882214 
L 558.156957 339.497535 
L 560.812835 339.831201 
L 563.468713 340.304749 
L 566.124592 340.207163 
L 568.78047 340.341626 
L 571.436348 340.715116 
L 574.092226 340.180875 
L 576.748104 341.357812 
L 579.403982 340.652207 
L 582.05986 341.068503 
L 584.715739 250.907838 
L 584.715739 250.907838 
" clip-path="url(#p952957f911)" style="fill: none; stroke: #ff0000; stroke-width: 2; stroke-linecap: square"/>
   </g>
   <g id="patch_3">
    <path d="M 52.079375 356.477812 
L 52.079375 23.837812 
" style="fill: none; stroke: #000000; stroke-width: 0.8; stroke-linejoin: miter; stroke-linecap: square"/>
   </g>
   <g id="patch_4">
    <path d="M 610.079375 356.477812 
L 610.079375 23.837812 
" style="fill: none; stroke: #000000; stroke-width: 0.8; stroke-linejoin: miter; stroke-linecap: square"/>
   </g>
   <g id="patch_5">
    <path d="M 52.079375 356.477812 
L 610.079375 356.477812 
" style="fill: none; stroke: #000000; stroke-width: 0.8; stroke-linejoin: miter; stroke-linecap: square"/>
   </g>
   <g id="patch_6">
    <path d="M 52.079375 23.837812 
L 610.079375 23.837812 
" style="fill: none; stroke: #000000; stroke-width: 0.8; stroke-linejoin: miter; stroke-linecap: square"/>
   </g>
   <g id="text_18">
    <!-- Training and Validation Loss -->
    <g transform="translate(233.698437 17.837812) scale(0.14 -0.14)">
     <defs>
      <path id="DejaVuSans-54" d="M -19 4666 
L 3928 4666 
L 3928 4134 
L 2272 4134 
L 2272 0 
L 1638 0 
L 1638 4134 
L -19 4134 
L -19 4666 
z
" transform="scale(0.015625)"/>
      <path id="DejaVuSans-72" d="M 2631 2963 
Q 2534 3019 2420 3045 
Q 2306 3072 2169 3072 
Q 1681 3072 1420 2755 
Q 1159 2438 1159 1844 
L 1159 0 
L 581 0 
L 581 3500 
L 1159 3500 
L 1159 2956 
Q 1341 3275 1631 3429 
Q 1922 3584 2338 3584 
Q 2397 3584 2469 3576 
Q 2541 3569 2628 3553 
L 2631 2963 
z
" transform="scale(0.015625)"/>
      <path id="DejaVuSans-61" d="M 2194 1759 
Q 1497 1759 1228 1600 
Q 959 1441 959 1056 
Q 959 750 1161 570 
Q 1363 391 1709 391 
Q 2188 391 2477 730 
Q 2766 1069 2766 1631 
L 2766 1759 
L 2194 1759 
z
M 3341 1997 
L 3341 0 
L 2766 0 
L 2766 531 
Q 2569 213 2275 61 
Q 1981 -91 1556 -91 
Q 1019 -91 701 211 
Q 384 513 384 1019 
Q 384 1609 779 1909 
Q 1175 2209 1959 2209 
L 2766 2209 
L 2766 2266 
Q 2766 2663 2505 2880 
Q 2244 3097 1772 3097 
Q 1472 3097 1187 3025 
Q 903 2953 641 2809 
L 641 3341 
Q 956 3463 1253 3523 
Q 1550 3584 1831 3584 
Q 2591 3584 2966 3190 
Q 3341 2797 3341 1997 
z
" transform="scale(0.015625)"/>
      <path id="DejaVuSans-69" d="M 603 3500 
L 1178 3500 
L 1178 0 
L 603 0 
L 603 3500 
z
M 603 4863 
L 1178 4863 
L 1178 4134 
L 603 4134 
L 603 4863 
z
" transform="scale(0.015625)"/>
      <path id="DejaVuSans-6e" d="M 3513 2113 
L 3513 0 
L 2938 0 
L 2938 2094 
Q 2938 2591 2744 2837 
Q 2550 3084 2163 3084 
Q 1697 3084 1428 2787 
Q 1159 2491 1159 1978 
L 1159 0 
L 581 0 
L 581 3500 
L 1159 3500 
L 1159 2956 
Q 1366 3272 1645 3428 
Q 1925 3584 2291 3584 
Q 2894 3584 3203 3211 
Q 3513 2838 3513 2113 
z
" transform="scale(0.015625)"/>
      <path id="DejaVuSans-67" d="M 2906 1791 
Q 2906 2416 2648 2759 
Q 2391 3103 1925 3103 
Q 1463 3103 1205 2759 
Q 947 2416 947 1791 
Q 947 1169 1205 825 
Q 1463 481 1925 481 
Q 2391 481 2648 825 
Q 2906 1169 2906 1791 
z
M 3481 434 
Q 3481 -459 3084 -895 
Q 2688 -1331 1869 -1331 
Q 1566 -1331 1297 -1286 
Q 1028 -1241 775 -1147 
L 775 -588 
Q 1028 -725 1275 -790 
Q 1522 -856 1778 -856 
Q 2344 -856 2625 -561 
Q 2906 -266 2906 331 
L 2906 616 
Q 2728 306 2450 153 
Q 2172 0 1784 0 
Q 1141 0 747 490 
Q 353 981 353 1791 
Q 353 2603 747 3093 
Q 1141 3584 1784 3584 
Q 2172 3584 2450 3431 
Q 2728 3278 2906 2969 
L 2906 3500 
L 3481 3500 
L 3481 434 
z
" transform="scale(0.015625)"/>
      <path id="DejaVuSans-20" transform="scale(0.015625)"/>
      <path id="DejaVuSans-64" d="M 2906 2969 
L 2906 4863 
L 3481 4863 
L 3481 0 
L 2906 0 
L 2906 525 
Q 2725 213 2448 61 
Q 2172 -91 1784 -91 
Q 1150 -91 751 415 
Q 353 922 353 1747 
Q 353 2572 751 3078 
Q 1150 3584 1784 3584 
Q 2172 3584 2448 3432 
Q 2725 3281 2906 2969 
z
M 947 1747 
Q 947 1113 1208 752 
Q 1469 391 1925 391 
Q 2381 391 2643 752 
Q 2906 1113 2906 1747 
Q 2906 2381 2643 2742 
Q 2381 3103 1925 3103 
Q 1469 3103 1208 2742 
Q 947 2381 947 1747 
z
" transform="scale(0.015625)"/>
      <path id="DejaVuSans-56" d="M 1831 0 
L 50 4666 
L 709 4666 
L 2188 738 
L 3669 4666 
L 4325 4666 
L 2547 0 
L 1831 0 
z
" transform="scale(0.015625)"/>
      <path id="DejaVuSans-6c" d="M 603 4863 
L 1178 4863 
L 1178 0 
L 603 0 
L 603 4863 
z
" transform="scale(0.015625)"/>
      <path id="DejaVuSans-74" d="M 1172 4494 
L 1172 3500 
L 2356 3500 
L 2356 3053 
L 1172 3053 
L 1172 1153 
Q 1172 725 1289 603 
Q 1406 481 1766 481 
L 2356 481 
L 2356 0 
L 1766 0 
Q 1100 0 847 248 
Q 594 497 594 1153 
L 594 3053 
L 172 3053 
L 172 3500 
L 594 3500 
L 594 4494 
L 1172 4494 
z
" transform="scale(0.015625)"/>
     </defs>
     <use xlink:href="#DejaVuSans-54"/>
     <use xlink:href="#DejaVuSans-72" x="46.333984"/>
     <use xlink:href="#DejaVuSans-61" x="87.447266"/>
     <use xlink:href="#DejaVuSans-69" x="148.726562"/>
     <use xlink:href="#DejaVuSans-6e" x="176.509766"/>
     <use xlink:href="#DejaVuSans-69" x="239.888672"/>
     <use xlink:href="#DejaVuSans-6e" x="267.671875"/>
     <use xlink:href="#DejaVuSans-67" x="331.050781"/>
     <use xlink:href="#DejaVuSans-20" x="394.527344"/>
     <use xlink:href="#DejaVuSans-61" x="426.314453"/>
     <use xlink:href="#DejaVuSans-6e" x="487.59375"/>
     <use xlink:href="#DejaVuSans-64" x="550.972656"/>
     <use xlink:href="#DejaVuSans-20" x="614.449219"/>
     <use xlink:href="#DejaVuSans-56" x="646.236328"/>
     <use xlink:href="#DejaVuSans-61" x="706.894531"/>
     <use xlink:href="#DejaVuSans-6c" x="768.173828"/>
     <use xlink:href="#DejaVuSans-69" x="795.957031"/>
     <use xlink:href="#DejaVuSans-64" x="823.740234"/>
     <use xlink:href="#DejaVuSans-61" x="887.216797"/>
     <use xlink:href="#DejaVuSans-74" x="948.496094"/>
     <use xlink:href="#DejaVuSans-69" x="987.705078"/>
     <use xlink:href="#DejaVuSans-6f" x="1015.488281"/>
     <use xlink:href="#DejaVuSans-6e" x="1076.669922"/>
     <use xlink:href="#DejaVuSans-20" x="1140.048828"/>
     <use xlink:href="#DejaVuSans-4c" x="1171.835938"/>
     <use xlink:href="#DejaVuSans-6f" x="1225.798828"/>
     <use xlink:href="#DejaVuSans-73" x="1286.980469"/>
     <use xlink:href="#DejaVuSans-73" x="1339.080078"/>
    </g>
   </g>
   <g id="legend_1">
    <g id="patch_7">
     <path d="M 521.979375 61.194062 
L 603.079375 61.194062 
Q 605.079375 61.194062 605.079375 59.194062 
L 605.079375 30.837812 
Q 605.079375 28.837812 603.079375 28.837812 
L 521.979375 28.837812 
Q 519.979375 28.837812 519.979375 30.837812 
L 519.979375 59.194062 
Q 519.979375 61.194062 521.979375 61.194062 
z
" style="fill: #ffffff; opacity: 0.8; stroke: #cccccc; stroke-linejoin: miter"/>
    </g>
    <g id="line2d_33">
     <path d="M 523.979375 36.93625 
L 533.979375 36.93625 
L 543.979375 36.93625 
" style="fill: none; stroke: #0000ff; stroke-width: 2; stroke-linecap: square"/>
    </g>
    <g id="text_19">
     <!-- Train Loss -->
     <g transform="translate(551.979375 40.43625) scale(0.1 -0.1)">
      <use xlink:href="#DejaVuSans-54"/>
      <use xlink:href="#DejaVuSans-72" x="46.333984"/>
      <use xlink:href="#DejaVuSans-61" x="87.447266"/>
      <use xlink:href="#DejaVuSans-69" x="148.726562"/>
      <use xlink:href="#DejaVuSans-6e" x="176.509766"/>
      <use xlink:href="#DejaVuSans-20" x="239.888672"/>
      <use xlink:href="#DejaVuSans-4c" x="271.675781"/>
      <use xlink:href="#DejaVuSans-6f" x="325.638672"/>
      <use xlink:href="#DejaVuSans-73" x="386.820312"/>
      <use xlink:href="#DejaVuSans-73" x="438.919922"/>
     </g>
    </g>
    <g id="line2d_34">
     <path d="M 523.979375 51.614375 
L 533.979375 51.614375 
L 543.979375 51.614375 
" style="fill: none; stroke: #ff0000; stroke-width: 2; stroke-linecap: square"/>
    </g>
    <g id="text_20">
     <!-- Val loss -->
     <g transform="translate(551.979375 55.114375) scale(0.1 -0.1)">
      <use xlink:href="#DejaVuSans-56"/>
      <use xlink:href="#DejaVuSans-61" x="60.658203"/>
      <use xlink:href="#DejaVuSans-6c" x="121.9375"/>
      <use xlink:href="#DejaVuSans-20" x="149.720703"/>
      <use xlink:href="#DejaVuSans-6c" x="181.507812"/>
      <use xlink:href="#DejaVuSans-6f" x="209.291016"/>
      <use xlink:href="#DejaVuSans-73" x="270.472656"/>
      <use xlink:href="#DejaVuSans-73" x="322.572266"/>
     </g>
    </g>
   </g>
  </g>
 </g>
 <defs>
  <clipPath id="p952957f911">
   <rect x="52.079375" y="23.837812" width="558" height="332.64"/>
  </clipPath>
 </defs>
</svg>
