<?xml version="1.0" encoding="utf-8" standalone="no"?>
<!DOCTYPE svg PUBLIC "-//W3C//DTD SVG 1.1//EN"
  "http://www.w3.org/Graphics/SVG/1.1/DTD/svg11.dtd">
<svg xmlns:xlink="http://www.w3.org/1999/xlink" width="617.279375pt" height="395.969687pt" viewBox="0 0 617.279375 395.969687" xmlns="http://www.w3.org/2000/svg" version="1.1">
 <metadata>
  <rdf:RDF xmlns:dc="http://purl.org/dc/elements/1.1/" xmlns:cc="http://creativecommons.org/ns#" xmlns:rdf="http://www.w3.org/1999/02/22-rdf-syntax-ns#">
   <cc:Work>
    <dc:type rdf:resource="http://purl.org/dc/dcmitype/StillImage"/>
    <dc:date>2026-04-15T09:42:40.658031</dc:date>
    <dc:format>image/svg+xml</dc:format>
    <dc:creator>
     <cc:Agent>
      <dc:title>Matplotlib v3.9.0, https://matplotlib.org/</dc:title>
     </cc:Agent>
    </dc:creator>
   </cc:Work>
  </rdf:RDF>
 </metadata>
 <defs>
  <style type="text/css">*{stroke-linejoin: round; stroke-linecap: butt}</style>
 </defs>
 <g id="figure_1">
  <g id="patch_1">
   <path d="M 0 395.969687 
L 617.279375 395.969687 
L 617.279375 0 
L 0 0 
z
" style="fill: #ffffff"/>
  </g>
  <g id="axes_1">
   <g id="patch_2">
    <path d="M 52.079375 356.477812 
L 610.079375 356.477812 
L 610.079375 23.837812 
L 52.079375 23.837812 
z
" style="fill: #ffffff"/>
   </g>
   <g id="matplotlib.axis_1">
    <g id="xtick_1">
     <g id="line2d_1">
      <path d="M 77.443011 356.477812 
L 77.443011 23.837812 
" clip-path="url(#pccba5d894f)" style="fill: none; stroke: #b0b0b0; stroke-opacity: 0.3; stroke-width: 0.8; stroke-linecap: square"/>
     </g>
     <g id="line2d_2">
      <defs>
       <path id="mfd031f8b20" d="M 0 0 
L 0 3.5 
" style="stroke: #000000; stroke-width: 0.8"/>
      </defs>
      <g>
       <use xlink:href="#mfd031f8b20" x="77.443011" y="356.477812" style="stroke: #000000; stroke-width: 0.8"/>
      </g>
     </g>
     <g id="text_1">
      <!-- 0 -->
      <g transform="translate(74.261761 371.07625) scale(0.1 -0.1)">
       <defs>
        <path id="DejaVuSans-30" d="M 2034 4250 
Q 1547 4250 1301 3770 
Q 1056 3291 1056 2328 
Q 1056 1369 1301 889 
Q 1547 409 2034 409 
Q 2525 409 2770 889 
Q 3016 1369 3016 2328 
Q 3016 3291 2770 3770 
Q 2525 4250 2034 4250 
z
M 2034 4750 
Q 2819 4750 3233 4129 
Q 3647 3509 3647 2328 
Q 3647 1150 3233 529 
Q 2819 -91 2034 -91 
Q 1250 -91 836 529 
Q 422 1150 422 2328 
Q 422 3509 836 4129 
Q 1250 4750 2034 4750 
z
" transform="scale(0.015625)"/>
       </defs>
       <use xlink:href="#DejaVuSans-30"/>
      </g>
     </g>
    </g>
    <g id="xtick_2">
     <g id="line2d_3">
      <path d="M 192.210597 356.477812 
L 192.210597 23.837812 
" clip-path="url(#pccba5d894f)" style="fill: none; stroke: #b0b0b0; stroke-opacity: 0.3; stroke-width: 0.8; stroke-linecap: square"/>
     </g>
     <g id="line2d_4">
      <g>
       <use xlink:href="#mfd031f8b20" x="192.210597" y="356.477812" style="stroke: #000000; stroke-width: 0.8"/>
      </g>
     </g>
     <g id="text_2">
      <!-- 50 -->
      <g transform="translate(185.848097 371.07625) scale(0.1 -0.1)">
       <defs>
        <path id="DejaVuSans-35" d="M 691 4666 
L 3169 4666 
L 3169 4134 
L 1269 4134 
L 1269 2991 
Q 1406 3038 1543 3061 
Q 1681 3084 1819 3084 
Q 2600 3084 3056 2656 
Q 3513 2228 3513 1497 
Q 3513 744 3044 326 
Q 2575 -91 1722 -91 
Q 1428 -91 1123 -41 
Q 819 9 494 109 
L 494 744 
Q 775 591 1075 516 
Q 1375 441 1709 441 
Q 2250 441 2565 725 
Q 2881 1009 2881 1497 
Q 2881 1984 2565 2268 
Q 2250 2553 1709 2553 
Q 1456 2553 1204 2497 
Q 953 2441 691 2322 
L 691 4666 
z
" transform="scale(0.015625)"/>
       </defs>
       <use xlink:href="#DejaVuSans-35"/>
       <use xlink:href="#DejaVuSans-30" x="63.623047"/>
      </g>
     </g>
    </g>
    <g id="xtick_3">
     <g id="line2d_5">
      <path d="M 306.978182 356.477812 
L 306.978182 23.837812 
" clip-path="url(#pccba5d894f)" style="fill: none; stroke: #b0b0b0; stroke-opacity: 0.3; stroke-width: 0.8; stroke-linecap: square"/>
     </g>
     <g id="line2d_6">
      <g>
       <use xlink:href="#mfd031f8b20" x="306.978182" y="356.477812" style="stroke: #000000; stroke-width: 0.8"/>
      </g>
     </g>
     <g id="text_3">
      <!-- 100 -->
      <g transform="translate(297.434432 371.07625) scale(0.1 -0.1)">
       <defs>
        <path id="DejaVuSans-31" d="M 794 531 
L 1825 531 
L 1825 4091 
L 703 3866 
L 703 4441 
L 1819 4666 
L 2450 4666 
L 2450 531 
L 3481 531 
L 3481 0 
L 794 0 
L 794 531 
z
" transform="scale(0.015625)"/>
       </defs>
       <use xlink:href="#DejaVuSans-31"/>
       <use xlink:href="#DejaVuSans-30" x="63.623047"/>
       <use xlink:href="#DejaVuSans-30" x="127.246094"/>
      </g>
     </g>
    </g>
    <g id="xtick_4">
     <g id="line2d_7">
      <path d="M 421.745767 356.477812 
L 421.745767 23.837812 
" clip-path="url(#pccba5d894f)" style="fill: none; stroke: #b0b0b0; stroke-opacity: 0.3; stroke-width: 0.8; stroke-linecap: square"/>
     </g>
     <g id="line2d_8">
      <g>
       <use xlink:href="#mfd031f8b20" x="421.745767" y="356.477812" style="stroke: #000000; stroke-width: 0.8"/>
      </g>
     </g>
     <g id="text_4">
      <!-- 150 -->
      <g transform="translate(412.202017 371.07625) scale(0.1 -0.1)">
       <use xlink:href="#DejaVuSans-31"/>
       <use xlink:href="#DejaVuSans-35" x="63.623047"/>
       <use xlink:href="#DejaVuSans-30" x="127.246094"/>
      </g>
     </g>
    </g>
    <g id="xtick_5">
     <g id="line2d_9">
      <path d="M 536.513353 356.477812 
L 536.513353 23.837812 
" clip-path="url(#pccba5d894f)" style="fill: none; stroke: #b0b0b0; stroke-opacity: 0.3; stroke-width: 0.8; stroke-linecap: square"/>
     </g>
     <g id="line2d_10">
      <g>
       <use xlink:href="#mfd031f8b20" x="536.513353" y="356.477812" style="stroke: #000000; stroke-width: 0.8"/>
      </g>
     </g>
     <g id="text_5">
      <!-- 200 -->
      <g transform="translate(526.969603 371.07625) scale(0.1 -0.1)">
       <defs>
        <path id="DejaVuSans-32" d="M 1228 531 
L 3431 531 
L 3431 0 
L 469 0 
L 469 531 
Q 828 903 1448 1529 
Q 2069 2156 2228 2338 
Q 2531 2678 2651 2914 
Q 2772 3150 2772 3378 
Q 2772 3750 2511 3984 
Q 2250 4219 1831 4219 
Q 1534 4219 1204 4116 
Q 875 4013 500 3803 
L 500 4441 
Q 881 4594 1212 4672 
Q 1544 4750 1819 4750 
Q 2544 4750 2975 4387 
Q 3406 4025 3406 3419 
Q 3406 3131 3298 2873 
Q 3191 2616 2906 2266 
Q 2828 2175 2409 1742 
Q 1991 1309 1228 531 
z
" transform="scale(0.015625)"/>
       </defs>
       <use xlink:href="#DejaVuSans-32"/>
       <use xlink:href="#DejaVuSans-30" x="63.623047"/>
       <use xlink:href="#DejaVuSans-30" x="127.246094"/>
      </g>
     </g>
    </g>
    <g id="text_6">
     <!-- Epoch -->
     <g transform="translate(312.70625 386.274062) scale(0.12 -0.12)">
      <defs>
       <path id="DejaVuSans-45" d="M 628 4666 
L 3578 4666 
L 3578 4134 
L 1259 4134 
L 1259 2753 
L 3481 2753 
L 3481 2222 
L 1259 2222 
L 1259 531 
L 3634 531 
L 3634 0 
L 628 0 
L 628 4666 
z
" transform="scale(0.015625)"/>
       <path id="DejaVuSans-70" d="M 1159 525 
L 1159 -1331 
L 581 -1331 
L 581 3500 
L 1159 3500 
L 1159 2969 
Q 1341 3281 1617 3432 
Q 1894 3584 2278 3584 
Q 2916 3584 3314 3078 
Q 3713 2572 3713 1747 
Q 3713 922 3314 415 
Q 2916 -91 2278 -91 
Q 1894 -91 1617 61 
Q 1341 213 1159 525 
z
M 3116 1747 
Q 3116 2381 2855 2742 
Q 2594 3103 2138 3103 
Q 1681 3103 1420 2742 
Q 1159 2381 1159 1747 
Q 1159 1113 1420 752 
Q 1681 391 2138 391 
Q 2594 391 2855 752 
Q 3116 1113 3116 1747 
z
" transform="scale(0.015625)"/>
       <path id="DejaVuSans-6f" d="M 1959 3097 
Q 1497 3097 1228 2736 
Q 959 2375 959 1747 
Q 959 1119 1226 758 
Q 1494 397 1959 397 
Q 2419 397 2687 759 
Q 2956 1122 2956 1747 
Q 2956 2369 2687 2733 
Q 2419 3097 1959 3097 
z
M 1959 3584 
Q 2709 3584 3137 3096 
Q 3566 2609 3566 1747 
Q 3566 888 3137 398 
Q 2709 -91 1959 -91 
Q 1206 -91 779 398 
Q 353 888 353 1747 
Q 353 2609 779 3096 
Q 1206 3584 1959 3584 
z
" transform="scale(0.015625)"/>
       <path id="DejaVuSans-63" d="M 3122 3366 
L 3122 2828 
Q 2878 2963 2633 3030 
Q 2388 3097 2138 3097 
Q 1578 3097 1268 2742 
Q 959 2388 959 1747 
Q 959 1106 1268 751 
Q 1578 397 2138 397 
Q 2388 397 2633 464 
Q 2878 531 3122 666 
L 3122 134 
Q 2881 22 2623 -34 
Q 2366 -91 2075 -91 
Q 1284 -91 818 406 
Q 353 903 353 1747 
Q 353 2603 823 3093 
Q 1294 3584 2113 3584 
Q 2378 3584 2631 3529 
Q 2884 3475 3122 3366 
z
" transform="scale(0.015625)"/>
       <path id="DejaVuSans-68" d="M 3513 2113 
L 3513 0 
L 2938 0 
L 2938 2094 
Q 2938 2591 2744 2837 
Q 2550 3084 2163 3084 
Q 1697 3084 1428 2787 
Q 1159 2491 1159 1978 
L 1159 0 
L 581 0 
L 581 4863 
L 1159 4863 
L 1159 2956 
Q 1366 3272 1645 3428 
Q 1925 3584 2291 3584 
Q 2894 3584 3203 3211 
Q 3513 2838 3513 2113 
z
" transform="scale(0.015625)"/>
      </defs>
      <use xlink:href="#DejaVuSans-45"/>
      <use xlink:href="#DejaVuSans-70" x="63.183594"/>
      <use xlink:href="#DejaVuSans-6f" x="126.660156"/>
      <use xlink:href="#DejaVuSans-63" x="187.841797"/>
      <use xlink:href="#DejaVuSans-68" x="242.822266"/>
     </g>
    </g>
   </g>
   <g id="matplotlib.axis_2">
    <g id="ytick_1">
     <g id="line2d_11">
      <path d="M 52.079375 290.706128 
L 610.079375 290.706128 
" clip-path="url(#pccba5d894f)" style="fill: none; stroke: #b0b0b0; stroke-opacity: 0.3; stroke-width: 0.8; stroke-linecap: square"/>
     </g>
     <g id="line2d_12">
      <defs>
       <path id="m1aebed38cf" d="M 0 0 
L -3.5 0 
" style="stroke: #000000; stroke-width: 0.8"/>
      </defs>
      <g>
       <use xlink:href="#m1aebed38cf" x="52.079375" y="290.706128" style="stroke: #000000; stroke-width: 0.8"/>
      </g>
     </g>
     <g id="text_7">
      <!-- 0.06 -->
      <g transform="translate(22.81375 294.505347) scale(0.1 -0.1)">
       <defs>
        <path id="DejaVuSans-2e" d="M 684 794 
L 1344 794 
L 1344 0 
L 684 0 
L 684 794 
z
" transform="scale(0.015625)"/>
        <path id="DejaVuSans-36" d="M 2113 2584 
Q 1688 2584 1439 2293 
Q 1191 2003 1191 1497 
Q 1191 994 1439 701 
Q 1688 409 2113 409 
Q 2538 409 2786 701 
Q 3034 994 3034 1497 
Q 3034 2003 2786 2293 
Q 2538 2584 2113 2584 
z
M 3366 4563 
L 3366 3988 
Q 3128 4100 2886 4159 
Q 2644 4219 2406 4219 
Q 1781 4219 1451 3797 
Q 1122 3375 1075 2522 
Q 1259 2794 1537 2939 
Q 1816 3084 2150 3084 
Q 2853 3084 3261 2657 
Q 3669 2231 3669 1497 
Q 3669 778 3244 343 
Q 2819 -91 2113 -91 
Q 1303 -91 875 529 
Q 447 1150 447 2328 
Q 447 3434 972 4092 
Q 1497 4750 2381 4750 
Q 2619 4750 2861 4703 
Q 3103 4656 3366 4563 
z
" transform="scale(0.015625)"/>
       </defs>
       <use xlink:href="#DejaVuSans-30"/>
       <use xlink:href="#DejaVuSans-2e" x="63.623047"/>
       <use xlink:href="#DejaVuSans-30" x="95.410156"/>
       <use xlink:href="#DejaVuSans-36" x="159.033203"/>
      </g>
     </g>
    </g>
    <g id="ytick_2">
     <g id="line2d_13">
      <path d="M 52.079375 221.578124 
L 610.079375 221.578124 
" clip-path="url(#pccba5d894f)" style="fill: none; stroke: #b0b0b0; stroke-opacity: 0.3; stroke-width: 0.8; stroke-linecap: square"/>
     </g>
     <g id="line2d_14">
      <g>
       <use xlink:href="#m1aebed38cf" x="52.079375" y="221.578124" style="stroke: #000000; stroke-width: 0.8"/>
      </g>
     </g>
     <g id="text_8">
      <!-- 0.08 -->
      <g transform="translate(22.81375 225.377343) scale(0.1 -0.1)">
       <defs>
        <path id="DejaVuSans-38" d="M 2034 2216 
Q 1584 2216 1326 1975 
Q 1069 1734 1069 1313 
Q 1069 891 1326 650 
Q 1584 409 2034 409 
Q 2484 409 2743 651 
Q 3003 894 3003 1313 
Q 3003 1734 2745 1975 
Q 2488 2216 2034 2216 
z
M 1403 2484 
Q 997 2584 770 2862 
Q 544 3141 544 3541 
Q 544 4100 942 4425 
Q 1341 4750 2034 4750 
Q 2731 4750 3128 4425 
Q 3525 4100 3525 3541 
Q 3525 3141 3298 2862 
Q 3072 2584 2669 2484 
Q 3125 2378 3379 2068 
Q 3634 1759 3634 1313 
Q 3634 634 3220 271 
Q 2806 -91 2034 -91 
Q 1263 -91 848 271 
Q 434 634 434 1313 
Q 434 1759 690 2068 
Q 947 2378 1403 2484 
z
M 1172 3481 
Q 1172 3119 1398 2916 
Q 1625 2713 2034 2713 
Q 2441 2713 2670 2916 
Q 2900 3119 2900 3481 
Q 2900 3844 2670 4047 
Q 2441 4250 2034 4250 
Q 1625 4250 1398 4047 
Q 1172 3844 1172 3481 
z
" transform="scale(0.015625)"/>
       </defs>
       <use xlink:href="#DejaVuSans-30"/>
       <use xlink:href="#DejaVuSans-2e" x="63.623047"/>
       <use xlink:href="#DejaVuSans-30" x="95.410156"/>
       <use xlink:href="#DejaVuSans-38" x="159.033203"/>
      </g>
     </g>
    </g>
    <g id="ytick_3">
     <g id="line2d_15">
      <path d="M 52.079375 152.450121 
L 610.079375 152.450121 
" clip-path="url(#pccba5d894f)" style="fill: none; stroke: #b0b0b0; stroke-opacity: 0.3; stroke-width: 0.8; stroke-linecap: square"/>
     </g>
     <g id="line2d_16">
      <g>
       <use xlink:href="#m1aebed38cf" x="52.079375" y="152.450121" style="stroke: #000000; stroke-width: 0.8"/>
      </g>
     </g>
     <g id="text_9">
      <!-- 0.10 -->
      <g transform="translate(22.81375 156.249339) scale(0.1 -0.1)">
       <use xlink:href="#DejaVuSans-30"/>
       <use xlink:href="#DejaVuSans-2e" x="63.623047"/>
       <use xlink:href="#DejaVuSans-31" x="95.410156"/>
       <use xlink:href="#DejaVuSans-30" x="159.033203"/>
      </g>
     </g>
    </g>
    <g id="ytick_4">
     <g id="line2d_17">
      <path d="M 52.079375 83.322117 
L 610.079375 83.322117 
" clip-path="url(#pccba5d894f)" style="fill: none; stroke: #b0b0b0; stroke-opacity: 0.3; stroke-width: 0.8; stroke-linecap: square"/>
     </g>
     <g id="line2d_18">
      <g>
       <use xlink:href="#m1aebed38cf" x="52.079375" y="83.322117" style="stroke: #000000; stroke-width: 0.8"/>
      </g>
     </g>
     <g id="text_10">
      <!-- 0.12 -->
      <g transform="translate(22.81375 87.121336) scale(0.1 -0.1)">
       <use xlink:href="#DejaVuSans-30"/>
       <use xlink:href="#DejaVuSans-2e" x="63.623047"/>
       <use xlink:href="#DejaVuSans-31" x="95.410156"/>
       <use xlink:href="#DejaVuSans-32" x="159.033203"/>
      </g>
     </g>
    </g>
    <g id="text_11">
     <!-- Loss -->
     <g transform="translate(16.318125 203.318437) rotate(-90) scale(0.12 -0.12)">
      <defs>
       <path id="DejaVuSans-4c" d="M 628 4666 
L 1259 4666 
L 1259 531 
L 3531 531 
L 3531 0 
L 628 0 
L 628 4666 
z
" transform="scale(0.015625)"/>
       <path id="DejaVuSans-73" d="M 2834 3397 
L 2834 2853 
Q 2591 2978 2328 3040 
Q 2066 3103 1784 3103 
Q 1356 3103 1142 2972 
Q 928 2841 928 2578 
Q 928 2378 1081 2264 
Q 1234 2150 1697 2047 
L 1894 2003 
Q 2506 1872 2764 1633 
Q 3022 1394 3022 966 
Q 3022 478 2636 193 
Q 2250 -91 1575 -91 
Q 1294 -91 989 -36 
Q 684 19 347 128 
L 347 722 
Q 666 556 975 473 
Q 1284 391 1588 391 
Q 1994 391 2212 530 
Q 2431 669 2431 922 
Q 2431 1156 2273 1281 
Q 2116 1406 1581 1522 
L 1381 1569 
Q 847 1681 609 1914 
Q 372 2147 372 2553 
Q 372 3047 722 3315 
Q 1072 3584 1716 3584 
Q 2034 3584 2315 3537 
Q 2597 3491 2834 3397 
z
" transform="scale(0.015625)"/>
      </defs>
      <use xlink:href="#DejaVuSans-4c"/>
      <use xlink:href="#DejaVuSans-6f" x="53.962891"/>
      <use xlink:href="#DejaVuSans-73" x="115.144531"/>
      <use xlink:href="#DejaVuSans-73" x="167.244141"/>
     </g>
    </g>
   </g>
   <g id="line2d_19">
    <path d="M 77.443011 38.957812 
L 79.738363 144.270891 
L 82.033715 173.128918 
L 84.329066 188.945808 
L 86.624418 199.587786 
L 88.91977 207.764348 
L 91.215122 214.232712 
L 93.510473 219.832768 
L 95.805825 224.484375 
L 98.101177 228.652832 
L 100.396528 232.076161 
L 102.69188 234.755484 
L 104.987232 237.699612 
L 109.577935 242.869009 
L 111.873287 244.548642 
L 114.168639 246.545447 
L 118.759342 250.102768 
L 123.350046 253.091418 
L 125.645397 254.783958 
L 130.236101 257.554972 
L 132.531452 259.150088 
L 139.417507 263.282421 
L 144.008211 266.240823 
L 164.666376 278.329835 
L 166.961728 279.451199 
L 169.25708 280.805855 
L 171.552431 281.662347 
L 173.847783 283.179539 
L 178.438486 285.288255 
L 183.02919 287.276981 
L 185.324542 288.410343 
L 189.915245 289.932015 
L 192.210597 290.917124 
L 194.505948 291.520361 
L 196.8013 292.38363 
L 201.392004 293.430817 
L 203.687355 293.965947 
L 208.278059 294.635144 
L 210.57341 295.008633 
L 215.164114 295.382584 
L 217.459465 295.656943 
L 219.754817 295.723056 
L 222.050169 251.754778 
L 224.345521 249.910125 
L 226.640872 250.76087 
L 228.936224 251.226017 
L 231.231576 251.895929 
L 235.822279 253.624617 
L 238.117631 253.805619 
L 240.412983 254.503777 
L 242.708334 254.918534 
L 245.003686 255.755561 
L 247.299038 255.987386 
L 249.594389 256.594265 
L 251.889741 257.321239 
L 256.480445 258.106111 
L 258.775796 258.989741 
L 261.071148 259.13263 
L 263.3665 259.603166 
L 265.661851 260.460732 
L 267.957203 260.725526 
L 270.252555 261.183333 
L 272.547906 261.473978 
L 274.843258 262.03464 
L 277.13861 262.821591 
L 279.433962 262.556787 
L 281.729313 264.058853 
L 284.024665 264.066686 
L 286.320017 264.656637 
L 288.615368 264.761039 
L 300.092127 267.241863 
L 302.387479 268.16291 
L 306.978182 268.936285 
L 311.568885 269.637354 
L 313.864237 270.485887 
L 316.159589 270.885637 
L 318.454941 271.415915 
L 320.750292 271.735257 
L 323.045644 272.423946 
L 325.340996 272.741342 
L 327.636347 273.494412 
L 329.931699 273.86335 
L 339.113106 276.139188 
L 345.999161 277.668059 
L 348.294513 278.610881 
L 350.589865 279.117393 
L 352.885216 279.50823 
L 355.180568 280.265419 
L 359.771271 281.0208 
L 362.066623 282.094447 
L 364.361975 282.632028 
L 366.657326 282.945183 
L 368.952678 283.634564 
L 371.24803 284.024881 
L 373.543382 284.87249 
L 375.838733 285.518531 
L 380.429437 286.568788 
L 382.724788 287.144464 
L 385.02014 287.947047 
L 387.315492 288.256417 
L 391.906195 289.539803 
L 394.201547 289.999695 
L 396.496899 290.605667 
L 398.79225 291.366634 
L 403.382954 292.480379 
L 407.973657 293.431582 
L 412.564361 294.777996 
L 414.859712 295.235231 
L 419.450416 296.438548 
L 428.631823 298.583303 
L 430.927174 299.225121 
L 435.517878 300.033041 
L 442.403933 301.602875 
L 449.289988 302.736853 
L 451.58534 303.344879 
L 453.880691 303.704836 
L 456.176043 304.258628 
L 458.471395 304.448974 
L 463.062098 305.311318 
L 465.35745 305.449268 
L 467.652802 305.998469 
L 469.948153 306.208328 
L 472.243505 306.584426 
L 474.538857 306.811821 
L 476.834208 306.920041 
L 479.12956 307.421252 
L 481.424912 307.572924 
L 486.015615 308.152634 
L 488.310967 308.299803 
L 490.606319 308.20978 
L 497.492374 308.8775 
L 502.083077 309.015223 
L 508.969132 309.221087 
L 511.264484 309.14685 
L 513.559836 309.320628 
L 515.855187 261.149794 
L 518.150539 258.991709 
L 525.036594 260.460708 
L 527.331946 261.211035 
L 538.808704 263.606816 
L 541.104056 263.959234 
L 543.399408 263.918208 
L 545.69476 264.205141 
L 547.990111 265.052975 
L 550.285463 265.294165 
L 552.580815 265.837005 
L 554.876166 265.417867 
L 557.171518 266.013752 
L 559.46687 266.455819 
L 561.762222 266.438037 
L 564.057573 266.732933 
L 566.352925 266.435159 
L 568.648277 267.278927 
L 570.943628 267.495127 
L 573.23898 267.423633 
L 575.534332 267.896784 
L 580.125035 267.954807 
L 582.420387 268.633304 
L 584.715739 268.033836 
L 584.715739 268.033836 
" clip-path="url(#pccba5d894f)" style="fill: none; stroke: #0000ff; stroke-width: 2; stroke-linecap: square"/>
   </g>
   <g id="line2d_20">
    <path d="M 77.443011 165.211177 
L 79.738363 195.210456 
L 82.033715 221.16566 
L 84.329066 230.944327 
L 86.624418 236.127629 
L 88.91977 247.672999 
L 91.215122 257.075901 
L 93.510473 260.187379 
L 95.805825 264.160341 
L 98.101177 263.304843 
L 100.396528 270.270058 
L 102.69188 276.062644 
L 104.987232 273.669718 
L 107.282584 279.249042 
L 109.577935 279.09731 
L 111.873287 281.511932 
L 114.168639 282.575605 
L 116.46399 283.274511 
L 118.759342 287.391864 
L 121.054694 286.919703 
L 123.350046 290.731315 
L 125.645397 292.166522 
L 127.940749 295.142669 
L 130.236101 292.683604 
L 132.531452 295.007379 
L 134.826804 295.349591 
L 137.122156 294.563846 
L 139.417507 297.97223 
L 141.712859 300.506699 
L 144.008211 305.056773 
L 146.303563 298.318927 
L 148.598914 304.266682 
L 150.894266 303.460452 
L 153.189618 309.318292 
L 155.484969 310.446111 
L 157.780321 308.775602 
L 160.075673 310.266612 
L 162.371025 309.550225 
L 164.666376 314.532441 
L 166.961728 315.788234 
L 169.25708 313.920365 
L 171.552431 315.66005 
L 173.847783 319.901112 
L 176.143135 320.98246 
L 178.438486 321.524424 
L 180.733838 322.589378 
L 183.02919 322.153587 
L 185.324542 322.946494 
L 187.619893 324.481744 
L 192.210597 325.04993 
L 194.505948 326.07381 
L 196.8013 326.718295 
L 199.096652 328.263916 
L 201.392004 328.888933 
L 203.687355 329.137011 
L 205.982707 329.844228 
L 210.57341 330.434417 
L 212.868762 330.336507 
L 215.164114 330.541574 
L 217.459465 330.985797 
L 219.754817 330.695392 
L 222.050169 289.494993 
L 224.345521 280.470119 
L 226.640872 289.978187 
L 228.936224 280.165475 
L 231.231576 278.221907 
L 233.526927 289.671835 
L 235.822279 288.74818 
L 238.117631 289.106485 
L 240.412983 288.512335 
L 242.708334 291.865916 
L 245.003686 296.204567 
L 247.299038 285.321317 
L 249.594389 296.367808 
L 251.889741 295.299698 
L 254.185093 291.689248 
L 256.480445 293.959237 
L 258.775796 289.055968 
L 261.071148 279.983999 
L 263.3665 296.046926 
L 265.661851 295.801463 
L 267.957203 295.100071 
L 270.252555 291.363232 
L 272.547906 297.350764 
L 274.843258 298.184162 
L 277.13861 293.169211 
L 279.433962 298.804978 
L 281.729313 299.518229 
L 284.024665 293.143611 
L 286.320017 300.72145 
L 288.615368 301.120892 
L 290.91072 293.608807 
L 293.206072 301.628065 
L 295.501424 300.164385 
L 300.092127 295.057983 
L 302.387479 302.188651 
L 304.68283 299.692059 
L 306.978182 304.047537 
L 309.273534 303.703204 
L 311.568885 304.266693 
L 313.864237 301.868879 
L 316.159589 300.943354 
L 318.454941 302.18229 
L 320.750292 302.940836 
L 323.045644 305.129761 
L 325.340996 306.466922 
L 327.636347 299.991904 
L 329.931699 307.923143 
L 332.227051 308.30484 
L 334.522403 308.359083 
L 336.817754 310.8474 
L 339.113106 306.42124 
L 341.408458 312.052573 
L 343.703809 304.688829 
L 345.999161 307.056671 
L 348.294513 308.16298 
L 350.589865 311.874038 
L 352.885216 311.15877 
L 355.180568 312.162721 
L 357.47592 312.416017 
L 359.771271 312.083173 
L 362.066623 313.017739 
L 364.361975 318.637454 
L 366.657326 317.930746 
L 368.952678 317.719336 
L 371.24803 316.549722 
L 373.543382 319.747711 
L 375.838733 321.000772 
L 378.134085 319.035846 
L 380.429437 320.507986 
L 385.02014 322.505781 
L 387.315492 315.324465 
L 389.610844 320.745252 
L 391.906195 318.260621 
L 394.201547 316.508911 
L 396.496899 321.135688 
L 398.79225 323.963676 
L 401.087602 324.537775 
L 403.382954 324.030405 
L 405.678305 323.286466 
L 407.973657 325.364803 
L 410.269009 326.388179 
L 412.564361 324.119569 
L 414.859712 326.924291 
L 417.155064 327.506549 
L 419.450416 330.247539 
L 421.745767 328.397222 
L 424.041119 324.384881 
L 426.336471 329.708597 
L 428.631823 330.67606 
L 430.927174 328.500484 
L 433.222526 330.307588 
L 435.517878 332.86554 
L 437.813229 332.625199 
L 440.108581 334.086631 
L 442.403933 332.975186 
L 444.699285 335.694789 
L 449.289988 335.577709 
L 451.58534 334.943475 
L 453.880691 335.645761 
L 456.176043 335.70358 
L 458.471395 337.44527 
L 463.062098 336.692496 
L 465.35745 337.042423 
L 467.652802 337.118417 
L 472.243505 339.117018 
L 474.538857 339.239223 
L 476.834208 338.694633 
L 479.12956 338.445776 
L 481.424912 340.171763 
L 483.720264 340.709776 
L 486.015615 339.698148 
L 488.310967 339.842256 
L 490.606319 340.403216 
L 492.90167 340.776636 
L 497.492374 340.924127 
L 499.787725 340.629143 
L 502.083077 341.184326 
L 504.378429 341.131849 
L 508.969132 341.275702 
L 511.264484 341.357812 
L 513.559836 341.283938 
L 515.855187 289.017404 
L 518.150539 286.285656 
L 520.445891 300.685725 
L 522.741243 291.658831 
L 525.036594 295.883571 
L 527.331946 294.869807 
L 529.627298 298.428481 
L 531.922649 297.04477 
L 534.218001 298.56436 
L 536.513353 289.02093 
L 538.808704 296.711807 
L 541.104056 300.596402 
L 543.399408 299.895345 
L 545.69476 288.581232 
L 547.990111 299.620042 
L 550.285463 284.698156 
L 552.580815 295.60207 
L 554.876166 294.79568 
L 557.171518 294.198764 
L 559.46687 295.8358 
L 561.762222 302.574125 
L 564.057573 300.910708 
L 566.352925 299.591421 
L 568.648277 293.940548 
L 570.943628 300.596929 
L 573.23898 299.010508 
L 575.534332 299.665978 
L 577.829684 307.870587 
L 580.125035 304.08598 
L 582.420387 301.922452 
L 584.715739 306.230027 
L 584.715739 306.230027 
" clip-path="url(#pccba5d894f)" style="fill: none; stroke: #ff0000; stroke-width: 2; stroke-linecap: square"/>
   </g>
   <g id="patch_3">
    <path d="M 52.079375 356.477812 
L 52.079375 23.837812 
" style="fill: none; stroke: #000000; stroke-width: 0.8; stroke-linejoin: miter; stroke-linecap: square"/>
   </g>
   <g id="patch_4">
    <path d="M 610.079375 356.477812 
L 610.079375 23.837812 
" style="fill: none; stroke: #000000; stroke-width: 0.8; stroke-linejoin: miter; stroke-linecap: square"/>
   </g>
   <g id="patch_5">
    <path d="M 52.079375 356.477812 
L 610.079375 356.477812 
" style="fill: none; stroke: #000000; stroke-width: 0.8; stroke-linejoin: miter; stroke-linecap: square"/>
   </g>
   <g id="patch_6">
    <path d="M 52.079375 23.837812 
L 610.079375 23.837812 
" style="fill: none; stroke: #000000; stroke-width: 0.8; stroke-linejoin: miter; stroke-linecap: square"/>
   </g>
   <g id="text_12">
    <!-- Training and Validation Loss -->
    <g transform="translate(233.698437 17.837812) scale(0.14 -0.14)">
     <defs>
      <path id="DejaVuSans-54" d="M -19 4666 
L 3928 4666 
L 3928 4134 
L 2272 4134 
L 2272 0 
L 1638 0 
L 1638 4134 
L -19 4134 
L -19 4666 
z
" transform="scale(0.015625)"/>
      <path id="DejaVuSans-72" d="M 2631 2963 
Q 2534 3019 2420 3045 
Q 2306 3072 2169 3072 
Q 1681 3072 1420 2755 
Q 1159 2438 1159 1844 
L 1159 0 
L 581 0 
L 581 3500 
L 1159 3500 
L 1159 2956 
Q 1341 3275 1631 3429 
Q 1922 3584 2338 3584 
Q 2397 3584 2469 3576 
Q 2541 3569 2628 3553 
L 2631 2963 
z
" transform="scale(0.015625)"/>
      <path id="DejaVuSans-61" d="M 2194 1759 
Q 1497 1759 1228 1600 
Q 959 1441 959 1056 
Q 959 750 1161 570 
Q 1363 391 1709 391 
Q 2188 391 2477 730 
Q 2766 1069 2766 1631 
L 2766 1759 
L 2194 1759 
z
M 3341 1997 
L 3341 0 
L 2766 0 
L 2766 531 
Q 2569 213 2275 61 
Q 1981 -91 1556 -91 
Q 1019 -91 701 211 
Q 384 513 384 1019 
Q 384 1609 779 1909 
Q 1175 2209 1959 2209 
L 2766 2209 
L 2766 2266 
Q 2766 2663 2505 2880 
Q 2244 3097 1772 3097 
Q 1472 3097 1187 3025 
Q 903 2953 641 2809 
L 641 3341 
Q 956 3463 1253 3523 
Q 1550 3584 1831 3584 
Q 2591 3584 2966 3190 
Q 3341 2797 3341 1997 
z
" transform="scale(0.015625)"/>
      <path id="DejaVuSans-69" d="M 603 3500 
L 1178 3500 
L 1178 0 
L 603 0 
L 603 3500 
z
M 603 4863 
L 1178 4863 
L 1178 4134 
L 603 4134 
L 603 4863 
z
" transform="scale(0.015625)"/>
      <path id="DejaVuSans-6e" d="M 3513 2113 
L 3513 0 
L 2938 0 
L 2938 2094 
Q 2938 2591 2744 2837 
Q 2550 3084 2163 3084 
Q 1697 3084 1428 2787 
Q 1159 2491 1159 1978 
L 1159 0 
L 581 0 
L 581 3500 
L 1159 3500 
L 1159 2956 
Q 1366 3272 1645 3428 
Q 1925 3584 2291 3584 
Q 2894 3584 3203 3211 
Q 3513 2838 3513 2113 
z
" transform="scale(0.015625)"/>
      <path id="DejaVuSans-67" d="M 2906 1791 
Q 2906 2416 2648 2759 
Q 2391 3103 1925 3103 
Q 1463 3103 1205 2759 
Q 947 2416 947 1791 
Q 947 1169 1205 825 
Q 1463 481 1925 481 
Q 2391 481 2648 825 
Q 2906 1169 2906 1791 
z
M 3481 434 
Q 3481 -459 3084 -895 
Q 2688 -1331 1869 -1331 
Q 1566 -1331 1297 -1286 
Q 1028 -1241 775 -1147 
L 775 -588 
Q 1028 -725 1275 -790 
Q 1522 -856 1778 -856 
Q 2344 -856 2625 -561 
Q 2906 -266 2906 331 
L 2906 616 
Q 2728 306 2450 153 
Q 2172 0 1784 0 
Q 1141 0 747 490 
Q 353 981 353 1791 
Q 353 2603 747 3093 
Q 1141 3584 1784 3584 
Q 2172 3584 2450 3431 
Q 2728 3278 2906 2969 
L 2906 3500 
L 3481 3500 
L 3481 434 
z
" transform="scale(0.015625)"/>
      <path id="DejaVuSans-20" transform="scale(0.015625)"/>
      <path id="DejaVuSans-64" d="M 2906 2969 
L 2906 4863 
L 3481 4863 
L 3481 0 
L 2906 0 
L 2906 525 
Q 2725 213 2448 61 
Q 2172 -91 1784 -91 
Q 1150 -91 751 415 
Q 353 922 353 1747 
Q 353 2572 751 3078 
Q 1150 3584 1784 3584 
Q 2172 3584 2448 3432 
Q 2725 3281 2906 2969 
z
M 947 1747 
Q 947 1113 1208 752 
Q 1469 391 1925 391 
Q 2381 391 2643 752 
Q 2906 1113 2906 1747 
Q 2906 2381 2643 2742 
Q 2381 3103 1925 3103 
Q 1469 3103 1208 2742 
Q 947 2381 947 1747 
z
" transform="scale(0.015625)"/>
      <path id="DejaVuSans-56" d="M 1831 0 
L 50 4666 
L 709 4666 
L 2188 738 
L 3669 4666 
L 4325 4666 
L 2547 0 
L 1831 0 
z
" transform="scale(0.015625)"/>
      <path id="DejaVuSans-6c" d="M 603 4863 
L 1178 4863 
L 1178 0 
L 603 0 
L 603 4863 
z
" transform="scale(0.015625)"/>
      <path id="DejaVuSans-74" d="M 1172 4494 
L 1172 3500 
L 2356 3500 
L 2356 3053 
L 1172 3053 
L 1172 1153 
Q 1172 725 1289 603 
Q 1406 481 1766 481 
L 2356 481 
L 2356 0 
L 1766 0 
Q 1100 0 847 248 
Q 594 497 594 1153 
L 594 3053 
L 172 3053 
L 172 3500 
L 594 3500 
L 594 4494 
L 1172 4494 
z
" transform="scale(0.015625)"/>
     </defs>
     <use xlink:href="#DejaVuSans-54"/>
     <use xlink:href="#DejaVuSans-72" x="46.333984"/>
     <use xlink:href="#DejaVuSans-61" x="87.447266"/>
     <use xlink:href="#DejaVuSans-69" x="148.726562"/>
     <use xlink:href="#DejaVuSans-6e" x="176.509766"/>
     <use xlink:href="#DejaVuSans-69" x="239.888672"/>
     <use xlink:href="#DejaVuSans-6e" x="267.671875"/>
     <use xlink:href="#DejaVuSans-67" x="331.050781"/>
     <use xlink:href="#DejaVuSans-20" x="394.527344"/>
     <use xlink:href="#DejaVuSans-61" x="426.314453"/>
     <use xlink:href="#DejaVuSans-6e" x="487.59375"/>
     <use xlink:href="#DejaVuSans-64" x="550.972656"/>
     <use xlink:href="#DejaVuSans-20" x="614.449219"/>
     <use xlink:href="#DejaVuSans-56" x="646.236328"/>
     <use xlink:href="#DejaVuSans-61" x="706.894531"/>
     <use xlink:href="#DejaVuSans-6c" x="768.173828"/>
     <use xlink:href="#DejaVuSans-69" x="795.957031"/>
     <use xlink:href="#DejaVuSans-64" x="823.740234"/>
     <use xlink:href="#DejaVuSans-61" x="887.216797"/>
     <use xlink:href="#DejaVuSans-74" x="948.496094"/>
     <use xlink:href="#DejaVuSans-69" x="987.705078"/>
     <use xlink:href="#DejaVuSans-6f" x="1015.488281"/>
     <use xlink:href="#DejaVuSans-6e" x="1076.669922"/>
     <use xlink:href="#DejaVuSans-20" x="1140.048828"/>
     <use xlink:href="#DejaVuSans-4c" x="1171.835938"/>
     <use xlink:href="#DejaVuSans-6f" x="1225.798828"/>
     <use xlink:href="#DejaVuSans-73" x="1286.980469"/>
     <use xlink:href="#DejaVuSans-73" x="1339.080078"/>
    </g>
   </g>
   <g id="legend_1">
    <g id="patch_7">
     <path d="M 521.979375 61.194062 
L 603.079375 61.194062 
Q 605.079375 61.194062 605.079375 59.194062 
L 605.079375 30.837812 
Q 605.079375 28.837812 603.079375 28.837812 
L 521.979375 28.837812 
Q 519.979375 28.837812 519.979375 30.837812 
L 519.979375 59.194062 
Q 519.979375 61.194062 521.979375 61.194062 
z
" style="fill: #ffffff; opacity: 0.8; stroke: #cccccc; stroke-linejoin: miter"/>
    </g>
    <g id="line2d_21">
     <path d="M 523.979375 36.93625 
L 533.979375 36.93625 
L 543.979375 36.93625 
" style="fill: none; stroke: #0000ff; stroke-width: 2; stroke-linecap: square"/>
    </g>
    <g id="text_13">
     <!-- Train Loss -->
     <g transform="translate(551.979375 40.43625) scale(0.1 -0.1)">
      <use xlink:href="#DejaVuSans-54"/>
      <use xlink:href="#DejaVuSans-72" x="46.333984"/>
      <use xlink:href="#DejaVuSans-61" x="87.447266"/>
      <use xlink:href="#DejaVuSans-69" x="148.726562"/>
      <use xlink:href="#DejaVuSans-6e" x="176.509766"/>
      <use xlink:href="#DejaVuSans-20" x="239.888672"/>
      <use xlink:href="#DejaVuSans-4c" x="271.675781"/>
      <use xlink:href="#DejaVuSans-6f" x="325.638672"/>
      <use xlink:href="#DejaVuSans-73" x="386.820312"/>
      <use xlink:href="#DejaVuSans-73" x="438.919922"/>
     </g>
    </g>
    <g id="line2d_22">
     <path d="M 523.979375 51.614375 
L 533.979375 51.614375 
L 543.979375 51.614375 
" style="fill: none; stroke: #ff0000; stroke-width: 2; stroke-linecap: square"/>
    </g>
    <g id="text_14">
     <!-- Val loss -->
     <g transform="translate(551.979375 55.114375) scale(0.1 -0.1)">
      <use xlink:href="#DejaVuSans-56"/>
      <use xlink:href="#DejaVuSans-61" x="60.658203"/>
      <use xlink:href="#DejaVuSans-6c" x="121.9375"/>
      <use xlink:href="#DejaVuSans-20" x="149.720703"/>
      <use xlink:href="#DejaVuSans-6c" x="181.507812"/>
      <use xlink:href="#DejaVuSans-6f" x="209.291016"/>
      <use xlink:href="#DejaVuSans-73" x="270.472656"/>
      <use xlink:href="#DejaVuSans-73" x="322.572266"/>
     </g>
    </g>
   </g>
  </g>
 </g>
 <defs>
  <clipPath id="pccba5d894f">
   <rect x="52.079375" y="23.837812" width="558" height="332.64"/>
  </clipPath>
 </defs>
</svg>
