<?xml version="1.0" encoding="utf-8" standalone="no"?>
<!DOCTYPE svg PUBLIC "-//W3C//DTD SVG 1.1//EN"
  "http://www.w3.org/Graphics/SVG/1.1/DTD/svg11.dtd">
<svg xmlns:xlink="http://www.w3.org/1999/xlink" width="617.279375pt" height="395.969687pt" viewBox="0 0 617.279375 395.969687" xmlns="http://www.w3.org/2000/svg" version="1.1">
 <metadata>
  <rdf:RDF xmlns:dc="http://purl.org/dc/elements/1.1/" xmlns:cc="http://creativecommons.org/ns#" xmlns:rdf="http://www.w3.org/1999/02/22-rdf-syntax-ns#">
   <cc:Work>
    <dc:type rdf:resource="http://purl.org/dc/dcmitype/StillImage"/>
    <dc:date>2026-04-02T05:27:44.462014</dc:date>
    <dc:format>image/svg+xml</dc:format>
    <dc:creator>
     <cc:Agent>
      <dc:title>Matplotlib v3.9.0, https://matplotlib.org/</dc:title>
     </cc:Agent>
    </dc:creator>
   </cc:Work>
  </rdf:RDF>
 </metadata>
 <defs>
  <style type="text/css">*{stroke-linejoin: round; stroke-linecap: butt}</style>
 </defs>
 <g id="figure_1">
  <g id="patch_1">
   <path d="M 0 395.969687 
L 617.279375 395.969687 
L 617.279375 0 
L 0 0 
z
" style="fill: #ffffff"/>
  </g>
  <g id="axes_1">
   <g id="patch_2">
    <path d="M 52.079375 356.477812 
L 610.079375 356.477812 
L 610.079375 23.837812 
L 52.079375 23.837812 
z
" style="fill: #ffffff"/>
   </g>
   <g id="matplotlib.axis_1">
    <g id="xtick_1">
     <g id="line2d_1">
      <path d="M 77.443011 356.477812 
L 77.443011 23.837812 
" clip-path="url(#pb7410a46df)" style="fill: none; stroke: #b0b0b0; stroke-opacity: 0.3; stroke-width: 0.8; stroke-linecap: square"/>
     </g>
     <g id="line2d_2">
      <defs>
       <path id="m6920a969bb" d="M 0 0 
L 0 3.5 
" style="stroke: #000000; stroke-width: 0.8"/>
      </defs>
      <g>
       <use xlink:href="#m6920a969bb" x="77.443011" y="356.477812" style="stroke: #000000; stroke-width: 0.8"/>
      </g>
     </g>
     <g id="text_1">
      <!-- 0 -->
      <g transform="translate(74.261761 371.07625) scale(0.1 -0.1)">
       <defs>
        <path id="DejaVuSans-30" d="M 2034 4250 
Q 1547 4250 1301 3770 
Q 1056 3291 1056 2328 
Q 1056 1369 1301 889 
Q 1547 409 2034 409 
Q 2525 409 2770 889 
Q 3016 1369 3016 2328 
Q 3016 3291 2770 3770 
Q 2525 4250 2034 4250 
z
M 2034 4750 
Q 2819 4750 3233 4129 
Q 3647 3509 3647 2328 
Q 3647 1150 3233 529 
Q 2819 -91 2034 -91 
Q 1250 -91 836 529 
Q 422 1150 422 2328 
Q 422 3509 836 4129 
Q 1250 4750 2034 4750 
z
" transform="scale(0.015625)"/>
       </defs>
       <use xlink:href="#DejaVuSans-30"/>
      </g>
     </g>
    </g>
    <g id="xtick_2">
     <g id="line2d_3">
      <path d="M 176.713604 356.477812 
L 176.713604 23.837812 
" clip-path="url(#pb7410a46df)" style="fill: none; stroke: #b0b0b0; stroke-opacity: 0.3; stroke-width: 0.8; stroke-linecap: square"/>
     </g>
     <g id="line2d_4">
      <g>
       <use xlink:href="#m6920a969bb" x="176.713604" y="356.477812" style="stroke: #000000; stroke-width: 0.8"/>
      </g>
     </g>
     <g id="text_2">
      <!-- 100 -->
      <g transform="translate(167.169854 371.07625) scale(0.1 -0.1)">
       <defs>
        <path id="DejaVuSans-31" d="M 794 531 
L 1825 531 
L 1825 4091 
L 703 3866 
L 703 4441 
L 1819 4666 
L 2450 4666 
L 2450 531 
L 3481 531 
L 3481 0 
L 794 0 
L 794 531 
z
" transform="scale(0.015625)"/>
       </defs>
       <use xlink:href="#DejaVuSans-31"/>
       <use xlink:href="#DejaVuSans-30" x="63.623047"/>
       <use xlink:href="#DejaVuSans-30" x="127.246094"/>
      </g>
     </g>
    </g>
    <g id="xtick_3">
     <g id="line2d_5">
      <path d="M 275.984196 356.477812 
L 275.984196 23.837812 
" clip-path="url(#pb7410a46df)" style="fill: none; stroke: #b0b0b0; stroke-opacity: 0.3; stroke-width: 0.8; stroke-linecap: square"/>
     </g>
     <g id="line2d_6">
      <g>
       <use xlink:href="#m6920a969bb" x="275.984196" y="356.477812" style="stroke: #000000; stroke-width: 0.8"/>
      </g>
     </g>
     <g id="text_3">
      <!-- 200 -->
      <g transform="translate(266.440446 371.07625) scale(0.1 -0.1)">
       <defs>
        <path id="DejaVuSans-32" d="M 1228 531 
L 3431 531 
L 3431 0 
L 469 0 
L 469 531 
Q 828 903 1448 1529 
Q 2069 2156 2228 2338 
Q 2531 2678 2651 2914 
Q 2772 3150 2772 3378 
Q 2772 3750 2511 3984 
Q 2250 4219 1831 4219 
Q 1534 4219 1204 4116 
Q 875 4013 500 3803 
L 500 4441 
Q 881 4594 1212 4672 
Q 1544 4750 1819 4750 
Q 2544 4750 2975 4387 
Q 3406 4025 3406 3419 
Q 3406 3131 3298 2873 
Q 3191 2616 2906 2266 
Q 2828 2175 2409 1742 
Q 1991 1309 1228 531 
z
" transform="scale(0.015625)"/>
       </defs>
       <use xlink:href="#DejaVuSans-32"/>
       <use xlink:href="#DejaVuSans-30" x="63.623047"/>
       <use xlink:href="#DejaVuSans-30" x="127.246094"/>
      </g>
     </g>
    </g>
    <g id="xtick_4">
     <g id="line2d_7">
      <path d="M 375.254789 356.477812 
L 375.254789 23.837812 
" clip-path="url(#pb7410a46df)" style="fill: none; stroke: #b0b0b0; stroke-opacity: 0.3; stroke-width: 0.8; stroke-linecap: square"/>
     </g>
     <g id="line2d_8">
      <g>
       <use xlink:href="#m6920a969bb" x="375.254789" y="356.477812" style="stroke: #000000; stroke-width: 0.8"/>
      </g>
     </g>
     <g id="text_4">
      <!-- 300 -->
      <g transform="translate(365.711039 371.07625) scale(0.1 -0.1)">
       <defs>
        <path id="DejaVuSans-33" d="M 2597 2516 
Q 3050 2419 3304 2112 
Q 3559 1806 3559 1356 
Q 3559 666 3084 287 
Q 2609 -91 1734 -91 
Q 1441 -91 1130 -33 
Q 819 25 488 141 
L 488 750 
Q 750 597 1062 519 
Q 1375 441 1716 441 
Q 2309 441 2620 675 
Q 2931 909 2931 1356 
Q 2931 1769 2642 2001 
Q 2353 2234 1838 2234 
L 1294 2234 
L 1294 2753 
L 1863 2753 
Q 2328 2753 2575 2939 
Q 2822 3125 2822 3475 
Q 2822 3834 2567 4026 
Q 2313 4219 1838 4219 
Q 1578 4219 1281 4162 
Q 984 4106 628 3988 
L 628 4550 
Q 988 4650 1302 4700 
Q 1616 4750 1894 4750 
Q 2613 4750 3031 4423 
Q 3450 4097 3450 3541 
Q 3450 3153 3228 2886 
Q 3006 2619 2597 2516 
z
" transform="scale(0.015625)"/>
       </defs>
       <use xlink:href="#DejaVuSans-33"/>
       <use xlink:href="#DejaVuSans-30" x="63.623047"/>
       <use xlink:href="#DejaVuSans-30" x="127.246094"/>
      </g>
     </g>
    </g>
    <g id="xtick_5">
     <g id="line2d_9">
      <path d="M 474.525381 356.477812 
L 474.525381 23.837812 
" clip-path="url(#pb7410a46df)" style="fill: none; stroke: #b0b0b0; stroke-opacity: 0.3; stroke-width: 0.8; stroke-linecap: square"/>
     </g>
     <g id="line2d_10">
      <g>
       <use xlink:href="#m6920a969bb" x="474.525381" y="356.477812" style="stroke: #000000; stroke-width: 0.8"/>
      </g>
     </g>
     <g id="text_5">
      <!-- 400 -->
      <g transform="translate(464.981631 371.07625) scale(0.1 -0.1)">
       <defs>
        <path id="DejaVuSans-34" d="M 2419 4116 
L 825 1625 
L 2419 1625 
L 2419 4116 
z
M 2253 4666 
L 3047 4666 
L 3047 1625 
L 3713 1625 
L 3713 1100 
L 3047 1100 
L 3047 0 
L 2419 0 
L 2419 1100 
L 313 1100 
L 313 1709 
L 2253 4666 
z
" transform="scale(0.015625)"/>
       </defs>
       <use xlink:href="#DejaVuSans-34"/>
       <use xlink:href="#DejaVuSans-30" x="63.623047"/>
       <use xlink:href="#DejaVuSans-30" x="127.246094"/>
      </g>
     </g>
    </g>
    <g id="xtick_6">
     <g id="line2d_11">
      <path d="M 573.795973 356.477812 
L 573.795973 23.837812 
" clip-path="url(#pb7410a46df)" style="fill: none; stroke: #b0b0b0; stroke-opacity: 0.3; stroke-width: 0.8; stroke-linecap: square"/>
     </g>
     <g id="line2d_12">
      <g>
       <use xlink:href="#m6920a969bb" x="573.795973" y="356.477812" style="stroke: #000000; stroke-width: 0.8"/>
      </g>
     </g>
     <g id="text_6">
      <!-- 500 -->
      <g transform="translate(564.252223 371.07625) scale(0.1 -0.1)">
       <defs>
        <path id="DejaVuSans-35" d="M 691 4666 
L 3169 4666 
L 3169 4134 
L 1269 4134 
L 1269 2991 
Q 1406 3038 1543 3061 
Q 1681 3084 1819 3084 
Q 2600 3084 3056 2656 
Q 3513 2228 3513 1497 
Q 3513 744 3044 326 
Q 2575 -91 1722 -91 
Q 1428 -91 1123 -41 
Q 819 9 494 109 
L 494 744 
Q 775 591 1075 516 
Q 1375 441 1709 441 
Q 2250 441 2565 725 
Q 2881 1009 2881 1497 
Q 2881 1984 2565 2268 
Q 2250 2553 1709 2553 
Q 1456 2553 1204 2497 
Q 953 2441 691 2322 
L 691 4666 
z
" transform="scale(0.015625)"/>
       </defs>
       <use xlink:href="#DejaVuSans-35"/>
       <use xlink:href="#DejaVuSans-30" x="63.623047"/>
       <use xlink:href="#DejaVuSans-30" x="127.246094"/>
      </g>
     </g>
    </g>
    <g id="text_7">
     <!-- Epoch -->
     <g transform="translate(312.70625 386.274062) scale(0.12 -0.12)">
      <defs>
       <path id="DejaVuSans-45" d="M 628 4666 
L 3578 4666 
L 3578 4134 
L 1259 4134 
L 1259 2753 
L 3481 2753 
L 3481 2222 
L 1259 2222 
L 1259 531 
L 3634 531 
L 3634 0 
L 628 0 
L 628 4666 
z
" transform="scale(0.015625)"/>
       <path id="DejaVuSans-70" d="M 1159 525 
L 1159 -1331 
L 581 -1331 
L 581 3500 
L 1159 3500 
L 1159 2969 
Q 1341 3281 1617 3432 
Q 1894 3584 2278 3584 
Q 2916 3584 3314 3078 
Q 3713 2572 3713 1747 
Q 3713 922 3314 415 
Q 2916 -91 2278 -91 
Q 1894 -91 1617 61 
Q 1341 213 1159 525 
z
M 3116 1747 
Q 3116 2381 2855 2742 
Q 2594 3103 2138 3103 
Q 1681 3103 1420 2742 
Q 1159 2381 1159 1747 
Q 1159 1113 1420 752 
Q 1681 391 2138 391 
Q 2594 391 2855 752 
Q 3116 1113 3116 1747 
z
" transform="scale(0.015625)"/>
       <path id="DejaVuSans-6f" d="M 1959 3097 
Q 1497 3097 1228 2736 
Q 959 2375 959 1747 
Q 959 1119 1226 758 
Q 1494 397 1959 397 
Q 2419 397 2687 759 
Q 2956 1122 2956 1747 
Q 2956 2369 2687 2733 
Q 2419 3097 1959 3097 
z
M 1959 3584 
Q 2709 3584 3137 3096 
Q 3566 2609 3566 1747 
Q 3566 888 3137 398 
Q 2709 -91 1959 -91 
Q 1206 -91 779 398 
Q 353 888 353 1747 
Q 353 2609 779 3096 
Q 1206 3584 1959 3584 
z
" transform="scale(0.015625)"/>
       <path id="DejaVuSans-63" d="M 3122 3366 
L 3122 2828 
Q 2878 2963 2633 3030 
Q 2388 3097 2138 3097 
Q 1578 3097 1268 2742 
Q 959 2388 959 1747 
Q 959 1106 1268 751 
Q 1578 397 2138 397 
Q 2388 397 2633 464 
Q 2878 531 3122 666 
L 3122 134 
Q 2881 22 2623 -34 
Q 2366 -91 2075 -91 
Q 1284 -91 818 406 
Q 353 903 353 1747 
Q 353 2603 823 3093 
Q 1294 3584 2113 3584 
Q 2378 3584 2631 3529 
Q 2884 3475 3122 3366 
z
" transform="scale(0.015625)"/>
       <path id="DejaVuSans-68" d="M 3513 2113 
L 3513 0 
L 2938 0 
L 2938 2094 
Q 2938 2591 2744 2837 
Q 2550 3084 2163 3084 
Q 1697 3084 1428 2787 
Q 1159 2491 1159 1978 
L 1159 0 
L 581 0 
L 581 4863 
L 1159 4863 
L 1159 2956 
Q 1366 3272 1645 3428 
Q 1925 3584 2291 3584 
Q 2894 3584 3203 3211 
Q 3513 2838 3513 2113 
z
" transform="scale(0.015625)"/>
      </defs>
      <use xlink:href="#DejaVuSans-45"/>
      <use xlink:href="#DejaVuSans-70" x="63.183594"/>
      <use xlink:href="#DejaVuSans-6f" x="126.660156"/>
      <use xlink:href="#DejaVuSans-63" x="187.841797"/>
      <use xlink:href="#DejaVuSans-68" x="242.822266"/>
     </g>
    </g>
   </g>
   <g id="matplotlib.axis_2">
    <g id="ytick_1">
     <g id="line2d_13">
      <path d="M 52.079375 333.59309 
L 610.079375 333.59309 
" clip-path="url(#pb7410a46df)" style="fill: none; stroke: #b0b0b0; stroke-opacity: 0.3; stroke-width: 0.8; stroke-linecap: square"/>
     </g>
     <g id="line2d_14">
      <defs>
       <path id="m6918a776f7" d="M 0 0 
L -3.5 0 
" style="stroke: #000000; stroke-width: 0.8"/>
      </defs>
      <g>
       <use xlink:href="#m6918a776f7" x="52.079375" y="333.59309" style="stroke: #000000; stroke-width: 0.8"/>
      </g>
     </g>
     <g id="text_8">
      <!-- 0.04 -->
      <g transform="translate(22.81375 337.392309) scale(0.1 -0.1)">
       <defs>
        <path id="DejaVuSans-2e" d="M 684 794 
L 1344 794 
L 1344 0 
L 684 0 
L 684 794 
z
" transform="scale(0.015625)"/>
       </defs>
       <use xlink:href="#DejaVuSans-30"/>
       <use xlink:href="#DejaVuSans-2e" x="63.623047"/>
       <use xlink:href="#DejaVuSans-30" x="95.410156"/>
       <use xlink:href="#DejaVuSans-34" x="159.033203"/>
      </g>
     </g>
    </g>
    <g id="ytick_2">
     <g id="line2d_15">
      <path d="M 52.079375 273.682979 
L 610.079375 273.682979 
" clip-path="url(#pb7410a46df)" style="fill: none; stroke: #b0b0b0; stroke-opacity: 0.3; stroke-width: 0.8; stroke-linecap: square"/>
     </g>
     <g id="line2d_16">
      <g>
       <use xlink:href="#m6918a776f7" x="52.079375" y="273.682979" style="stroke: #000000; stroke-width: 0.8"/>
      </g>
     </g>
     <g id="text_9">
      <!-- 0.06 -->
      <g transform="translate(22.81375 277.482198) scale(0.1 -0.1)">
       <defs>
        <path id="DejaVuSans-36" d="M 2113 2584 
Q 1688 2584 1439 2293 
Q 1191 2003 1191 1497 
Q 1191 994 1439 701 
Q 1688 409 2113 409 
Q 2538 409 2786 701 
Q 3034 994 3034 1497 
Q 3034 2003 2786 2293 
Q 2538 2584 2113 2584 
z
M 3366 4563 
L 3366 3988 
Q 3128 4100 2886 4159 
Q 2644 4219 2406 4219 
Q 1781 4219 1451 3797 
Q 1122 3375 1075 2522 
Q 1259 2794 1537 2939 
Q 1816 3084 2150 3084 
Q 2853 3084 3261 2657 
Q 3669 2231 3669 1497 
Q 3669 778 3244 343 
Q 2819 -91 2113 -91 
Q 1303 -91 875 529 
Q 447 1150 447 2328 
Q 447 3434 972 4092 
Q 1497 4750 2381 4750 
Q 2619 4750 2861 4703 
Q 3103 4656 3366 4563 
z
" transform="scale(0.015625)"/>
       </defs>
       <use xlink:href="#DejaVuSans-30"/>
       <use xlink:href="#DejaVuSans-2e" x="63.623047"/>
       <use xlink:href="#DejaVuSans-30" x="95.410156"/>
       <use xlink:href="#DejaVuSans-36" x="159.033203"/>
      </g>
     </g>
    </g>
    <g id="ytick_3">
     <g id="line2d_17">
      <path d="M 52.079375 213.772868 
L 610.079375 213.772868 
" clip-path="url(#pb7410a46df)" style="fill: none; stroke: #b0b0b0; stroke-opacity: 0.3; stroke-width: 0.8; stroke-linecap: square"/>
     </g>
     <g id="line2d_18">
      <g>
       <use xlink:href="#m6918a776f7" x="52.079375" y="213.772868" style="stroke: #000000; stroke-width: 0.8"/>
      </g>
     </g>
     <g id="text_10">
      <!-- 0.08 -->
      <g transform="translate(22.81375 217.572087) scale(0.1 -0.1)">
       <defs>
        <path id="DejaVuSans-38" d="M 2034 2216 
Q 1584 2216 1326 1975 
Q 1069 1734 1069 1313 
Q 1069 891 1326 650 
Q 1584 409 2034 409 
Q 2484 409 2743 651 
Q 3003 894 3003 1313 
Q 3003 1734 2745 1975 
Q 2488 2216 2034 2216 
z
M 1403 2484 
Q 997 2584 770 2862 
Q 544 3141 544 3541 
Q 544 4100 942 4425 
Q 1341 4750 2034 4750 
Q 2731 4750 3128 4425 
Q 3525 4100 3525 3541 
Q 3525 3141 3298 2862 
Q 3072 2584 2669 2484 
Q 3125 2378 3379 2068 
Q 3634 1759 3634 1313 
Q 3634 634 3220 271 
Q 2806 -91 2034 -91 
Q 1263 -91 848 271 
Q 434 634 434 1313 
Q 434 1759 690 2068 
Q 947 2378 1403 2484 
z
M 1172 3481 
Q 1172 3119 1398 2916 
Q 1625 2713 2034 2713 
Q 2441 2713 2670 2916 
Q 2900 3119 2900 3481 
Q 2900 3844 2670 4047 
Q 2441 4250 2034 4250 
Q 1625 4250 1398 4047 
Q 1172 3844 1172 3481 
z
" transform="scale(0.015625)"/>
       </defs>
       <use xlink:href="#DejaVuSans-30"/>
       <use xlink:href="#DejaVuSans-2e" x="63.623047"/>
       <use xlink:href="#DejaVuSans-30" x="95.410156"/>
       <use xlink:href="#DejaVuSans-38" x="159.033203"/>
      </g>
     </g>
    </g>
    <g id="ytick_4">
     <g id="line2d_19">
      <path d="M 52.079375 153.862757 
L 610.079375 153.862757 
" clip-path="url(#pb7410a46df)" style="fill: none; stroke: #b0b0b0; stroke-opacity: 0.3; stroke-width: 0.8; stroke-linecap: square"/>
     </g>
     <g id="line2d_20">
      <g>
       <use xlink:href="#m6918a776f7" x="52.079375" y="153.862757" style="stroke: #000000; stroke-width: 0.8"/>
      </g>
     </g>
     <g id="text_11">
      <!-- 0.10 -->
      <g transform="translate(22.81375 157.661976) scale(0.1 -0.1)">
       <use xlink:href="#DejaVuSans-30"/>
       <use xlink:href="#DejaVuSans-2e" x="63.623047"/>
       <use xlink:href="#DejaVuSans-31" x="95.410156"/>
       <use xlink:href="#DejaVuSans-30" x="159.033203"/>
      </g>
     </g>
    </g>
    <g id="ytick_5">
     <g id="line2d_21">
      <path d="M 52.079375 93.952646 
L 610.079375 93.952646 
" clip-path="url(#pb7410a46df)" style="fill: none; stroke: #b0b0b0; stroke-opacity: 0.3; stroke-width: 0.8; stroke-linecap: square"/>
     </g>
     <g id="line2d_22">
      <g>
       <use xlink:href="#m6918a776f7" x="52.079375" y="93.952646" style="stroke: #000000; stroke-width: 0.8"/>
      </g>
     </g>
     <g id="text_12">
      <!-- 0.12 -->
      <g transform="translate(22.81375 97.751865) scale(0.1 -0.1)">
       <use xlink:href="#DejaVuSans-30"/>
       <use xlink:href="#DejaVuSans-2e" x="63.623047"/>
       <use xlink:href="#DejaVuSans-31" x="95.410156"/>
       <use xlink:href="#DejaVuSans-32" x="159.033203"/>
      </g>
     </g>
    </g>
    <g id="ytick_6">
     <g id="line2d_23">
      <path d="M 52.079375 34.042535 
L 610.079375 34.042535 
" clip-path="url(#pb7410a46df)" style="fill: none; stroke: #b0b0b0; stroke-opacity: 0.3; stroke-width: 0.8; stroke-linecap: square"/>
     </g>
     <g id="line2d_24">
      <g>
       <use xlink:href="#m6918a776f7" x="52.079375" y="34.042535" style="stroke: #000000; stroke-width: 0.8"/>
      </g>
     </g>
     <g id="text_13">
      <!-- 0.14 -->
      <g transform="translate(22.81375 37.841754) scale(0.1 -0.1)">
       <use xlink:href="#DejaVuSans-30"/>
       <use xlink:href="#DejaVuSans-2e" x="63.623047"/>
       <use xlink:href="#DejaVuSans-31" x="95.410156"/>
       <use xlink:href="#DejaVuSans-34" x="159.033203"/>
      </g>
     </g>
    </g>
    <g id="text_14">
     <!-- Loss -->
     <g transform="translate(16.318125 203.318437) rotate(-90) scale(0.12 -0.12)">
      <defs>
       <path id="DejaVuSans-4c" d="M 628 4666 
L 1259 4666 
L 1259 531 
L 3531 531 
L 3531 0 
L 628 0 
L 628 4666 
z
" transform="scale(0.015625)"/>
       <path id="DejaVuSans-73" d="M 2834 3397 
L 2834 2853 
Q 2591 2978 2328 3040 
Q 2066 3103 1784 3103 
Q 1356 3103 1142 2972 
Q 928 2841 928 2578 
Q 928 2378 1081 2264 
Q 1234 2150 1697 2047 
L 1894 2003 
Q 2506 1872 2764 1633 
Q 3022 1394 3022 966 
Q 3022 478 2636 193 
Q 2250 -91 1575 -91 
Q 1294 -91 989 -36 
Q 684 19 347 128 
L 347 722 
Q 666 556 975 473 
Q 1284 391 1588 391 
Q 1994 391 2212 530 
Q 2431 669 2431 922 
Q 2431 1156 2273 1281 
Q 2116 1406 1581 1522 
L 1381 1569 
Q 847 1681 609 1914 
Q 372 2147 372 2553 
Q 372 3047 722 3315 
Q 1072 3584 1716 3584 
Q 2034 3584 2315 3537 
Q 2597 3491 2834 3397 
z
" transform="scale(0.015625)"/>
      </defs>
      <use xlink:href="#DejaVuSans-4c"/>
      <use xlink:href="#DejaVuSans-6f" x="53.962891"/>
      <use xlink:href="#DejaVuSans-73" x="115.144531"/>
      <use xlink:href="#DejaVuSans-73" x="167.244141"/>
     </g>
    </g>
   </g>
   <g id="line2d_25">
    <path d="M 77.443011 38.957812 
L 78.435717 154.011844 
L 79.428423 179.44297 
L 80.421129 194.912816 
L 81.413835 206.121201 
L 82.406541 214.333337 
L 83.399247 220.926654 
L 84.391953 226.250307 
L 86.377365 234.740357 
L 87.370071 238.342614 
L 88.362777 241.362654 
L 92.3336 251.052752 
L 94.319012 255.057712 
L 95.311718 256.598368 
L 97.29713 260.43803 
L 100.275248 265.093521 
L 103.253365 269.355444 
L 104.246071 271.008693 
L 105.238777 272.353754 
L 106.231483 273.89929 
L 108.216895 276.581422 
L 109.209601 278.129769 
L 111.195013 280.888814 
L 116.158542 287.755891 
L 117.151248 288.820327 
L 118.143954 290.297885 
L 119.13666 291.376699 
L 121.122072 293.956122 
L 122.114778 294.978624 
L 123.107484 296.208681 
L 127.078308 300.238699 
L 131.049131 303.229451 
L 135.019955 305.145367 
L 136.012661 305.247243 
L 137.005367 305.496971 
L 137.998073 305.518179 
L 138.990779 305.72168 
L 139.983485 259.560999 
L 140.976191 257.385672 
L 141.968896 257.508694 
L 142.961602 258.129273 
L 143.954308 258.914902 
L 145.93972 259.719938 
L 147.925132 261.560113 
L 148.917838 262.213448 
L 149.910544 262.331463 
L 150.90325 263.121385 
L 152.888662 263.891599 
L 154.874073 264.95104 
L 155.866779 265.657148 
L 156.859485 265.769398 
L 157.852191 266.619471 
L 158.844897 267.119748 
L 159.837603 267.82737 
L 160.830309 267.988295 
L 161.823015 268.480298 
L 163.808427 269.774634 
L 169.764662 272.823311 
L 170.757368 272.909041 
L 171.750074 273.39728 
L 173.735486 274.84754 
L 174.728192 275.415317 
L 175.720898 275.711378 
L 176.713604 275.884799 
L 177.70631 276.727676 
L 179.691722 277.497337 
L 180.684427 278.39046 
L 181.677133 278.757829 
L 182.669839 279.313932 
L 184.655251 280.184803 
L 185.647957 281.234141 
L 189.618781 283.048868 
L 190.611487 283.993682 
L 191.604193 284.369744 
L 192.596899 285.213064 
L 195.575016 286.520501 
L 196.567722 287.359086 
L 197.560428 287.769912 
L 199.54584 289.048328 
L 200.538546 289.898167 
L 201.531252 290.270937 
L 202.523958 290.775693 
L 203.516664 291.571279 
L 206.494782 293.36095 
L 207.487487 294.236823 
L 208.480193 294.732399 
L 214.436429 298.816522 
L 215.429135 299.268503 
L 216.421841 300.02698 
L 219.399959 301.82049 
L 220.392664 302.70565 
L 221.38537 303.037998 
L 223.370782 304.610476 
L 233.297841 310.76579 
L 234.290547 311.22761 
L 236.275959 312.555155 
L 238.261371 313.439533 
L 239.254077 313.856959 
L 240.246783 314.618712 
L 241.239489 314.972408 
L 244.217607 316.388838 
L 245.210313 316.739043 
L 246.203018 317.219926 
L 248.18843 317.918533 
L 249.181136 318.399113 
L 251.166548 318.873458 
L 256.130078 320.169781 
L 259.108195 320.743623 
L 260.100901 320.701406 
L 262.086313 320.980465 
L 266.057137 321.204847 
L 267.049843 266.599734 
L 268.042549 264.582887 
L 269.035255 264.947303 
L 270.027961 266.094659 
L 271.020667 266.591416 
L 272.013373 267.468675 
L 273.006078 267.657687 
L 273.998784 268.501277 
L 274.99149 269.04635 
L 275.984196 269.166023 
L 276.976902 270.203584 
L 277.969608 270.178331 
L 278.962314 271.027596 
L 279.95502 271.036325 
L 281.940432 271.918617 
L 284.91855 273.256978 
L 285.911255 273.073118 
L 286.903961 273.63653 
L 288.889373 273.85099 
L 289.882079 274.370371 
L 290.874785 275.063142 
L 291.867491 274.682714 
L 292.860197 274.841609 
L 293.852903 275.25346 
L 294.845609 275.234812 
L 297.823727 276.156823 
L 298.816432 276.325728 
L 299.809138 276.325208 
L 301.79455 276.949118 
L 303.779962 277.175184 
L 305.765374 277.500711 
L 306.75808 277.858137 
L 307.750786 277.793825 
L 309.736198 278.340877 
L 310.728904 278.477243 
L 311.721609 278.750607 
L 314.699727 279.174074 
L 316.685139 279.681591 
L 317.677845 279.87903 
L 318.670551 279.953958 
L 319.663257 280.425235 
L 320.655963 280.449965 
L 323.634081 281.056709 
L 326.612198 281.609076 
L 327.604904 281.796268 
L 328.59761 281.787864 
L 329.590316 282.260553 
L 330.583022 282.455028 
L 331.575728 282.829417 
L 333.56114 283.121955 
L 335.546552 283.32991 
L 336.539258 283.76334 
L 337.531964 283.732665 
L 338.524669 284.243318 
L 339.517375 284.323641 
L 340.510081 284.277952 
L 342.495493 285.111819 
L 343.488199 285.060477 
L 344.480905 285.60814 
L 345.473611 285.593341 
L 346.466317 285.911059 
L 347.459023 286.098727 
L 348.451729 286.424719 
L 349.444435 286.227626 
L 350.437141 287.058023 
L 352.422552 287.518874 
L 353.415258 287.545431 
L 354.407964 287.988491 
L 355.40067 287.934771 
L 356.393376 288.370817 
L 358.378788 288.874273 
L 361.356906 289.714067 
L 362.349612 289.670432 
L 363.342318 290.04788 
L 364.335023 290.288935 
L 365.327729 290.726038 
L 366.320435 290.795871 
L 367.313141 291.311 
L 368.305847 291.377389 
L 369.298553 291.721808 
L 370.291259 291.814344 
L 371.283965 292.137214 
L 372.276671 292.266897 
L 377.2402 293.851086 
L 378.232906 294.003922 
L 379.225612 294.318833 
L 380.218318 294.929155 
L 381.211024 294.873978 
L 382.20373 295.084328 
L 383.196436 295.55631 
L 385.181848 296.123659 
L 386.174554 296.553582 
L 387.16726 296.64316 
L 389.152672 297.470451 
L 391.138083 297.889962 
L 393.123495 298.438901 
L 395.108907 298.983731 
L 396.101613 299.444474 
L 399.079731 300.298699 
L 402.057849 301.151625 
L 403.050555 301.652836 
L 404.04326 301.869827 
L 405.035966 302.282914 
L 406.028672 302.410598 
L 409.00679 303.584342 
L 409.999496 303.780045 
L 413.97032 305.241773 
L 414.963026 305.478378 
L 415.955732 305.878297 
L 416.948437 306.021889 
L 421.911967 307.787927 
L 422.904673 308.026413 
L 425.882791 309.177752 
L 433.824438 311.826438 
L 434.817144 311.97368 
L 435.80985 312.530743 
L 438.787968 313.409576 
L 439.780674 313.889155 
L 441.766086 314.477237 
L 443.751497 315.105137 
L 444.744203 315.335702 
L 445.736909 315.940967 
L 446.729615 316.092862 
L 448.715027 316.786334 
L 452.685851 318.05656 
L 456.656674 319.299691 
L 457.64938 319.698987 
L 459.634792 320.114369 
L 466.583734 322.378203 
L 473.532675 324.093938 
L 475.518087 324.826773 
L 477.503499 325.172368 
L 479.488911 325.63818 
L 480.481617 325.993419 
L 491.401382 328.113621 
L 492.394088 328.373752 
L 494.3795 328.641941 
L 496.364911 329.011653 
L 497.357617 328.987547 
L 498.350323 329.228783 
L 501.328441 329.530772 
L 505.299265 329.960152 
L 506.291971 329.906561 
L 507.284677 330.083338 
L 509.270088 330.133361 
L 510.262794 330.266185 
L 511.2555 330.255617 
L 514.233618 330.502443 
L 515.226324 330.455905 
L 519.197148 330.641616 
L 520.189854 330.558574 
L 521.182559 266.080783 
L 522.175265 264.916009 
L 523.167971 266.81296 
L 524.160677 268.023944 
L 525.153383 269.682838 
L 528.131501 272.905311 
L 529.124207 273.415118 
L 531.109619 274.849031 
L 532.102325 275.364905 
L 533.095031 276.020922 
L 534.087737 276.31139 
L 535.080442 277.141778 
L 536.073148 277.053747 
L 537.065854 277.536866 
L 538.05856 277.696553 
L 542.029384 279.121843 
L 544.014796 279.226409 
L 546.000208 280.095112 
L 547.985619 280.168038 
L 548.978325 280.493312 
L 549.971031 280.113598 
L 550.963737 280.520406 
L 553.941855 280.891911 
L 554.934561 281.15867 
L 555.927267 280.930541 
L 556.919973 281.382935 
L 557.912679 281.578302 
L 558.905385 281.349203 
L 559.898091 281.668865 
L 560.890796 281.815066 
L 561.883502 281.643954 
L 562.876208 281.59946 
L 563.868914 282.046627 
L 564.86162 282.279455 
L 566.847032 282.174678 
L 567.839738 282.273125 
L 568.832444 282.489861 
L 569.82515 282.459429 
L 570.817856 282.188883 
L 571.810562 282.381848 
L 572.803268 282.906754 
L 574.788679 282.851161 
L 575.781385 282.767244 
L 576.774091 283.098012 
L 577.766797 282.983556 
L 580.744915 283.567303 
L 581.737621 283.088265 
L 582.730327 283.533266 
L 584.715739 283.668368 
L 584.715739 283.668368 
" clip-path="url(#pb7410a46df)" style="fill: none; stroke: #0000ff; stroke-width: 2; stroke-linecap: square"/>
   </g>
   <g id="line2d_26">
    <path d="M 77.443011 167.494968 
L 78.435717 203.294094 
L 79.428423 224.859398 
L 80.421129 231.051942 
L 81.413835 242.00316 
L 82.406541 244.21478 
L 83.399247 252.271298 
L 84.391953 248.604412 
L 85.384659 260.382215 
L 86.377365 269.002554 
L 87.370071 266.886337 
L 88.362777 261.06052 
L 89.355482 274.151666 
L 90.348188 273.008963 
L 91.340894 276.399338 
L 92.3336 284.334357 
L 93.326306 279.798312 
L 94.319012 277.415114 
L 95.311718 281.920312 
L 96.304424 281.398673 
L 97.29713 284.692947 
L 98.289836 281.639309 
L 99.282542 282.766254 
L 100.275248 287.347232 
L 101.267954 293.081537 
L 102.260659 287.807785 
L 103.253365 293.502047 
L 105.238777 298.234711 
L 106.231483 296.557555 
L 107.224189 299.786242 
L 108.216895 296.550738 
L 109.209601 302.001407 
L 110.202307 305.459012 
L 111.195013 304.090871 
L 112.187719 305.567669 
L 113.180425 306.400361 
L 114.173131 303.322261 
L 115.165836 306.788742 
L 116.158542 308.743193 
L 117.151248 310.398366 
L 118.143954 311.665617 
L 119.13666 310.036241 
L 120.129366 314.963935 
L 121.122072 316.391938 
L 122.114778 316.214865 
L 124.10019 318.84121 
L 125.092896 318.412676 
L 126.085602 319.553641 
L 127.078308 319.747927 
L 128.071013 319.689913 
L 129.063719 322.692882 
L 130.056425 321.912197 
L 132.041837 324.010787 
L 133.034543 324.443079 
L 134.027249 324.553242 
L 135.019955 324.350138 
L 137.005367 324.761605 
L 137.998073 325.014285 
L 138.990779 324.9139 
L 139.983485 285.256291 
L 140.976191 277.611226 
L 141.968896 281.865071 
L 142.961602 278.763123 
L 143.954308 282.617336 
L 144.947014 285.83694 
L 145.93972 282.694634 
L 146.932426 287.175313 
L 147.925132 283.411386 
L 148.917838 284.361588 
L 149.910544 292.316161 
L 150.90325 286.077205 
L 151.895956 285.043806 
L 152.888662 282.718634 
L 153.881368 287.333948 
L 154.874073 288.326265 
L 155.866779 287.760544 
L 157.852191 292.177008 
L 158.844897 290.900489 
L 159.837603 293.307499 
L 160.830309 284.486458 
L 161.823015 291.298032 
L 162.815721 293.653175 
L 163.808427 294.400743 
L 164.801133 294.83717 
L 165.793839 292.655307 
L 166.786545 296.692273 
L 167.77925 283.098214 
L 168.771956 293.330017 
L 169.764662 292.617029 
L 170.757368 298.490308 
L 171.750074 297.909502 
L 172.74278 277.531525 
L 173.735486 301.725187 
L 176.713604 287.310522 
L 177.70631 290.227673 
L 178.699016 297.450866 
L 179.691722 299.375643 
L 180.684427 300.3097 
L 181.677133 300.481353 
L 182.669839 300.487231 
L 183.662545 305.937325 
L 184.655251 304.158961 
L 186.640663 306.402684 
L 187.633369 302.570523 
L 188.626075 306.465247 
L 189.618781 303.64282 
L 190.611487 301.414591 
L 191.604193 307.357279 
L 192.596899 301.450288 
L 193.589604 306.656905 
L 194.58231 308.538483 
L 195.575016 309.04478 
L 196.567722 310.892441 
L 197.560428 307.350536 
L 198.553134 302.063713 
L 199.54584 307.961128 
L 200.538546 310.997003 
L 201.531252 310.34282 
L 202.523958 306.970754 
L 203.516664 311.600097 
L 204.50937 311.162698 
L 205.502076 314.857674 
L 206.494782 312.698592 
L 207.487487 314.753799 
L 208.480193 315.206685 
L 209.472899 314.444548 
L 210.465605 315.124361 
L 211.458311 310.621623 
L 212.451017 313.980681 
L 213.443723 316.552047 
L 214.436429 318.316731 
L 215.429135 317.254326 
L 216.421841 316.454719 
L 217.414547 320.292002 
L 218.407253 320.853001 
L 219.399959 319.735527 
L 220.392664 322.787493 
L 221.38537 319.300286 
L 222.378076 318.723271 
L 223.370782 325.853112 
L 224.363488 322.31953 
L 225.356194 322.651332 
L 226.3489 321.278326 
L 227.341606 323.303507 
L 228.334312 326.065168 
L 229.327018 326.949726 
L 231.31243 325.122273 
L 232.305136 325.580601 
L 233.297841 324.70917 
L 234.290547 327.058534 
L 235.283253 327.032372 
L 236.275959 326.711554 
L 237.268665 329.541719 
L 238.261371 330.036525 
L 239.254077 329.190701 
L 240.246783 331.471552 
L 241.239489 329.158872 
L 242.232195 330.762694 
L 243.224901 331.332614 
L 244.217607 330.775184 
L 245.210313 332.515026 
L 246.203018 333.450948 
L 248.18843 333.528905 
L 249.181136 333.659691 
L 250.173842 334.87558 
L 251.166548 333.136804 
L 253.15196 334.899333 
L 254.144666 334.819347 
L 255.137372 335.574351 
L 256.130078 335.478824 
L 257.122784 334.74318 
L 258.11549 335.486581 
L 260.100901 335.598239 
L 262.086313 335.998447 
L 263.079019 335.750499 
L 264.071725 335.77907 
L 266.057137 336.233863 
L 267.049843 286.211738 
L 268.042549 289.481658 
L 269.035255 289.930436 
L 270.027961 291.691356 
L 271.020667 288.547126 
L 272.013373 287.967138 
L 273.006078 286.671018 
L 273.998784 293.940491 
L 274.99149 284.764902 
L 275.984196 291.787713 
L 276.976902 291.202403 
L 277.969608 296.150323 
L 278.962314 292.310267 
L 279.95502 293.675009 
L 280.947726 287.885155 
L 281.940432 291.310315 
L 282.933138 293.982699 
L 283.925844 283.352877 
L 284.91855 288.436493 
L 285.911255 295.819564 
L 286.903961 292.305179 
L 287.896667 293.215408 
L 288.889373 298.05093 
L 289.882079 299.305836 
L 290.874785 297.180228 
L 291.867491 293.46193 
L 292.860197 295.979305 
L 293.852903 294.416167 
L 294.845609 292.22149 
L 295.838315 295.352722 
L 296.831021 301.554096 
L 297.823727 292.92121 
L 298.816432 299.421795 
L 299.809138 294.031438 
L 300.801844 298.984366 
L 301.79455 297.679899 
L 302.787256 293.311487 
L 303.779962 277.487553 
L 304.772668 301.390937 
L 305.765374 299.674536 
L 306.75808 293.953041 
L 307.750786 302.020536 
L 308.743492 303.879352 
L 309.736198 298.221524 
L 310.728904 300.226178 
L 311.721609 298.694554 
L 312.714315 295.82751 
L 313.707021 302.562069 
L 314.699727 294.94421 
L 315.692433 298.896574 
L 316.685139 302.309735 
L 318.670551 300.933726 
L 319.663257 306.243447 
L 320.655963 303.302231 
L 321.648669 303.728544 
L 322.641375 303.652067 
L 323.634081 305.59581 
L 324.626786 302.080092 
L 325.619492 296.09056 
L 326.612198 302.083804 
L 327.604904 301.718914 
L 328.59761 300.659482 
L 329.590316 302.979738 
L 330.583022 304.585258 
L 331.575728 304.367067 
L 332.568434 302.790328 
L 333.56114 304.258425 
L 334.553846 300.896138 
L 335.546552 301.322525 
L 336.539258 295.533898 
L 337.531964 302.130003 
L 338.524669 301.800572 
L 339.517375 307.229899 
L 340.510081 303.132641 
L 341.502787 301.85685 
L 342.495493 307.273176 
L 343.488199 302.807632 
L 344.480905 308.744346 
L 345.473611 307.994899 
L 346.466317 304.056817 
L 347.459023 304.412112 
L 348.451729 303.600137 
L 349.444435 308.72532 
L 350.437141 308.192458 
L 351.429846 308.558953 
L 352.422552 303.759852 
L 353.415258 307.923418 
L 354.407964 309.9505 
L 355.40067 307.393561 
L 356.393376 309.889317 
L 357.386082 309.972977 
L 358.378788 303.189861 
L 359.371494 310.053524 
L 360.3642 309.558459 
L 361.356906 308.614715 
L 362.349612 308.324294 
L 363.342318 309.637406 
L 364.335023 308.738296 
L 365.327729 306.228278 
L 366.320435 307.069128 
L 367.313141 308.603433 
L 368.305847 309.047594 
L 369.298553 308.935296 
L 370.291259 304.822254 
L 371.283965 298.378982 
L 372.276671 311.663259 
L 373.269377 313.306478 
L 374.262083 313.09687 
L 375.254789 308.392315 
L 376.247495 310.552775 
L 377.2402 313.909565 
L 378.232906 315.864276 
L 379.225612 311.097136 
L 380.218318 309.490775 
L 381.211024 312.638557 
L 382.20373 312.803032 
L 383.196436 310.901342 
L 384.189142 311.147653 
L 385.181848 313.955389 
L 386.174554 316.127699 
L 387.16726 314.372574 
L 388.159966 314.616822 
L 389.152672 316.242083 
L 390.145377 311.917897 
L 391.138083 316.510471 
L 392.130789 317.215389 
L 393.123495 317.295754 
L 394.116201 313.487777 
L 395.108907 319.296985 
L 396.101613 315.918094 
L 397.094319 314.872434 
L 398.087025 316.683152 
L 399.079731 313.854085 
L 400.072437 315.437325 
L 401.065143 318.675193 
L 402.057849 319.059304 
L 403.050555 316.717795 
L 404.04326 319.813578 
L 405.035966 316.845514 
L 406.028672 318.289049 
L 407.021378 317.15759 
L 408.014084 319.208632 
L 409.999496 320.132919 
L 410.992202 318.713435 
L 411.984908 322.126856 
L 412.977614 317.082668 
L 413.97032 321.923879 
L 414.963026 320.072421 
L 415.955732 317.483213 
L 416.948437 321.781931 
L 417.941143 320.31554 
L 418.933849 323.012339 
L 419.926555 324.65487 
L 420.919261 321.764652 
L 422.904673 323.323248 
L 423.897379 321.261234 
L 424.890085 324.414247 
L 425.882791 321.123096 
L 426.875497 327.006605 
L 427.868203 322.771063 
L 428.860909 323.311361 
L 429.853614 325.940578 
L 430.84632 325.529777 
L 431.839026 325.534683 
L 432.831732 323.826473 
L 433.824438 326.414398 
L 434.817144 326.107224 
L 435.80985 326.584589 
L 436.802556 324.481951 
L 437.795262 327.452308 
L 438.787968 323.977466 
L 439.780674 329.019361 
L 440.77338 326.040737 
L 441.766086 328.427383 
L 442.758791 329.193567 
L 443.751497 328.170851 
L 444.744203 328.889599 
L 445.736909 330.998474 
L 446.729615 329.830094 
L 447.722321 331.649267 
L 448.715027 326.88768 
L 449.707733 329.354897 
L 450.700439 330.192682 
L 451.693145 332.338073 
L 452.685851 329.608267 
L 453.678557 332.172896 
L 454.671263 331.984957 
L 455.663968 330.886367 
L 456.656674 332.39128 
L 457.64938 332.005115 
L 458.642086 333.146292 
L 459.634792 332.76162 
L 460.627498 333.387873 
L 461.620204 334.685895 
L 462.61291 333.353088 
L 463.605616 332.594689 
L 464.598322 332.407898 
L 465.591028 334.841281 
L 466.583734 335.067199 
L 467.57644 334.641312 
L 469.561851 334.984128 
L 470.554557 335.389781 
L 471.547263 335.05102 
L 472.539969 337.38307 
L 473.532675 335.752319 
L 474.525381 336.455133 
L 475.518087 336.792703 
L 476.510793 336.726308 
L 477.503499 336.538172 
L 478.496205 336.840871 
L 479.488911 337.534838 
L 480.481617 337.394581 
L 482.467028 336.795395 
L 483.459734 338.431302 
L 484.45244 337.718079 
L 485.445146 338.485346 
L 486.437852 338.485975 
L 487.430558 337.821733 
L 488.423264 339.06672 
L 489.41597 338.483745 
L 490.408676 337.636051 
L 491.401382 339.487331 
L 492.394088 339.296314 
L 493.386794 339.683658 
L 494.3795 340.696963 
L 495.372205 339.37623 
L 496.364911 340.108258 
L 497.357617 340.523351 
L 498.350323 339.368525 
L 499.343029 340.23598 
L 500.335735 339.924571 
L 502.321147 340.541299 
L 503.313853 339.976509 
L 504.306559 340.300828 
L 505.299265 340.306405 
L 508.277382 340.967687 
L 510.262794 340.33755 
L 511.2555 340.537805 
L 512.248206 341.16383 
L 513.240912 341.237275 
L 514.233618 340.925236 
L 515.226324 341.337141 
L 516.21903 341.357812 
L 517.211736 340.963169 
L 520.189854 341.335511 
L 521.182559 293.043516 
L 522.175265 281.119337 
L 523.167971 280.268707 
L 524.160677 284.930489 
L 525.153383 294.591506 
L 526.146089 291.544737 
L 527.138795 293.502198 
L 528.131501 292.029218 
L 529.124207 292.224918 
L 530.116913 295.743325 
L 531.109619 296.365604 
L 532.102325 294.752028 
L 533.095031 292.592115 
L 534.087737 296.431704 
L 535.080442 298.741566 
L 537.065854 302.428942 
L 538.05856 297.509278 
L 539.051266 298.647343 
L 540.043972 296.87357 
L 541.036678 301.97337 
L 542.029384 301.632328 
L 543.02209 302.793888 
L 544.014796 299.713655 
L 545.007502 302.14175 
L 546.000208 299.043308 
L 546.992914 298.176043 
L 547.985619 294.34958 
L 548.978325 300.570433 
L 549.971031 296.806514 
L 550.963737 303.301677 
L 551.956443 301.962165 
L 552.949149 298.23665 
L 553.941855 295.871298 
L 554.934561 299.177696 
L 556.919973 303.156246 
L 557.912679 302.411449 
L 558.905385 302.346561 
L 559.898091 301.081402 
L 560.890796 293.643335 
L 561.883502 297.215836 
L 562.876208 299.289033 
L 563.868914 302.431685 
L 564.86162 300.756432 
L 565.854326 291.800347 
L 566.847032 296.369678 
L 567.839738 302.526136 
L 568.832444 299.650287 
L 569.82515 301.063485 
L 570.817856 303.308172 
L 571.810562 298.248775 
L 572.803268 293.968329 
L 573.795973 302.52811 
L 574.788679 290.883371 
L 575.781385 300.121588 
L 576.774091 298.009501 
L 577.766797 305.180755 
L 578.759503 302.914068 
L 579.752209 298.995755 
L 580.744915 299.578255 
L 581.737621 300.309357 
L 582.730327 303.049514 
L 583.723033 301.484488 
L 584.715739 308.351754 
L 584.715739 308.351754 
" clip-path="url(#pb7410a46df)" style="fill: none; stroke: #ff0000; stroke-width: 2; stroke-linecap: square"/>
   </g>
   <g id="patch_3">
    <path d="M 52.079375 356.477812 
L 52.079375 23.837812 
" style="fill: none; stroke: #000000; stroke-width: 0.8; stroke-linejoin: miter; stroke-linecap: square"/>
   </g>
   <g id="patch_4">
    <path d="M 610.079375 356.477812 
L 610.079375 23.837812 
" style="fill: none; stroke: #000000; stroke-width: 0.8; stroke-linejoin: miter; stroke-linecap: square"/>
   </g>
   <g id="patch_5">
    <path d="M 52.079375 356.477812 
L 610.079375 356.477812 
" style="fill: none; stroke: #000000; stroke-width: 0.8; stroke-linejoin: miter; stroke-linecap: square"/>
   </g>
   <g id="patch_6">
    <path d="M 52.079375 23.837812 
L 610.079375 23.837812 
" style="fill: none; stroke: #000000; stroke-width: 0.8; stroke-linejoin: miter; stroke-linecap: square"/>
   </g>
   <g id="text_15">
    <!-- Training and Validation Loss -->
    <g transform="translate(233.698437 17.837812) scale(0.14 -0.14)">
     <defs>
      <path id="DejaVuSans-54" d="M -19 4666 
L 3928 4666 
L 3928 4134 
L 2272 4134 
L 2272 0 
L 1638 0 
L 1638 4134 
L -19 4134 
L -19 4666 
z
" transform="scale(0.015625)"/>
      <path id="DejaVuSans-72" d="M 2631 2963 
Q 2534 3019 2420 3045 
Q 2306 3072 2169 3072 
Q 1681 3072 1420 2755 
Q 1159 2438 1159 1844 
L 1159 0 
L 581 0 
L 581 3500 
L 1159 3500 
L 1159 2956 
Q 1341 3275 1631 3429 
Q 1922 3584 2338 3584 
Q 2397 3584 2469 3576 
Q 2541 3569 2628 3553 
L 2631 2963 
z
" transform="scale(0.015625)"/>
      <path id="DejaVuSans-61" d="M 2194 1759 
Q 1497 1759 1228 1600 
Q 959 1441 959 1056 
Q 959 750 1161 570 
Q 1363 391 1709 391 
Q 2188 391 2477 730 
Q 2766 1069 2766 1631 
L 2766 1759 
L 2194 1759 
z
M 3341 1997 
L 3341 0 
L 2766 0 
L 2766 531 
Q 2569 213 2275 61 
Q 1981 -91 1556 -91 
Q 1019 -91 701 211 
Q 384 513 384 1019 
Q 384 1609 779 1909 
Q 1175 2209 1959 2209 
L 2766 2209 
L 2766 2266 
Q 2766 2663 2505 2880 
Q 2244 3097 1772 3097 
Q 1472 3097 1187 3025 
Q 903 2953 641 2809 
L 641 3341 
Q 956 3463 1253 3523 
Q 1550 3584 1831 3584 
Q 2591 3584 2966 3190 
Q 3341 2797 3341 1997 
z
" transform="scale(0.015625)"/>
      <path id="DejaVuSans-69" d="M 603 3500 
L 1178 3500 
L 1178 0 
L 603 0 
L 603 3500 
z
M 603 4863 
L 1178 4863 
L 1178 4134 
L 603 4134 
L 603 4863 
z
" transform="scale(0.015625)"/>
      <path id="DejaVuSans-6e" d="M 3513 2113 
L 3513 0 
L 2938 0 
L 2938 2094 
Q 2938 2591 2744 2837 
Q 2550 3084 2163 3084 
Q 1697 3084 1428 2787 
Q 1159 2491 1159 1978 
L 1159 0 
L 581 0 
L 581 3500 
L 1159 3500 
L 1159 2956 
Q 1366 3272 1645 3428 
Q 1925 3584 2291 3584 
Q 2894 3584 3203 3211 
Q 3513 2838 3513 2113 
z
" transform="scale(0.015625)"/>
      <path id="DejaVuSans-67" d="M 2906 1791 
Q 2906 2416 2648 2759 
Q 2391 3103 1925 3103 
Q 1463 3103 1205 2759 
Q 947 2416 947 1791 
Q 947 1169 1205 825 
Q 1463 481 1925 481 
Q 2391 481 2648 825 
Q 2906 1169 2906 1791 
z
M 3481 434 
Q 3481 -459 3084 -895 
Q 2688 -1331 1869 -1331 
Q 1566 -1331 1297 -1286 
Q 1028 -1241 775 -1147 
L 775 -588 
Q 1028 -725 1275 -790 
Q 1522 -856 1778 -856 
Q 2344 -856 2625 -561 
Q 2906 -266 2906 331 
L 2906 616 
Q 2728 306 2450 153 
Q 2172 0 1784 0 
Q 1141 0 747 490 
Q 353 981 353 1791 
Q 353 2603 747 3093 
Q 1141 3584 1784 3584 
Q 2172 3584 2450 3431 
Q 2728 3278 2906 2969 
L 2906 3500 
L 3481 3500 
L 3481 434 
z
" transform="scale(0.015625)"/>
      <path id="DejaVuSans-20" transform="scale(0.015625)"/>
      <path id="DejaVuSans-64" d="M 2906 2969 
L 2906 4863 
L 3481 4863 
L 3481 0 
L 2906 0 
L 2906 525 
Q 2725 213 2448 61 
Q 2172 -91 1784 -91 
Q 1150 -91 751 415 
Q 353 922 353 1747 
Q 353 2572 751 3078 
Q 1150 3584 1784 3584 
Q 2172 3584 2448 3432 
Q 2725 3281 2906 2969 
z
M 947 1747 
Q 947 1113 1208 752 
Q 1469 391 1925 391 
Q 2381 391 2643 752 
Q 2906 1113 2906 1747 
Q 2906 2381 2643 2742 
Q 2381 3103 1925 3103 
Q 1469 3103 1208 2742 
Q 947 2381 947 1747 
z
" transform="scale(0.015625)"/>
      <path id="DejaVuSans-56" d="M 1831 0 
L 50 4666 
L 709 4666 
L 2188 738 
L 3669 4666 
L 4325 4666 
L 2547 0 
L 1831 0 
z
" transform="scale(0.015625)"/>
      <path id="DejaVuSans-6c" d="M 603 4863 
L 1178 4863 
L 1178 0 
L 603 0 
L 603 4863 
z
" transform="scale(0.015625)"/>
      <path id="DejaVuSans-74" d="M 1172 4494 
L 1172 3500 
L 2356 3500 
L 2356 3053 
L 1172 3053 
L 1172 1153 
Q 1172 725 1289 603 
Q 1406 481 1766 481 
L 2356 481 
L 2356 0 
L 1766 0 
Q 1100 0 847 248 
Q 594 497 594 1153 
L 594 3053 
L 172 3053 
L 172 3500 
L 594 3500 
L 594 4494 
L 1172 4494 
z
" transform="scale(0.015625)"/>
     </defs>
     <use xlink:href="#DejaVuSans-54"/>
     <use xlink:href="#DejaVuSans-72" x="46.333984"/>
     <use xlink:href="#DejaVuSans-61" x="87.447266"/>
     <use xlink:href="#DejaVuSans-69" x="148.726562"/>
     <use xlink:href="#DejaVuSans-6e" x="176.509766"/>
     <use xlink:href="#DejaVuSans-69" x="239.888672"/>
     <use xlink:href="#DejaVuSans-6e" x="267.671875"/>
     <use xlink:href="#DejaVuSans-67" x="331.050781"/>
     <use xlink:href="#DejaVuSans-20" x="394.527344"/>
     <use xlink:href="#DejaVuSans-61" x="426.314453"/>
     <use xlink:href="#DejaVuSans-6e" x="487.59375"/>
     <use xlink:href="#DejaVuSans-64" x="550.972656"/>
     <use xlink:href="#DejaVuSans-20" x="614.449219"/>
     <use xlink:href="#DejaVuSans-56" x="646.236328"/>
     <use xlink:href="#DejaVuSans-61" x="706.894531"/>
     <use xlink:href="#DejaVuSans-6c" x="768.173828"/>
     <use xlink:href="#DejaVuSans-69" x="795.957031"/>
     <use xlink:href="#DejaVuSans-64" x="823.740234"/>
     <use xlink:href="#DejaVuSans-61" x="887.216797"/>
     <use xlink:href="#DejaVuSans-74" x="948.496094"/>
     <use xlink:href="#DejaVuSans-69" x="987.705078"/>
     <use xlink:href="#DejaVuSans-6f" x="1015.488281"/>
     <use xlink:href="#DejaVuSans-6e" x="1076.669922"/>
     <use xlink:href="#DejaVuSans-20" x="1140.048828"/>
     <use xlink:href="#DejaVuSans-4c" x="1171.835938"/>
     <use xlink:href="#DejaVuSans-6f" x="1225.798828"/>
     <use xlink:href="#DejaVuSans-73" x="1286.980469"/>
     <use xlink:href="#DejaVuSans-73" x="1339.080078"/>
    </g>
   </g>
   <g id="legend_1">
    <g id="patch_7">
     <path d="M 521.979375 61.194062 
L 603.079375 61.194062 
Q 605.079375 61.194062 605.079375 59.194062 
L 605.079375 30.837812 
Q 605.079375 28.837812 603.079375 28.837812 
L 521.979375 28.837812 
Q 519.979375 28.837812 519.979375 30.837812 
L 519.979375 59.194062 
Q 519.979375 61.194062 521.979375 61.194062 
z
" style="fill: #ffffff; opacity: 0.8; stroke: #cccccc; stroke-linejoin: miter"/>
    </g>
    <g id="line2d_27">
     <path d="M 523.979375 36.93625 
L 533.979375 36.93625 
L 543.979375 36.93625 
" style="fill: none; stroke: #0000ff; stroke-width: 2; stroke-linecap: square"/>
    </g>
    <g id="text_16">
     <!-- Train Loss -->
     <g transform="translate(551.979375 40.43625) scale(0.1 -0.1)">
      <use xlink:href="#DejaVuSans-54"/>
      <use xlink:href="#DejaVuSans-72" x="46.333984"/>
      <use xlink:href="#DejaVuSans-61" x="87.447266"/>
      <use xlink:href="#DejaVuSans-69" x="148.726562"/>
      <use xlink:href="#DejaVuSans-6e" x="176.509766"/>
      <use xlink:href="#DejaVuSans-20" x="239.888672"/>
      <use xlink:href="#DejaVuSans-4c" x="271.675781"/>
      <use xlink:href="#DejaVuSans-6f" x="325.638672"/>
      <use xlink:href="#DejaVuSans-73" x="386.820312"/>
      <use xlink:href="#DejaVuSans-73" x="438.919922"/>
     </g>
    </g>
    <g id="line2d_28">
     <path d="M 523.979375 51.614375 
L 533.979375 51.614375 
L 543.979375 51.614375 
" style="fill: none; stroke: #ff0000; stroke-width: 2; stroke-linecap: square"/>
    </g>
    <g id="text_17">
     <!-- Val loss -->
     <g transform="translate(551.979375 55.114375) scale(0.1 -0.1)">
      <use xlink:href="#DejaVuSans-56"/>
      <use xlink:href="#DejaVuSans-61" x="60.658203"/>
      <use xlink:href="#DejaVuSans-6c" x="121.9375"/>
      <use xlink:href="#DejaVuSans-20" x="149.720703"/>
      <use xlink:href="#DejaVuSans-6c" x="181.507812"/>
      <use xlink:href="#DejaVuSans-6f" x="209.291016"/>
      <use xlink:href="#DejaVuSans-73" x="270.472656"/>
      <use xlink:href="#DejaVuSans-73" x="322.572266"/>
     </g>
    </g>
   </g>
  </g>
 </g>
 <defs>
  <clipPath id="pb7410a46df">
   <rect x="52.079375" y="23.837812" width="558" height="332.64"/>
  </clipPath>
 </defs>
</svg>
