<?xml version="1.0" encoding="utf-8" standalone="no"?>
<!DOCTYPE svg PUBLIC "-//W3C//DTD SVG 1.1//EN"
  "http://www.w3.org/Graphics/SVG/1.1/DTD/svg11.dtd">
<svg xmlns:xlink="http://www.w3.org/1999/xlink" width="618.951652pt" height="395.969687pt" viewBox="0 0 618.951652 395.969687" xmlns="http://www.w3.org/2000/svg" version="1.1">
 <metadata>
  <rdf:RDF xmlns:dc="http://purl.org/dc/elements/1.1/" xmlns:cc="http://creativecommons.org/ns#" xmlns:rdf="http://www.w3.org/1999/02/22-rdf-syntax-ns#">
   <cc:Work>
    <dc:type rdf:resource="http://purl.org/dc/dcmitype/StillImage"/>
    <dc:date>2026-03-29T15:30:51.691214</dc:date>
    <dc:format>image/svg+xml</dc:format>
    <dc:creator>
     <cc:Agent>
      <dc:title>Matplotlib v3.9.0, https://matplotlib.org/</dc:title>
     </cc:Agent>
    </dc:creator>
   </cc:Work>
  </rdf:RDF>
 </metadata>
 <defs>
  <style type="text/css">*{stroke-linejoin: round; stroke-linecap: butt}</style>
 </defs>
 <g id="figure_1">
  <g id="patch_1">
   <path d="M 0 395.969687 
L 618.951652 395.969687 
L 618.951652 0 
L 0 0 
z
" style="fill: #ffffff"/>
  </g>
  <g id="axes_1">
   <g id="patch_2">
    <path d="M 52.079375 356.477812 
L 610.079375 356.477812 
L 610.079375 23.837812 
L 52.079375 23.837812 
z
" style="fill: #ffffff"/>
   </g>
   <g id="matplotlib.axis_1">
    <g id="xtick_1">
     <g id="line2d_1">
      <path d="M 77.443011 356.477812 
L 77.443011 23.837812 
" clip-path="url(#p4ac4e63f64)" style="fill: none; stroke: #b0b0b0; stroke-opacity: 0.3; stroke-width: 0.8; stroke-linecap: square"/>
     </g>
     <g id="line2d_2">
      <defs>
       <path id="mcb3d9fdacc" d="M 0 0 
L 0 3.5 
" style="stroke: #000000; stroke-width: 0.8"/>
      </defs>
      <g>
       <use xlink:href="#mcb3d9fdacc" x="77.443011" y="356.477812" style="stroke: #000000; stroke-width: 0.8"/>
      </g>
     </g>
     <g id="text_1">
      <!-- 0 -->
      <g transform="translate(74.261761 371.07625) scale(0.1 -0.1)">
       <defs>
        <path id="DejaVuSans-30" d="M 2034 4250 
Q 1547 4250 1301 3770 
Q 1056 3291 1056 2328 
Q 1056 1369 1301 889 
Q 1547 409 2034 409 
Q 2525 409 2770 889 
Q 3016 1369 3016 2328 
Q 3016 3291 2770 3770 
Q 2525 4250 2034 4250 
z
M 2034 4750 
Q 2819 4750 3233 4129 
Q 3647 3509 3647 2328 
Q 3647 1150 3233 529 
Q 2819 -91 2034 -91 
Q 1250 -91 836 529 
Q 422 1150 422 2328 
Q 422 3509 836 4129 
Q 1250 4750 2034 4750 
z
" transform="scale(0.015625)"/>
       </defs>
       <use xlink:href="#DejaVuSans-30"/>
      </g>
     </g>
    </g>
    <g id="xtick_2">
     <g id="line2d_3">
      <path d="M 164.903826 356.477812 
L 164.903826 23.837812 
" clip-path="url(#p4ac4e63f64)" style="fill: none; stroke: #b0b0b0; stroke-opacity: 0.3; stroke-width: 0.8; stroke-linecap: square"/>
     </g>
     <g id="line2d_4">
      <g>
       <use xlink:href="#mcb3d9fdacc" x="164.903826" y="356.477812" style="stroke: #000000; stroke-width: 0.8"/>
      </g>
     </g>
     <g id="text_2">
      <!-- 50 -->
      <g transform="translate(158.541326 371.07625) scale(0.1 -0.1)">
       <defs>
        <path id="DejaVuSans-35" d="M 691 4666 
L 3169 4666 
L 3169 4134 
L 1269 4134 
L 1269 2991 
Q 1406 3038 1543 3061 
Q 1681 3084 1819 3084 
Q 2600 3084 3056 2656 
Q 3513 2228 3513 1497 
Q 3513 744 3044 326 
Q 2575 -91 1722 -91 
Q 1428 -91 1123 -41 
Q 819 9 494 109 
L 494 744 
Q 775 591 1075 516 
Q 1375 441 1709 441 
Q 2250 441 2565 725 
Q 2881 1009 2881 1497 
Q 2881 1984 2565 2268 
Q 2250 2553 1709 2553 
Q 1456 2553 1204 2497 
Q 953 2441 691 2322 
L 691 4666 
z
" transform="scale(0.015625)"/>
       </defs>
       <use xlink:href="#DejaVuSans-35"/>
       <use xlink:href="#DejaVuSans-30" x="63.623047"/>
      </g>
     </g>
    </g>
    <g id="xtick_3">
     <g id="line2d_5">
      <path d="M 252.364641 356.477812 
L 252.364641 23.837812 
" clip-path="url(#p4ac4e63f64)" style="fill: none; stroke: #b0b0b0; stroke-opacity: 0.3; stroke-width: 0.8; stroke-linecap: square"/>
     </g>
     <g id="line2d_6">
      <g>
       <use xlink:href="#mcb3d9fdacc" x="252.364641" y="356.477812" style="stroke: #000000; stroke-width: 0.8"/>
      </g>
     </g>
     <g id="text_3">
      <!-- 100 -->
      <g transform="translate(242.820891 371.07625) scale(0.1 -0.1)">
       <defs>
        <path id="DejaVuSans-31" d="M 794 531 
L 1825 531 
L 1825 4091 
L 703 3866 
L 703 4441 
L 1819 4666 
L 2450 4666 
L 2450 531 
L 3481 531 
L 3481 0 
L 794 0 
L 794 531 
z
" transform="scale(0.015625)"/>
       </defs>
       <use xlink:href="#DejaVuSans-31"/>
       <use xlink:href="#DejaVuSans-30" x="63.623047"/>
       <use xlink:href="#DejaVuSans-30" x="127.246094"/>
      </g>
     </g>
    </g>
    <g id="xtick_4">
     <g id="line2d_7">
      <path d="M 339.825457 356.477812 
L 339.825457 23.837812 
" clip-path="url(#p4ac4e63f64)" style="fill: none; stroke: #b0b0b0; stroke-opacity: 0.3; stroke-width: 0.8; stroke-linecap: square"/>
     </g>
     <g id="line2d_8">
      <g>
       <use xlink:href="#mcb3d9fdacc" x="339.825457" y="356.477812" style="stroke: #000000; stroke-width: 0.8"/>
      </g>
     </g>
     <g id="text_4">
      <!-- 150 -->
      <g transform="translate(330.281707 371.07625) scale(0.1 -0.1)">
       <use xlink:href="#DejaVuSans-31"/>
       <use xlink:href="#DejaVuSans-35" x="63.623047"/>
       <use xlink:href="#DejaVuSans-30" x="127.246094"/>
      </g>
     </g>
    </g>
    <g id="xtick_5">
     <g id="line2d_9">
      <path d="M 427.286272 356.477812 
L 427.286272 23.837812 
" clip-path="url(#p4ac4e63f64)" style="fill: none; stroke: #b0b0b0; stroke-opacity: 0.3; stroke-width: 0.8; stroke-linecap: square"/>
     </g>
     <g id="line2d_10">
      <g>
       <use xlink:href="#mcb3d9fdacc" x="427.286272" y="356.477812" style="stroke: #000000; stroke-width: 0.8"/>
      </g>
     </g>
     <g id="text_5">
      <!-- 200 -->
      <g transform="translate(417.742522 371.07625) scale(0.1 -0.1)">
       <defs>
        <path id="DejaVuSans-32" d="M 1228 531 
L 3431 531 
L 3431 0 
L 469 0 
L 469 531 
Q 828 903 1448 1529 
Q 2069 2156 2228 2338 
Q 2531 2678 2651 2914 
Q 2772 3150 2772 3378 
Q 2772 3750 2511 3984 
Q 2250 4219 1831 4219 
Q 1534 4219 1204 4116 
Q 875 4013 500 3803 
L 500 4441 
Q 881 4594 1212 4672 
Q 1544 4750 1819 4750 
Q 2544 4750 2975 4387 
Q 3406 4025 3406 3419 
Q 3406 3131 3298 2873 
Q 3191 2616 2906 2266 
Q 2828 2175 2409 1742 
Q 1991 1309 1228 531 
z
" transform="scale(0.015625)"/>
       </defs>
       <use xlink:href="#DejaVuSans-32"/>
       <use xlink:href="#DejaVuSans-30" x="63.623047"/>
       <use xlink:href="#DejaVuSans-30" x="127.246094"/>
      </g>
     </g>
    </g>
    <g id="xtick_6">
     <g id="line2d_11">
      <path d="M 514.747087 356.477812 
L 514.747087 23.837812 
" clip-path="url(#p4ac4e63f64)" style="fill: none; stroke: #b0b0b0; stroke-opacity: 0.3; stroke-width: 0.8; stroke-linecap: square"/>
     </g>
     <g id="line2d_12">
      <g>
       <use xlink:href="#mcb3d9fdacc" x="514.747087" y="356.477812" style="stroke: #000000; stroke-width: 0.8"/>
      </g>
     </g>
     <g id="text_6">
      <!-- 250 -->
      <g transform="translate(505.203337 371.07625) scale(0.1 -0.1)">
       <use xlink:href="#DejaVuSans-32"/>
       <use xlink:href="#DejaVuSans-35" x="63.623047"/>
       <use xlink:href="#DejaVuSans-30" x="127.246094"/>
      </g>
     </g>
    </g>
    <g id="xtick_7">
     <g id="line2d_13">
      <path d="M 602.207902 356.477812 
L 602.207902 23.837812 
" clip-path="url(#p4ac4e63f64)" style="fill: none; stroke: #b0b0b0; stroke-opacity: 0.3; stroke-width: 0.8; stroke-linecap: square"/>
     </g>
     <g id="line2d_14">
      <g>
       <use xlink:href="#mcb3d9fdacc" x="602.207902" y="356.477812" style="stroke: #000000; stroke-width: 0.8"/>
      </g>
     </g>
     <g id="text_7">
      <!-- 300 -->
      <g transform="translate(592.664152 371.07625) scale(0.1 -0.1)">
       <defs>
        <path id="DejaVuSans-33" d="M 2597 2516 
Q 3050 2419 3304 2112 
Q 3559 1806 3559 1356 
Q 3559 666 3084 287 
Q 2609 -91 1734 -91 
Q 1441 -91 1130 -33 
Q 819 25 488 141 
L 488 750 
Q 750 597 1062 519 
Q 1375 441 1716 441 
Q 2309 441 2620 675 
Q 2931 909 2931 1356 
Q 2931 1769 2642 2001 
Q 2353 2234 1838 2234 
L 1294 2234 
L 1294 2753 
L 1863 2753 
Q 2328 2753 2575 2939 
Q 2822 3125 2822 3475 
Q 2822 3834 2567 4026 
Q 2313 4219 1838 4219 
Q 1578 4219 1281 4162 
Q 984 4106 628 3988 
L 628 4550 
Q 988 4650 1302 4700 
Q 1616 4750 1894 4750 
Q 2613 4750 3031 4423 
Q 3450 4097 3450 3541 
Q 3450 3153 3228 2886 
Q 3006 2619 2597 2516 
z
" transform="scale(0.015625)"/>
       </defs>
       <use xlink:href="#DejaVuSans-33"/>
       <use xlink:href="#DejaVuSans-30" x="63.623047"/>
       <use xlink:href="#DejaVuSans-30" x="127.246094"/>
      </g>
     </g>
    </g>
    <g id="text_8">
     <!-- Epoch -->
     <g transform="translate(312.70625 386.274062) scale(0.12 -0.12)">
      <defs>
       <path id="DejaVuSans-45" d="M 628 4666 
L 3578 4666 
L 3578 4134 
L 1259 4134 
L 1259 2753 
L 3481 2753 
L 3481 2222 
L 1259 2222 
L 1259 531 
L 3634 531 
L 3634 0 
L 628 0 
L 628 4666 
z
" transform="scale(0.015625)"/>
       <path id="DejaVuSans-70" d="M 1159 525 
L 1159 -1331 
L 581 -1331 
L 581 3500 
L 1159 3500 
L 1159 2969 
Q 1341 3281 1617 3432 
Q 1894 3584 2278 3584 
Q 2916 3584 3314 3078 
Q 3713 2572 3713 1747 
Q 3713 922 3314 415 
Q 2916 -91 2278 -91 
Q 1894 -91 1617 61 
Q 1341 213 1159 525 
z
M 3116 1747 
Q 3116 2381 2855 2742 
Q 2594 3103 2138 3103 
Q 1681 3103 1420 2742 
Q 1159 2381 1159 1747 
Q 1159 1113 1420 752 
Q 1681 391 2138 391 
Q 2594 391 2855 752 
Q 3116 1113 3116 1747 
z
" transform="scale(0.015625)"/>
       <path id="DejaVuSans-6f" d="M 1959 3097 
Q 1497 3097 1228 2736 
Q 959 2375 959 1747 
Q 959 1119 1226 758 
Q 1494 397 1959 397 
Q 2419 397 2687 759 
Q 2956 1122 2956 1747 
Q 2956 2369 2687 2733 
Q 2419 3097 1959 3097 
z
M 1959 3584 
Q 2709 3584 3137 3096 
Q 3566 2609 3566 1747 
Q 3566 888 3137 398 
Q 2709 -91 1959 -91 
Q 1206 -91 779 398 
Q 353 888 353 1747 
Q 353 2609 779 3096 
Q 1206 3584 1959 3584 
z
" transform="scale(0.015625)"/>
       <path id="DejaVuSans-63" d="M 3122 3366 
L 3122 2828 
Q 2878 2963 2633 3030 
Q 2388 3097 2138 3097 
Q 1578 3097 1268 2742 
Q 959 2388 959 1747 
Q 959 1106 1268 751 
Q 1578 397 2138 397 
Q 2388 397 2633 464 
Q 2878 531 3122 666 
L 3122 134 
Q 2881 22 2623 -34 
Q 2366 -91 2075 -91 
Q 1284 -91 818 406 
Q 353 903 353 1747 
Q 353 2603 823 3093 
Q 1294 3584 2113 3584 
Q 2378 3584 2631 3529 
Q 2884 3475 3122 3366 
z
" transform="scale(0.015625)"/>
       <path id="DejaVuSans-68" d="M 3513 2113 
L 3513 0 
L 2938 0 
L 2938 2094 
Q 2938 2591 2744 2837 
Q 2550 3084 2163 3084 
Q 1697 3084 1428 2787 
Q 1159 2491 1159 1978 
L 1159 0 
L 581 0 
L 581 4863 
L 1159 4863 
L 1159 2956 
Q 1366 3272 1645 3428 
Q 1925 3584 2291 3584 
Q 2894 3584 3203 3211 
Q 3513 2838 3513 2113 
z
" transform="scale(0.015625)"/>
      </defs>
      <use xlink:href="#DejaVuSans-45"/>
      <use xlink:href="#DejaVuSans-70" x="63.183594"/>
      <use xlink:href="#DejaVuSans-6f" x="126.660156"/>
      <use xlink:href="#DejaVuSans-63" x="187.841797"/>
      <use xlink:href="#DejaVuSans-68" x="242.822266"/>
     </g>
    </g>
   </g>
   <g id="matplotlib.axis_2">
    <g id="ytick_1">
     <g id="line2d_15">
      <path d="M 52.079375 338.671523 
L 610.079375 338.671523 
" clip-path="url(#p4ac4e63f64)" style="fill: none; stroke: #b0b0b0; stroke-opacity: 0.3; stroke-width: 0.8; stroke-linecap: square"/>
     </g>
     <g id="line2d_16">
      <defs>
       <path id="ma65b1b34c7" d="M 0 0 
L -3.5 0 
" style="stroke: #000000; stroke-width: 0.8"/>
      </defs>
      <g>
       <use xlink:href="#ma65b1b34c7" x="52.079375" y="338.671523" style="stroke: #000000; stroke-width: 0.8"/>
      </g>
     </g>
     <g id="text_9">
      <!-- 0.04 -->
      <g transform="translate(22.81375 342.470741) scale(0.1 -0.1)">
       <defs>
        <path id="DejaVuSans-2e" d="M 684 794 
L 1344 794 
L 1344 0 
L 684 0 
L 684 794 
z
" transform="scale(0.015625)"/>
        <path id="DejaVuSans-34" d="M 2419 4116 
L 825 1625 
L 2419 1625 
L 2419 4116 
z
M 2253 4666 
L 3047 4666 
L 3047 1625 
L 3713 1625 
L 3713 1100 
L 3047 1100 
L 3047 0 
L 2419 0 
L 2419 1100 
L 313 1100 
L 313 1709 
L 2253 4666 
z
" transform="scale(0.015625)"/>
       </defs>
       <use xlink:href="#DejaVuSans-30"/>
       <use xlink:href="#DejaVuSans-2e" x="63.623047"/>
       <use xlink:href="#DejaVuSans-30" x="95.410156"/>
       <use xlink:href="#DejaVuSans-34" x="159.033203"/>
      </g>
     </g>
    </g>
    <g id="ytick_2">
     <g id="line2d_17">
      <path d="M 52.079375 277.728781 
L 610.079375 277.728781 
" clip-path="url(#p4ac4e63f64)" style="fill: none; stroke: #b0b0b0; stroke-opacity: 0.3; stroke-width: 0.8; stroke-linecap: square"/>
     </g>
     <g id="line2d_18">
      <g>
       <use xlink:href="#ma65b1b34c7" x="52.079375" y="277.728781" style="stroke: #000000; stroke-width: 0.8"/>
      </g>
     </g>
     <g id="text_10">
      <!-- 0.06 -->
      <g transform="translate(22.81375 281.528) scale(0.1 -0.1)">
       <defs>
        <path id="DejaVuSans-36" d="M 2113 2584 
Q 1688 2584 1439 2293 
Q 1191 2003 1191 1497 
Q 1191 994 1439 701 
Q 1688 409 2113 409 
Q 2538 409 2786 701 
Q 3034 994 3034 1497 
Q 3034 2003 2786 2293 
Q 2538 2584 2113 2584 
z
M 3366 4563 
L 3366 3988 
Q 3128 4100 2886 4159 
Q 2644 4219 2406 4219 
Q 1781 4219 1451 3797 
Q 1122 3375 1075 2522 
Q 1259 2794 1537 2939 
Q 1816 3084 2150 3084 
Q 2853 3084 3261 2657 
Q 3669 2231 3669 1497 
Q 3669 778 3244 343 
Q 2819 -91 2113 -91 
Q 1303 -91 875 529 
Q 447 1150 447 2328 
Q 447 3434 972 4092 
Q 1497 4750 2381 4750 
Q 2619 4750 2861 4703 
Q 3103 4656 3366 4563 
z
" transform="scale(0.015625)"/>
       </defs>
       <use xlink:href="#DejaVuSans-30"/>
       <use xlink:href="#DejaVuSans-2e" x="63.623047"/>
       <use xlink:href="#DejaVuSans-30" x="95.410156"/>
       <use xlink:href="#DejaVuSans-36" x="159.033203"/>
      </g>
     </g>
    </g>
    <g id="ytick_3">
     <g id="line2d_19">
      <path d="M 52.079375 216.786039 
L 610.079375 216.786039 
" clip-path="url(#p4ac4e63f64)" style="fill: none; stroke: #b0b0b0; stroke-opacity: 0.3; stroke-width: 0.8; stroke-linecap: square"/>
     </g>
     <g id="line2d_20">
      <g>
       <use xlink:href="#ma65b1b34c7" x="52.079375" y="216.786039" style="stroke: #000000; stroke-width: 0.8"/>
      </g>
     </g>
     <g id="text_11">
      <!-- 0.08 -->
      <g transform="translate(22.81375 220.585258) scale(0.1 -0.1)">
       <defs>
        <path id="DejaVuSans-38" d="M 2034 2216 
Q 1584 2216 1326 1975 
Q 1069 1734 1069 1313 
Q 1069 891 1326 650 
Q 1584 409 2034 409 
Q 2484 409 2743 651 
Q 3003 894 3003 1313 
Q 3003 1734 2745 1975 
Q 2488 2216 2034 2216 
z
M 1403 2484 
Q 997 2584 770 2862 
Q 544 3141 544 3541 
Q 544 4100 942 4425 
Q 1341 4750 2034 4750 
Q 2731 4750 3128 4425 
Q 3525 4100 3525 3541 
Q 3525 3141 3298 2862 
Q 3072 2584 2669 2484 
Q 3125 2378 3379 2068 
Q 3634 1759 3634 1313 
Q 3634 634 3220 271 
Q 2806 -91 2034 -91 
Q 1263 -91 848 271 
Q 434 634 434 1313 
Q 434 1759 690 2068 
Q 947 2378 1403 2484 
z
M 1172 3481 
Q 1172 3119 1398 2916 
Q 1625 2713 2034 2713 
Q 2441 2713 2670 2916 
Q 2900 3119 2900 3481 
Q 2900 3844 2670 4047 
Q 2441 4250 2034 4250 
Q 1625 4250 1398 4047 
Q 1172 3844 1172 3481 
z
" transform="scale(0.015625)"/>
       </defs>
       <use xlink:href="#DejaVuSans-30"/>
       <use xlink:href="#DejaVuSans-2e" x="63.623047"/>
       <use xlink:href="#DejaVuSans-30" x="95.410156"/>
       <use xlink:href="#DejaVuSans-38" x="159.033203"/>
      </g>
     </g>
    </g>
    <g id="ytick_4">
     <g id="line2d_21">
      <path d="M 52.079375 155.843297 
L 610.079375 155.843297 
" clip-path="url(#p4ac4e63f64)" style="fill: none; stroke: #b0b0b0; stroke-opacity: 0.3; stroke-width: 0.8; stroke-linecap: square"/>
     </g>
     <g id="line2d_22">
      <g>
       <use xlink:href="#ma65b1b34c7" x="52.079375" y="155.843297" style="stroke: #000000; stroke-width: 0.8"/>
      </g>
     </g>
     <g id="text_12">
      <!-- 0.10 -->
      <g transform="translate(22.81375 159.642516) scale(0.1 -0.1)">
       <use xlink:href="#DejaVuSans-30"/>
       <use xlink:href="#DejaVuSans-2e" x="63.623047"/>
       <use xlink:href="#DejaVuSans-31" x="95.410156"/>
       <use xlink:href="#DejaVuSans-30" x="159.033203"/>
      </g>
     </g>
    </g>
    <g id="ytick_5">
     <g id="line2d_23">
      <path d="M 52.079375 94.900555 
L 610.079375 94.900555 
" clip-path="url(#p4ac4e63f64)" style="fill: none; stroke: #b0b0b0; stroke-opacity: 0.3; stroke-width: 0.8; stroke-linecap: square"/>
     </g>
     <g id="line2d_24">
      <g>
       <use xlink:href="#ma65b1b34c7" x="52.079375" y="94.900555" style="stroke: #000000; stroke-width: 0.8"/>
      </g>
     </g>
     <g id="text_13">
      <!-- 0.12 -->
      <g transform="translate(22.81375 98.699774) scale(0.1 -0.1)">
       <use xlink:href="#DejaVuSans-30"/>
       <use xlink:href="#DejaVuSans-2e" x="63.623047"/>
       <use xlink:href="#DejaVuSans-31" x="95.410156"/>
       <use xlink:href="#DejaVuSans-32" x="159.033203"/>
      </g>
     </g>
    </g>
    <g id="ytick_6">
     <g id="line2d_25">
      <path d="M 52.079375 33.957814 
L 610.079375 33.957814 
" clip-path="url(#p4ac4e63f64)" style="fill: none; stroke: #b0b0b0; stroke-opacity: 0.3; stroke-width: 0.8; stroke-linecap: square"/>
     </g>
     <g id="line2d_26">
      <g>
       <use xlink:href="#ma65b1b34c7" x="52.079375" y="33.957814" style="stroke: #000000; stroke-width: 0.8"/>
      </g>
     </g>
     <g id="text_14">
      <!-- 0.14 -->
      <g transform="translate(22.81375 37.757032) scale(0.1 -0.1)">
       <use xlink:href="#DejaVuSans-30"/>
       <use xlink:href="#DejaVuSans-2e" x="63.623047"/>
       <use xlink:href="#DejaVuSans-31" x="95.410156"/>
       <use xlink:href="#DejaVuSans-34" x="159.033203"/>
      </g>
     </g>
    </g>
    <g id="text_15">
     <!-- Loss -->
     <g transform="translate(16.318125 203.318437) rotate(-90) scale(0.12 -0.12)">
      <defs>
       <path id="DejaVuSans-4c" d="M 628 4666 
L 1259 4666 
L 1259 531 
L 3531 531 
L 3531 0 
L 628 0 
L 628 4666 
z
" transform="scale(0.015625)"/>
       <path id="DejaVuSans-73" d="M 2834 3397 
L 2834 2853 
Q 2591 2978 2328 3040 
Q 2066 3103 1784 3103 
Q 1356 3103 1142 2972 
Q 928 2841 928 2578 
Q 928 2378 1081 2264 
Q 1234 2150 1697 2047 
L 1894 2003 
Q 2506 1872 2764 1633 
Q 3022 1394 3022 966 
Q 3022 478 2636 193 
Q 2250 -91 1575 -91 
Q 1294 -91 989 -36 
Q 684 19 347 128 
L 347 722 
Q 666 556 975 473 
Q 1284 391 1588 391 
Q 1994 391 2212 530 
Q 2431 669 2431 922 
Q 2431 1156 2273 1281 
Q 2116 1406 1581 1522 
L 1381 1569 
Q 847 1681 609 1914 
Q 372 2147 372 2553 
Q 372 3047 722 3315 
Q 1072 3584 1716 3584 
Q 2034 3584 2315 3537 
Q 2597 3491 2834 3397 
z
" transform="scale(0.015625)"/>
      </defs>
      <use xlink:href="#DejaVuSans-4c"/>
      <use xlink:href="#DejaVuSans-6f" x="53.962891"/>
      <use xlink:href="#DejaVuSans-73" x="115.144531"/>
      <use xlink:href="#DejaVuSans-73" x="167.244141"/>
     </g>
    </g>
   </g>
   <g id="line2d_27">
    <path d="M 77.443011 38.957812 
L 79.192228 155.994954 
L 80.941444 181.864419 
L 82.69066 197.600909 
L 84.439877 209.002485 
L 86.189093 217.356168 
L 87.938309 224.063129 
L 89.687525 229.478543 
L 91.436742 234.022859 
L 93.185958 238.11493 
L 94.935174 241.779277 
L 96.684391 244.851372 
L 98.433607 247.351097 
L 100.182823 250.094134 
L 103.681256 254.708491 
L 107.179688 258.782482 
L 108.928905 260.349694 
L 112.427337 264.255537 
L 117.674986 268.991272 
L 121.173419 271.711527 
L 124.671851 275.008399 
L 126.421068 276.376645 
L 128.170284 277.948819 
L 129.9195 279.228912 
L 142.164014 289.296611 
L 143.913231 290.402656 
L 145.662447 292.044257 
L 147.411663 293.127041 
L 149.16088 294.630067 
L 150.910096 295.727475 
L 154.408529 298.351359 
L 156.157745 299.391484 
L 157.906961 300.642743 
L 164.903826 304.742223 
L 171.900692 307.784526 
L 178.897557 309.733465 
L 180.646773 309.837097 
L 182.395989 310.09113 
L 184.145206 310.112703 
L 185.894422 310.319711 
L 187.643638 263.363389 
L 189.392855 261.150568 
L 191.142071 261.275711 
L 192.891287 261.906985 
L 194.640504 262.706156 
L 198.138936 263.525067 
L 201.637369 265.396961 
L 203.386585 266.061556 
L 205.135801 266.181606 
L 206.885018 266.985143 
L 210.38345 267.768633 
L 213.881883 268.846335 
L 215.631099 269.564613 
L 217.380315 269.678798 
L 219.129532 270.543523 
L 220.878748 271.052423 
L 222.627964 271.772242 
L 224.377181 271.935941 
L 226.126397 272.436425 
L 229.62483 273.75307 
L 240.120127 276.854295 
L 241.869344 276.941503 
L 243.61856 277.438157 
L 247.116993 278.913414 
L 248.866209 279.490978 
L 250.615425 279.792142 
L 252.364641 279.968552 
L 254.113858 280.825957 
L 257.61229 281.608884 
L 259.361507 282.517402 
L 261.110723 282.891102 
L 262.859939 283.456791 
L 266.358372 284.342672 
L 268.107588 285.410097 
L 269.856804 285.862362 
L 271.606021 286.19379 
L 273.355237 286.788677 
L 275.104453 287.256103 
L 276.85367 288.217203 
L 278.602886 288.599746 
L 280.352102 289.457602 
L 285.599751 290.787574 
L 287.348967 291.640613 
L 289.098184 292.058521 
L 292.596616 293.358972 
L 294.345833 294.223459 
L 296.095049 294.602654 
L 297.844265 295.11611 
L 299.593482 295.925409 
L 304.84113 297.745927 
L 306.590347 298.636897 
L 308.339563 299.141015 
L 318.834861 303.295534 
L 320.584077 303.755305 
L 322.333293 304.526855 
L 327.580942 306.351279 
L 329.330159 307.251696 
L 331.079375 307.589773 
L 334.577808 309.189354 
L 352.069971 315.450763 
L 353.819187 315.920544 
L 357.31762 317.270971 
L 360.816052 318.170592 
L 362.565268 318.595213 
L 364.314485 319.370095 
L 366.063701 319.729888 
L 371.31135 321.170732 
L 373.060566 321.526973 
L 374.809783 322.016145 
L 378.308215 322.726793 
L 380.057431 323.215657 
L 383.555864 323.698178 
L 392.301946 325.016845 
L 397.549594 325.600578 
L 399.298811 325.557633 
L 402.797243 325.841502 
L 409.794109 326.069752 
L 411.543325 270.523447 
L 413.292541 268.471836 
L 415.041757 268.842534 
L 416.790974 270.009665 
L 418.54019 270.514985 
L 420.289406 271.407365 
L 422.038623 271.599635 
L 423.787839 272.457765 
L 425.537055 273.012233 
L 427.286272 273.133969 
L 429.035488 274.189413 
L 430.784704 274.163725 
L 432.53392 275.027628 
L 434.283137 275.036508 
L 437.781569 275.934008 
L 439.530786 276.397851 
L 441.280002 276.738684 
L 443.029218 277.295437 
L 444.778435 277.108408 
L 446.527651 277.681531 
L 450.026083 277.899687 
L 451.7753 278.428021 
L 453.524516 279.132732 
L 455.273732 278.745747 
L 457.022949 278.907381 
L 458.772165 279.326331 
L 460.521381 279.307362 
L 465.76903 280.245264 
L 467.518246 280.417081 
L 469.267463 280.416552 
L 472.765895 281.051215 
L 476.264328 281.281178 
L 479.762761 281.612316 
L 481.511977 281.975903 
L 483.261193 281.910482 
L 486.759626 282.466963 
L 488.508842 282.60568 
L 490.258058 282.883756 
L 495.505707 283.314522 
L 499.00414 283.830787 
L 500.753356 284.031628 
L 502.502572 284.107848 
L 504.251789 284.587248 
L 506.001005 284.612404 
L 511.248654 285.229606 
L 514.747087 285.631064 
L 518.245519 285.981913 
L 519.994736 285.973364 
L 521.743952 286.454201 
L 523.493168 286.652027 
L 525.242384 287.032869 
L 528.740817 287.33045 
L 532.23925 287.541989 
L 533.988466 287.98289 
L 535.737682 287.951686 
L 537.486899 288.471141 
L 539.236115 288.552849 
L 540.985331 288.506372 
L 544.483764 289.354612 
L 546.23298 289.302385 
L 547.982196 289.859488 
L 549.731413 289.844434 
L 551.480629 290.167628 
L 553.229845 290.358531 
L 554.979062 290.690141 
L 556.728278 290.489651 
L 558.477494 291.334361 
L 561.975927 291.803155 
L 563.725143 291.830171 
L 565.474359 292.280867 
L 567.223576 292.226221 
L 568.972792 292.669783 
L 572.471225 293.181916 
L 577.718873 294.036186 
L 579.46809 293.991799 
L 581.217306 294.375753 
L 582.966522 294.620963 
L 584.715739 295.065599 
L 584.715739 295.065599 
" clip-path="url(#p4ac4e63f64)" style="fill: none; stroke: #0000ff; stroke-width: 2; stroke-linecap: square"/>
   </g>
   <g id="line2d_28">
    <path d="M 77.443011 169.710477 
L 79.192228 206.126649 
L 80.941444 228.06366 
L 82.69066 234.362941 
L 84.439877 245.502917 
L 86.189093 247.752658 
L 87.938309 255.94804 
L 89.687525 252.217951 
L 91.436742 264.19876 
L 93.185958 272.967682 
L 94.935174 270.81499 
L 96.684391 264.888757 
L 98.433607 278.205546 
L 100.182823 277.043147 
L 101.93204 280.49196 
L 103.681256 288.563749 
L 105.430472 283.949519 
L 107.179688 281.525244 
L 108.928905 286.108095 
L 110.678121 285.577465 
L 112.427337 288.92852 
L 114.176554 285.822249 
L 115.92577 286.968617 
L 117.674986 291.628556 
L 119.424203 297.461699 
L 121.173419 292.097046 
L 122.922635 297.889457 
L 126.421068 302.703694 
L 128.170284 300.99763 
L 129.9195 304.281968 
L 131.668717 300.990696 
L 133.417933 306.535315 
L 135.167149 310.052515 
L 136.916366 308.660793 
L 138.665582 310.163045 
L 140.414798 311.01009 
L 142.164014 307.878935 
L 143.913231 311.405165 
L 145.662447 313.393304 
L 147.411663 315.077006 
L 149.16088 316.3661 
L 150.910096 314.708639 
L 152.659312 319.721269 
L 154.408529 321.173885 
L 156.157745 320.99376 
L 159.656178 323.665374 
L 161.405394 323.229453 
L 163.15461 324.390085 
L 164.903826 324.587719 
L 166.653043 324.528705 
L 168.402259 327.583434 
L 170.151475 326.789294 
L 173.649908 328.924056 
L 175.399124 329.363799 
L 177.148341 329.47586 
L 178.897557 329.269255 
L 182.395989 329.687815 
L 184.145206 329.94485 
L 185.894422 329.842735 
L 187.643638 289.501574 
L 189.392855 281.724736 
L 191.142071 286.051902 
L 192.891287 282.896487 
L 194.640504 286.817133 
L 196.38972 290.092232 
L 198.138936 286.895764 
L 199.888152 291.453673 
L 201.637369 287.62487 
L 203.386585 288.591449 
L 205.135801 296.68313 
L 206.885018 290.336638 
L 208.634234 289.285426 
L 210.38345 286.920177 
L 212.132667 291.615043 
L 213.881883 292.624463 
L 215.631099 292.048991 
L 219.129532 296.541579 
L 220.878748 295.243057 
L 222.627964 297.691555 
L 224.377181 288.718472 
L 226.126397 295.647453 
L 227.875613 298.043189 
L 229.62483 298.803642 
L 231.374046 299.247592 
L 233.123262 297.028122 
L 234.872478 301.134671 
L 236.621695 287.3063 
L 238.370911 297.714462 
L 240.120127 296.989184 
L 241.869344 302.963697 
L 243.61856 302.372879 
L 245.367776 281.643662 
L 247.116993 306.254334 
L 250.615425 296.286506 
L 252.364641 291.591212 
L 254.113858 294.558644 
L 255.863074 301.906339 
L 257.61229 303.864292 
L 259.361507 304.814448 
L 261.110723 304.989061 
L 262.859939 304.995039 
L 264.609156 310.539073 
L 266.358372 308.730056 
L 269.856804 311.012454 
L 271.606021 307.11424 
L 273.355237 311.076094 
L 275.104453 308.20502 
L 276.85367 305.938384 
L 278.602886 311.983502 
L 280.352102 305.974696 
L 282.101319 311.271056 
L 283.850535 313.185066 
L 285.599751 313.700089 
L 287.348967 315.579597 
L 289.098184 311.976643 
L 290.8474 306.598694 
L 292.596616 312.59776 
L 294.345833 315.685962 
L 296.095049 315.020502 
L 297.844265 311.590315 
L 299.593482 316.29945 
L 301.342698 315.854512 
L 303.091914 319.613176 
L 304.84113 317.416879 
L 306.590347 319.507511 
L 308.339563 319.968203 
L 310.088779 319.192929 
L 311.837996 319.88446 
L 313.587212 315.304112 
L 315.336428 318.721067 
L 317.085645 321.336754 
L 318.834861 323.131855 
L 320.584077 322.051137 
L 322.333293 321.237749 
L 324.08251 325.141172 
L 325.831726 325.71184 
L 327.580942 324.575106 
L 329.330159 327.679676 
L 331.079375 324.132363 
L 332.828591 323.545402 
L 334.577808 330.798136 
L 336.327024 327.203647 
L 338.07624 327.541168 
L 339.825457 326.144497 
L 341.574673 328.204584 
L 343.323889 331.013846 
L 345.073105 331.913651 
L 348.571538 330.054699 
L 350.320754 330.520928 
L 352.069971 329.634476 
L 353.819187 332.024334 
L 355.568403 331.997722 
L 357.31762 331.671374 
L 359.066836 334.55032 
L 360.816052 335.053655 
L 362.565268 334.193252 
L 364.314485 336.513417 
L 366.063701 334.160874 
L 367.812917 335.792341 
L 369.562134 336.372084 
L 371.31135 335.805045 
L 373.060566 337.574876 
L 374.809783 338.52693 
L 378.308215 338.606231 
L 380.057431 338.739271 
L 381.806648 339.976117 
L 383.555864 338.207372 
L 385.30508 339.038963 
L 387.054297 340.00028 
L 388.803513 339.918916 
L 390.552729 340.686933 
L 392.301946 340.589759 
L 394.051162 339.841435 
L 395.800378 340.59765 
L 399.298811 340.711232 
L 402.797243 341.118339 
L 404.54646 340.866117 
L 406.295676 340.895181 
L 409.794109 341.357812 
L 411.543325 290.473489 
L 413.292541 293.799771 
L 415.041757 294.256284 
L 416.790974 296.047556 
L 418.54019 292.849131 
L 420.289406 292.259147 
L 422.038623 290.940686 
L 423.787839 298.335458 
L 425.537055 289.001715 
L 427.286272 296.145574 
L 429.035488 295.550175 
L 430.784704 300.583379 
L 432.53392 296.677135 
L 434.283137 298.0654 
L 436.032353 292.17575 
L 437.781569 295.659947 
L 439.530786 298.378393 
L 441.280002 287.565352 
L 443.029218 292.736591 
L 444.778435 300.246919 
L 446.527651 296.671959 
L 448.276867 297.597877 
L 450.026083 302.516746 
L 451.7753 303.793282 
L 453.524516 301.631036 
L 455.273732 297.848648 
L 457.022949 300.409414 
L 458.772165 298.819333 
L 460.521381 296.586827 
L 462.270598 299.772031 
L 464.019814 306.080293 
L 465.76903 297.298608 
L 467.518246 303.911239 
L 469.267463 298.427972 
L 471.016679 303.466271 
L 472.765895 302.139319 
L 474.515112 297.695612 
L 476.264328 281.598932 
L 478.013544 305.914322 
L 479.762761 304.168337 
L 481.511977 298.348224 
L 483.261193 306.554773 
L 485.010409 308.445628 
L 486.759626 302.69028 
L 488.508842 304.729487 
L 490.258058 303.171463 
L 492.007275 300.255002 
L 493.756491 307.10564 
L 495.505707 299.356477 
L 497.254924 303.376965 
L 499.00414 306.848957 
L 502.502572 305.44923 
L 504.251789 310.850472 
L 506.001005 307.85856 
L 507.750221 308.292221 
L 509.499438 308.214426 
L 511.248654 310.191672 
L 512.99787 306.615356 
L 514.747087 300.522586 
L 516.496303 306.619132 
L 518.245519 306.247952 
L 519.994736 305.17026 
L 521.743952 307.530509 
L 523.493168 309.163701 
L 525.242384 308.941749 
L 526.991601 307.337833 
L 528.740817 308.831235 
L 530.490033 305.410994 
L 532.23925 305.844731 
L 533.988466 299.956329 
L 535.737682 306.666127 
L 537.486899 306.331018 
L 539.236115 311.853926 
L 540.985331 307.686047 
L 542.734547 306.388266 
L 544.483764 311.897949 
L 546.23298 307.355436 
L 547.982196 313.394477 
L 549.731413 312.632112 
L 551.480629 308.626152 
L 553.229845 308.987571 
L 554.979062 308.161601 
L 556.728278 313.375123 
L 558.477494 312.833077 
L 560.22671 313.205889 
L 561.975927 308.324069 
L 563.725143 312.5594 
L 565.474359 314.62142 
L 567.223576 312.020409 
L 568.972792 314.559183 
L 570.722008 314.644285 
L 572.471225 307.744253 
L 574.220441 314.72622 
L 575.969657 314.222622 
L 577.718873 313.262611 
L 579.46809 312.967185 
L 581.217306 314.30293 
L 582.966522 313.388322 
L 584.715739 310.835041 
L 584.715739 310.835041 
" clip-path="url(#p4ac4e63f64)" style="fill: none; stroke: #ff0000; stroke-width: 2; stroke-linecap: square"/>
   </g>
   <g id="patch_3">
    <path d="M 52.079375 356.477812 
L 52.079375 23.837812 
" style="fill: none; stroke: #000000; stroke-width: 0.8; stroke-linejoin: miter; stroke-linecap: square"/>
   </g>
   <g id="patch_4">
    <path d="M 610.079375 356.477812 
L 610.079375 23.837812 
" style="fill: none; stroke: #000000; stroke-width: 0.8; stroke-linejoin: miter; stroke-linecap: square"/>
   </g>
   <g id="patch_5">
    <path d="M 52.079375 356.477812 
L 610.079375 356.477812 
" style="fill: none; stroke: #000000; stroke-width: 0.8; stroke-linejoin: miter; stroke-linecap: square"/>
   </g>
   <g id="patch_6">
    <path d="M 52.079375 23.837812 
L 610.079375 23.837812 
" style="fill: none; stroke: #000000; stroke-width: 0.8; stroke-linejoin: miter; stroke-linecap: square"/>
   </g>
   <g id="text_16">
    <!-- Training and Validation Loss -->
    <g transform="translate(233.698437 17.837812) scale(0.14 -0.14)">
     <defs>
      <path id="DejaVuSans-54" d="M -19 4666 
L 3928 4666 
L 3928 4134 
L 2272 4134 
L 2272 0 
L 1638 0 
L 1638 4134 
L -19 4134 
L -19 4666 
z
" transform="scale(0.015625)"/>
      <path id="DejaVuSans-72" d="M 2631 2963 
Q 2534 3019 2420 3045 
Q 2306 3072 2169 3072 
Q 1681 3072 1420 2755 
Q 1159 2438 1159 1844 
L 1159 0 
L 581 0 
L 581 3500 
L 1159 3500 
L 1159 2956 
Q 1341 3275 1631 3429 
Q 1922 3584 2338 3584 
Q 2397 3584 2469 3576 
Q 2541 3569 2628 3553 
L 2631 2963 
z
" transform="scale(0.015625)"/>
      <path id="DejaVuSans-61" d="M 2194 1759 
Q 1497 1759 1228 1600 
Q 959 1441 959 1056 
Q 959 750 1161 570 
Q 1363 391 1709 391 
Q 2188 391 2477 730 
Q 2766 1069 2766 1631 
L 2766 1759 
L 2194 1759 
z
M 3341 1997 
L 3341 0 
L 2766 0 
L 2766 531 
Q 2569 213 2275 61 
Q 1981 -91 1556 -91 
Q 1019 -91 701 211 
Q 384 513 384 1019 
Q 384 1609 779 1909 
Q 1175 2209 1959 2209 
L 2766 2209 
L 2766 2266 
Q 2766 2663 2505 2880 
Q 2244 3097 1772 3097 
Q 1472 3097 1187 3025 
Q 903 2953 641 2809 
L 641 3341 
Q 956 3463 1253 3523 
Q 1550 3584 1831 3584 
Q 2591 3584 2966 3190 
Q 3341 2797 3341 1997 
z
" transform="scale(0.015625)"/>
      <path id="DejaVuSans-69" d="M 603 3500 
L 1178 3500 
L 1178 0 
L 603 0 
L 603 3500 
z
M 603 4863 
L 1178 4863 
L 1178 4134 
L 603 4134 
L 603 4863 
z
" transform="scale(0.015625)"/>
      <path id="DejaVuSans-6e" d="M 3513 2113 
L 3513 0 
L 2938 0 
L 2938 2094 
Q 2938 2591 2744 2837 
Q 2550 3084 2163 3084 
Q 1697 3084 1428 2787 
Q 1159 2491 1159 1978 
L 1159 0 
L 581 0 
L 581 3500 
L 1159 3500 
L 1159 2956 
Q 1366 3272 1645 3428 
Q 1925 3584 2291 3584 
Q 2894 3584 3203 3211 
Q 3513 2838 3513 2113 
z
" transform="scale(0.015625)"/>
      <path id="DejaVuSans-67" d="M 2906 1791 
Q 2906 2416 2648 2759 
Q 2391 3103 1925 3103 
Q 1463 3103 1205 2759 
Q 947 2416 947 1791 
Q 947 1169 1205 825 
Q 1463 481 1925 481 
Q 2391 481 2648 825 
Q 2906 1169 2906 1791 
z
M 3481 434 
Q 3481 -459 3084 -895 
Q 2688 -1331 1869 -1331 
Q 1566 -1331 1297 -1286 
Q 1028 -1241 775 -1147 
L 775 -588 
Q 1028 -725 1275 -790 
Q 1522 -856 1778 -856 
Q 2344 -856 2625 -561 
Q 2906 -266 2906 331 
L 2906 616 
Q 2728 306 2450 153 
Q 2172 0 1784 0 
Q 1141 0 747 490 
Q 353 981 353 1791 
Q 353 2603 747 3093 
Q 1141 3584 1784 3584 
Q 2172 3584 2450 3431 
Q 2728 3278 2906 2969 
L 2906 3500 
L 3481 3500 
L 3481 434 
z
" transform="scale(0.015625)"/>
      <path id="DejaVuSans-20" transform="scale(0.015625)"/>
      <path id="DejaVuSans-64" d="M 2906 2969 
L 2906 4863 
L 3481 4863 
L 3481 0 
L 2906 0 
L 2906 525 
Q 2725 213 2448 61 
Q 2172 -91 1784 -91 
Q 1150 -91 751 415 
Q 353 922 353 1747 
Q 353 2572 751 3078 
Q 1150 3584 1784 3584 
Q 2172 3584 2448 3432 
Q 2725 3281 2906 2969 
z
M 947 1747 
Q 947 1113 1208 752 
Q 1469 391 1925 391 
Q 2381 391 2643 752 
Q 2906 1113 2906 1747 
Q 2906 2381 2643 2742 
Q 2381 3103 1925 3103 
Q 1469 3103 1208 2742 
Q 947 2381 947 1747 
z
" transform="scale(0.015625)"/>
      <path id="DejaVuSans-56" d="M 1831 0 
L 50 4666 
L 709 4666 
L 2188 738 
L 3669 4666 
L 4325 4666 
L 2547 0 
L 1831 0 
z
" transform="scale(0.015625)"/>
      <path id="DejaVuSans-6c" d="M 603 4863 
L 1178 4863 
L 1178 0 
L 603 0 
L 603 4863 
z
" transform="scale(0.015625)"/>
      <path id="DejaVuSans-74" d="M 1172 4494 
L 1172 3500 
L 2356 3500 
L 2356 3053 
L 1172 3053 
L 1172 1153 
Q 1172 725 1289 603 
Q 1406 481 1766 481 
L 2356 481 
L 2356 0 
L 1766 0 
Q 1100 0 847 248 
Q 594 497 594 1153 
L 594 3053 
L 172 3053 
L 172 3500 
L 594 3500 
L 594 4494 
L 1172 4494 
z
" transform="scale(0.015625)"/>
     </defs>
     <use xlink:href="#DejaVuSans-54"/>
     <use xlink:href="#DejaVuSans-72" x="46.333984"/>
     <use xlink:href="#DejaVuSans-61" x="87.447266"/>
     <use xlink:href="#DejaVuSans-69" x="148.726562"/>
     <use xlink:href="#DejaVuSans-6e" x="176.509766"/>
     <use xlink:href="#DejaVuSans-69" x="239.888672"/>
     <use xlink:href="#DejaVuSans-6e" x="267.671875"/>
     <use xlink:href="#DejaVuSans-67" x="331.050781"/>
     <use xlink:href="#DejaVuSans-20" x="394.527344"/>
     <use xlink:href="#DejaVuSans-61" x="426.314453"/>
     <use xlink:href="#DejaVuSans-6e" x="487.59375"/>
     <use xlink:href="#DejaVuSans-64" x="550.972656"/>
     <use xlink:href="#DejaVuSans-20" x="614.449219"/>
     <use xlink:href="#DejaVuSans-56" x="646.236328"/>
     <use xlink:href="#DejaVuSans-61" x="706.894531"/>
     <use xlink:href="#DejaVuSans-6c" x="768.173828"/>
     <use xlink:href="#DejaVuSans-69" x="795.957031"/>
     <use xlink:href="#DejaVuSans-64" x="823.740234"/>
     <use xlink:href="#DejaVuSans-61" x="887.216797"/>
     <use xlink:href="#DejaVuSans-74" x="948.496094"/>
     <use xlink:href="#DejaVuSans-69" x="987.705078"/>
     <use xlink:href="#DejaVuSans-6f" x="1015.488281"/>
     <use xlink:href="#DejaVuSans-6e" x="1076.669922"/>
     <use xlink:href="#DejaVuSans-20" x="1140.048828"/>
     <use xlink:href="#DejaVuSans-4c" x="1171.835938"/>
     <use xlink:href="#DejaVuSans-6f" x="1225.798828"/>
     <use xlink:href="#DejaVuSans-73" x="1286.980469"/>
     <use xlink:href="#DejaVuSans-73" x="1339.080078"/>
    </g>
   </g>
   <g id="legend_1">
    <g id="patch_7">
     <path d="M 521.979375 61.194062 
L 603.079375 61.194062 
Q 605.079375 61.194062 605.079375 59.194062 
L 605.079375 30.837812 
Q 605.079375 28.837812 603.079375 28.837812 
L 521.979375 28.837812 
Q 519.979375 28.837812 519.979375 30.837812 
L 519.979375 59.194062 
Q 519.979375 61.194062 521.979375 61.194062 
z
" style="fill: #ffffff; opacity: 0.8; stroke: #cccccc; stroke-linejoin: miter"/>
    </g>
    <g id="line2d_29">
     <path d="M 523.979375 36.93625 
L 533.979375 36.93625 
L 543.979375 36.93625 
" style="fill: none; stroke: #0000ff; stroke-width: 2; stroke-linecap: square"/>
    </g>
    <g id="text_17">
     <!-- Train Loss -->
     <g transform="translate(551.979375 40.43625) scale(0.1 -0.1)">
      <use xlink:href="#DejaVuSans-54"/>
      <use xlink:href="#DejaVuSans-72" x="46.333984"/>
      <use xlink:href="#DejaVuSans-61" x="87.447266"/>
      <use xlink:href="#DejaVuSans-69" x="148.726562"/>
      <use xlink:href="#DejaVuSans-6e" x="176.509766"/>
      <use xlink:href="#DejaVuSans-20" x="239.888672"/>
      <use xlink:href="#DejaVuSans-4c" x="271.675781"/>
      <use xlink:href="#DejaVuSans-6f" x="325.638672"/>
      <use xlink:href="#DejaVuSans-73" x="386.820312"/>
      <use xlink:href="#DejaVuSans-73" x="438.919922"/>
     </g>
    </g>
    <g id="line2d_30">
     <path d="M 523.979375 51.614375 
L 533.979375 51.614375 
L 543.979375 51.614375 
" style="fill: none; stroke: #ff0000; stroke-width: 2; stroke-linecap: square"/>
    </g>
    <g id="text_18">
     <!-- Val loss -->
     <g transform="translate(551.979375 55.114375) scale(0.1 -0.1)">
      <use xlink:href="#DejaVuSans-56"/>
      <use xlink:href="#DejaVuSans-61" x="60.658203"/>
      <use xlink:href="#DejaVuSans-6c" x="121.9375"/>
      <use xlink:href="#DejaVuSans-20" x="149.720703"/>
      <use xlink:href="#DejaVuSans-6c" x="181.507812"/>
      <use xlink:href="#DejaVuSans-6f" x="209.291016"/>
      <use xlink:href="#DejaVuSans-73" x="270.472656"/>
      <use xlink:href="#DejaVuSans-73" x="322.572266"/>
     </g>
    </g>
   </g>
  </g>
 </g>
 <defs>
  <clipPath id="p4ac4e63f64">
   <rect x="52.079375" y="23.837812" width="558" height="332.64"/>
  </clipPath>
 </defs>
</svg>
